<svg width="15" height="15" viewBox="0 0 15 15" fill="none" xmlns="http://www.w3.org/2000/svg">
<path d="M13.0114 8.36859H8.44179V12.8985C8.44179 13.6279 7.84534 14.2192 7.10959 14.2192C6.37384 14.2192 5.7774 13.6279 5.7774 12.8985V8.36859H1.20782C0.521529 8.29813 0 7.72482 0 7.04084C0 6.35686 0.521529 5.78355 1.20782 5.7131H5.76307V1.19735C5.83414 0.517007 6.41247 0 7.10243 0C7.79239 0 8.37072 0.517007 8.44179 1.19735V5.7131H13.0114C13.6977 5.78355 14.2192 6.35686 14.2192 7.04084C14.2192 7.72482 13.6977 8.29813 13.0114 8.36859Z" fill="#0075FA"/>
</svg>
