<svg width="15" height="16" viewBox="0 0 15 16" fill="none" xmlns="http://www.w3.org/2000/svg">
<path d="M13.0114 9.32953H8.44179V13.8595C8.44179 14.5888 7.84534 15.1801 7.10959 15.1801C6.37384 15.1801 5.7774 14.5888 5.7774 13.8595V9.32953H1.20782C0.521529 9.25907 0 8.68576 0 8.00178C0 7.3178 0.521529 6.74449 1.20782 6.67404H5.76307V2.15829C5.83414 1.47794 6.41247 0.960938 7.10243 0.960938C7.79239 0.960938 8.37072 1.47794 8.44179 2.15829V6.67404H13.0114C13.6977 6.74449 14.2192 7.3178 14.2192 8.00178C14.2192 8.68576 13.6977 9.25907 13.0114 9.32953Z" fill="#0075FA"/>
</svg>
