<svg width="117" height="52" viewBox="0 0 117 52" fill="none" xmlns="http://www.w3.org/2000/svg">
<rect x="0.76062" width="115.556" height="52" rx="26" fill="#F1F2F4"/>
<path d="M55.9926 31H57.5746L53.6966 21.2H51.7506L47.8726 31H49.4546L50.3926 28.62H55.0546L55.9926 31ZM50.9106 27.276L52.7306 22.642L54.5366 27.276H50.9106ZM62.5584 23.776C61.4384 23.776 60.6264 24.308 60.1364 25.008V23.958H58.6664V31H60.1364V27.5C60.1364 26.086 60.9344 25.148 62.1664 25.148C63.3144 25.148 63.9024 25.904 63.9024 27.136V31H65.3584V26.87C65.3584 24.966 64.3644 23.776 62.5584 23.776ZM72.8523 20.78V25.022C72.3203 24.266 71.4523 23.776 70.3183 23.776C68.3303 23.776 66.8183 25.358 66.8183 27.472C66.8183 29.6 68.3303 31.182 70.3183 31.182C71.4523 31.182 72.3203 30.692 72.8523 29.936V31H74.3083V20.78H72.8523ZM70.5563 29.866C69.2123 29.866 68.2603 28.858 68.2603 27.472C68.2603 26.086 69.2123 25.092 70.5563 25.092C71.8443 25.092 72.8803 26.1 72.8803 27.472C72.8803 28.858 71.8443 29.866 70.5563 29.866ZM77.7321 25.078V23.958H76.2621V31H77.7321V27.822C77.7321 25.778 78.6421 25.022 80.1401 25.246V23.874C78.9781 23.72 78.1521 24.224 77.7321 25.078ZM84.3239 31.182C86.4799 31.182 88.0619 29.586 88.0619 27.472C88.0619 25.372 86.4799 23.776 84.3239 23.776C82.1679 23.776 80.5859 25.372 80.5859 27.472C80.5859 29.586 82.1679 31.182 84.3239 31.182ZM84.3239 29.852C82.9799 29.852 82.0139 28.83 82.0139 27.486C82.0139 26.128 82.9799 25.106 84.3239 25.106C85.6679 25.106 86.6339 26.128 86.6339 27.486C86.6339 28.83 85.6679 29.852 84.3239 29.852ZM90.3485 22.81C90.8665 22.81 91.2725 22.418 91.2725 21.9C91.2725 21.41 90.8665 21.004 90.3485 21.004C89.8305 21.004 89.4245 21.41 89.4245 21.9C89.4245 22.418 89.8305 22.81 90.3485 22.81ZM89.6065 31H91.0625V23.958H89.6065V31ZM98.6648 20.78V25.022C98.1328 24.266 97.2648 23.776 96.1308 23.776C94.1428 23.776 92.6308 25.358 92.6308 27.472C92.6308 29.6 94.1428 31.182 96.1308 31.182C97.2648 31.182 98.1328 30.692 98.6648 29.936V31H100.121V20.78H98.6648ZM96.3688 29.866C95.0248 29.866 94.0728 28.858 94.0728 27.472C94.0728 26.086 95.0248 25.092 96.3688 25.092C97.6568 25.092 98.6928 26.1 98.6928 27.472C98.6928 28.858 97.6568 29.866 96.3688 29.866Z" fill="#374B58"/>
<path d="M30.736 17.0188L31.6958 15.2872C31.7081 15.265 31.716 15.2406 31.7188 15.2153C31.7217 15.1901 31.7196 15.1645 31.7126 15.1401C31.7056 15.1157 31.6939 15.0929 31.678 15.073C31.6622 15.0531 31.6427 15.0366 31.6204 15.0243C31.5756 14.9994 31.5227 14.9934 31.4734 15.0075C31.424 15.0216 31.3824 15.0548 31.3575 15.0996L30.3871 16.8504C29.559 16.4874 28.6648 16.3 27.7607 16.3C26.8566 16.3 25.9623 16.4874 25.1343 16.8504L24.1638 15.0996C24.1389 15.0548 24.0973 15.0216 24.048 15.0075C23.9986 14.9934 23.9457 14.9994 23.9009 15.0243C23.856 15.0491 23.8229 15.0908 23.8087 15.1401C23.7946 15.1894 23.8006 15.2423 23.8255 15.2872L24.7853 17.0188C23.8717 17.4692 23.0997 18.1625 22.5541 19.0227C22.0084 19.8828 21.7102 20.8767 21.6922 21.8952H33.8292C33.8111 20.8767 33.5129 19.8828 32.9673 19.0226C32.4217 18.1625 31.6497 17.4692 30.736 17.0188ZM24.9598 19.6744C24.8595 19.6744 24.7616 19.6447 24.6782 19.589C24.5949 19.5333 24.5299 19.4541 24.4915 19.3615C24.4532 19.2689 24.4432 19.167 24.4627 19.0687C24.4823 18.9704 24.5305 18.8801 24.6014 18.8092C24.6723 18.7384 24.7626 18.6901 24.8609 18.6705C24.9592 18.651 25.0611 18.661 25.1537 18.6994C25.2463 18.7377 25.3255 18.8027 25.3812 18.886C25.4368 18.9694 25.4666 19.0674 25.4666 19.1676C25.4664 19.302 25.413 19.4308 25.318 19.5258C25.223 19.6208 25.0941 19.6742 24.9598 19.6744ZM30.5616 19.6744C30.4613 19.6744 30.3633 19.6447 30.28 19.589C30.1966 19.5333 30.1317 19.4541 30.0933 19.3615C30.055 19.2689 30.0449 19.167 30.0645 19.0687C30.084 18.9704 30.1323 18.8801 30.2032 18.8092C30.2741 18.7384 30.3644 18.6901 30.4627 18.6705C30.561 18.651 30.6629 18.661 30.7555 18.6994C30.8481 18.7377 30.9273 18.8027 30.9829 18.886C31.0386 18.9694 31.0683 19.0674 31.0683 19.1676C31.0682 19.302 31.0148 19.4308 30.9197 19.5258C30.8247 19.6208 30.6959 19.6742 30.5616 19.6744ZM21.6921 31.1714C21.6921 31.5605 21.8467 31.9337 22.1218 32.2088C22.3969 32.4839 22.7701 32.6385 23.1592 32.6385H24.1328V35.6395C24.1323 35.8184 24.1672 35.9957 24.2353 36.1612C24.3035 36.3267 24.4036 36.4771 24.53 36.6038C24.6564 36.7306 24.8065 36.8311 24.9718 36.8997C25.1371 36.9683 25.3143 37.0036 25.4933 37.0036C25.6722 37.0036 25.8495 36.9683 26.0148 36.8997C26.1801 36.8311 26.3302 36.7306 26.4566 36.6038C26.5829 36.4771 26.6831 36.3267 26.7512 36.1612C26.8194 35.9957 26.8542 35.8184 26.8537 35.6395V32.6385H28.6676V35.6395C28.6671 35.8184 28.7019 35.9957 28.7701 36.1612C28.8382 36.3267 28.9384 36.4771 29.0648 36.6038C29.1911 36.7306 29.3413 36.8311 29.5066 36.8997C29.6719 36.9683 29.8491 37.0036 30.028 37.0036C30.207 37.0036 30.3842 36.9683 30.5495 36.8997C30.7148 36.8311 30.865 36.7306 30.9913 36.6038C31.1177 36.4771 31.2179 36.3267 31.286 36.1612C31.3542 35.9957 31.389 35.8184 31.3885 35.6395V32.6385H32.3621C32.7512 32.6385 33.1244 32.4839 33.3996 32.2088C33.6747 31.9337 33.8293 31.5605 33.8293 31.1714V22.3753H21.6921V31.1714ZM19.8248 22.1418C19.4641 22.1423 19.1183 22.2857 18.8633 22.5408C18.6082 22.7958 18.4648 23.1416 18.4644 23.5023V29.1708C18.4639 29.3497 18.4987 29.527 18.5669 29.6925C18.635 29.858 18.7351 30.0084 18.8615 30.1351C18.9879 30.2619 19.138 30.3624 19.3033 30.431C19.4686 30.4996 19.6458 30.5349 19.8248 30.5349C20.0038 30.5349 20.181 30.4996 20.3463 30.431C20.5116 30.3624 20.6617 30.2619 20.7881 30.1351C20.9145 30.0084 21.0146 29.858 21.0828 29.6925C21.1509 29.527 21.1858 29.3497 21.1853 29.1708V23.5023C21.1849 23.1416 21.0414 22.7958 20.7864 22.5408C20.5313 22.2857 20.1855 22.1422 19.8248 22.1418ZM35.6965 22.1418C35.3358 22.1422 34.99 22.2857 34.735 22.5408C34.4799 22.7958 34.3365 23.1416 34.3361 23.5023V29.1708C34.3356 29.3497 34.3704 29.527 34.4385 29.6925C34.5067 29.858 34.6068 30.0084 34.7332 30.1351C34.8596 30.2619 35.0097 30.3624 35.175 30.431C35.3403 30.4996 35.5175 30.5349 35.6965 30.5349C35.8755 30.5349 36.0527 30.4996 36.218 30.431C36.3833 30.3624 36.5334 30.2619 36.6598 30.1351C36.7862 30.0084 36.8863 29.858 36.9545 29.6925C37.0226 29.527 37.0574 29.3497 37.057 29.1708V23.5023C37.0566 23.1416 36.9131 22.7958 36.658 22.5408C36.403 22.2857 36.0572 22.1423 35.6965 22.1418Z" fill="#374B58"/>
</svg>
