<svg width="82" height="21" viewBox="0 0 82 21" fill="none" xmlns="http://www.w3.org/2000/svg">
<path d="M12.6678 9.84131C12.6678 7.52585 14.5491 6.36812 14.6939 6.29576C13.6085 4.70388 11.8719 4.48681 11.293 4.48681C9.84587 4.34209 8.47106 5.3551 7.74748 5.3551C7.0239 5.3551 5.86617 4.48681 4.70844 4.55916C3.18892 4.55916 1.74176 5.49982 0.94582 6.87462C-0.718417 9.69659 0.511671 13.8934 2.10355 16.2088C2.89949 17.3665 3.84014 18.5966 4.99787 18.5243C6.1556 18.4519 6.58975 17.8007 8.03691 17.8007C9.41172 17.8007 9.84587 18.5243 11.076 18.5243C12.306 18.5243 13.102 17.3665 13.8979 16.2812C14.8386 14.9787 15.2004 13.7486 15.2004 13.6763C15.128 13.5316 12.7402 12.5909 12.6678 9.84131Z" fill="#1D1E2C"/>
<path d="M10.3507 2.96668C11.0019 2.17074 11.4361 1.08537 11.2914 0C10.3507 0.0723581 9.26533 0.651223 8.54174 1.3748C7.96288 2.02603 7.45637 3.18376 7.60109 4.19677C8.68646 4.34149 9.69947 3.76262 10.3507 2.96668Z" fill="#1D1E2C"/>
<path d="M32.2814 18.1523H30.6453L29.7917 15.3781H26.7329L25.8793 18.1523H24.3143L27.3731 8.69141H29.2226L32.2814 18.1523ZM29.5783 14.2399L28.7958 11.7502C28.7247 11.4657 28.5824 10.8966 28.2979 9.97183C28.2267 10.3986 28.0845 10.9677 27.8711 11.7502L27.0175 14.2399H29.5783Z" fill="#575A65"/>
<path d="M40.1755 14.6653C40.1755 15.8035 39.891 16.7282 39.2508 17.4396C38.6817 18.0086 37.9704 18.3643 37.1879 18.3643C36.2631 18.3643 35.6229 18.0086 35.2672 17.3684V20.9963H33.7734V13.5983C33.7734 12.8869 33.7734 12.1044 33.7023 11.322H35.0538L35.125 12.389C35.6229 11.6065 36.4054 11.1797 37.4013 11.1797C38.1838 11.1797 38.8951 11.4642 39.3931 12.1044C39.891 12.7447 40.1755 13.5983 40.1755 14.6653ZM38.6106 14.7364C38.6106 14.0962 38.4683 13.5271 38.1838 13.1003C37.8281 12.6735 37.4013 12.4601 36.8322 12.4601C36.4765 12.4601 36.1209 12.6024 35.8363 12.8158C35.5518 13.1003 35.3384 13.3849 35.2672 13.8117C35.1961 14.0251 35.1961 14.1673 35.1961 14.2385V15.3766C35.1961 15.8746 35.3384 16.3014 35.6229 16.6571C35.9075 17.0127 36.3343 17.155 36.8322 17.155C37.4013 17.155 37.8281 16.9416 38.1838 16.5148C38.4683 16.0169 38.6106 15.4478 38.6106 14.7364Z" fill="#575A65"/>
<path d="M48.0015 14.6653C48.0015 15.8035 47.7169 16.7282 47.0767 17.4396C46.5076 18.0086 45.7963 18.3643 45.0138 18.3643C44.0891 18.3643 43.4488 18.0086 43.0932 17.3684V20.9963H41.5993V13.5983C41.5993 12.8869 41.5993 12.1044 41.5282 11.322H42.8798L42.9509 12.389C43.4488 11.6065 44.2313 11.1797 45.2272 11.1797C46.0097 11.1797 46.721 11.4642 47.219 12.1044C47.7169 12.7447 48.0015 13.5983 48.0015 14.6653ZM46.4365 14.7364C46.4365 14.0962 46.2942 13.5271 46.0097 13.1003C45.654 12.6735 45.2272 12.4601 44.6581 12.4601C44.3025 12.4601 43.9468 12.6024 43.6622 12.8158C43.3777 13.1003 43.1643 13.3849 43.0932 13.8117C43.022 14.0251 43.022 14.1673 43.022 14.2385V15.3766C43.022 15.8746 43.1643 16.3014 43.4488 16.6571C43.7334 17.0127 44.1602 17.155 44.6581 17.155C45.2272 17.155 45.654 16.9416 46.0097 16.5148C46.2942 16.0169 46.4365 15.4478 46.4365 14.7364Z" fill="#575A65"/>
<path d="M56.7489 15.5203C56.7489 16.3028 56.4644 17.0142 55.8953 17.5121C55.2551 18.0812 54.4015 18.3657 53.3345 18.3657C52.3386 18.3657 51.485 18.1523 50.9159 17.7967L51.2716 16.5162C51.9118 16.943 52.6943 17.1565 53.4767 17.1565C54.0458 17.1565 54.4726 17.0142 54.8283 16.8008C55.1128 16.5162 55.3263 16.2317 55.3263 15.7338C55.3263 15.3781 55.184 15.0224 54.8994 14.7379C54.6149 14.4533 54.1881 14.2399 53.619 14.0265C51.9829 13.3863 51.1293 12.5327 51.1293 11.3234C51.1293 10.5409 51.4138 9.9007 51.9829 9.40275C52.552 8.90481 53.3345 8.69141 54.3304 8.69141C55.184 8.69141 55.8953 8.83367 56.4644 9.11821L56.0376 10.2564C55.4685 9.97183 54.8994 9.82956 54.2592 9.82956C53.6901 9.82956 53.3345 9.97183 52.9788 10.2564C52.6943 10.4698 52.6231 10.7543 52.6231 11.11C52.6231 11.4657 52.7654 11.8213 53.0499 12.0347C53.3345 12.2481 53.7613 12.5327 54.4015 12.7461C55.184 13.1018 55.8242 13.4574 56.1799 13.8842C56.6067 14.3111 56.7489 14.8801 56.7489 15.5203Z" fill="#575A65"/>
<path d="M61.8013 12.4626H60.1652V15.8059C60.1652 16.6595 60.4497 17.0863 61.0188 17.0863C61.3033 17.0863 61.5167 17.0863 61.659 17.0152L61.7301 18.1534C61.4456 18.2956 61.0188 18.2956 60.5208 18.2956C59.9518 18.2956 59.4538 18.0822 59.0981 17.7266C58.7425 17.3709 58.6002 16.7307 58.6002 15.8771V12.4626H57.6043V11.3244H58.6002V10.044L60.094 9.61719V11.3244H61.7301C61.8013 11.3244 61.8013 12.4626 61.8013 12.4626Z" fill="#575A65"/>
<path d="M69.3424 14.6653C69.3424 15.7323 69.0579 16.5859 68.4177 17.2261C67.7774 17.9375 66.9238 18.2932 65.9279 18.2932C64.932 18.2932 64.1496 17.9375 63.5093 17.2973C62.8691 16.6571 62.5846 15.8035 62.5846 14.8076C62.5846 13.7405 62.8691 12.8869 63.5093 12.1756C64.1496 11.5354 64.932 11.1797 65.9991 11.1797C66.995 11.1797 67.7774 11.5354 68.4177 12.1756C69.0579 12.8158 69.3424 13.6694 69.3424 14.6653ZM67.7774 14.7364C67.7774 14.0962 67.6352 13.5983 67.3506 13.1003C67.0661 12.5312 66.5681 12.3178 65.9991 12.3178C65.3589 12.3178 64.932 12.6024 64.5764 13.1003C64.2918 13.5271 64.1496 14.0962 64.1496 14.7364C64.1496 15.3766 64.2918 15.8746 64.5764 16.3725C64.932 16.9416 65.3589 17.155 65.9279 17.155C66.497 17.155 66.995 16.8705 67.2795 16.3014C67.6352 15.8746 67.7774 15.3766 67.7774 14.7364Z" fill="#575A65"/>
<path d="M74.2515 12.6735C74.1093 12.6735 73.967 12.6024 73.7536 12.6024C73.1845 12.6024 72.8288 12.8158 72.5443 13.2426C72.2598 13.5983 72.1886 14.0251 72.1886 14.5942V18.1509H70.6948V13.456C70.6948 12.6735 70.6948 11.9622 70.6237 11.322H71.9752L72.0464 12.6024H72.1175C72.2598 12.1756 72.5443 11.8199 72.9 11.5354C73.2556 11.322 73.6113 11.1797 73.967 11.1797C74.1093 11.1797 74.2515 11.1797 74.3227 11.1797C74.2515 11.2508 74.2515 12.6735 74.2515 12.6735Z" fill="#575A65"/>
<path d="M81.0783 14.4542C81.0783 14.7387 81.0783 14.9521 81.0072 15.1655H76.4545C76.4545 15.8057 76.6679 16.3748 77.0947 16.7305C77.4504 17.015 77.9484 17.2284 78.5886 17.2284C79.2288 17.2284 79.869 17.0861 80.4381 16.8727L80.6515 17.9398C80.0113 18.2243 79.2288 18.3666 78.3752 18.3666C77.3081 18.3666 76.4545 18.082 75.8854 17.4418C75.3164 16.8016 74.9607 16.0191 74.9607 14.9521C74.9607 13.9562 75.2452 13.0315 75.8143 12.3912C76.3834 11.6799 77.1659 11.3242 78.2329 11.3242C79.2288 11.3242 79.9401 11.6799 80.4381 12.3912C80.8649 12.8181 81.0783 13.6005 81.0783 14.4542ZM79.5845 14.0273C79.5845 13.6005 79.5133 13.1737 79.2999 12.8892C79.0154 12.4624 78.6597 12.249 78.0906 12.249C77.5927 12.249 77.1659 12.4624 76.8813 12.8892C76.5968 13.2449 76.4545 13.6005 76.4545 14.0985L79.5845 14.0273Z" fill="#575A65"/>
<path d="M28.1582 2.86143C28.1582 3.71505 27.8736 4.35526 27.3757 4.78207C26.8778 5.13774 26.2375 5.35115 25.3839 5.35115C24.9571 5.35115 24.6014 5.35115 24.3169 5.28001V0.727385C24.7437 0.65625 25.1705 0.65625 25.5973 0.65625C26.3798 0.65625 27.02 0.79852 27.4468 1.15419C27.9448 1.581 28.1582 2.15008 28.1582 2.86143ZM27.3757 2.86143C27.3757 2.29235 27.2334 1.93668 26.9489 1.581C26.6643 1.29646 26.2375 1.15419 25.6685 1.15419C25.4551 1.15419 25.2416 1.15419 25.0994 1.22533V4.71094C25.1705 4.71094 25.3839 4.71094 25.5973 4.71094C26.1664 4.71094 26.5932 4.56867 26.9489 4.21299C27.3046 3.85732 27.3757 3.50164 27.3757 2.86143Z" fill="#575A65"/>
<path d="M32.3547 3.57052C32.3547 4.06846 32.2125 4.49527 31.9279 4.85094C31.6434 5.20662 31.2166 5.34889 30.7186 5.34889C30.2207 5.34889 29.865 5.20662 29.5093 4.85094C29.2248 4.49527 29.0825 4.1396 29.0825 3.64165C29.0825 3.14371 29.2248 2.7169 29.5093 2.36122C29.7939 2.00555 30.2207 1.86328 30.7186 1.86328C31.2166 1.86328 31.5722 2.00555 31.9279 2.36122C32.2125 2.7169 32.3547 3.07257 32.3547 3.57052ZM31.5722 3.64165C31.5722 3.35711 31.5011 3.07257 31.3588 2.85917C31.2166 2.57463 31.0032 2.43236 30.7186 2.43236C30.4341 2.43236 30.2207 2.57463 30.0073 2.85917C29.865 3.07257 29.7939 3.35711 29.7939 3.64165C29.7939 3.92619 29.865 4.21073 30.0073 4.42413C30.1495 4.70867 30.3629 4.85094 30.7186 4.85094C31.0032 4.85094 31.2166 4.70867 31.3588 4.42413C31.5011 4.21073 31.5722 3.92619 31.5722 3.64165Z" fill="#575A65"/>
<path d="M37.9752 1.93359L36.9082 5.27693H36.1968L35.77 3.85423C35.6277 3.49856 35.5566 3.14289 35.4855 2.78721C35.4143 3.14289 35.3432 3.49856 35.2009 3.85423L34.7741 5.27693H34.0628L33.0669 1.93359H33.8494L34.2051 3.49856C34.2762 3.85423 34.3473 4.20991 34.4185 4.56558C34.4896 4.28104 34.5607 3.92537 34.703 3.49856L35.2009 1.93359H35.8412L36.268 3.49856C36.4102 3.85423 36.4814 4.28104 36.5525 4.63672C36.6236 4.28104 36.6948 3.92537 36.7659 3.49856L37.1927 1.93359H37.9752Z" fill="#575A65"/>
<path d="M41.8166 5.27857H41.1053V3.35793C41.1053 2.78886 40.8919 2.50432 40.4651 2.50432C40.2517 2.50432 40.0383 2.57545 39.896 2.71772C39.7537 2.85999 39.6826 3.0734 39.6826 3.2868V5.27857H38.9713V2.85999C38.9713 2.57545 38.9713 2.21978 38.9713 1.93524H39.5403V2.43318C39.6115 2.29091 39.7537 2.14864 39.896 2.00637C40.1094 1.8641 40.3228 1.79297 40.5362 1.79297C40.8208 1.79297 41.1053 1.8641 41.3187 2.07751C41.6032 2.29091 41.6744 2.71772 41.6744 3.21567V5.27857H41.8166Z" fill="#575A65"/>
<path d="M43.8788 5.27857H43.1675V0.441406H43.8788V5.27857Z" fill="#575A65"/>
<path d="M48.2907 3.57052C48.2907 4.06846 48.1484 4.49527 47.8639 4.85094C47.5793 5.20662 47.1525 5.34889 46.6546 5.34889C46.1567 5.34889 45.801 5.20662 45.4453 4.85094C45.1608 4.49527 45.0185 4.1396 45.0185 3.64165C45.0185 3.14371 45.1608 2.7169 45.4453 2.36122C45.7298 2.00555 46.1567 1.86328 46.6546 1.86328C47.1525 1.86328 47.5082 2.00555 47.8639 2.36122C48.1484 2.7169 48.2907 3.07257 48.2907 3.57052ZM47.5082 3.64165C47.5082 3.35711 47.4371 3.07257 47.2948 2.85917C47.1525 2.57463 46.9391 2.43236 46.6546 2.43236C46.3701 2.43236 46.1567 2.57463 45.9432 2.85917C45.801 3.07257 45.7298 3.35711 45.7298 3.64165C45.7298 3.92619 45.801 4.21073 45.9432 4.42413C46.0855 4.70867 46.2989 4.85094 46.6546 4.85094C46.9391 4.85094 47.1525 4.70867 47.2948 4.42413C47.4371 4.21073 47.5082 3.92619 47.5082 3.64165Z" fill="#575A65"/>
<path d="M51.8468 5.27775H51.2066L51.1355 4.92208C50.9221 5.20662 50.5664 5.34889 50.1396 5.34889C49.8551 5.34889 49.5705 5.27775 49.3571 5.06435C49.2148 4.85094 49.0726 4.63754 49.0726 4.353C49.0726 3.92619 49.2148 3.64165 49.5705 3.42825C49.9262 3.21484 50.4241 3.07257 50.9932 3.14371V3.07257C50.9932 2.64576 50.7798 2.43236 50.2819 2.43236C49.9262 2.43236 49.6416 2.50349 49.4282 2.64576L49.3571 2.14782C49.6417 1.93442 50.0685 1.86328 50.4953 1.86328C51.3489 1.86328 51.7757 2.29009 51.7757 3.21484V4.42413C51.8468 4.85094 51.8468 5.13548 51.8468 5.27775ZM51.0643 4.1396V3.64165C50.2107 3.64165 49.8551 3.85506 49.8551 4.28186C49.8551 4.42413 49.9262 4.5664 49.9973 4.70867C50.0685 4.77981 50.2107 4.85094 50.353 4.85094C50.4953 4.85094 50.6375 4.77981 50.7798 4.70867C50.9221 4.63754 50.9932 4.49527 51.0643 4.28186C51.0643 4.21073 51.0643 4.21073 51.0643 4.1396Z" fill="#575A65"/>
<path d="M56.1144 5.27857H55.4742V4.7095C55.2608 5.13631 54.9051 5.34971 54.4072 5.34971C53.9804 5.34971 53.6958 5.20744 53.4113 4.85177C53.1268 4.49609 52.9845 4.14042 52.9845 3.64247C52.9845 3.0734 53.1268 2.64659 53.4113 2.29091C53.6958 2.00637 54.0515 1.79297 54.4783 1.79297C54.9051 1.79297 55.2608 1.93524 55.4031 2.21978V0.441406H56.1144V4.42496C56.0433 4.7095 56.1144 4.99404 56.1144 5.27857ZM55.3319 3.85588V3.2868C55.3319 3.21566 55.3319 3.14453 55.3319 3.0734C55.2608 2.85999 55.1897 2.71772 55.0474 2.64659C54.9051 2.50432 54.7629 2.43318 54.5495 2.43318C54.2649 2.43318 54.0515 2.57545 53.9092 2.78886C53.767 3.00226 53.6958 3.2868 53.6958 3.64247C53.6958 3.99815 53.767 4.21155 53.9092 4.42496C54.0515 4.63836 54.2649 4.78063 54.5495 4.78063C54.7629 4.78063 54.9763 4.7095 55.1185 4.49609C55.2608 4.35382 55.3319 4.14042 55.3319 3.85588Z" fill="#575A65"/>
<path d="M62.444 3.57052C62.444 4.06846 62.3017 4.49527 62.0172 4.85094C61.7327 5.20662 61.3059 5.34889 60.8079 5.34889C60.31 5.34889 59.9543 5.20662 59.5986 4.85094C59.3141 4.49527 59.1718 4.1396 59.1718 3.64165C59.1718 3.14371 59.3141 2.7169 59.5986 2.36122C59.8832 2.00555 60.31 1.86328 60.8079 1.86328C61.3059 1.86328 61.6615 2.00555 62.0172 2.36122C62.3017 2.7169 62.444 3.07257 62.444 3.57052ZM61.7327 3.64165C61.7327 3.35711 61.6615 3.07257 61.5193 2.85917C61.377 2.57463 61.1636 2.43236 60.8791 2.43236C60.5945 2.43236 60.3811 2.57463 60.1677 2.85917C60.0254 3.07257 59.9543 3.35711 59.9543 3.64165C59.9543 3.92619 60.0254 4.21073 60.1677 4.42413C60.31 4.70867 60.5234 4.85094 60.8791 4.85094C61.1636 4.85094 61.377 4.70867 61.5193 4.42413C61.6615 4.21073 61.7327 3.92619 61.7327 3.64165Z" fill="#575A65"/>
<path d="M66.4992 5.27857H65.7879V3.35793C65.7879 2.78886 65.5745 2.50432 65.0765 2.50432C64.8631 2.50432 64.6497 2.57545 64.5075 2.71772C64.3652 2.85999 64.2941 3.0734 64.2941 3.2868V5.27857H63.5827V2.85999C63.5827 2.57545 63.5827 2.21978 63.5827 1.93524H64.2229V2.43318C64.294 2.29091 64.4363 2.14864 64.5786 2.00637C64.792 1.8641 65.0054 1.79297 65.2899 1.79297C65.5745 1.79297 65.859 1.8641 66.0724 2.07751C66.357 2.29091 66.4281 2.71772 66.4281 3.21567V5.27857H66.4992Z" fill="#575A65"/>
<path d="M71.4762 2.50391H70.6226V4.14001C70.6226 4.56682 70.7648 4.78022 71.0494 4.78022C71.1916 4.78022 71.2628 4.78022 71.405 4.78022V5.3493C71.2628 5.42043 71.0494 5.42043 70.836 5.42043C70.5514 5.42043 70.338 5.3493 70.1246 5.13589C69.9823 4.92249 69.9112 4.63795 69.9112 4.21114V2.50391H69.4133V1.93483H69.9112V1.36575L70.6226 1.15234V2.00596H71.4762V2.50391Z" fill="#575A65"/>
<path d="M75.4624 5.27857H74.751V3.35793C74.751 2.78886 74.5376 2.43318 74.1108 2.43318C73.7551 2.43318 73.5417 2.57545 73.3995 2.93113C73.3995 3.00226 73.3995 3.07339 73.3995 3.21566V5.20744H72.6881V0.441406H73.3995V2.43318C73.6129 2.07751 73.9685 1.8641 74.3953 1.8641C74.6799 1.8641 74.9644 1.93524 75.1778 2.14864C75.4624 2.43318 75.5335 2.78886 75.5335 3.2868C75.4624 3.2868 75.4624 5.27857 75.4624 5.27857Z" fill="#575A65"/>
<path d="M79.5171 3.49856C79.5171 3.64083 79.5171 3.71196 79.5171 3.85423H77.2408C77.2408 4.20991 77.3831 4.42331 77.5965 4.63672C77.8099 4.77899 78.0233 4.85012 78.3078 4.85012C78.6635 4.85012 78.948 4.77899 79.2326 4.70785L79.3748 5.2058C79.0903 5.34806 78.6635 5.4192 78.2367 5.4192C77.7387 5.4192 77.3119 5.27693 77.0274 4.99239C76.7429 4.70785 76.6006 4.28104 76.6006 3.7831C76.6006 3.28516 76.7429 2.85835 77.0274 2.50267C77.3119 2.147 77.7387 1.93359 78.1656 1.93359C78.6635 1.93359 79.0192 2.147 79.2326 2.50267C79.446 2.71608 79.5171 3.07175 79.5171 3.49856ZM78.8058 3.28516C78.8058 3.07175 78.7346 2.85835 78.6635 2.71608C78.5212 2.50267 78.3078 2.43154 78.0944 2.43154C77.881 2.43154 77.6676 2.50267 77.5253 2.71608C77.3831 2.85835 77.3119 3.07175 77.3119 3.28516C77.2408 3.28516 78.8058 3.28516 78.8058 3.28516Z" fill="#575A65"/>
</svg>
