<svg width="1440" height="602" viewBox="0 0 1440 602" fill="none" xmlns="http://www.w3.org/2000/svg">
<rect width="1440" height="602" fill="#0075FA"/>
<g opacity="0.2">
<mask id="mask0" mask-type="alpha" maskUnits="userSpaceOnUse" x="0" y="0" width="1440" height="602">
<rect width="1440" height="602" fill="#0075FA"/>
</mask>
<g mask="url(#mask0)">
<g opacity="0.2">
<path d="M0 305.379C0.467757 305.002 1.01538 304.683 1.38046 304.227C10.2564 293.377 21.1518 285.106 33.6329 278.854C44.4141 273.457 54.6364 267.228 63.809 259.311C77.6021 247.4 88.1324 233.025 96.0956 216.767C103.363 201.936 104.139 186.705 97.5674 171.383C96.1869 168.178 94.5098 164.938 92.3079 162.268C83.0441 151.099 72.434 141.447 59.4622 134.659C54.5907 132.115 52.6741 128.099 54.4196 123.775C56.1081 119.622 60.7857 117.546 65.6115 119.348C69.0684 120.637 72.4454 122.383 75.5485 124.391C85.8734 131.076 95.2856 138.983 103.089 148.44C121.537 170.836 124.891 195.775 113.425 222.323C105.998 239.528 95.1145 254.553 81.424 267.388C71.122 277.051 60.1125 286.053 47.5858 292.544C26.9018 303.268 12.9147 320.039 1.84821 339.856C1.30059 340.837 0.616071 341.727 0 342.663C0 330.261 0 317.814 0 305.379Z" fill="white"/>
<path d="M0 70.2885C0.855654 69.5698 1.76835 68.908 2.54414 68.1208C16.0521 54.2364 29.5258 40.3178 43.0451 26.4448C44.2658 25.2012 45.6235 23.9805 47.1294 23.1591C49.742 21.7444 52.4002 22.041 54.6135 24.0946C56.8268 26.1481 57.2718 28.7379 56.1081 31.4874C55.5947 32.7082 54.8303 33.8719 53.9632 34.8758C36.2455 55.4229 18.4821 75.9586 0.730158 96.4829C0.53621 96.7111 0.250992 96.8594 0 97.042C0 88.1203 0 79.2101 0 70.2885Z" fill="white"/>
<path d="M685.458 609.367C696.913 596.908 708.584 585.522 722.423 576.384C721.909 575.665 721.635 575.129 721.225 574.718C712.064 565.283 708.253 553.738 707.956 540.846C707.934 539.614 708.071 538.347 708.39 537.161C709.097 534.56 710.729 532.768 713.49 532.335C716.33 531.879 718.761 532.86 720.13 535.335C721.156 537.195 721.818 539.34 722.229 541.451C723.917 550.064 726.21 558.37 731.892 565.409C733.752 567.713 735.098 568.215 737.631 566.242C745.879 559.807 754.413 553.738 762.638 547.28C770.545 541.074 780.322 542.911 784.84 551.912C786.22 554.673 787.213 557.674 788.046 560.651C791.674 573.623 795.142 586.64 798.736 599.635C799.979 604.13 801.417 608.568 802.74 613.04C807.292 628.476 817.206 639.839 830.041 648.989C830.452 649.286 830.92 649.503 831.673 649.925C832.209 648.852 832.711 647.871 833.179 646.879C838.826 634.763 843.88 622.327 850.246 610.599C857.548 597.159 865.819 584.21 874.067 571.307C878.517 564.336 888.374 564.918 892.607 572.459C895.356 577.365 897.398 582.841 898.779 588.306C901.049 597.228 902.623 606.343 904.323 615.402C907.21 630.804 912.207 645.452 919.702 659.234C924.163 667.426 928.624 675.617 933.165 683.763C941.116 698.035 951.327 710.573 963.649 721.206C969.798 726.511 976.712 731.086 983.785 735.114C994.407 741.16 1005.46 746.42 1016.33 752.01C1016.88 752.295 1017.45 752.558 1018.03 752.774C1022.31 754.315 1022.78 755.284 1020.91 759.505C1019 763.795 1015.5 766.396 1010.92 766.168C1005.7 765.917 1000.24 765.484 995.399 763.715C985.302 760.019 975.331 755.798 965.679 751.04C947.243 741.925 933.039 727.664 920.752 711.555C908.921 696.039 898.79 679.371 889.891 661.984C881.654 645.875 878.095 628.431 875.722 610.69C875.494 608.945 875.208 607.21 874.923 605.476C874.9 605.328 874.649 605.214 874.284 604.883C873.748 605.773 873.177 606.594 872.744 607.473C864.29 624.951 856.874 642.817 852.79 661.904C850.451 672.845 840.72 678.618 830.395 674.431C806.699 664.802 787.27 650.13 778.177 625.191C772.724 610.222 768.628 594.763 763.928 579.521C763.597 578.438 763.312 577.342 762.878 575.814C761.794 576.487 760.95 576.966 760.14 577.514C755.223 580.799 750.488 584.37 745.388 587.325C724.761 599.27 708.128 615.539 693.696 634.272C692.304 636.074 690.935 637.911 689.36 639.554C683.04 646.171 673.593 645.932 668.459 638.368C665.813 634.477 664.09 629.64 663.097 624.985C656.058 592.06 657.039 559.282 665.824 526.79C667.741 519.694 669.874 512.632 672.407 505.73C679.606 486.095 691.505 469.769 706.656 455.303C736.752 426.576 773.043 409.007 811.456 394.848C825.352 389.726 839.282 384.603 852.836 378.682C860.069 375.522 866.766 370.959 873.337 366.498C880.103 361.9 884.301 355.306 885.784 347.126C886.115 345.289 886.606 343.486 887.13 341.695C887.883 339.105 889.344 337.132 892.31 337.189C895.231 337.246 896.885 339.174 897.455 341.786C898.904 348.449 899.167 355.135 897.204 361.775C894.637 370.4 889.549 377.496 882.784 383.132C877.159 387.809 871.204 392.396 864.689 395.624C850.782 402.526 836.635 409.018 822.215 414.757C801.633 422.948 782.102 433.182 762.878 444.043C757.242 447.226 752.108 451.436 747.134 455.634C739.844 461.772 732.873 468.286 725.823 474.709C712.189 487.122 702.56 502.182 696.639 519.58C690.033 538.986 685.071 558.792 684.146 579.339C683.736 588.511 684.591 597.741 684.899 606.948C684.934 607.507 685.162 608.078 685.458 609.367Z" fill="white"/>
<path d="M1198.94 547.269C1193.22 546.927 1187.61 546.996 1182.15 546.151C1173.03 544.759 1164.63 541.143 1156.88 536.169C1146.41 529.426 1141.67 518.941 1138.93 507.373C1136.23 495.941 1136.89 484.499 1139.89 473.215C1145.3 452.896 1155.92 435.829 1172.02 422.218C1184.75 411.46 1198.82 402.721 1213.44 394.837C1214.61 394.21 1215.76 393.537 1216.77 392.966C1214.21 388.836 1211.77 384.912 1209.27 380.907C1204.53 381.934 1199.56 383.292 1194.49 384.068C1185.01 385.528 1175.89 384.273 1167.41 379.515C1154.33 372.168 1149.62 359.653 1154.85 345.643C1159.69 332.637 1168.98 323.099 1179.72 314.874C1183.54 311.942 1187.78 312.318 1190.58 314.999C1193.2 317.52 1193.51 321.411 1190.98 325.586C1188.4 329.83 1185.3 333.766 1182.75 338.033C1180.02 342.642 1177.33 347.343 1175.24 352.26C1173.51 356.299 1174.45 358.786 1178.41 360.805C1181.75 362.505 1185.53 363.988 1189.21 364.262C1194.74 364.673 1200.36 363.92 1205.94 363.68C1207.73 363.6 1208.2 362.516 1208.63 360.919C1209.86 356.436 1211.23 351.986 1212.87 347.639C1213.55 345.871 1214.85 344.194 1216.23 342.871C1218.76 340.441 1221.92 339.927 1225.18 341.194C1228.37 342.426 1230.16 344.947 1230.44 348.29C1230.6 350.218 1230.31 352.203 1230.02 354.142C1229.27 359.162 1228.13 364.125 1227.66 369.168C1227.16 374.61 1228.61 379.55 1233.66 382.562C1234.71 383.189 1236.59 383.497 1237.57 382.984C1245.99 378.546 1254.53 374.256 1262.55 369.179C1270.92 363.874 1274.25 355.306 1275.42 345.962C1270.63 344.913 1265.92 344.274 1261.47 342.836C1236.63 334.839 1225.24 313.892 1231.85 288.497C1237.28 267.607 1252.19 257.18 1272.24 253.244C1288.65 250.026 1303.58 254.464 1316.62 264.63C1335.74 279.518 1345.24 299.632 1347.36 323.476C1348.17 332.603 1347.87 341.684 1345.85 350.686C1340.98 372.362 1328.21 387.593 1308.17 396.788C1289.68 405.276 1270.16 407.204 1250.1 405.276C1247.32 405.014 1244.45 404.877 1241.81 404.078C1238.07 402.96 1235.07 403.919 1231.88 405.813C1215.38 415.601 1199.02 425.584 1184.32 438.042C1173.48 447.226 1164.7 457.973 1159.11 471.128C1154.78 481.35 1152.67 491.914 1155.11 502.981C1157.44 513.534 1162.75 522.216 1171.95 528.148C1180.86 533.887 1190.23 538.679 1201.4 541.223C1202.09 537.23 1202.76 533.431 1203.4 529.62C1203.75 527.578 1203.83 525.467 1204.41 523.505C1205.9 518.417 1210.39 515.507 1215.27 516.26C1219.96 516.979 1223.36 521.029 1223.53 526.129C1223.54 526.54 1223.59 526.973 1223.51 527.373C1220.56 544.155 1215.67 560.047 1202.87 572.3C1195.95 578.917 1187.8 583.469 1178.44 585.192C1163.16 588.01 1147.81 590.406 1132.44 592.71C1118.9 594.741 1105.39 596.772 1092.31 601.016C1080.68 604.781 1072.85 612.493 1069.34 624.027C1067.94 628.648 1068.06 633.793 1067.92 638.71C1067.83 642.224 1067.08 643.593 1063.48 643.764C1058.39 644.004 1054.77 641.323 1052.11 637.341C1047.78 630.861 1045.62 623.696 1046.45 615.836C1048.26 598.688 1056.98 586.196 1072.26 578.415C1085.27 571.787 1099.28 568.25 1113.74 567.246C1132.03 565.98 1150.39 565.569 1168.7 564.611C1173.12 564.382 1177.61 563.835 1181.91 562.762C1190.39 560.663 1195.79 555.016 1198.94 547.269ZM1264.1 388.061C1279.07 388.448 1293.35 386.326 1306.04 377.987C1314.66 372.317 1320.58 364.593 1323.7 354.701C1326.64 345.335 1327.1 335.809 1326.08 326.123C1324.29 308.987 1318.15 294.041 1304.67 282.69C1292.87 272.764 1278 271.566 1264.79 279.427C1258.54 283.146 1254.54 288.485 1253.33 295.627C1250.43 312.82 1259.51 325.29 1275.81 333.025C1275.81 331.816 1275.83 330.709 1275.81 329.614C1275.78 326.51 1275.54 323.384 1275.76 320.304C1275.96 317.201 1277.49 314.794 1280.69 313.835C1283.54 312.98 1286.73 314.007 1288.51 316.87C1289.79 318.935 1291.06 321.331 1291.28 323.681C1291.98 330.869 1292.9 338.147 1292.41 345.301C1291.27 362.106 1283.85 375.591 1269.25 384.672C1267.51 385.756 1265.82 386.931 1264.1 388.061Z" fill="white"/>
<path d="M990.47 191.295C991.816 197.627 993.345 203.012 994.041 208.488C995.741 221.996 993.664 235.367 991.839 248.716C987.64 279.496 979.506 309.387 971.383 339.289C966.762 356.323 963.135 373.618 963.705 391.382C963.933 398.455 964.994 405.665 966.842 412.488C969.946 423.908 977.521 431.312 989.215 434.45C999.916 437.325 1010.63 438.009 1021.54 436.058C1041.24 432.544 1059.38 425.311 1075.54 413.423C1088.92 403.6 1098.62 391.028 1102.31 374.634C1103.42 369.716 1103.31 364.275 1102.54 359.255C1100.74 347.549 1093.92 339.837 1082.34 336.494C1069.73 332.855 1057.17 332.786 1044.7 336.951C1033.07 340.83 1023.04 347.412 1014.56 356.174C1008.5 362.461 1003.53 369.853 1005.89 379.003C1009.35 392.351 1015.63 404.102 1028.84 410.64C1029.98 411.199 1030.74 412.499 1031.69 413.458C1030.59 414.119 1029.58 415.078 1028.38 415.386C1016.69 418.455 1006.42 415.637 997.669 407.434C991.645 401.786 986.728 395.238 983.077 387.822C977.327 376.117 976.962 364.183 982.86 352.501C985.359 347.561 988.314 342.495 992.238 338.708C1016.81 315.046 1045.71 305.645 1079.49 313.471C1080.1 313.608 1080.69 313.814 1081.28 313.996C1102.71 320.134 1115.34 334.19 1119.66 356.037C1122.35 369.671 1120.56 382.654 1114.88 395.158C1110.3 405.243 1104.25 414.45 1096.19 422.083C1072.52 444.523 1044.36 456.64 1011.69 457.803C1002.93 458.111 994.349 456.446 985.998 453.787C963.465 446.588 951.635 430.274 947.311 407.833C944.036 390.8 946.227 373.904 950.186 357.292C955.205 336.232 961.104 315.388 966.146 294.339C971.908 270.324 976.289 246.046 976.277 221.232C976.277 215.596 975.102 209.926 974.098 204.347C973.277 199.761 970.162 197.239 965.542 196.566C962.872 196.178 960.191 195.848 957.578 195.22C952.524 194.011 948.976 191.033 948.052 185.739C947.139 180.48 949.216 176.145 953.688 173.566C957.122 171.593 961.024 169.984 964.914 169.277C990.071 164.713 1014.87 166.014 1039.06 174.753C1050.46 178.871 1060.27 185.523 1068.95 193.897C1081.19 205.716 1085.53 220.764 1086.5 237.158C1086.51 237.261 1086.51 237.364 1086.5 237.467C1086.18 239.794 1086.42 242.966 1083.66 243.353C1082.15 243.57 1079.93 241.539 1078.65 239.999C1076.22 237.056 1074.13 233.804 1072.09 230.564C1058.13 208.443 1037.44 196.977 1012.18 193.018C1005.12 191.946 997.828 191.866 990.47 191.295Z" fill="white"/>
<path d="M517.215 421.944C518.013 393.433 522.543 367.193 533.529 342.391C544.368 317.907 561.869 299.79 586.626 289.021C600.772 282.871 615.067 277.646 630.96 278.582C662.106 280.418 684.501 310.127 677.53 340.656C675.522 349.453 670.674 356.617 664.501 362.915C651.13 376.548 637.2 389.543 621.57 400.621C611.337 407.877 601.366 415.475 591.2 422.822C589.192 424.271 588.805 425.537 590.196 427.637C594.771 434.539 599.107 441.612 603.784 448.446C607.024 453.181 611.337 456.672 617.144 457.961C618.045 458.155 618.946 458.509 619.745 458.976C621.262 459.866 623.647 460.631 623.989 461.897C624.982 465.605 625.769 469.678 621.73 472.484C621.217 472.838 620.783 473.294 620.247 473.614C602.221 484.224 587.515 498.964 571.885 512.552C568.988 515.062 566.158 517.674 563.078 519.933C557.111 524.303 553.072 523.709 548.349 518.096C547.95 517.629 547.516 517.149 547.014 516.807C541.869 513.396 538.595 508.433 536.45 502.889C528.544 482.478 521.06 461.92 518.584 439.981C517.831 433.489 517.58 426.952 517.215 421.944ZM598.993 462.855C598.468 462.365 598.205 462.057 597.897 461.829C586.591 453.706 578.594 442.799 572.342 430.614C566.934 420.073 565.679 408.698 567.744 397.027C568.303 393.855 569.855 391.174 572.753 389.509C575.491 387.923 578.617 388.288 581.127 390.399C584.367 393.114 584.72 394.665 583.317 398.613C583.02 399.446 583.271 400.484 583.271 400.963C592.113 395.498 600.613 389.737 609.568 384.82C625.86 375.887 640.418 364.638 654.405 352.567C656.903 350.411 659.139 347.912 661.227 345.357C664.387 341.478 666.053 336.971 666.281 331.917C667.365 308.769 646.749 290.686 623.464 296.003C592.581 303.042 568.531 320.098 555.08 349.601C540.911 380.655 535.4 413.387 540.523 447.225C543.056 463.962 547.95 480.345 551.795 496.888C551.875 497.23 552.183 497.526 552.513 498.051C564.31 481.429 580.613 471.104 598.993 462.855Z" fill="white"/>
<path d="M1348.19 524.106C1348.49 523.547 1348.7 523.193 1348.89 522.828C1350.34 519.862 1352.67 518.105 1356.02 518.242C1359.61 518.39 1362.28 520.455 1363.14 523.787C1364.25 528.167 1364.75 532.72 1365.33 537.226C1365.75 540.512 1365.83 543.832 1366.1 547.14C1366.62 553.347 1369.49 558.298 1374.76 561.492C1378.8 563.934 1383.25 565.668 1387.43 567.893C1388.06 568.235 1388.7 569.661 1388.49 570.311C1387.18 574.327 1383.84 575.947 1380.02 576.689C1367.95 579.028 1354.45 571.327 1349.69 559.405C1346.45 551.304 1346.09 542.839 1346.9 534.305C1347.13 531.841 1346.46 530.906 1344.13 530.21C1335.09 527.506 1328.51 521.779 1324.62 513.199C1320.42 503.924 1322.07 494.557 1329.44 487.507C1338.79 478.551 1349.95 475.801 1362.46 479.19C1365.64 480.045 1368.74 481.38 1371.68 482.875C1397.31 495.824 1412.81 525.726 1409.44 554.145C1406.31 580.727 1394.32 602.484 1374.99 620.532C1367.75 627.298 1359.39 632.169 1349.72 634.577C1337.97 637.497 1327.46 632.808 1321.7 622.118C1318.06 615.376 1316.9 608.006 1316.77 600.499C1316.62 592.319 1316.9 584.127 1316.95 575.936C1316.99 572.239 1316.95 568.532 1316.95 564.721C1316 564.721 1315.64 564.607 1315.44 564.732C1304.32 571.737 1293.69 579.279 1286.82 590.904C1283.74 596.118 1280.82 601.491 1281.59 607.8C1281.85 610.002 1282.88 612.387 1284.26 614.132C1286.96 617.566 1287.82 620.532 1286.17 623.795C1284.58 626.967 1280.94 628.929 1277.07 628.53C1271.94 628.005 1268.2 625.13 1265.49 620.977C1260.69 613.653 1259.94 605.473 1261.14 597.053C1261.56 594.098 1262.4 591.178 1263.29 588.314C1263.79 586.706 1263.45 585.884 1262.26 584.629C1258.82 580.967 1254.97 577.362 1252.65 573.015C1248.97 566.101 1245.81 558.788 1243.47 551.327C1236.56 529.251 1230.73 506.902 1228.34 483.788C1228.29 483.183 1228.09 482.578 1227.89 481.586C1226.65 481.871 1225.51 482.19 1224.35 482.407C1221.08 483.023 1218.12 481.837 1216.84 479.327C1215.36 476.418 1216.09 473.668 1218.37 471.706C1222.6 468.055 1226.89 464.404 1231.55 461.347C1236.69 457.97 1243.27 459.966 1245.97 465.785C1247.77 469.675 1248.97 473.976 1249.7 478.22C1254.9 508.408 1262.5 537.979 1272.04 567.071C1272.25 567.744 1272.53 568.406 1272.86 569.33C1273.38 568.908 1273.82 568.668 1274.11 568.315C1282.98 557.602 1294.41 550.688 1307.39 546.296C1322.53 541.185 1332.2 547.676 1332.93 563.649C1333.27 571.076 1332.3 578.548 1332.3 585.998C1332.3 593.95 1332.55 601.925 1333.11 609.854C1333.28 612.307 1334.52 614.862 1335.85 617.019C1338.65 621.582 1342.82 623.59 1348.28 622.643C1354.04 621.639 1359.33 619.392 1363.65 615.592C1386.25 595.73 1397.93 571.087 1395.83 540.592C1395.72 538.949 1395.53 537.249 1394.99 535.697C1389 518.561 1378.3 505.863 1360.74 499.737C1355.74 498.003 1350.96 498.448 1346.47 501.414C1337.98 507.004 1338.8 519.291 1348.19 524.106Z" fill="white"/>
<path d="M1411.82 239.176C1403.42 243.934 1395.57 248.28 1387.87 252.878C1387.05 253.369 1386.71 255.433 1386.87 256.677C1388.43 269.113 1390.26 281.525 1391.81 293.972C1396.2 329.339 1390.59 363.634 1379.95 397.233C1377.69 404.352 1374.12 411.265 1370.07 417.563C1359.98 433.284 1348.53 448.013 1334.59 460.642C1328.68 466.004 1323.22 471.857 1317.3 477.196C1311.92 482.045 1306.45 486.86 1300.53 491.001C1297.34 493.226 1293.27 494.709 1289.4 495.313C1282.26 496.431 1277.14 490.499 1279.4 483.631C1280.64 479.855 1283.04 476.101 1285.87 473.283C1295.32 463.837 1304.91 454.482 1314.99 445.72C1327.77 434.619 1338.57 421.853 1348.74 408.459C1353.99 401.545 1358.06 393.97 1360.51 385.63C1366.07 366.726 1371.21 347.707 1372.81 327.97C1374.19 311.051 1372.32 294.451 1367.55 278.16C1365.86 272.387 1364.1 266.637 1362.73 260.796C1359.69 247.881 1364.24 238.651 1376.72 234.099C1387.03 230.346 1397.67 227.539 1408.25 224.596C1410.67 223.923 1411.35 223.01 1411.33 220.648C1411.3 217.454 1411.44 214.191 1412.07 211.076C1413.43 204.402 1418.94 200.238 1425.23 200.74C1431.49 201.231 1436.08 206.296 1436.45 213.153C1436.52 214.499 1436.45 215.845 1436.42 217.191C1435.63 250.163 1436.14 283.1 1438.82 315.98C1439.26 321.353 1439.94 326.704 1440.36 332.066C1440.83 337.941 1439.15 341.364 1435.53 342.345C1431.89 343.326 1428.37 340.953 1425.88 335.728C1422.31 328.221 1421.05 320.11 1420.1 311.975C1417.45 289.123 1414.97 266.249 1412.42 243.386C1412.3 242.371 1412.13 241.367 1411.82 239.176Z" fill="white"/>
<path d="M1208.21 0.164062C1213.96 0.164062 1219.51 0.164062 1225.79 0.164062C1225.13 5.34362 1224.88 10.4091 1223.78 15.2692C1218.57 38.3491 1209.47 59.8545 1196.22 79.4547C1187.51 92.3238 1178.21 104.805 1169 117.309C1156.51 134.228 1145.54 151.991 1137.46 171.443C1135.36 176.486 1133.59 181.757 1132.44 187.096C1130.31 197.033 1134.26 202.749 1144.11 205.042C1151.2 206.685 1158.31 206.639 1165.41 205.259C1190.17 200.444 1208.41 186.583 1220.85 164.906C1222.45 162.111 1223.43 158.745 1223.86 155.528C1224.64 149.824 1221.4 145.728 1215.79 144.416C1211.18 143.332 1206.7 143.96 1202.38 145.694C1194.39 148.888 1188.44 154.478 1183.8 161.632C1182.65 163.412 1182.8 164.986 1184.25 166.378C1185.73 167.804 1187.35 169.093 1188.94 170.416C1190.1 171.386 1191.3 172.31 1192.71 173.44C1191.88 174.193 1191.46 174.866 1190.87 175.071C1183.58 177.604 1176.32 178.346 1170.1 172.675C1164.09 167.188 1163.35 160.035 1166.13 152.915C1172.99 135.415 1185.79 124.759 1204.52 121.952C1208.85 121.302 1213.49 121.484 1217.8 122.26C1237.08 125.751 1248.57 143.948 1244.37 163.856C1242.76 171.489 1239.3 178.288 1234.81 184.609C1218.87 207.141 1196.59 219.987 1170.28 226.479C1160.72 228.841 1151.05 228.955 1141.28 227.175C1115.27 222.429 1107.86 200.296 1111.93 183.137C1113.99 174.421 1117.07 165.842 1120.63 157.616C1128.88 138.598 1140.12 121.325 1152.84 104.976C1162.14 93.0425 1171.36 81.0291 1180.22 68.7761C1192.24 52.165 1200.83 33.8312 1206.19 14.0257C1206.78 11.8352 1207.12 9.56485 1207.45 7.31733C1207.8 5.05841 1207.94 2.78807 1208.21 0.164062Z" fill="white"/>
<path d="M852.197 216.871C847.622 217.487 843.458 218.092 839.282 218.605C827.348 220.065 815.438 221.605 803.481 222.849C800.561 223.157 797.423 222.86 794.594 222.073C788.182 220.293 785.113 214.281 787.098 207.904C787.68 206.044 788.616 204.276 789.574 202.564C803.721 177.362 817.959 152.206 832.015 126.947C835.837 120.091 841.495 116.406 849.116 115.63C860.867 114.432 872.664 113.622 884.381 112.196C908.556 109.264 932.685 106.012 956.837 102.943C959.085 102.658 961.39 102.51 963.66 102.601C968.543 102.806 972.262 106.024 972.855 110.336C973.483 114.865 970.825 119.098 965.816 120.262C959.37 121.756 952.799 122.749 946.25 123.776C916.873 128.362 887.484 132.925 858.084 137.375C854.456 137.922 852.402 139.645 850.542 142.817C840.777 159.428 830.703 175.856 820.766 192.365C818.872 195.514 817.069 198.731 814.856 202.553C820.035 202.085 824.428 201.697 828.82 201.298C837.285 200.534 845.739 199.689 854.205 199.039C856.144 198.891 856.84 198.149 857.251 196.347C858.38 191.293 859.669 186.273 860.981 181.264C861.369 179.77 861.86 178.264 862.579 176.906C864.598 173.073 868.466 171.236 872.436 172.046C876.554 172.89 879.589 176.176 879.657 180.614C879.703 183.683 879.304 186.832 878.619 189.832C873.097 214.281 867.462 238.707 861.883 263.145C860.548 268.997 859.304 274.861 857.912 281.25C859.361 281.148 860.434 281.136 861.495 280.999C877.205 278.9 892.971 277.132 908.271 272.705C910.301 272.123 912.594 272.101 914.716 272.317C918.071 272.66 920.489 274.588 921.527 277.873C922.6 281.285 921.744 284.479 918.995 286.555C916.656 288.312 913.849 289.807 911.031 290.491C896.85 293.96 882.589 297.108 868.351 300.394C862.499 301.74 856.703 303.429 850.782 304.399C847.724 304.901 844.268 304.798 841.336 303.885C836.304 302.322 833.623 298.215 833.6 292.99C833.589 289.419 834.205 285.757 835.095 282.277C840.366 261.81 845.796 241.388 851.17 220.955C851.489 219.769 851.763 218.582 852.197 216.871Z" fill="white"/>
<path d="M895.777 38.8136C893.028 41.4832 890.495 43.7422 888.202 46.2293C885.042 49.6519 882.064 53.257 878.995 56.7709C871.169 65.7382 861.62 72.4807 850.941 77.512C846.88 79.4287 842.362 80.7521 837.912 81.4138C826.367 83.1251 816.51 79.3716 809.128 70.3245C805.021 65.2932 801.724 59.5889 798.005 54.2382C795.894 51.2035 793.669 48.2486 791.045 44.6434C789.117 47.1077 787.281 48.8305 786.197 50.9411C783.55 56.0978 781.257 61.4257 778.804 66.6851C775.256 74.2833 772.096 82.0983 768.045 89.4227C753.853 115.104 729.975 116.758 711.413 108.863C689.131 99.3825 673.296 82.8741 663.142 60.9123C663.017 60.6271 662.925 60.3304 662.823 60.0338C661.054 55.0026 661.933 50.7015 665.173 48.4768C668.447 46.2293 672.862 46.7769 676.753 50.4961C681.316 54.8543 685.446 59.6687 689.964 64.0953C696.615 70.6211 703.267 77.1583 710.237 83.319C715.189 87.6886 721.156 90.4951 727.727 91.6588C736.546 93.2104 744.27 91.134 749.175 83.2962C752.324 78.2536 754.686 72.6519 756.842 67.0844C759.09 61.3002 760.493 55.1965 762.569 49.3438C765.193 41.9396 769.084 35.2313 774.799 29.7208C786.208 18.7571 799.488 19.1678 809.847 31.0557C813.235 34.9346 815.962 39.4068 818.871 43.6851C820.856 46.5943 822.511 49.7317 824.519 52.6182C829.139 59.258 833.235 60.3875 840.457 56.5998C848.317 52.4698 855.334 47.1762 860.958 40.2055C863.491 37.0566 865.807 33.7139 868.533 30.7476C873.234 25.6479 877.809 20.3543 883.102 15.9163C892.823 7.75904 904.129 8.70596 912.765 18.0269C915.492 20.9703 917.659 24.4386 919.918 27.7814C922.531 31.6375 924.87 35.6876 927.505 39.5323C930.141 43.3657 933.597 46.2635 937.933 48.1003C944.675 50.9411 950.859 50.0284 955.97 44.8488C959.586 41.1752 962.701 36.9882 965.93 32.9495C969.124 28.9336 972.478 27.633 976.095 29.2417C979.711 30.8503 981.662 34.7749 980.328 39.5209C972.992 65.6127 953.996 76.7134 931.122 69.8453C919.302 66.2972 909.993 59.5432 903.056 49.4009C900.752 45.9783 898.401 42.6127 895.777 38.8136Z" fill="white"/>
<path d="M462.554 57.7634C451.465 75.2758 435.185 84.4484 415.858 89.1716C413.942 89.6393 412.082 90.2896 410.165 90.7232C389.675 95.3095 374.353 107.505 361.998 123.808C355.415 132.491 351.947 142.393 353.133 153.46C353.384 155.821 354.388 158.263 355.643 160.294C356.989 162.473 356.522 163.591 354.605 164.834C347.052 169.751 336.67 166.363 332.814 157.624C330.487 152.376 330.533 146.911 331.765 141.458C334.925 127.448 341.268 115.206 352.152 105.566C355.096 102.953 358.073 100.364 360.96 97.6825C371.125 88.2475 382.979 81.9384 396.315 78.2648C403.4 76.3025 410.485 74.2946 417.513 72.1155C427.153 69.115 435.698 64.118 443.194 57.3641C446.947 53.9871 449.868 50.1195 451.248 45.0654C451.762 43.1488 453.598 41.5972 454.842 39.8859C455.515 38.9732 456.531 38.1632 456.839 37.1478C458.538 31.5005 464.437 29.4355 468.772 33.5312C471.088 35.7103 472.845 38.7678 474.077 41.7569C477.283 49.5263 478.139 57.8204 478.161 66.1374C478.253 96.3363 470.723 124.368 453.713 149.569C442.235 166.58 430.895 183.681 418.984 200.372C413.109 208.61 406.275 216.208 399.521 223.76C389.002 235.534 378.689 247.399 371.17 261.421C365.5 272.008 361.074 283.097 358.997 294.882C357.914 301.009 358.165 307.432 358.416 313.695C358.518 316.205 360.081 318.738 361.279 321.111C362.5 323.53 364.348 324.979 367.349 323.621C367.93 323.359 368.991 323.598 369.539 324.009C369.836 324.226 369.642 325.344 369.425 325.96C367.634 330.854 362.705 333.832 357.754 332.189C354.434 331.094 351.034 329.223 348.536 326.793C337.697 316.228 335.119 303.062 338.051 288.687C342.5 266.863 352.688 247.787 367.063 230.971C373.452 223.498 380.377 216.459 387.314 209.488C395.608 201.148 402.921 192.09 409.606 182.415C417.615 170.824 425.727 159.267 434.455 148.235C454.58 122.793 463.056 93.7123 462.771 61.6766C462.737 60.3874 462.623 59.0754 462.554 57.7634Z" fill="white"/>
<path d="M510.86 157.594C510.392 144.451 510.095 131.296 509.422 118.165C508.646 102.763 512.023 97.8004 526.33 92.1303C551.851 82.0107 577.247 71.5604 602.666 61.1784C608.655 58.7369 612.169 60.0489 614.782 65.9815C615.078 66.6546 615.751 67.3619 616.413 67.6358C622.414 70.0544 625.118 74.9259 625.791 80.8927C626.59 87.9889 626.521 95.1878 627.422 102.273C629.225 116.454 631.45 130.578 633.48 144.725C635.203 156.726 632.089 163.093 620.577 166.846C596.722 174.615 574.212 185.317 551.92 196.6C545.542 199.829 538.993 202.726 532.422 205.544C529.798 206.674 526.946 207.644 524.128 207.906C517.454 208.534 511.727 204.369 510.175 197.604C509.376 194.124 509.274 190.416 509.354 186.811C509.57 177.068 510.061 167.337 510.449 157.605C510.586 157.605 510.723 157.594 510.86 157.594ZM599.768 79.5465C598.855 79.8659 598.068 80.0484 597.36 80.3907C576.391 90.7841 555.433 101.2 534.453 111.571C532.878 112.347 532.399 113.305 532.707 115.005C533.186 117.652 533.711 120.333 533.745 123.014C534.031 141.028 534.179 159.031 534.384 177.045C534.396 178.278 534.384 179.498 534.384 181.13C535.651 180.753 536.632 180.548 537.556 180.171C545.234 177.057 553.06 174.262 560.522 170.702C575.045 163.777 589.933 157.902 605.198 152.825C616.071 149.208 615.01 151.342 612.158 140.161C607.092 120.219 600.703 100.584 599.768 79.5465Z" fill="white"/>
<path d="M497.227 649.1C490.963 647.435 484.551 646.168 478.459 644.001C467.861 640.236 458.186 634.566 449.002 628.108C419.978 607.687 395.986 582.462 377.241 552.332C370.692 541.813 365.342 530.712 363.608 518.231C363.322 516.189 363.22 514.101 363.3 512.036C363.722 500.262 371.411 492.162 383.208 492.219C388.981 492.253 394.97 493.531 400.469 495.379C411.547 499.099 421.495 505.065 430.6 512.47C433.064 514.477 436.167 515.687 438.654 517.649C465.807 539.052 489.423 563.706 507.825 593.118C512.845 601.138 517.169 609.535 518.983 618.936C519.531 621.765 519.873 624.697 519.77 627.572C519.337 640.373 510.666 648.313 497.443 648.245C497.386 648.541 497.306 648.827 497.227 649.1ZM500.353 624.891C499.577 621.891 499.257 618.673 497.945 615.935C493.872 607.459 490.073 598.742 485.008 590.882C468.545 565.383 446.367 545.19 422.454 527.027C414.331 520.855 404.291 517.181 394.993 512.641C392.449 511.397 389.46 510.918 386.608 510.484C382.329 509.846 381.223 510.952 382.044 515.253C382.637 518.379 383.413 521.642 384.919 524.392C389.243 532.287 393.396 540.364 398.655 547.62C417.092 573.13 439.59 594.647 465.339 612.672C471.842 617.225 478.927 621.024 486.012 624.663C489.343 626.374 493.256 627.013 496.976 627.892C499.12 628.417 500.341 627.344 500.353 624.891Z" fill="white"/>
<path d="M217.997 504.04C229.748 502.237 241.317 501.176 252.132 496.567C252.691 496.328 253.182 495.917 253.684 495.54C258.669 491.81 263.233 492.255 266.69 497.457C269.77 502.1 272.189 507.189 274.995 512.015C276.581 514.741 278.372 517.342 280.586 520.811C281.19 518.244 281.498 516.658 281.943 515.106C286.895 497.902 294.481 482.032 305.765 468.011C309.244 463.699 313.671 462.706 318.828 463.436C324.977 464.303 331.115 465.341 337.298 465.9C340.801 466.208 344.372 465.707 347.908 465.57C347.943 465.273 347.977 464.976 348.011 464.68C347.578 464.28 347.167 463.87 346.71 463.493C320.014 441.235 303.152 413.101 296.432 378.989C295.668 375.087 295.93 370.957 295.987 366.941C296.01 365.447 296.615 363.895 297.242 362.503C299.102 358.373 302.787 356.194 306.609 356.799C310.397 357.392 312.404 360.301 313.386 365.013C315.279 374.117 317.15 383.267 319.877 392.132C321.463 397.288 324.133 402.342 327.293 406.735C336.454 419.444 346.596 431.366 358.427 441.748C365.649 448.08 373.544 453.339 382.34 457.241C384.04 457.994 385.74 458.816 387.246 459.888C390.372 462.113 391.912 465.216 391.09 469.061C390.28 472.917 387.645 475.199 383.823 475.815C376.875 476.933 369.87 477.743 362.922 478.872C359.249 479.477 355.621 480.39 352.004 481.325C341.953 483.949 331.982 482.181 322.079 480.572C318.223 479.945 315.918 480.914 313.876 484.109C305.034 497.948 297.984 512.482 295.691 528.956C295.622 529.47 295.554 529.983 295.451 530.497C293.694 539.635 288.743 541.826 280.118 538.255C272.907 535.277 267.853 530.291 263.94 523.902C261.407 519.75 259.126 515.437 256.821 511.159C256.034 509.699 255.395 509.105 253.478 509.664C241.442 513.133 229.406 516.624 217.256 519.647C208.14 521.917 202.527 518.107 200.976 508.809C199.664 500.948 199.025 492.973 197.838 485.09C197.302 481.53 196.332 478.005 195.226 474.571C192.738 466.859 197.199 460.789 205.242 460.721C211.837 460.664 218.419 460.002 225.002 459.774C227.238 459.694 229.691 459.614 231.688 460.413C233.125 460.995 234.643 462.934 234.882 464.452C235.088 465.786 233.924 468.114 232.715 468.741C228.162 471.103 223.394 473.065 218.613 474.913C216.411 475.769 215.704 476.796 215.967 479.237C216.72 486.242 217.142 493.281 217.689 500.298C217.769 501.404 217.872 502.511 217.997 504.04Z" fill="white"/>
<path d="M206.042 175.29C204.08 171.582 202.414 168.262 200.589 165.034C197.474 159.535 194.04 154.207 191.142 148.594C187.583 141.703 186.02 134.39 188.187 126.643C191.336 115.383 201.079 107.226 213.857 106.484C220.805 106.085 227.855 107.294 234.86 107.853C237.747 108.081 240.61 108.72 243.497 108.789C247.878 108.891 248.87 107.853 248.517 103.427C248.026 97.3343 246.999 91.2762 246.691 85.184C246.486 81.0883 246.623 76.8328 247.535 72.874C250.639 59.3774 261.032 51.5967 274.836 52.6919C282.241 53.2738 289.565 54.9166 296.935 56.0917C303.039 57.0615 305.241 55.7266 305.241 49.4975C305.241 43.9757 304.031 38.4538 303.29 32.932C303.164 32.0193 302.685 31.1637 302.468 30.2624C301.681 26.931 302.64 23.9647 305.149 22.242C307.933 20.3482 311.036 20.2569 313.592 22.1964C315.748 23.8278 317.825 26.0297 318.977 28.4256C323.757 38.3968 324.966 48.8814 321.806 59.5714C318.703 70.056 310.671 75.7376 299.787 74.7906C292.486 74.1517 285.275 72.4176 277.997 71.3908C268.607 70.0788 265.903 72.4518 265.892 82.0466C265.881 86.496 266.371 90.9454 266.611 95.3948C266.782 98.7033 267.044 102.023 267.033 105.332C266.964 118.224 259.549 126.666 246.68 127.442C240.565 127.807 234.347 126.529 228.175 126.027C223.657 125.651 219.059 124.647 214.633 125.137C206.658 126.016 203.19 131.789 205.631 139.444C206.92 143.471 208.814 147.304 210.605 151.149C213.788 158.006 217.234 164.748 220.326 171.651C224.273 180.447 222.721 187.395 215.374 193.635C212.146 196.373 208.609 198.781 205.049 201.085C191.986 209.562 179.437 218.723 167.823 229.105C164.891 231.729 162.073 234.49 159.415 237.376C155.148 241.997 151.793 247.165 150.436 253.463C150.219 254.49 149.249 255.779 148.337 256.098C147.709 256.315 146.329 255.265 145.678 254.455C138.628 245.636 136.506 235.802 140.122 224.987C143.226 215.734 148.747 208.045 155.946 201.53C169.477 189.289 184.765 180.276 202.745 176.26C203.612 176.055 204.479 175.746 206.042 175.29Z" fill="white"/>
<path d="M66.0104 592.72C66.8889 592.412 67.2198 592.378 67.4594 592.207C83.7738 580.764 102.484 573.862 119.928 564.529C123.134 562.807 126.899 561.825 130.515 561.255C134.622 560.605 138.387 561.997 140.692 565.784C142.996 569.572 142.586 573.565 140.019 576.874C137.714 579.851 134.953 582.703 131.839 584.78C126.511 588.339 120.898 591.534 115.148 594.363C102.735 600.467 91.0184 607.643 79.9747 615.971C75.8448 619.086 71.5094 621.972 67.0258 624.528C64.379 626.034 61.3329 627.152 58.3324 627.654C50.6087 628.954 43.501 624.528 41.0824 617.078C40.2952 614.648 39.9415 612.012 39.816 609.457C38.1618 575.961 39.3597 542.579 42.9192 509.22C45.1667 488.114 46.1935 466.871 47.8135 445.696C48.0873 442.194 48.441 438.668 49.0685 435.211C49.4336 433.215 50.1181 431.161 51.1449 429.416C53.6776 425.115 57.5566 422.936 62.5992 423.575C67.6533 424.213 70.9846 427.26 72.1711 432.108C72.8899 435.075 73.0838 438.28 72.9127 441.349C71.8403 460.687 70.8021 480.036 69.376 499.363C67.1741 529.128 64.8011 558.871 65.7937 588.762C65.8393 589.982 65.9306 591.18 66.0104 592.72Z" fill="white"/>
<path d="M1446.49 619.05C1453.79 614.395 1460.6 610.037 1467.97 605.337C1467.97 612.946 1468.03 619.837 1467.89 626.728C1467.88 627.493 1466.81 628.371 1466.05 628.964C1461.35 632.695 1456.38 636.129 1451.92 640.133C1448.73 643.008 1446.03 646.511 1443.39 649.934C1439.24 655.296 1433.57 657.486 1427.88 655.592C1422.55 653.824 1419.01 648.964 1418.82 642.723C1418.69 638.171 1418.95 633.608 1418.94 629.056C1418.91 588.703 1422.54 548.578 1426.14 508.431C1428.5 482.031 1429.91 455.54 1431.76 429.095C1431.92 426.825 1431.97 424.509 1432.52 422.329C1433.83 417.298 1437.23 414.4 1442.38 413.704C1450.78 412.552 1459.18 411.468 1467.96 410.305C1467.96 413.693 1468.06 417.458 1467.87 421.223C1467.83 421.907 1466.73 422.82 1465.93 423.128C1462.36 424.52 1458.67 425.615 1455.15 427.087C1454.2 427.486 1453.09 428.844 1453.05 429.791C1451.91 456.385 1450.84 482.978 1449.89 509.572C1449.07 532.754 1448.42 555.948 1447.68 579.131C1447.3 590.928 1446.87 602.724 1446.48 614.532C1446.45 615.856 1446.49 617.156 1446.49 619.05Z" fill="white"/>
<path d="M1076.17 99.405C1075.47 100.42 1074.87 101.538 1074.03 102.428C1066.99 109.89 1059.92 117.317 1052.83 124.721C1045.65 132.216 1034.9 130.334 1031.44 120.283C1028.77 112.525 1026.89 104.265 1026.2 96.0965C1024.23 72.7428 1026.42 49.72 1034.41 27.4958C1037.76 18.152 1042.46 9.53846 1048.91 1.95166C1049.68 1.03896 1051.05 0.114854 1052.16 0.103445C1061.27 -0.0448684 1070.39 0.0235839 1080.52 0.0235839C1070.13 14.3758 1060.97 28.6595 1056.99 45.6014C1053.1 62.2011 1050.69 78.9035 1051.36 96.7924C1052.74 95.7086 1053.62 95.1039 1054.38 94.3852C1058.15 90.8256 1061.85 87.2091 1065.62 83.6495C1072.94 76.7244 1081.41 71.5791 1090.78 67.9397C1092.86 67.1297 1095.18 66.525 1097.39 66.525C1105.3 66.5593 1110.36 72.5489 1109.08 80.3296C1108.61 83.159 1107.76 86.034 1106.51 88.6123C1096.89 108.384 1093.72 129.627 1091.77 151.178C1091.37 155.604 1090.6 160.008 1089.94 164.412C1089.05 170.276 1083.28 172.638 1079 168.53C1076.71 166.34 1074.64 163.237 1073.95 160.214C1072.5 153.904 1071.51 147.379 1071.29 140.921C1071.06 134.019 1071.53 127.014 1072.44 120.157C1073.34 113.426 1075.19 106.832 1076.62 100.169C1076.47 99.9184 1076.32 99.6674 1076.17 99.405Z" fill="white"/>
<path d="M770.693 251.557C777.835 251.214 784.977 250.735 792.119 250.598C795.61 250.53 799.192 250.735 802.581 251.477C806.859 252.424 808.057 254.979 808.913 259.178C810.247 265.783 808.696 271.944 807.019 278.139C802.934 293.13 799.113 308.212 794.435 323.021C791.617 331.954 787.647 340.567 783.665 349.067C782.627 351.28 779.82 353.243 777.39 354.155C760.551 360.51 742.023 355.707 730.147 342.142C721.442 332.193 717.312 320.306 715.669 307.391C713.707 292.012 714.916 276.998 720.803 262.52C722.537 258.265 725.526 256.28 730.067 254.489C740.312 250.427 750.66 251.648 761.042 251.454C764.247 251.386 767.465 251.443 770.682 251.443C770.693 251.465 770.693 251.511 770.693 251.557ZM791.035 265.612C784.236 266.331 777.676 267.118 771.104 267.711C759.775 268.738 748.424 269.617 737.095 270.689C736.365 270.758 735.315 271.921 735.155 272.72C733.364 282.212 732.223 291.795 733.592 301.436C735.315 313.529 739.411 324.515 749.268 332.57C753.923 336.369 759.342 337.807 765.206 337.441C766.187 337.384 767.647 336.266 767.967 335.319C775.576 312.764 783.06 290.164 790.567 267.563C790.75 267.015 790.841 266.434 791.035 265.612Z" fill="white"/>
<path d="M72.1604 350.878C66.3305 354.027 60.7859 357.05 55.207 359.994C53.4729 360.906 51.6817 361.808 49.8107 362.332C46.3881 363.291 42.9313 361.956 40.9918 359.252C39.0865 356.582 39.0066 352.84 40.9804 349.897C41.836 348.631 42.9313 347.467 44.0949 346.474C45.7492 345.071 47.4833 343.725 49.3429 342.618C68.9774 330.856 88.646 319.139 108.292 307.411C117.715 301.786 127.116 296.128 136.551 290.515C138.057 289.613 139.586 288.678 141.217 288.073C145.815 286.373 150.573 287.776 153.185 291.404C155.809 295.055 155.798 300.098 152.58 303.783C150.436 306.247 147.72 308.267 145.108 310.263C142.655 312.134 139.985 313.708 137.122 315.602C138.126 316.39 138.901 317.017 139.689 317.622C155.946 329.966 158.228 350.718 145.016 366.28C132.843 380.632 110.528 386.222 93.141 379.023C81.2075 374.083 73.8489 365.401 72.5825 352.167C72.5825 351.882 72.4228 351.608 72.1604 350.878ZM109.798 366.257C120.145 366.36 130.037 361.055 134.635 352.954C139.962 343.576 136.711 333.959 126.637 330.217C123.1 328.905 119.221 328.471 115.468 327.787C114.635 327.639 113.574 327.912 112.81 328.334C104.801 332.658 96.8032 337.028 88.8628 341.466C88.201 341.842 87.4595 342.835 87.4709 343.531C87.5165 359.412 97.3052 365.698 109.798 366.257Z" fill="white"/>
<path d="M120.329 95.5749C121.07 87.5546 121.892 80.3785 122.337 73.1796C122.907 64.0868 123.227 54.9827 123.535 45.8785C123.774 38.6796 130.186 33.9792 136.746 37.1851C150.528 43.939 165.576 46.1295 180.088 50.2367C180.567 50.3736 181.08 50.4078 181.673 50.4991C183.305 33.6484 184.936 16.9346 186.556 0.152344C191.473 0.152344 195.683 0.152344 200.224 0.152344C200.064 1.46435 199.916 2.63945 199.79 3.82595C198.216 18.9653 196.539 34.1047 195.158 49.2669C194.862 52.4956 195.341 55.884 196.026 59.0784C196.744 62.5124 196.539 65.5015 193.915 67.9316C191.188 70.4529 187.982 70.5898 184.628 69.312C181.434 68.1027 178.331 66.5283 175.033 65.7753C165.644 63.6305 156.186 61.8165 146.751 59.8656C144.846 59.4663 142.952 59.0328 140.785 58.5536C140.328 64.4976 140.032 70.1791 139.427 75.815C138.309 86.2084 137.031 96.5903 135.776 106.972C135.628 108.193 135.286 109.414 134.909 110.589C132.068 119.316 124.299 121.678 117.134 115.905C109.228 109.539 101.219 103.276 93.5752 96.5903C81.3793 85.9117 66.8218 79.7853 52.0133 74.0238C50.8496 73.5789 49.6859 73.134 48.5679 72.5978C43.1944 70.008 42.7722 64.1097 47.7921 60.7783C51.5455 58.2912 55.8352 58.1543 60.1021 58.6905C69.8337 59.9113 78.9379 63.3339 86.9582 68.7188C95.3436 74.3547 103.033 81.0516 110.951 87.3721C113.985 89.8249 116.815 92.4946 120.329 95.5749Z" fill="white"/>
<path d="M194.051 289.524C194.017 281.995 196.401 277.477 201.433 274.659C204.114 273.153 207.068 272.012 210.023 271.145C225.277 266.65 240.005 260.923 254.095 253.518C258.031 251.453 262.116 249.617 266.257 248.019C268.425 247.187 270.877 246.707 273.193 246.753C277.563 246.844 280.986 249.742 282.138 253.701C283.256 257.523 281.955 261.664 278.624 264.243C277.244 265.304 275.669 266.159 274.095 266.912C257.107 275.081 240.131 283.272 223.075 291.304C220.519 292.502 220.006 293.746 220.451 296.495C224.82 323.591 228.962 350.709 233.263 377.816C234.004 382.517 235.442 387.103 236.104 391.815C236.583 395.238 236.994 398.911 236.241 402.197C234.723 408.825 227.935 411.004 222.288 407.125C218.648 404.627 216.732 400.953 215.876 396.812C214.359 389.51 213.298 382.129 211.769 374.827C207.285 353.436 202.608 332.09 198.101 310.71C196.515 303.112 195.181 295.457 194.051 289.524Z" fill="white"/>
<path d="M427.725 436.102C418.108 434.516 404.976 432.599 391.959 430.101C383.037 428.389 374.218 426.028 365.445 423.609C362.616 422.833 359.855 421.293 357.47 419.548C351.561 415.247 350.762 408.059 355.303 402.343C356.398 400.974 357.71 399.776 358.931 398.51C373.169 383.759 387.487 369.087 401.588 354.199C405.455 350.114 409.266 347.604 414.902 350.388C415.575 350.719 416.522 350.571 417.332 350.536C423.139 350.274 427.6 353.115 429.71 358.5C429.973 359.173 430.281 359.869 430.361 360.565C432.483 378.796 439.237 395.897 443.309 413.649C444.051 416.867 444.724 420.164 444.827 423.449C445.101 431.63 439.43 436.82 427.725 436.102ZM408.924 372.418C398.895 383.964 389.05 395.293 378.953 406.918C392.814 411.276 406.802 412.851 421.473 414.334C417.195 400.05 413.111 386.417 408.924 372.418Z" fill="white"/>
<path d="M1345.28 206.504C1331.96 204.781 1318.86 205.842 1305.78 208.911C1294.46 211.569 1287.58 203.412 1291.34 192.448C1295.21 181.176 1298.92 169.848 1303.05 158.678C1305.37 152.381 1308.28 146.289 1311.21 140.231C1314.83 132.758 1320.76 130.271 1330 131.788C1337.45 133.009 1344.31 136.237 1350.2 140.972C1364.2 152.232 1374.3 166.288 1379.39 183.641C1380.32 186.778 1380.83 190.178 1380.74 193.429C1380.52 201.301 1375.18 206.219 1367.33 206.344C1363.6 206.401 1359.87 206.47 1356.14 206.492C1352.53 206.515 1348.9 206.504 1345.28 206.504ZM1325.36 154.332C1321.35 165.809 1317.58 176.556 1313.82 187.326C1327.73 187.771 1341.08 188.204 1354.91 188.661C1347.71 174.879 1337.19 164.748 1325.36 154.332Z" fill="white"/>
<path d="M643.646 200.098C643.965 193.093 646.726 185.107 650.97 177.646C658.751 163.967 669.475 153.539 683.907 146.66C706.154 136.038 729.36 128.862 753.672 124.926C758.828 124.093 763.848 122.142 768.777 120.294C774.835 118.024 778.896 113.62 780.859 107.368C781.418 105.588 782.034 103.82 782.798 102.131C783.836 99.8268 785.434 98.0927 788.229 98.2524C791.126 98.4121 793.077 100.272 793.397 102.839C793.842 106.353 794.138 110.152 793.294 113.529C790.704 123.842 784.007 131.167 774.835 136.255C765.092 141.651 754.345 143.933 743.575 146.226C733.661 148.337 723.587 150.048 713.958 153.094C706.029 155.604 698.374 159.312 691.072 163.351C676.172 171.599 668.391 185.061 665.402 201.444C663.691 210.799 667.57 217.017 678.579 219.653C679.8 219.949 680.907 220.657 682.07 221.181C681.409 222.311 680.941 223.646 680.051 224.547C675.191 229.419 669.43 231.13 662.71 229.213C650.788 225.813 643.463 215.283 643.646 200.098Z" fill="white"/>
<path d="M1069.51 511.48C1080.58 511.663 1092.5 514.698 1103.41 521.303C1109.26 524.851 1114.96 528.628 1120.84 532.119C1126.52 535.496 1130.48 540.538 1134.4 545.627C1135.97 547.646 1134.98 549.335 1133.16 550.635C1129.12 553.487 1124.55 553.978 1120.08 552.461C1112.45 549.859 1105.03 546.654 1097.46 543.847C1092.14 541.873 1086.84 539.74 1081.35 538.337C1061.81 533.351 1031.53 548.342 1023.66 567.44C1020.66 574.719 1020.34 581.404 1025.21 587.942C1027.3 590.737 1026.7 591.843 1023.19 592.22C1014.53 593.144 1007.7 588.934 1004.51 580.515C1001.11 571.513 1001.57 562.42 1004.23 553.35C1006.36 546.06 1010.05 539.592 1015.38 534.195C1029.81 519.569 1047.21 511.709 1069.51 511.48Z" fill="white"/>
<path d="M830.167 527.36C830.669 510.6 831.069 493.829 831.719 477.07C832.164 465.627 836.088 461.269 847.36 459.432C861.769 457.093 876.213 454.971 890.633 452.724C892.47 452.438 894.284 451.971 896.087 451.491C905.488 449.004 915.174 455.234 913.656 466.882C912.025 479.477 911.546 492.232 910.77 504.93C910.576 508.102 911.192 511.33 911.386 514.525C911.74 520.571 909.447 524.519 903.582 525.911C896.863 527.508 889.915 528.135 883.104 529.413C871.102 531.661 859.134 534.079 847.143 536.429C844.907 536.863 842.694 537.468 840.435 537.673C833.635 538.312 829.334 534.159 830.167 527.36ZM893.908 465.045C888.557 466.357 883.298 467.669 878.038 468.935C869.082 471.092 860.138 473.294 851.148 475.313C848.843 475.838 848.011 476.75 847.953 479.215C847.623 492.46 847.075 505.694 846.607 518.94C846.584 519.716 846.607 520.491 846.607 521.119C862.933 518.769 878.962 516.464 894.764 514.182C894.478 505.831 894.079 497.674 893.942 489.517C893.794 481.382 893.908 473.248 893.908 465.045Z" fill="white"/>
<path d="M347.327 595.769C346.871 611.582 342.707 625.968 334.607 639.088C332.587 642.362 329.678 645.226 326.7 647.713C323.061 650.748 319.581 650.223 316.204 646.949C315.759 646.515 315.326 646.036 314.801 645.739C299.936 637.628 293.706 624.108 292.52 608.182C290.866 586.003 297.745 566.118 311.002 548.4C313.809 544.647 318.6 543.597 323.7 545.24C328.663 546.826 332.302 550.157 335.188 554.321C341.828 563.916 344.909 574.823 346.483 586.22C346.928 589.506 347.076 592.814 347.327 595.769ZM320.905 566.312C316.182 581.12 312.04 595.37 314.961 610.589C315.862 615.255 317.551 619.648 320.437 623.652C330.363 609.015 330.716 580.093 320.905 566.312Z" fill="white"/>
<path d="M469.16 233.837C466.798 230.243 464.665 227.095 462.634 223.877C461.094 221.424 459.451 218.994 458.253 216.382C455.812 211.031 457.512 205.407 462.098 202.794C466.707 200.17 472.423 201.562 475.674 206.525C481.002 214.671 486.456 222.771 491.179 231.27C498.115 243.763 504.493 256.575 510.984 269.307C512.194 271.68 513.061 274.281 513.688 276.882C514.395 279.746 513.905 282.518 511.201 284.332C508.634 286.055 505.907 285.724 503.626 284.001C500.831 281.902 497.784 279.769 495.868 276.962C490.38 268.942 485.372 260.591 480.226 252.342C478.652 249.809 477.249 247.163 475.674 244.402C470.346 247.436 465.247 250.186 460.341 253.266C459.474 253.814 459.04 255.685 459.063 256.928C459.394 273.083 459.976 289.238 460.181 305.393C460.261 311.793 459.759 318.239 459.12 324.616C458.858 327.206 457.934 329.921 456.622 332.18C454.043 336.596 448.67 337.371 445.338 333.515C443.239 331.085 441.882 327.663 441.174 324.457C440.387 320.874 440.672 317.041 440.57 313.322C440.148 298 439.703 282.678 439.372 267.345C439.258 261.971 439.28 256.575 439.588 251.213C439.897 245.805 443.171 242.759 448.259 241.139C455.15 238.925 461.927 236.381 469.16 233.837Z" fill="white"/>
<path d="M268.994 339.275C270.454 376.719 271.207 414.208 277.608 451.297C278.224 454.88 278.018 458.77 277.357 462.364C276.581 466.631 273.695 469.586 269.188 470.247C264.522 470.943 260.928 468.81 258.943 464.794C257.369 461.599 256.319 458.04 255.623 454.526C250.364 428.046 248.219 401.202 246.177 374.334C245.081 359.902 242.914 345.55 240.997 331.186C240.062 324.17 242.823 318.158 248.698 315.853C254.642 313.514 261.259 315.956 265.012 321.991C268.287 327.25 269.085 333.183 268.994 339.275Z" fill="white"/>
<path d="M86.8555 527.271C88.4185 518.943 90.1184 510.637 91.4988 502.275C92.6625 495.236 93.6665 488.162 94.3624 481.066C95.3093 471.471 101.459 467.558 110.814 469.988C123.42 473.262 133.939 479.891 143.466 488.436C147.322 491.893 151.372 495.156 154.954 498.886C156.894 500.906 158.571 503.53 159.392 506.177C161.126 511.801 157.533 517.38 151.817 518.783C136.483 522.525 122.405 529.131 108.954 537.243C107.095 538.361 105.303 539.616 103.364 540.608C95.7315 544.51 88.4413 540.528 87.5628 532.029C87.4031 530.489 87.3689 528.926 87.2776 527.385C87.1521 527.328 87.0038 527.294 86.8555 527.271Z" fill="white"/>
<path d="M591.919 586.491C589.66 586.218 587.378 586.081 585.142 585.659C565.998 582.031 556.632 564.279 566.249 547.371C575.217 531.593 588.166 519.864 607.674 518.473C610.743 518.256 613.915 518.415 616.938 518.952C635.261 522.203 644.171 538.198 637.44 555.528C630.686 572.915 610.561 586.56 591.919 586.491ZM611.702 540.434C604.834 540.514 599.3 543.298 593.562 545.751C589.295 547.576 587.082 550.668 585.473 554.558C582.895 560.787 585.279 564.632 592.022 564.655C602.369 564.678 610.937 560.616 617.36 552.448C619.346 549.915 621.251 546.914 619.494 543.617C617.805 540.446 614.371 540.56 611.702 540.434Z" fill="white"/>
<path d="M1273.89 0.175781C1279.37 0.175781 1284.61 0.175781 1289.88 0.175781C1290.19 5.25266 1290.25 10.2041 1290.83 15.0984C1291.9 24.1227 1295.64 31.4471 1304.4 35.5771C1314.38 40.2775 1323.81 38.646 1331.06 30.2378C1337.9 22.2859 1341.81 13.1019 1341.67 2.4233C1341.65 1.80723 1341.67 1.19116 1341.67 0.301277C1349.77 0.301277 1357.77 0.301277 1366.35 0.301277C1366.21 3.23332 1366.29 6.31368 1365.84 9.32558C1363.88 22.651 1358.28 34.2765 1348.65 43.7457C1327.11 64.9317 1298.52 57.0141 1283.97 41.3271C1277.34 34.1852 1274.81 25.1723 1273.97 15.7373C1273.51 10.6262 1273.89 5.45802 1273.89 0.175781Z" fill="white"/>
<path d="M192.26 564.497C192.112 558.119 194.633 554.332 200.372 552.757C208.05 550.647 215.876 549.072 223.6 547.121C229.521 545.627 235.374 543.893 241.272 542.295C247.547 540.595 249.874 542.079 252.795 547.772C255.841 553.704 257.472 559.876 258.317 566.402C258.545 568.193 259.526 569.904 260.165 571.639C262.002 576.579 259.845 581.176 254.905 582.819C240.576 587.611 226.258 592.391 211.929 597.171C210.651 597.593 209.373 598.038 208.061 598.324C201.444 599.738 196.344 596.658 195.306 589.95C193.96 581.268 193.184 572.483 192.26 564.497ZM210.617 581.359C220.337 578.085 229.612 574.959 238.933 571.81C237.633 567.509 236.423 563.493 235.157 559.294C234.564 559.294 233.799 559.135 233.149 559.317C225.3 561.587 217.451 563.892 209.647 566.299C209.156 566.448 208.609 567.6 208.689 568.205C209.213 572.414 209.898 576.59 210.617 581.359Z" fill="white"/>
<path d="M276.388 203.613C271.71 208.2 267.112 212.512 262.743 217.041C260.358 219.517 257.928 221.388 254.335 220.224C250.707 219.049 249.543 216.026 249.52 212.66C249.395 199.107 249.258 185.542 249.486 171.988C249.589 165.645 257.267 158.754 264.329 157.899C282.491 155.719 301.441 170.106 303.848 188.075C304.225 190.893 304.099 193.893 303.597 196.7C300.962 211.474 287.911 211.862 279.594 206.146C278.669 205.53 277.837 204.777 276.388 203.613ZM262.697 200.362C263.119 200.544 263.542 200.727 263.952 200.909C266.394 198.16 268.881 195.467 271.254 192.661C276.308 186.683 281.453 187.23 284.933 194.178C285.948 196.209 287.249 197.783 289.702 197.875C292.531 191.349 289.553 182.039 282.503 177.841C277.266 174.726 271.322 172.787 265.629 170.288C260.541 180.522 264.112 190.63 262.697 200.362Z" fill="white"/>
<path d="M55.8797 218.572C49.7875 218.948 43.6952 219.427 37.6029 219.69C28.225 220.089 24.3802 214.624 27.9854 205.965C34.3743 190.643 42.4631 176.211 51.4531 162.269C53.096 159.714 55.2636 158.79 58.5037 158.881C64.3336 159.041 69.1138 160.912 73.221 165.019C77.8757 169.651 80.6366 175.207 81.6634 181.607C82.9982 189.936 83.5116 198.207 80.9561 206.49C78.4119 214.727 72.6619 219.153 63.9571 219.005C61.2646 218.959 58.5836 218.994 55.8911 218.994C55.8797 218.857 55.8797 218.72 55.8797 218.572ZM39.9988 206.9C45.5206 206.638 50.027 206.444 54.5449 206.216C65.3946 205.657 65.3261 205.657 64.6644 194.556C64.2423 187.471 61.5613 181.425 56.473 175.458C50.9397 186.022 45.6347 196.142 39.9988 206.9Z" fill="white"/>
<path d="M1263.48 105.249C1263.57 114.535 1257.33 118.699 1249.7 115.083C1239.21 110.12 1228.2 107.028 1216.81 105.134C1216.6 105.1 1216.4 105.077 1216.19 105.032C1211.67 104.119 1207.41 102.761 1206.01 97.6503C1204.61 92.4936 1207.63 89.2649 1211.25 86.3215C1218.63 80.2977 1226.04 74.2853 1233.3 68.1246C1234.62 67.0179 1235.67 65.3066 1236.21 63.6638C1237.42 60.0814 1239.23 57.2292 1243.2 56.5561C1247.28 55.8488 1250.33 57.7654 1252.28 61.1538C1253.71 63.6295 1255.02 66.3334 1255.68 69.0943C1258.27 79.8641 1260.59 90.7024 1262.97 101.518C1263.31 103.024 1263.4 104.587 1263.48 105.249ZM1242.64 95.2317C1240.94 90.3488 1239.43 86.0477 1237.71 81.1077C1234.61 84.633 1231.86 87.759 1229.13 90.8621C1233.04 92.1285 1237.5 93.566 1242.64 95.2317Z" fill="white"/>
<path d="M540.282 0.0258177C535.501 8.04615 531.942 15.9524 531.12 24.7942C530.413 32.3924 531.862 33.6702 538.901 31.1146C545.016 28.8899 550.915 26.0605 556.847 23.3681C561.182 21.3944 565.312 18.9415 569.739 17.2188C572.237 16.2376 575.181 15.8497 577.873 16.0209C581.193 16.2262 583.589 18.4053 584.627 21.6568C585.7 25.0223 584.776 28.0114 582.323 30.4871C581.604 31.2173 580.783 31.936 579.87 32.381C568.507 37.88 557.144 43.4132 545.689 48.7297C543.1 49.9276 540.179 50.5665 537.338 51.0799C525.199 53.2475 514.977 46.7446 511.862 34.7654C508.759 22.7862 512.25 11.8224 517.555 1.23514C517.841 0.664706 518.81 0.0942701 519.472 0.0828613C526.283 -0.00840849 533.106 0.0258177 540.282 0.0258177Z" fill="white"/>
<path d="M1402.88 0.164062C1409.34 0.164062 1415.94 0.164062 1423.38 0.164062C1423.38 5.87984 1423.35 11.4587 1423.4 17.0376C1423.58 38.486 1423.76 59.9344 1423.99 81.3828C1424.01 84.0753 1424.26 86.7563 1424.38 89.4488C1424.62 95.1075 1420.9 99.4086 1415.68 99.5113C1410.6 99.6139 1406.83 95.6323 1406.55 90.1219C1405.36 66.6427 1404.04 43.1636 1402.93 19.673C1402.62 13.2841 1402.88 6.86099 1402.88 0.164062Z" fill="white"/>
<path d="M1467.98 354.698C1467.98 362.787 1468.03 370.647 1467.91 378.508C1467.9 379.25 1467.04 380.436 1466.33 380.653C1449.28 385.821 1432.25 391.001 1415.12 395.861C1412.48 396.602 1409.3 396.26 1406.57 395.598C1402.85 394.697 1400.65 391.834 1400.26 387.955C1399.86 384.041 1401.54 380.835 1405.03 379.261C1425.22 370.168 1445.05 360.117 1466.71 354.709C1467 354.641 1467.32 354.698 1467.98 354.698Z" fill="white"/>
<path d="M96.5059 39.1681C97.0193 26.1622 97.5327 13.2931 98.0461 0.21875C104.914 0.21875 111.497 0.21875 118.319 0.21875C118.354 0.743551 118.468 1.3254 118.433 1.88442C117.372 19.9787 116.311 38.0615 115.205 56.1557C115.114 57.5932 114.908 59.0421 114.566 60.4454C113.573 64.5069 111.132 67.3135 106.945 68.1349C102.689 68.9677 99.4836 67.1081 97.122 63.6627C93.1974 57.9469 89.5808 52.0486 84.0704 47.565C81.5605 45.5342 81.2525 42.18 82.7356 39.6473C84.3442 36.8978 86.9226 35.871 89.9003 36.5555C92.0451 37.0575 94.0645 38.1756 96.5059 39.1681Z" fill="white"/>
<path d="M1241.64 616.711C1240.09 628.405 1244.94 637.406 1253.91 644.308C1259.7 648.769 1265.9 652.728 1272.06 656.687C1273.94 657.896 1274.39 659.14 1272.49 660.007C1269.28 661.479 1265.8 663.19 1262.39 663.315C1245.43 663.931 1224.62 647.914 1220.57 631.531C1218.91 624.765 1218.55 617.863 1221.13 611.337C1222.4 608.12 1224.55 604.766 1227.24 602.678C1233.32 597.955 1241.12 601.914 1241.62 609.58C1241.78 611.942 1241.64 614.326 1241.64 616.711Z" fill="white"/>
<path d="M1131.88 0.0255863C1131.78 0.675884 1131.79 0.995328 1131.67 1.25773C1127.48 10.1109 1129.98 17.4581 1136.58 24.0524C1141.07 28.5246 1146.27 31.7304 1152.02 34.2746C1158.35 37.0697 1164.62 40.036 1170.82 43.1278C1172.62 44.029 1174.3 45.4209 1175.65 46.9383C1177.57 49.0945 1176.81 50.9541 1173.92 50.9998C1170.52 51.0454 1167.09 50.7716 1163.73 50.2354C1155.98 48.9918 1148.14 47.9651 1140.56 45.9913C1131.44 43.6069 1123.87 38.3133 1117.74 31.1144C1110.72 22.8773 1108.2 13.4194 1110.1 2.74086C1110.46 0.767153 1111.12 -0.0542748 1113.26 0.0027688C1119.37 0.116856 1125.47 0.0255863 1131.88 0.0255863Z" fill="white"/>
<path d="M1467.98 99.293C1467.98 106.994 1468.03 114.238 1467.91 121.483C1467.9 122.247 1467.06 123.331 1466.32 123.708C1452.37 130.576 1438.4 137.387 1424.39 144.118C1422.55 144.996 1420.49 145.578 1418.46 145.841C1414.52 146.365 1410.84 144.289 1409.15 140.969C1407.44 137.603 1407.93 133.496 1410.66 130.564C1411.99 129.15 1413.57 127.849 1415.27 126.936C1432.18 117.901 1449.13 108.968 1466.08 100.012C1466.51 99.7835 1467.01 99.658 1467.98 99.293Z" fill="white"/>
<path d="M1024.13 252.035C1024.17 266.467 1021.09 280.044 1012.42 291.852C1010.47 294.499 1007.77 296.838 1004.94 298.537C1002.05 300.272 999.404 298.994 998.868 295.674C998.388 292.73 998.662 289.524 999.267 286.558C1000.11 282.417 1001.57 278.401 1002.79 274.339C1007.33 259.177 1008.31 243.855 1004.98 228.317C1004.72 227.107 1004.55 225.864 1004.51 224.632C1004.45 222.122 1005.04 219.829 1007.46 218.574C1010.05 217.216 1012.81 217.604 1014.65 219.6C1016.84 221.985 1018.87 224.757 1020.11 227.712C1023.35 235.436 1024.16 243.696 1024.13 252.035Z" fill="white"/>
<path d="M496.747 345.011C496.815 351.708 496.016 358.257 493.233 364.429C490.985 369.426 487.928 373.852 483.102 376.693C478.778 379.249 474.214 379.796 469.97 376.625C465.806 373.522 465.019 369.015 466.32 364.326C467.278 360.869 468.795 357.515 470.461 354.321C475.355 344.943 477.899 335.074 477.523 324.453C477.34 319.421 479.143 316.603 482.725 315.657C486.353 314.698 490.118 316.649 492.08 321.11C495.412 328.697 496.621 336.763 496.747 345.011Z" fill="white"/>
<path d="M723.233 177.031C732.93 176.997 741.282 182.827 744.202 191.657C746.895 199.837 744.179 208.291 737.186 213.471C729.108 219.449 716.924 219.517 708.573 213.642C700.279 207.801 697.974 198.195 702.731 189.227C706.941 181.298 714.06 177.066 723.233 177.031ZM723.552 190.266C719.114 190.882 715.749 193.357 716.057 196.358C716.411 199.723 717.951 202.473 721.111 204.013C724.111 205.473 727.123 205.348 729.964 203.534C734.071 200.91 734.425 196.084 730.466 193.289C728.447 191.874 725.88 191.247 723.552 190.266Z" fill="white"/>
<path d="M1079.62 274.507C1079.54 280.668 1077.51 286.076 1073.16 290.502C1065.37 298.443 1052.72 297.872 1046.29 288.802C1041.15 281.546 1039.05 273.286 1041.88 264.399C1046.36 250.332 1062.64 246.624 1072.85 257.314C1077.18 261.832 1079.62 268.05 1079.62 274.507ZM1064.58 272.522C1064.24 271.301 1063.98 269.419 1063.18 267.81C1061.43 264.308 1058.28 263.965 1056.25 267.263C1055.02 269.259 1054.48 271.815 1054.12 274.188C1053.69 277.028 1056.63 280.611 1059.25 280.976C1061.46 281.284 1063.4 279.299 1064.13 275.91C1064.33 275.009 1064.38 274.074 1064.58 272.522Z" fill="white"/>
<path d="M688.015 409.374C689.076 408.951 690.251 408.609 691.29 408.039C698.192 404.251 705.049 400.395 711.939 396.584C714.929 394.93 717.849 393.105 720.987 391.781C723.017 390.926 725.402 390.424 727.581 390.538C731.768 390.755 733.764 395.09 731.3 398.501C730.125 400.133 728.471 401.581 726.725 402.608C714.05 410.058 701.295 417.405 688.54 424.73C687.114 425.551 685.585 426.247 684.022 426.772C678.261 428.711 672.283 425.722 671.975 419.721C671.541 411.188 672.055 402.563 672.83 394.04C673.218 389.773 677.314 387.321 681.159 387.777C685.083 388.245 687.856 391.348 687.981 395.763C688.118 400.19 688.015 404.616 688.015 409.374Z" fill="white"/>
<path d="M518.869 513.941C517.5 522.201 516.222 530.46 514.705 538.686C514.363 540.557 513.427 542.428 512.355 544.037C509.742 547.984 505.954 549.901 501.186 549.228C496.405 548.543 493.142 545.634 492.047 541.059C491.328 538.024 491.294 534.682 491.671 531.556C492.572 524.06 493.827 516.61 495.048 509.16C496.337 501.254 500.957 496.805 507.244 497.227C513.496 497.649 517.785 502.771 518.253 510.45C518.322 511.579 518.264 512.72 518.264 513.861C518.47 513.884 518.664 513.906 518.869 513.941Z" fill="white"/>
<path d="M1342.5 95.6992C1350.7 95.7563 1360.27 100.742 1367.79 109.641C1372.64 115.391 1373.76 122.031 1370.79 129.104C1369.75 131.591 1368.61 131.739 1367.15 129.503C1357.77 115.208 1344.23 111.968 1328.36 114.695C1324.5 115.356 1320.6 116.064 1316.7 116.429C1312.39 116.84 1309.34 115.128 1308.26 112.116C1307.05 108.785 1308.48 105.397 1312.16 102.864C1317.72 99.0762 1330.18 95.722 1342.5 95.6992Z" fill="white"/>
<path d="M986.604 95.1844C987.185 89.6397 987.664 84.0837 988.417 78.5619C988.691 76.5539 989.399 74.5118 990.334 72.7092C992.376 68.7618 996.358 66.9478 1000.45 67.7806C1004.39 68.5792 1007.56 72.0133 1007.66 76.4056C1007.76 80.4101 1007.22 84.4488 1006.89 88.4532C1006.63 91.6477 1006.32 94.8421 1005.93 98.0251C1004.99 105.623 1005.6 112.891 1010.19 119.405C1010.77 120.227 1011.08 121.276 1011.39 122.246C1013.01 127.095 1011.46 129.376 1006.41 128.68C1003.68 128.304 1000.81 127.06 998.56 125.429C991.11 120.033 987.847 112.24 987.163 103.285C986.957 100.615 987.128 97.9111 987.128 95.2186C986.957 95.2072 986.775 95.1958 986.604 95.1844Z" fill="white"/>
<path d="M384.759 0.025731C391.901 0.025731 398.438 -0.0199039 404.964 0.0827746C405.683 0.0941834 406.789 0.733072 407.04 1.34914C410.166 9.1413 412.266 17.1274 410.543 25.5927C408.193 37.1269 397.092 44.8278 384.314 43.4245C380.595 43.0138 376.864 41.6334 373.442 40.0361C371.548 39.1577 369.951 37.1383 368.833 35.2673C367.509 33.054 368.045 30.6125 369.825 28.6616C371.536 26.7792 373.681 26.3913 376.077 27.1443C377.948 27.7375 379.808 28.4563 381.736 28.7985C388.672 30.0307 393.59 25.8665 392.289 19.0327C391.262 13.6477 388.707 8.54805 386.756 3.35708C386.356 2.35311 385.626 1.46323 384.759 0.025731Z" fill="white"/>
<path d="M703.335 42.1807C704.807 34.263 706.142 24.9079 710.169 16.2715C712.531 11.1946 715.28 9.95105 720.859 10.3846C725.172 10.7154 729.518 10.7725 733.842 10.6584C737.87 10.5557 741.087 13.6703 740.642 17.6976C740.539 18.6103 740.243 19.5116 739.969 20.4014C737.813 27.4064 735.508 34.3657 733.5 41.4163C731.709 47.6911 729.553 49.4367 722.97 49.6991C719.159 49.8474 715.326 50.1554 711.561 50.7601C705.845 51.6728 703.107 49.4252 703.335 42.1807ZM726.872 19.5344C724.464 20.6296 721.977 20.9491 721.338 22.204C718.703 27.4064 716.638 32.894 714.082 38.9292C716.969 38.6326 718.908 38.5185 720.814 38.1991C721.395 38.0964 722.194 37.5031 722.342 36.9783C723.826 31.5364 725.195 26.0716 726.872 19.5344Z" fill="white"/>
<path d="M476.954 446.313C475.436 461.977 468.671 475.485 456.384 485.958C453.281 488.605 449.037 490.077 445.101 491.526C442.226 492.587 439.225 491.731 437.388 489.004C435.517 486.221 436.236 483.346 438.153 480.916C441.427 476.774 444.986 472.85 448.295 468.731C451.991 464.122 455.619 459.467 459.099 454.698C461.746 451.07 463.731 447.112 464.085 442.48C464.176 441.282 464.712 440.072 465.26 438.966C466.435 436.57 468.226 434.939 471.124 435.224C474.159 435.52 475.676 437.574 476.303 440.266C476.714 442.058 476.714 443.951 476.954 446.313Z" fill="white"/>
<path d="M67.6998 310.352C67.1065 312.452 66.6388 314.231 66.1026 315.988C64.7221 320.506 61.8585 322.788 58.4473 322.149C55.0019 321.499 52.8684 318.384 53.5187 313.695C54.0892 309.531 55.0703 305.333 56.5763 301.419C58.6298 296.069 63.1135 294.745 68.2246 297.289C71.1794 298.761 74.1343 300.301 77.2146 301.465C78.2757 301.864 79.9984 301.59 80.9909 300.963C90.3917 294.951 99.6784 288.778 109.045 282.72C109.969 282.127 111.133 281.831 112.239 281.602C114.567 281.135 116.62 281.739 117.932 283.804C119.301 285.96 119.153 288.356 117.522 290.17C116.118 291.733 114.202 292.886 112.388 294.015C105.828 298.134 99.1536 302.07 92.662 306.291C90.6199 307.626 88.8858 309.52 87.2657 311.379C84.6189 314.425 81.5385 315.247 77.7965 313.912C74.602 312.76 71.3848 311.642 67.6998 310.352Z" fill="white"/>
<path d="M959.439 513.943C948.053 514.023 941.881 505.01 945.794 493.943C946.958 490.657 948.236 487.417 949.593 484.2C952.286 477.8 960.865 474.354 968.361 476.579C978.617 479.637 983.386 489.494 979.416 499.431C976.084 507.748 967.631 513.886 959.439 513.943ZM961.207 487.463C961.185 487.817 961.173 488.159 961.15 488.513C960.74 489.574 960.466 491.479 959.895 491.57C956.085 492.198 956.188 495.301 955.64 497.879C954.819 501.838 956.872 503.743 960.888 503.002C964.801 502.283 969.342 497.868 969.581 493.852C969.673 492.312 968.703 490.053 967.471 489.243C965.748 488.113 963.329 488.011 961.207 487.463Z" fill="white"/>
<path d="M647.034 427.797C647.034 430.273 647.582 432.908 646.932 435.213C645.312 440.928 640.395 442.606 635.204 443.313C624.023 444.842 612.591 432.429 615.113 421.431C616.664 414.677 621.182 410.41 627.856 408.859C634.348 407.353 639.345 410.159 643.144 415.339C645.848 419.035 647.171 423.222 647.034 427.797ZM631.667 422.424C631.245 422.446 630.823 422.469 630.401 422.503C630.047 423.701 629.146 425.093 629.476 426.063C629.99 427.58 631.074 429.28 632.397 430.056C633.846 430.912 634.736 429.417 634.28 428.048C633.641 426.097 632.557 424.295 631.667 422.424Z" fill="white"/>
<path d="M650.182 260.315C641.409 259.687 632.887 261.307 624.399 263.212C623.497 263.418 622.573 263.635 621.661 263.714C618.74 263.977 616.287 263.087 614.907 260.349C613.595 257.748 614.222 255.272 616.047 253.15C617.325 251.667 618.911 250.446 620.177 248.951C624.159 244.24 628.049 239.471 631.963 234.702C632.681 233.823 633.24 232.797 634.028 231.998C636.857 229.157 640.759 230.081 642.276 233.766C642.835 235.124 643.736 236.39 644.672 237.543C648.368 242.106 652.373 246.464 655.75 251.245C656.754 252.671 656.868 255.683 656.024 257.211C655.054 258.957 652.555 259.858 650.73 261.136C650.547 260.862 650.365 260.588 650.182 260.315Z" fill="white"/>
<path d="M1089.19 464.37C1092.46 466.606 1095.56 468.649 1098.58 470.782C1101.79 473.052 1104.42 475.779 1105.07 479.875C1105.53 482.761 1104.81 485.294 1102.2 486.868C1099.7 488.374 1097.2 487.895 1094.91 486.264C1088.28 481.54 1081.61 476.851 1075.08 471.98C1073.56 470.85 1072.11 469.287 1071.31 467.599C1069.61 463.982 1071.39 460.343 1075.27 458.004C1083.33 453.167 1091.31 448.204 1099.32 443.287C1099.77 443.013 1100.19 442.705 1100.64 442.477C1103.55 440.994 1106.59 441.61 1108.07 443.994C1109.58 446.39 1108.86 449.299 1106.2 451.33C1101.43 454.981 1096.64 458.597 1091.86 462.237C1091.06 462.853 1090.26 463.503 1089.19 464.37Z" fill="white"/>
<path d="M186.942 402.432C186.486 406.71 186.053 410.988 185.573 415.266C184.923 420.959 179.253 424.451 174.096 421.701C168.004 418.45 162.174 414.616 156.55 410.578C152.956 407.999 152.819 403.082 156.299 400.31C162.357 395.472 168.654 390.886 175.169 386.688C179.367 383.984 185.756 388.581 186.497 394.617C186.817 397.161 186.555 399.785 186.555 402.363C186.68 402.397 186.805 402.42 186.942 402.432Z" fill="white"/>
<path d="M398.792 315.924C390.464 315.25 384.178 308.439 385.182 300.533C385.992 294.076 388.73 288.383 393.373 283.797C400.846 276.427 410.555 278.902 413.738 288.885C416.886 298.776 415.072 306.078 407.531 311.668C404.976 313.562 401.724 314.532 398.792 315.924Z" fill="white"/>
<path d="M540.534 547.246C540.055 555.175 538.207 562.545 534.75 569.504C534.476 570.063 534.134 570.588 533.792 571.102C530.997 575.277 526.912 577.285 523.068 576.361C519.029 575.391 516.12 571.718 516.029 566.504C515.96 563.024 516.599 559.51 517.135 556.053C517.774 551.969 518.755 547.942 519.405 543.858C520.466 537.229 524.14 533.396 529.639 533.43C535.047 533.453 539.188 537.48 540.181 543.743C540.386 544.941 540.432 546.196 540.534 547.246Z" fill="white"/>
<path d="M388.877 141.46C388.284 153.086 394.798 159.201 406.332 158.151C407.142 158.083 407.986 158.539 408.819 158.756C408.534 159.589 408.42 160.558 407.918 161.231C404.244 166.08 399.156 168.465 393.269 167.597C388.74 166.936 384.04 165.658 380.069 163.456C371.855 158.904 368.889 151.215 370.075 142.099C370.555 138.346 371.638 134.592 373.03 131.067C374.479 127.37 377.708 125.75 381.187 126.138C384.553 126.515 387.268 128.979 388.01 132.847C388.535 135.664 388.603 138.585 388.877 141.46Z" fill="white"/>
<path d="M1171.73 246.465C1175.26 246.613 1177.82 248.176 1178.67 250.903C1179.62 253.949 1177.88 258.056 1174.63 259.87C1172.84 260.863 1170.8 261.387 1168.89 262.175C1158.11 266.67 1147.34 271.188 1136.56 275.671C1135.13 276.264 1133.7 276.903 1132.19 277.246C1128.66 278.044 1125.3 276.356 1123.95 273.275C1122.64 270.286 1123.54 266.864 1126.42 264.742C1127.73 263.772 1129.25 263.007 1130.76 262.38C1142.33 257.623 1153.9 252.899 1165.51 248.245C1167.5 247.446 1169.66 247.047 1171.73 246.465Z" fill="white"/>
<path d="M47.9628 384.989C47.0957 391.526 44.3462 397.95 36.9648 401.418C31.0893 404.19 24.3125 402.867 19.8517 398.155C15.4936 393.546 14.752 387.431 17.9579 381.51C21.1067 375.68 26.1037 372.154 32.504 370.842C40.7981 369.143 47.9856 375.349 47.9628 384.989ZM34.5347 388.423C34.1582 388.035 33.7818 387.647 33.4167 387.26C32.4013 388.229 31.3745 389.199 30.3591 390.169C30.8041 390.534 31.557 391.264 31.6369 391.196C32.6523 390.329 33.5878 389.359 34.5347 388.423Z" fill="white"/>
<path d="M928.944 344.614C928.602 353.992 926.674 362.127 923.57 369.987C919.737 379.685 912.287 385.344 902.59 388.333C898.403 389.633 896.018 387.363 897.296 383.119C897.867 381.225 899.236 379.537 900.434 377.882C901.152 376.89 902.122 376.023 903.137 375.327C913.941 367.911 917.01 356.753 918.129 344.626C918.288 342.88 918.368 341.089 918.779 339.401C919.372 336.971 920.958 335.328 923.582 335.305C926.217 335.282 927.86 336.879 928.385 339.355C928.818 341.352 928.83 343.439 928.944 344.614Z" fill="white"/>
<path d="M25.1687 139.723C28.0551 140.419 33.3031 141.081 38.0035 143.055C40.6161 144.15 42.7496 147.196 44.2669 149.843C45.6017 152.17 44.2897 154.68 42.0879 156.346C36.8284 160.328 31.5462 164.275 26.2754 168.234C25.6137 168.736 24.9634 169.261 24.2446 169.66C20.5026 171.725 16.0646 170.162 15.5398 165.975C14.7069 159.324 14.3419 152.57 14.4559 145.873C14.5244 141.617 17.9242 139.564 25.1687 139.723Z" fill="white"/>
<path d="M595.66 222.495C587.743 222.575 583.476 215.638 586.67 209.614C587.195 208.622 587.822 207.458 588.724 206.945C596.504 202.53 604.228 197.978 612.26 194.042C615.591 192.41 619.162 194.11 621.045 196.791C622.87 199.404 622.824 202.689 620.714 205.793C619.733 207.23 618.672 208.782 617.28 209.751C611.849 213.516 606.35 217.19 600.726 220.658C598.934 221.742 596.71 222.13 595.66 222.495Z" fill="white"/>
<path d="M270.5 0.0270337C269.702 2.57118 269.371 4.76166 268.378 6.58705C262.286 17.6535 256.046 28.6401 249.828 39.6381C249.371 40.4481 248.801 41.2011 248.208 41.9085C245.869 44.715 243.177 45.525 240.564 44.2815C238.02 43.0722 236.708 40.2998 237.529 36.8544C238.122 34.3559 238.875 31.7661 240.187 29.5984C245.983 20.0379 251.995 10.6143 257.974 1.16791C258.305 0.643105 259.057 0.0840774 259.639 0.0726686C263.016 -0.0186012 266.416 0.0270337 270.5 0.0270337Z" fill="white"/>
<path d="M302.343 271.301C308.743 271.381 312.314 275.956 310.443 280.508C309.405 283.052 307.511 285.767 305.241 287.193C297.095 292.293 288.698 297.005 280.244 301.58C277.05 303.314 273.878 302.275 272.201 299.823C270.547 297.404 270.946 294.232 273.365 291.597C274.334 290.536 275.441 289.566 276.593 288.699C282.914 283.999 289.188 279.241 295.646 274.735C298.042 273.069 300.882 272.042 302.343 271.301Z" fill="white"/>
<path d="M620.816 0.0273543C627.524 0.0273543 627.832 0.392434 626.623 6.97527C624.786 16.9465 622.949 26.9063 621.101 36.8775C620.246 41.4981 616.937 44.1905 612.933 43.5631C608.825 42.9242 606.327 39.1593 607.262 34.4133C609.145 24.8756 611.119 15.3493 613.298 5.88003C614.655 -0.0182808 614.861 0.0273543 620.816 0.0273543Z" fill="white"/>
<path d="M165.847 485.605C164.855 485.263 162.938 484.772 161.204 483.939C153.948 480.46 148.403 474.847 143.292 468.834C140.143 465.138 140.543 460.118 143.657 456.935C146.806 453.729 152.02 453.421 155.83 456.467C157.507 457.802 158.888 459.536 160.246 461.225C163.497 465.252 166.691 469.314 169.829 473.432C170.821 474.733 171.768 476.159 172.35 477.665C174.084 482.126 171.586 485.582 165.847 485.605Z" fill="white"/>
<path d="M532.593 263.932C531.441 265.53 530.528 267.982 528.828 268.804C527.242 269.568 524.664 268.964 522.804 268.245C521.275 267.652 519.895 266.18 518.925 264.765C514.944 258.992 510.825 253.277 507.368 247.207C504.698 242.518 506.319 237.521 510.346 235.319C514.476 233.049 519.518 234.601 522.188 239.426C525.086 244.663 527.71 250.071 530.174 255.536C531.269 257.931 531.68 260.647 532.593 263.932Z" fill="white"/>
<path d="M325.946 221.892C327.658 225.281 329.46 228.646 331.08 232.092C333.031 236.222 332.723 239.005 330.362 240.511C327.943 242.052 324.714 241.093 322.17 237.499C318.884 232.856 315.815 228.053 312.895 223.181C310.955 219.953 312.45 216.302 316.363 214.579C320.151 212.914 324.087 211.613 327.954 210.13C330.852 209.012 333.716 207.791 336.636 206.764C339.888 205.635 342.409 206.491 343.299 208.806C344.246 211.248 343.094 213.313 339.899 214.842C335.518 216.941 331.126 219.04 326.745 221.151C326.494 221.276 326.311 221.55 325.946 221.892Z" fill="white"/>
<path d="M800.06 482.936C799.193 482.742 797.527 482.548 795.998 481.978C789.507 479.57 783.027 477.152 776.626 474.539C772.257 472.748 770.58 469.611 771.709 466.142C772.838 462.651 776.558 460.472 780.813 461.807C788.389 464.169 795.782 467.101 803.231 469.839C803.984 470.113 804.646 470.694 805.285 471.208C808.103 473.49 809.073 476.365 807.989 479.114C806.985 481.624 804.27 483.096 800.06 482.936Z" fill="white"/>
<path d="M305.377 117.306C305.845 113.883 305.936 111.168 306.643 108.624C307.704 104.813 310.956 102.691 314.538 102.965C318.075 103.239 321.007 105.886 321.463 109.787C321.76 112.32 321.44 114.933 321.326 117.5C321.121 121.721 320.801 125.942 320.653 130.163C320.608 131.487 320.801 132.867 321.178 134.134C322.296 137.967 321.737 138.754 317.698 138.355C312.667 137.864 309.53 134.693 308.115 130.232C306.712 125.862 306.164 121.219 305.377 117.306Z" fill="white"/>
<path d="M1394.09 456.567C1384.85 456.327 1379.34 451.866 1379.62 444.85C1379.87 438.826 1385.75 433.35 1391.78 433.487C1398.89 433.658 1404.95 438.975 1404.9 444.987C1404.87 450.509 1399.09 456.692 1394.09 456.567Z" fill="white"/>
<path d="M946.74 586.536C938.766 586.81 932.514 580.387 934.282 573.496C936.164 566.16 945.109 562.441 951.714 566.081C956.21 568.556 959.381 571.762 959.187 577.227C959.005 582.418 955.605 585.795 950.368 586.228C949.239 586.308 948.098 586.411 946.74 586.536Z" fill="white"/>
<path d="M813.339 129.981C812.518 132.297 812.119 134.27 811.172 135.936C807.281 142.77 803.288 149.535 799.204 156.244C797.653 158.799 794.857 159.449 792.473 158.183C790.066 156.905 789.016 154.201 790.385 151.52C794.127 144.15 798.029 136.849 801.999 129.604C802.718 128.292 803.859 126.832 805.159 126.33C806.722 125.714 808.89 125.497 810.339 126.136C811.651 126.718 812.381 128.68 813.339 129.981Z" fill="white"/>
<path d="M893.805 237.077C894.25 229.65 897.456 225.166 903.445 223.614C907.792 222.485 911.146 224.333 912.698 228.6C916.177 238.138 910.576 243.055 903.228 245.542C897.923 247.333 893.451 243.021 893.805 237.077Z" fill="white"/>
<path d="M884.735 437.253C883.435 437.093 882.203 437.287 881.438 436.785C879.989 435.838 878.004 434.652 877.73 433.26C877.411 431.697 878.415 429.575 879.442 428.126C880.172 427.076 881.826 426.415 883.184 426.118C888.808 424.852 894.444 423.562 900.149 422.707C903.925 422.136 906.321 423.711 906.891 426.209C907.484 428.833 905.362 432.461 902.282 433.408C898.346 434.617 894.319 435.553 890.291 436.466C888.397 436.899 886.424 437.025 884.735 437.253Z" fill="white"/>
<path d="M290.887 320.052C288.446 319.949 286.244 318.911 285.149 316.355C283.962 313.606 284.248 310.537 286.723 309.042C291.367 306.247 296.25 303.577 301.372 301.946C305.707 300.566 308.856 304.798 307.236 308.951C305.502 313.435 295.976 319.995 290.887 320.052Z" fill="white"/>
<path d="M845.797 29.2198C845.569 29.2084 844.987 29.311 844.553 29.1057C842.933 28.3299 840.789 27.8051 840.001 26.4931C839.545 25.7287 840.971 23.2872 842.123 22.2148C845.74 18.8378 848.82 15.2669 850.041 10.2927C850.623 7.91968 852.46 6.31105 855.049 6.43655C857.867 6.56204 859.487 8.41026 860.263 11.0114C862.75 19.3398 855.084 29.1855 845.797 29.2198Z" fill="white"/>
<path d="M1436.81 152.836C1442.56 152.995 1447.51 157.308 1447.42 162.077C1447.33 166.88 1443.02 170.576 1437.71 170.416C1431.7 170.223 1427.42 166.389 1427.59 161.335C1427.75 156.452 1431.83 152.699 1436.81 152.836Z" fill="white"/>
<path d="M789.038 486.949C792.985 487.018 795.518 488.25 795.997 490.566C796.465 492.836 794.605 495.346 790.943 496.339C786.459 497.571 781.873 498.461 777.287 499.202C774.184 499.704 771.833 498.073 771.24 495.574C770.59 492.813 772.039 489.915 775.256 489.151C779.774 488.09 784.44 487.657 789.038 486.949Z" fill="white"/>
<path d="M13.873 27.6906C14.7629 22.3171 16.6225 18.7348 20.5129 16.5557C23.0342 15.1525 26.1945 15.8142 27.8031 17.9704C29.5829 20.3434 29.3775 22.7621 27.6662 25.1237C26.7649 26.3672 25.9321 27.6678 25.0422 28.9228C23.2967 31.3643 19.6687 32.9387 17.4554 31.6267C15.8239 30.6797 14.7743 28.7288 13.873 27.6906Z" fill="white"/>
<path d="M152.34 23.0604C147.103 22.9007 145.107 21.3719 145.141 17.5386C145.187 12.9523 148.872 9.06191 153.047 9.19882C156.949 9.32432 160.452 13.112 160.326 17.0822C160.201 21.178 157.474 23.2201 152.34 23.0604Z" fill="white"/>
<path d="M737.267 64.7044C737.244 68.5036 733.239 72.1886 729.189 72.1658C725.618 72.1429 722.8 69.0512 722.789 65.1722C722.789 60.6886 726.349 56.7868 730.307 56.9009C733.935 57.015 737.301 60.7798 737.267 64.7044Z" fill="white"/>
<path d="M806.836 357.656C803.596 357.782 801.714 355.34 802.569 352.557C803.174 350.606 804.281 348.826 805.159 346.955C806.517 344.068 807.863 341.171 809.209 338.273C810.213 336.094 811.856 335.033 814.195 335.866C816.306 336.619 817.036 338.581 816.283 340.418C814.081 345.734 811.628 350.948 809.095 356.116C808.673 356.972 807.316 357.348 806.836 357.656Z" fill="white"/>
<path d="M236.72 152.286C233.161 152.263 230.251 149.342 230.217 145.76C230.183 141.984 233.469 138.675 237.313 138.618C241.033 138.561 243.965 141.311 243.976 144.87C243.999 148.692 240.451 152.309 236.72 152.286Z" fill="white"/>
<path d="M333.409 337.633C337.196 337.599 340.117 340.303 340.106 343.817C340.094 347.376 336.968 350.377 333.26 350.388C329.735 350.411 326.678 347.319 326.575 343.623C326.472 340.223 329.381 337.667 333.409 337.633Z" fill="white"/>
<path d="M1116.31 294.633C1119.7 294.599 1122.15 296.835 1122.24 300.052C1122.32 303.235 1119.78 305.882 1116.64 305.871C1113.36 305.859 1110.18 302.79 1110.14 299.573C1110.08 296.413 1112.26 294.679 1116.31 294.633Z" fill="white"/>
<path d="M620.44 323.406C625.688 323.555 631.541 325.22 636.059 330.103C640.131 334.518 640.679 340.451 637.61 344.946C635.956 347.365 633.822 347.981 630.902 347.502C620.896 345.836 611.142 347.091 601.752 350.878C600.669 351.312 599.699 352.282 598.923 353.206C597.223 355.237 595.957 354.643 594.862 352.727C592.854 349.19 592.854 345.38 593.778 341.569C596.208 331.506 607.548 323.475 620.44 323.406Z" fill="white"/>
<path d="M568.588 156.482C567.356 155.969 564.549 155.41 562.53 153.847C556.244 148.964 550.163 143.796 544.196 138.525C541.515 136.163 539.735 133.071 539.758 129.272C539.781 123.556 545.063 119.153 550.071 121.708C559.335 126.443 568.325 131.816 576.962 137.635C581.217 140.498 581.822 146.032 579.951 150.299C578.24 154.155 574.395 156.562 568.588 156.482Z" fill="white"/>
</g>
</g>
</g>
</svg>
