<svg width="211" height="269" viewBox="0 0 211 269" fill="none" xmlns="http://www.w3.org/2000/svg">
<path d="M98.0159 121.316L130.035 177.525" stroke="#03277D" stroke-width="1.36272" stroke-miterlimit="10"/>
<path d="M112.204 146.313L130.073 177.506" stroke="#03277D" stroke-width="3.73712" stroke-miterlimit="10"/>
<path d="M101.289 229.255C98.2467 232.66 95.3027 236.447 93.4883 245.302H118.46C115.802 237.243 110.416 229.772 101.289 229.255Z" fill="#FE2D5D"/>
<path d="M93.4884 245.299C92.7464 248.918 92.1928 253.38 91.8997 259.015H120.517C120.662 255.138 120.048 250.113 118.46 245.299H93.4884Z" fill="#CB0030"/>
<path d="M169.46 207.73H163.344V220.536H169.46V207.73Z" fill="#03277D"/>
<path d="M134.596 177.299C131.827 177.062 129.056 176.295 126.615 175.406C131.284 174.821 135.081 172.99 138.709 170.572C140.127 168.054 141.559 165.303 143.007 162.347C139.078 162.64 134.876 161.562 131.324 160.28C137.607 159.555 142.388 156.768 147.171 153.277C148.014 151.307 148.858 149.288 149.702 147.195C145.189 147.845 140.204 146.645 136.029 145.16C142.92 144.423 148.096 141.4 153.324 137.629C153.969 135.854 154.6 134.056 155.224 132.214C150.454 132.877 145.165 131.599 140.744 130.035C147.707 129.349 152.987 126.482 158.247 122.859C158.806 121.046 159.35 119.199 159.887 117.333C155.092 117.743 149.865 116.459 145.459 114.912C152.086 114.31 157.26 111.856 162.273 108.651C162.812 106.605 163.321 104.524 163.836 102.429C159.226 102.487 154.35 101.241 150.174 99.7886C156.173 99.2762 161.032 97.3499 165.625 94.7231C166.201 92.0846 166.733 89.471 167.239 86.8853C162.38 87.3659 157.055 86.0618 152.574 84.4886C158.932 83.9126 163.941 81.6229 168.761 78.6167C169.178 76.1475 169.578 73.7088 169.938 71.3148C165.048 72.1351 159.544 70.8129 154.98 69.1933C161.321 68.5745 166.264 66.15 171.07 62.9879C171.361 60.5541 171.622 58.1727 171.854 55.8303C167.141 56.7649 161.8 55.4759 157.379 53.8947C163.33 53.2666 167.995 50.9263 172.523 47.8827C172.688 45.3308 172.819 42.8563 172.915 40.459C168.589 41.2011 163.785 40.0453 159.793 38.6036C164.945 38.0127 169.094 36.0229 173.06 33.3944C173.061 30.5289 173.015 27.794 172.889 25.2459C169.269 25.4884 165.441 24.4929 162.194 23.3041C166.098 22.8159 169.386 21.4558 172.476 19.6076C171.393 8.67457 168.866 1.83966 165.186 0.983724C155.378 -1.30906 147.759 41.1505 135.656 92.8892C123.549 144.635 111.537 186.066 121.35 188.36C124.701 189.142 129.395 185.066 134.596 177.299Z" fill="#FD9F02"/>
<path d="M172.89 25.2459C172.788 23.265 172.651 21.3793 172.477 19.6077C169.387 21.4559 166.098 22.8159 162.194 23.3041C165.442 24.4929 169.269 25.4885 172.89 25.2459ZM159.794 38.6037C163.785 40.0453 168.589 41.2012 172.916 40.459C173.005 38.0143 173.053 35.6594 173.061 33.3945C169.094 36.0229 164.945 38.0127 159.794 38.6037ZM157.379 53.8947C161.8 55.4759 167.142 56.7649 171.855 55.8303C172.115 53.1092 172.337 50.46 172.523 47.8827C167.996 50.9263 163.331 53.2666 157.379 53.8947ZM154.98 69.1933C159.545 70.813 165.049 72.1351 169.938 71.3149C170.355 68.4879 170.733 65.7122 171.07 62.9879C166.264 66.15 161.321 68.5745 154.98 69.1933ZM167.239 86.8853C167.794 84.0942 168.301 81.338 168.762 78.6167C163.941 81.623 158.933 83.9126 152.574 84.4887C157.056 86.0618 162.381 87.3659 167.239 86.8853ZM126.616 175.406C129.056 176.295 131.828 177.062 134.596 177.299C135.936 175.298 137.318 173.04 138.709 170.572C135.081 172.99 131.285 174.821 126.616 175.406ZM131.324 160.28C134.876 161.562 139.079 162.64 143.007 162.347C144.388 159.51 145.784 156.483 147.171 153.277C142.389 156.768 137.608 159.555 131.324 160.28ZM136.029 145.16C140.205 146.645 145.19 147.845 149.703 147.195C150.926 144.139 152.133 140.95 153.325 137.629C148.096 141.4 142.92 144.423 136.029 145.16ZM140.744 130.035C145.165 131.599 150.454 132.877 155.225 132.214C156.255 129.174 157.262 126.055 158.247 122.859C152.987 126.482 147.708 129.349 140.744 130.035ZM159.888 117.333C160.708 114.493 161.504 111.599 162.273 108.651C157.261 111.856 152.086 114.31 145.459 114.912C149.865 116.459 155.092 117.743 159.888 117.333ZM163.836 102.429C164.063 101.498 164.293 100.576 164.513 99.6417C164.896 97.9941 165.259 96.3541 165.626 94.7232C161.032 97.35 156.173 99.2762 150.174 99.7887C154.35 101.241 159.226 102.487 163.836 102.429Z" fill="#CE7C05"/>
<path d="M119.903 113.109L121.596 146.519C121.733 149.137 119.245 151.415 116.069 151.568L96.7595 152.551C93.5708 152.718 90.8624 150.716 90.7256 148.087L89.0263 114.677L87.8235 91.0759C87.6238 87.1879 93.0354 75.7644 95.2348 75.3941L109.746 74.6602C111.96 74.7962 118.494 85.6207 118.699 89.501L119.903 113.109Z" fill="white"/>
<path d="M109.17 70.2359L94.698 70.975C90.2003 71.1999 84.8761 85.5277 85.0817 89.5242L88.0542 147.921C88.2596 151.924 92.0669 154.984 96.564 154.752L115.835 153.771C120.325 153.54 123.806 150.115 123.6 146.117L120.621 87.7081C120.416 83.7109 113.673 70.0114 109.17 70.2359ZM118.686 112.496L120.33 144.894C120.462 147.427 118.112 149.633 115.116 149.784L96.8776 150.708C93.869 150.866 91.3125 148.921 91.1797 146.381L89.5286 113.984L88.3653 91.094C88.1726 87.3341 93.2614 76.2635 95.3402 75.912L109.042 75.2099C111.134 75.3468 117.323 85.849 117.515 89.6147L118.686 112.496Z" fill="#CDDBFE"/>
<path d="M114.342 66.3662L114.106 61.6834C114.08 61.1764 113.955 60.6794 113.737 60.2208C113.52 59.7623 113.213 59.3513 112.836 59.0114C112.459 58.6715 112.019 58.4095 111.54 58.2403C111.061 58.0711 110.554 57.998 110.047 58.0254L93.0286 58.8883C92.5212 58.9128 92.0237 59.0372 91.5644 59.2543C91.1051 59.4714 90.6931 59.7769 90.3521 60.1534C90.011 60.5299 89.7475 60.9699 89.5767 61.4484C89.4059 61.9268 89.3312 62.4342 89.3567 62.9416L89.5996 67.6319C89.6241 68.006 89.7034 68.3745 89.8348 68.7256L114.243 67.3946C114.322 67.0579 114.356 66.7119 114.342 66.3662Z" fill="#4F94F9"/>
<path d="M89.835 68.725C90.1091 69.5112 90.6308 70.1873 91.3217 70.652C92.0127 71.1166 92.8356 71.3446 93.6672 71.3019L110.674 70.4317C111.519 70.3875 112.327 70.0661 112.972 69.5171C113.617 68.9681 114.064 68.222 114.243 67.394L89.835 68.725Z" fill="#1765CF"/>
<path d="M136.143 44.1863C136.192 40.9868 136.335 38.1282 136.391 32.7317L126.135 33.004C126.476 38.3899 126.772 41.237 126.989 44.4293L136.143 44.1863Z" fill="#FC8006"/>
<path d="M136.172 44.0391L127.018 44.2821C127.602 52.6822 127.719 66.6754 124.752 72.081C119.519 81.6353 116.811 78.3035 117.457 102.605C118.102 126.911 118.685 148.863 118.685 148.863L150.042 148.03C150.042 148.03 149.459 126.078 148.814 101.772C148.169 77.4709 145.65 80.9416 139.911 71.6786C136.665 66.4378 136.035 52.4583 136.172 44.0391ZM145.239 101.867L145.831 124.17L121.627 124.813L121.035 102.51C120.939 98.8814 120.92 95.9158 120.964 93.4643L144.83 92.8307C145.001 95.2765 145.143 98.2388 145.239 101.867Z" fill="#03277D"/>
<path d="M145.239 101.871L145.831 124.174L121.627 124.817L121.035 102.514C120.939 98.8854 120.92 95.9199 120.964 93.4684L144.83 92.8347C145.001 95.2805 145.142 98.2428 145.239 101.871Z" fill="#1765CF"/>
<path d="M163.771 84.0793C165.584 86.2833 167.197 88.6447 168.591 91.1355C169.128 92.0968 169.63 93.0706 170.095 94.0567C170.825 95.6019 171.47 97.186 172.027 98.8019C172.392 99.8509 172.719 100.911 173.008 101.984C173.572 104.067 173.993 106.186 174.267 108.327C174.423 109.518 174.533 110.71 174.597 111.904C174.738 114.507 174.667 117.117 174.384 119.709C174.242 121.04 174.043 122.362 173.787 123.674C173.226 126.591 172.392 129.45 171.298 132.212C170.823 133.416 170.296 134.605 169.717 135.778C168.226 138.8 166.418 141.655 164.325 144.295C163.575 145.245 162.782 146.17 161.946 147.071C161.109 147.977 160.23 148.858 159.311 149.713C158.084 150.852 156.799 151.926 155.46 152.932C154.461 153.681 153.441 154.387 152.398 155.05C150.394 156.327 148.296 157.45 146.122 158.41C145.099 158.867 144.063 159.284 143.013 159.661C140.205 160.676 137.307 161.425 134.359 161.897C132.99 162.119 131.616 162.28 130.236 162.379C128.153 162.533 126.061 162.551 123.976 162.431C122.678 162.36 121.385 162.234 120.097 162.055C117.666 161.719 115.264 161.198 112.913 160.495C111.722 160.142 110.549 159.741 109.385 159.294C106.406 158.144 103.551 156.698 100.861 154.978C99.8249 154.318 98.8117 153.614 97.8213 152.865C96.3203 151.733 94.8873 150.513 93.5298 149.212L163.771 84.0793Z" fill="#48956B"/>
<path d="M174.384 119.713C174.242 121.044 174.043 122.366 173.788 123.677C173.725 123.685 173.663 123.697 173.601 123.71C172.851 123.877 171.972 124.374 171.414 123.849C171.247 123.691 171.156 123.466 170.987 123.311C170.706 123.052 170.287 123.038 169.905 123.041C168.622 123.039 167.339 123.04 166.055 123.045C166.125 123.04 166.194 123.035 166.261 123.027L165.474 120.052C165.763 119.434 166.536 119.174 167.214 119.255C167.893 119.333 168.505 119.674 169.119 119.973C169.734 120.269 170.403 120.533 171.081 120.442C171.63 120.366 172.114 120.069 172.635 119.885C173.196 119.689 173.796 119.63 174.384 119.713ZM132.984 155.301C133.087 155.976 132.92 156.656 132.796 157.327C132.673 157.998 132.598 158.716 132.867 159.342C133.085 159.85 133.502 160.24 133.815 160.691C134.069 161.058 134.253 161.468 134.359 161.901C132.99 162.123 131.616 162.283 130.236 162.383C129.864 161.784 129.354 161.162 129.671 160.569C129.777 160.367 129.97 160.218 130.074 160.014C130.25 159.673 130.15 159.267 130.049 158.899L129.021 155.189C129.045 155.254 129.069 155.319 129.093 155.384L131.751 153.836C132.425 153.947 132.881 154.625 132.984 155.301ZM123.858 154.681C123.839 155.365 123.554 156.008 123.315 156.644C123.073 157.283 122.87 157.973 123.021 158.641C123.145 159.177 123.484 159.636 123.714 160.137C124.037 160.857 124.129 161.66 123.976 162.435C122.678 162.363 121.385 162.238 120.097 162.059C120.09 161.849 120.055 161.641 119.992 161.44C119.758 160.707 119.182 159.878 119.657 159.275C119.801 159.094 120.014 158.981 120.156 158.802C120.385 158.499 120.365 158.079 120.329 157.701C120.214 156.421 120.097 155.143 119.979 153.866C119.991 153.933 120.005 154.003 120.015 154.072L122.908 153.02C123.549 153.255 123.877 154.002 123.858 154.681ZM114.43 153.874C114.276 154.542 113.867 155.111 113.503 155.689C113.139 156.267 112.802 156.902 112.818 157.585C112.835 158.347 113.064 159.034 113.002 159.819C112.984 160.047 112.955 160.273 112.913 160.498C111.722 160.146 110.549 159.745 109.385 159.298C109.395 158.733 109.333 158.139 109.511 157.625C109.653 157.21 109.985 156.888 110.193 156.499C110.525 155.877 110.457 155.224 110.518 154.551C110.585 153.804 110.711 153.047 110.794 152.298C110.792 152.37 110.79 152.436 110.787 152.508L113.833 152.057C114.414 152.414 114.584 153.211 114.43 153.874ZM171.298 132.215C170.824 133.419 170.297 134.608 169.717 135.782C168.578 135.372 167.223 135.275 166.197 134.606C165.725 134.3 165.337 133.882 164.867 133.574C164.398 133.266 163.79 133.078 163.273 133.296L164.68 128.672C165.182 128.384 165.846 128.603 166.263 129.002C166.677 129.399 166.915 129.944 167.19 130.453C167.463 130.96 167.81 131.472 168.337 131.708C169.205 132.095 170.305 131.626 171.13 132.1C171.189 132.134 171.245 132.173 171.298 132.215ZM104.325 148.716C104.429 149.058 104.05 149.33 103.767 149.55C102.325 150.664 102.459 152.925 101.373 154.394C101.216 154.601 101.044 154.797 100.861 154.981C99.8251 154.322 98.8119 153.617 97.8215 152.868C98.1501 152.684 98.4217 152.412 98.6069 152.084C99.0459 151.242 98.6446 150.115 99.168 149.318C99.5285 148.776 100.205 148.566 100.791 148.284C101.377 148.001 101.978 147.479 101.898 146.832C102.603 147.341 103.304 147.849 104.002 148.358C104.146 148.439 104.259 148.565 104.325 148.716ZM144.347 151.584C144.415 152.159 144.251 152.728 144.138 153.292C144.025 153.861 143.968 154.475 144.223 154.993C144.648 155.844 145.792 156.185 146.124 157.076C146.282 157.505 146.218 157.959 146.123 158.414C145.099 158.871 144.063 159.288 143.014 159.664C142.492 158.341 141.168 157.271 140.726 155.865C140.559 155.327 140.524 154.754 140.36 154.219C140.193 153.682 139.847 153.151 139.308 152.986L143.341 150.322C143.908 150.423 144.281 151.012 144.347 151.584ZM162.521 141.113C162.887 141.532 162.998 142.108 163.201 142.625C163.46 143.252 163.842 143.821 164.325 144.299C163.575 145.248 162.782 146.174 161.946 147.075C161.482 146.747 161.058 146.365 160.684 145.938C160.314 145.476 160.069 144.929 159.758 144.425C159.152 143.45 158.3 142.652 157.287 142.111L159.398 138.916C159.473 139.577 160.135 140 160.76 140.228C161.385 140.455 162.083 140.612 162.521 141.113ZM153.084 149.224C153.482 149.465 153.97 149.576 154.288 149.915C154.702 150.355 154.695 151.027 154.829 151.618C154.94 152.098 155.156 152.548 155.461 152.935C154.462 153.684 153.441 154.39 152.398 155.053C152.237 154.571 152.136 154.07 152.099 153.563C152.056 152.975 152.087 152.358 151.839 151.823C151.512 151.116 150.781 150.707 150.191 150.197C149.601 149.687 149.107 148.851 149.463 148.161L151.634 146.459C151.864 147.506 152.169 148.663 153.084 149.224ZM168.591 91.1392C169.128 92.1005 169.63 93.0743 170.095 94.0604C169.906 94.2228 169.706 94.372 169.497 94.5069C168.346 95.2271 166.904 95.1987 165.566 95.405C164.479 95.5754 163.425 95.9134 162.441 96.4069C161.635 96.8087 160.815 97.773 160.009 98.058C158.96 98.4283 159.029 98.1418 158.608 97.1626C158.453 96.7999 157.986 94.3189 157.681 94.2355C158.706 94.5084 159.796 94.1823 160.757 93.7329C161.718 93.2834 162.636 92.7086 163.663 92.4426C164.93 92.1172 166.313 92.2845 167.516 91.7782C167.9 91.6106 168.261 91.396 168.591 91.1392ZM172.295 99.8251C172.66 100.874 172.987 101.935 173.276 103.007C172.227 103.294 171.069 103.188 169.962 103.247C168.864 103.303 167.782 103.532 166.755 103.924C165.912 104.244 164.995 105.119 164.168 105.322C163.086 105.584 163.181 105.306 162.862 104.291C162.745 103.916 162.533 101.395 162.233 101.283C163.226 101.66 164.346 101.444 165.35 101.094C166.351 100.746 167.32 100.266 168.367 100.105C169.664 99.9098 171.019 100.215 172.271 99.8339C172.278 99.8317 172.288 99.8273 172.295 99.8251ZM174.267 108.331C174.423 109.521 174.533 110.713 174.597 111.907C174.295 111.946 173.996 112.002 173.702 112.077C172.675 112.334 171.666 112.727 170.605 112.789C169.3 112.868 167.978 112.44 166.696 112.705C165.761 112.903 164.945 113.447 164.095 113.876C163.763 114.045 163.386 114.2 163.029 114.1C162.381 113.923 162.221 113.078 162.289 112.412C162.356 111.744 162.51 110.993 162.098 110.465C162.597 110.736 163.223 110.634 163.745 110.411C164.27 110.187 164.743 109.853 165.274 109.651C166.537 109.163 167.949 109.465 169.302 109.516C170.401 109.558 171.499 109.428 172.558 109.132C173.102 108.982 173.696 108.614 174.267 108.331Z" fill="#70BB92"/>
<path d="M159.539 88.0039C173.389 105.132 171.794 130.302 155.402 145.501C139.012 160.699 113.794 160.397 97.76 145.294L98.9932 144.149L158.303 89.1508L159.539 88.0039Z" fill="#70BB92"/>
<path d="M158.303 89.1477L158.365 89.2236C164.728 97.1854 167.858 107.251 167.134 117.417C166.41 127.583 161.883 137.104 154.456 144.083L154.262 144.265C146.754 151.227 136.891 155.09 126.653 155.081C116.415 155.071 106.559 151.188 99.065 144.212L98.9932 144.146L158.303 89.1477Z" fill="#FE9592"/>
<path d="M157.322 90.0627C163.501 97.7978 166.525 107.583 165.788 117.456C165.052 127.328 160.608 136.556 153.35 143.289C138.181 157.353 114.872 157.123 99.9778 143.238L101.037 142.257L157.322 90.0627Z" fill="#FE2D5D"/>
<path d="M149.145 118.688C149.258 119.541 148.855 119.84 148.289 119.915C147.722 119.99 147.206 119.813 147.093 118.96C146.98 118.107 147.879 116.826 147.879 116.826C147.879 116.826 149.032 117.835 149.145 118.688ZM159.495 120.442C159.608 121.295 159.205 121.594 158.638 121.669C158.072 121.744 157.556 121.567 157.443 120.714C157.33 119.861 158.229 118.581 158.229 118.581C158.229 118.581 159.381 119.589 159.495 120.442ZM124.344 127.413C124.457 128.266 124.054 128.565 123.487 128.64C122.921 128.715 122.405 128.538 122.292 127.685C122.179 126.832 123.078 125.552 123.078 125.552C123.078 125.552 124.23 126.56 124.344 127.413Z" fill="#231F20"/>
<path d="M137.959 128.083C138.441 128.796 138.214 129.243 137.74 129.563C137.266 129.883 136.726 129.954 136.244 129.241C135.763 128.528 135.996 126.981 135.996 126.981C135.996 126.981 137.478 127.37 137.959 128.083Z" fill="#FE2D5D"/>
<path d="M140.207 142.252C140.689 142.965 140.462 143.413 139.988 143.733C139.515 144.053 138.974 144.124 138.492 143.411C138.011 142.698 138.245 141.151 138.245 141.151C138.245 141.151 139.726 141.539 140.207 142.252ZM157.095 100.386C157.898 100.696 157.967 101.193 157.762 101.726C157.556 102.259 157.153 102.627 156.35 102.318C155.548 102.008 154.855 100.605 154.855 100.605C154.855 100.605 156.292 100.077 157.095 100.386ZM139.5 113.14C140.311 113.428 140.394 113.923 140.202 114.462C140.011 115 139.617 115.378 138.807 115.09C137.996 114.802 137.266 113.418 137.266 113.418C137.266 113.418 138.689 112.852 139.5 113.14ZM112.224 141.182C113.027 141.491 113.096 141.988 112.891 142.521C112.685 143.055 112.282 143.422 111.479 143.113C110.676 142.803 109.983 141.401 109.983 141.401C109.983 141.401 111.421 140.872 112.224 141.182ZM126.798 139.863C127.566 140.25 127.586 140.752 127.329 141.262C127.071 141.772 126.633 142.098 125.866 141.71C125.097 141.323 124.547 139.858 124.547 139.858C124.547 139.858 126.03 139.475 126.798 139.863ZM152.178 134.486C152.822 135.057 152.714 135.547 152.335 135.974C151.956 136.402 151.449 136.606 150.806 136.035C150.161 135.465 150.002 133.908 150.002 133.908C150.002 133.908 151.534 133.916 152.178 134.486Z" fill="#231F20"/>
<path d="M175.182 105.681C175.182 105.681 164.536 114.978 156.591 151.682L160.567 158.083L164.307 156.273L186.82 120.555L188.263 112.434L175.182 105.681Z" fill="#CC5B06"/>
<path d="M179.674 109.845C179.856 109.553 180.025 109.248 180.176 108.951C183.646 102.425 179.612 89.7843 174.853 84.1735L177.558 81.9534C182.895 88.6237 187.582 101.538 183.311 110.501C183.11 110.921 182.884 111.327 182.634 111.719L179.674 109.845ZM185.138 110.869C187.095 106.998 191.236 103.646 195.876 101.269C200.534 98.9351 205.686 97.5675 210.03 98.5018L209.281 101.91C206.289 101.211 201.619 102.26 197.463 104.394C193.28 106.483 189.617 109.658 188.263 112.43C188.248 112.464 188.229 112.497 188.208 112.528L188.219 112.538L185.043 111.062C185.071 110.996 185.103 110.932 185.138 110.869Z" fill="#48956B"/>
<path d="M185.162 107.841C189.005 100.306 197.667 93.2815 203.746 90.9822L203.752 90.9843L204.956 94.2616C199.994 96.0123 191.412 103.001 188.297 109.417C187.505 110.98 187.041 112.491 186.96 113.828L183.462 113.597C183.594 111.642 184.23 109.711 185.162 107.841Z" fill="#48956B"/>
<path d="M185.753 109.355C186.308 107.125 187.119 104.966 188.17 102.923C191.381 96.4919 196.643 90.0956 200.328 86.2627L197.784 83.8416C193.948 87.8748 188.517 94.4189 185.045 101.362C184.006 103.418 183.17 105.571 182.548 107.789C183.659 108.219 184.731 108.743 185.753 109.355Z" fill="#48956B"/>
<path d="M185.523 82.4696L188.923 81.6438C190.929 90.3223 186.178 100.215 184.117 107.561L180.754 106.582C183.054 98.9081 187.257 89.2503 185.523 82.4696Z" fill="#48956B"/>
<path d="M187.816 103.115C182.706 100.556 176.602 102.162 171.255 110.551C171.69 109.874 172.12 109.228 172.58 108.633C176.596 110.69 180.325 113.097 183.528 116.542C180.41 115.04 175.515 111.904 171.253 110.558C170.55 111.671 169.861 112.885 169.178 114.237C169.443 113.712 169.705 113.234 169.97 112.751C174.062 114.839 177.868 117.261 181.121 120.758C178.024 119.256 173.152 116.155 168.912 114.803C168.572 115.508 168.206 116.264 167.84 117.117C171.833 119.158 175.527 121.547 178.709 124.972C175.722 123.528 171.083 120.584 166.955 119.168C166.396 120.497 165.811 121.944 165.217 123.472C165.472 122.841 165.714 122.206 165.956 121.605C169.741 123.593 173.255 125.926 176.289 129.19C173.459 127.807 169.128 125.101 165.162 123.61C164.846 124.441 164.53 125.29 164.2 126.163C167.734 128.085 171.026 130.328 173.877 133.404C171.226 132.117 167.252 129.63 163.49 128.103C163.688 127.555 163.887 127.02 164.081 126.485C163.558 127.887 163.051 129.328 162.53 130.805C165.781 132.63 168.815 134.769 171.471 137.619C169.011 136.434 165.412 134.223 161.898 132.678C157.147 146.806 153.267 162.885 157.05 164.763C162.832 167.652 184.352 136.28 190.134 124.688C195.924 113.094 193.6 105.999 187.816 103.115ZM156.591 151.679C156.682 151.197 156.791 150.707 156.896 150.209C158.682 151.457 160.332 152.889 161.82 154.48C160.386 153.796 158.56 152.736 156.591 151.679ZM157.713 146.777C157.84 146.253 157.983 145.706 158.123 145.164C160.354 146.614 162.403 148.326 164.226 150.264C162.484 149.418 160.168 148.057 157.713 146.777ZM158.996 142.006C159.161 141.432 159.319 140.857 159.497 140.288C162.128 141.879 164.532 143.818 166.645 146.052C164.634 145.072 161.859 143.414 158.996 142.006ZM160.398 137.304C160.582 136.697 160.785 136.095 160.978 135.497C163.899 137.213 166.635 139.221 169.061 141.827C166.811 140.748 163.612 138.807 160.398 137.304Z" fill="#FC8006"/>
<path d="M65.964 125.789C64.0848 121.901 58.3328 118.282 54.2846 117.289C53.643 118.439 53.1199 119.652 52.7234 120.908C57.4929 120.205 62.989 122.536 65.0723 127.07L65.964 125.789Z" fill="#48956B"/>
<path d="M63.1643 117.924C62.2782 122.76 66.1727 127.555 66.1727 127.555C66.1727 127.555 71.5194 124.48 72.4091 119.635C73.309 114.779 69.4191 109.995 69.4191 109.995C69.4191 109.995 64.0669 113.074 63.1643 117.924Z" fill="#48956B"/>
<path d="M89.5679 128.722C93.4364 137.363 88.9282 147.791 79.4895 152.016C72.7188 155.047 64.2503 154.2 58.8207 148.907C53.6423 143.86 50.455 134.946 56.8611 129.56C59.1757 127.613 62.1739 126.717 64.808 125.232C66.9713 124.011 68.9002 122.385 71.1466 121.326C78.6085 117.807 86.3238 121.475 89.5679 128.722Z" fill="#E31F26"/>
<path opacity="0.57" d="M57.1799 140.775C58.4491 144.705 62.1501 147.567 66.181 148.468C66.6603 148.575 67.2267 148.636 67.583 148.298C68.0602 147.845 67.8117 147.041 67.4485 146.492C65.9133 144.176 63.0615 143.09 61.2157 141.012C58.1943 137.611 58.9029 133.355 60.4981 130.637C57.135 132.4 56.0878 137.393 57.1799 140.775Z" fill="#FE2D5D"/>
<path d="M157.022 140.953H53.2156V268.291H157.022V140.953Z" fill="url(#paint0_linear)"/>
<path d="M181.638 140.953H157.022V268.291H181.638V140.953Z" fill="#0075FA"/>
<path d="M169.33 140.953H157.022V268.291H169.33V140.953Z" fill="#006BE6"/>
<path d="M181.638 268.291H157.022L169.33 250.403L181.638 268.291Z" fill="#0075FA"/>
<path d="M157.037 153.556V153.548L157.024 153.555L157.037 153.556Z" fill="#A5071A"/>
<path d="M157.022 153.554L157.025 153.552L157.022 153.552V153.554Z" fill="#A5071A"/>
<path d="M90.8216 108.843L82.7947 117.142V141.788H90.7964V116.844H90.9045V108.843H90.8216Z" fill="#70BB92"/>
<path d="M132.061 108.843H131.505V116.844H131.661V143.418H139.662V117.135L132.061 108.843Z" fill="#70BB92"/>
<path d="M131.506 108.843H90.9048V116.845H131.506V108.843Z" fill="#48956B"/>
<path d="M129.102 110.919C128.801 110.302 126.162 101.505 125.761 100.949C125.761 100.949 116.15 87.8559 114.141 86.4108C112.138 84.9777 98.7403 82.3962 96.9649 80.7225C95.1898 79.0489 67.8841 63.8013 65.9886 63.8013L55.4591 87.3396L53.4888 91.7408L73.6392 97.3284C78.1439 105.394 82.0265 113.55 90.0259 117.472C90.1028 117.516 90.1819 117.555 90.263 117.59L95.8417 126.317C96.5129 127.366 97.5729 128.105 98.7889 128.372C100.005 128.64 101.277 128.413 102.326 127.742C103.375 127.072 104.115 126.012 104.383 124.797C104.651 123.581 104.425 122.308 103.755 121.259L105.09 123.339C105.754 124.376 106.779 125.13 107.967 125.455C109.154 125.78 110.42 125.654 111.52 125.1C112.62 124.547 113.476 123.605 113.922 122.458C114.369 121.31 114.374 120.038 113.937 118.886C114.479 119.677 115.252 120.282 116.149 120.618C117.047 120.954 118.027 121.005 118.955 120.764C119.883 120.523 120.714 120.002 121.335 119.272C121.956 118.542 122.337 117.638 122.426 116.683C123.265 117.166 124.234 117.376 125.199 117.283C126.163 117.191 127.075 116.802 127.808 116.169C128.541 115.536 129.059 114.69 129.291 113.75C129.523 112.809 129.457 111.82 129.102 110.919Z" fill="#D79774"/>
<path opacity="0.62" d="M102.327 127.745C101.277 128.413 100.005 128.638 98.79 128.37C97.5746 128.103 96.5146 127.365 95.8417 126.318L90.263 117.591C90.1819 117.555 90.1028 117.516 90.0259 117.473C82.0265 113.55 78.1439 105.394 73.6392 97.3289L53.4888 91.7412L55.4591 87.3401L75.4364 95.0616C75.4364 95.0616 80.2377 109.385 91.0601 114.558L98.2979 126.233C98.2979 126.233 100.092 128.683 102.327 127.745Z" fill="#CC7A4D"/>
<path d="M77.9081 65.9195C69.5534 60.7557 14.6111 35.6609 -2 28.1343V80.3457C24.0282 88.2592 61.8093 100.483 61.8093 100.483L77.9081 65.9195Z" fill="#FDC535"/>
<path d="M65.2294 93.1395C45.102 88.6342 18.5778 79.4378 -2 70.9419V80.3445C24.0279 88.258 61.809 100.482 61.809 100.482L65.2294 93.1395Z" fill="#FDB702"/>
<path d="M110.319 215.458C123.251 215.458 133.735 204.975 133.735 192.043C133.735 179.111 123.251 168.627 110.319 168.627C97.3873 168.627 86.9038 179.111 86.9038 192.043C86.9038 204.975 97.3873 215.458 110.319 215.458Z" fill="white"/>
<path d="M108.868 192.081V201.925H106.678C104.646 201.925 102.697 201.117 101.26 199.679C99.8232 198.241 99.0159 196.291 99.0159 194.257V192.081H108.868Z" fill="#0075FA"/>
<path d="M119.798 192.081V194.273C119.798 196.306 118.991 198.257 117.554 199.695C116.117 201.133 114.168 201.941 112.135 201.941H109.961V192.081H119.798Z" fill="#0075FA"/>
<path d="M109.961 191.001V188.809C109.961 186.776 110.768 184.825 112.205 183.387C113.642 181.949 115.591 181.142 117.623 181.142H119.813V190.985L109.961 191.001Z" fill="#0075FA"/>
<defs>
<linearGradient id="paint0_linear" x1="53.2156" y1="140.953" x2="178.791" y2="246.819" gradientUnits="userSpaceOnUse">
<stop stop-color="#66ADFF"/>
<stop offset="1" stop-color="#0077FF"/>
</linearGradient>
</defs>
</svg>
