<svg width="157" height="150" viewBox="0 0 157 150" fill="none" xmlns="http://www.w3.org/2000/svg">
<g opacity="0.4">
<path d="M156.714 64.0233L156.496 65.3793C156.314 66.509 155.692 67.5203 154.764 68.1907C153.837 68.8612 152.682 69.1359 151.552 68.9544L151.453 68.9385C150.501 68.7856 149.526 68.9557 148.682 69.4218C147.839 69.8878 147.175 70.623 146.798 71.5099L116.205 143.462C115.322 145.541 113.769 147.265 111.792 148.359C109.815 149.452 107.529 149.852 105.298 149.493L19.9775 135.785C17.6972 135.424 15.61 134.291 14.065 132.575C12.52 130.86 11.611 128.666 11.4899 126.36L7.25303 49.2107C7.19902 48.2273 6.81013 47.292 6.15098 46.5601C5.49184 45.8283 4.60213 45.344 3.62968 45.1878C3.07032 45.0979 2.53414 44.8988 2.05174 44.6017C1.56935 44.3046 1.1502 43.9154 0.818226 43.4563C0.486252 42.9972 0.24795 42.4772 0.116935 41.926C-0.0140796 41.3748 -0.0352389 40.8032 0.0546515 40.2439L0.272487 38.888C0.362351 38.3286 0.561516 37.7924 0.8586 37.31C1.15569 36.8276 1.54488 36.4085 2.00395 36.0765C2.46303 35.7445 2.983 35.5062 3.53418 35.3751C4.08536 35.2441 4.65694 35.2229 5.21631 35.3128L41.3587 41.1197C41.9138 41.2089 42.4828 41.1358 42.9973 40.9091C43.5118 40.6824 43.9498 40.3119 44.2585 39.8421L69.5014 1.43208C69.8354 0.921179 70.3101 0.517847 70.8682 0.270746C71.4264 0.0236444 72.0441 -0.0566679 72.6469 0.0395033C73.0846 0.107205 73.5024 0.26893 73.8716 0.513546C74.2202 0.741603 74.5204 1.03613 74.7551 1.3803C74.9898 1.72446 75.1544 2.11151 75.2394 2.51931C75.3244 2.92711 75.3282 3.34767 75.2505 3.75694C75.1729 4.16621 75.0154 4.55616 74.7869 4.9045L52.5374 38.7517C52.27 39.1586 52.1087 39.6259 52.0682 40.111C52.0277 40.5962 52.1093 41.0838 52.3055 41.5293C52.5018 41.9748 52.8065 42.3641 53.1918 42.6617C53.5771 42.9593 54.0308 43.1557 54.5114 43.233L102.614 50.961C103.095 51.0383 103.587 50.9939 104.047 50.832C104.506 50.67 104.917 50.3956 105.243 50.0338C105.569 49.672 105.799 49.2344 105.913 48.7608C106.026 48.2872 106.019 47.7927 105.892 47.3225L95.3475 8.20809C95.1346 7.39562 95.2509 6.53196 95.6713 5.8048C96.0916 5.07765 96.7819 4.54577 97.5922 4.32476C98.0195 4.20805 98.4669 4.18536 98.9038 4.25826C99.5063 4.35572 100.068 4.62547 100.52 5.03497C100.973 5.44447 101.298 5.97621 101.455 6.56602L113.395 50.9502C113.541 51.4931 113.841 51.9822 114.259 52.3587C114.676 52.7351 115.194 52.9828 115.749 53.0721L153.138 59.0793C153.698 59.1692 154.234 59.3683 154.716 59.6654C155.199 59.9625 155.618 60.3517 155.95 60.8108C156.282 61.2699 156.52 61.7899 156.651 62.3411C156.782 62.8923 156.804 63.4639 156.714 64.0233Z" fill="#418DF9"/>
<path d="M43.4636 53.455L34.0415 51.9412C33.9652 51.9289 33.8934 51.9808 33.8811 52.0572L22.6518 121.945C22.6395 122.022 22.6914 122.094 22.7678 122.106L32.1898 123.62C32.2661 123.632 32.338 123.58 32.3502 123.504L43.5796 53.6155C43.5918 53.5391 43.5399 53.4673 43.4636 53.455Z" fill="#DEE9FF"/>
<path d="M121.459 65.7636L112.037 64.2497C111.96 64.2375 111.888 64.2894 111.876 64.3658L100.647 134.254C100.635 134.33 100.687 134.402 100.763 134.414L110.185 135.928C110.261 135.941 110.333 135.889 110.345 135.812L121.575 65.9241C121.587 65.8477 121.535 65.7759 121.459 65.7636Z" fill="#DEE9FF"/>
<path d="M62.8656 56.5943L53.4468 55.0769C53.3705 55.0647 53.2986 55.1166 53.2863 55.1929L42.0316 125.057C42.0193 125.134 42.0712 125.205 42.1475 125.218L51.5663 126.735C51.6426 126.747 51.7144 126.695 51.7267 126.619L62.9815 56.7547C62.9938 56.6784 62.9419 56.6065 62.8656 56.5943Z" fill="#DEE9FF"/>
<path d="M82.4782 59.5L73.0562 57.9861C72.9799 57.9738 72.908 58.0258 72.8958 58.1021L61.6665 127.99C61.6542 128.067 61.7061 128.138 61.7825 128.151L71.2045 129.665C71.2808 129.677 71.3526 129.625 71.3649 129.549L82.5942 59.6604C82.6064 59.5841 82.5545 59.5122 82.4782 59.5Z" fill="#DEE9FF"/>
<path d="M101.968 62.6337L92.5464 61.1199C92.4701 61.1076 92.3983 61.1595 92.386 61.2359L81.1567 131.124C81.1444 131.2 81.1964 131.272 81.2727 131.284L90.6947 132.798C90.771 132.811 90.8428 132.759 90.8551 132.682L102.084 62.7942C102.097 62.7178 102.045 62.646 101.968 62.6337Z" fill="#DEE9FF"/>
</g>
</svg>
