<svg width="327" height="16" viewBox="0 0 327 16" fill="none" xmlns="http://www.w3.org/2000/svg">
<path d="M124.41 7.49C124.41 6.92333 124.503 6.41 124.69 5.95C124.877 5.48333 125.133 5.08667 125.46 4.76C125.793 4.43333 126.187 4.18333 126.64 4.01C127.1 3.83 127.603 3.74 128.15 3.74C128.703 3.73333 129.21 3.81667 129.67 3.99C130.13 4.15667 130.527 4.40333 130.86 4.73C131.193 5.05667 131.453 5.45 131.64 5.91C131.827 6.37 131.92 6.88333 131.92 7.45C131.92 8.00333 131.827 8.50667 131.64 8.96C131.453 9.41333 131.193 9.80333 130.86 10.13C130.527 10.4567 130.13 10.7133 129.67 10.9C129.21 11.08 128.703 11.1733 128.15 11.18C127.603 11.18 127.1 11.0933 126.64 10.92C126.187 10.74 125.793 10.49 125.46 10.17C125.133 9.84333 124.877 9.45333 124.69 9C124.503 8.54667 124.41 8.04333 124.41 7.49ZM125.73 7.41C125.73 7.79 125.787 8.14 125.9 8.46C126.02 8.78 126.187 9.05667 126.4 9.29C126.613 9.52333 126.867 9.70667 127.16 9.84C127.46 9.97333 127.793 10.04 128.16 10.04C128.527 10.04 128.86 9.97333 129.16 9.84C129.46 9.70667 129.717 9.52333 129.93 9.29C130.143 9.05667 130.307 8.78 130.42 8.46C130.54 8.14 130.6 7.79 130.6 7.41C130.6 7.05667 130.54 6.72667 130.42 6.42C130.307 6.11333 130.143 5.84667 129.93 5.62C129.717 5.38667 129.46 5.20667 129.16 5.08C128.86 4.94667 128.527 4.88 128.16 4.88C127.793 4.88 127.46 4.94667 127.16 5.08C126.867 5.20667 126.613 5.38667 126.4 5.62C126.187 5.84667 126.02 6.11333 125.9 6.42C125.787 6.72667 125.73 7.05667 125.73 7.41ZM133.01 6.2H134.21V6.96H134.23C134.363 6.68 134.553 6.46333 134.8 6.31C135.047 6.15667 135.33 6.08 135.65 6.08C135.723 6.08 135.793 6.08667 135.86 6.1C135.933 6.11333 136.007 6.13 136.08 6.15V7.31C135.98 7.28333 135.88 7.26333 135.78 7.25C135.687 7.23 135.593 7.22 135.5 7.22C135.22 7.22 134.993 7.27333 134.82 7.38C134.653 7.48 134.523 7.59667 134.43 7.73C134.343 7.86333 134.283 7.99667 134.25 8.13C134.223 8.26333 134.21 8.36333 134.21 8.43V11H133.01V6.2ZM143.136 7.64C142.996 7.49333 142.849 7.37667 142.696 7.29C142.542 7.20333 142.386 7.16 142.226 7.16C142.006 7.16 141.809 7.2 141.636 7.28C141.462 7.36 141.312 7.46667 141.186 7.6C141.066 7.73333 140.972 7.88667 140.906 8.06C140.846 8.23333 140.816 8.41333 140.816 8.6C140.816 8.78667 140.846 8.96667 140.906 9.14C140.972 9.31333 141.066 9.46667 141.186 9.6C141.312 9.73333 141.462 9.84 141.636 9.92C141.809 10 142.006 10.04 142.226 10.04C142.412 10.04 142.586 10.0033 142.746 9.93C142.906 9.85 143.042 9.73667 143.156 9.59L143.956 10.45C143.836 10.57 143.696 10.6733 143.536 10.76C143.382 10.8467 143.226 10.9167 143.066 10.97C142.906 11.0233 142.752 11.06 142.606 11.08C142.459 11.1067 142.332 11.12 142.226 11.12C141.866 11.12 141.526 11.06 141.206 10.94C140.886 10.82 140.609 10.65 140.376 10.43C140.142 10.21 139.956 9.94667 139.816 9.64C139.682 9.32667 139.616 8.98 139.616 8.6C139.616 8.22 139.682 7.87667 139.816 7.57C139.956 7.25667 140.142 6.99 140.376 6.77C140.609 6.55 140.886 6.38 141.206 6.26C141.526 6.14 141.866 6.08 142.226 6.08C142.532 6.08 142.839 6.14 143.146 6.26C143.459 6.37333 143.732 6.55667 143.966 6.81L143.136 7.64ZM144.44 8.6C144.44 8.22 144.507 7.87667 144.64 7.57C144.78 7.25667 144.967 6.99 145.2 6.77C145.433 6.55 145.71 6.38 146.03 6.26C146.35 6.14 146.69 6.08 147.05 6.08C147.41 6.08 147.75 6.14 148.07 6.26C148.39 6.38 148.667 6.55 148.9 6.77C149.133 6.99 149.317 7.25667 149.45 7.57C149.59 7.87667 149.66 8.22 149.66 8.6C149.66 8.98 149.59 9.32667 149.45 9.64C149.317 9.94667 149.133 10.21 148.9 10.43C148.667 10.65 148.39 10.82 148.07 10.94C147.75 11.06 147.41 11.12 147.05 11.12C146.69 11.12 146.35 11.06 146.03 10.94C145.71 10.82 145.433 10.65 145.2 10.43C144.967 10.21 144.78 9.94667 144.64 9.64C144.507 9.32667 144.44 8.98 144.44 8.6ZM145.64 8.6C145.64 8.78667 145.67 8.96667 145.73 9.14C145.797 9.31333 145.89 9.46667 146.01 9.6C146.137 9.73333 146.287 9.84 146.46 9.92C146.633 10 146.83 10.04 147.05 10.04C147.27 10.04 147.467 10 147.64 9.92C147.813 9.84 147.96 9.73333 148.08 9.6C148.207 9.46667 148.3 9.31333 148.36 9.14C148.427 8.96667 148.46 8.78667 148.46 8.6C148.46 8.41333 148.427 8.23333 148.36 8.06C148.3 7.88667 148.207 7.73333 148.08 7.6C147.96 7.46667 147.813 7.36 147.64 7.28C147.467 7.2 147.27 7.16 147.05 7.16C146.83 7.16 146.633 7.2 146.46 7.28C146.287 7.36 146.137 7.46667 146.01 7.6C145.89 7.73333 145.797 7.88667 145.73 8.06C145.67 8.23333 145.64 8.41333 145.64 8.6ZM150.784 6.2H151.924V6.97H151.944C152.057 6.73 152.23 6.52333 152.464 6.35C152.697 6.17 153.014 6.08 153.414 6.08C153.734 6.08 154.004 6.13333 154.224 6.24C154.45 6.34667 154.634 6.48667 154.774 6.66C154.914 6.83333 155.014 7.03333 155.074 7.26C155.134 7.48667 155.164 7.72333 155.164 7.97V11H153.964V8.57C153.964 8.43667 153.957 8.29 153.944 8.13C153.93 7.96333 153.894 7.81 153.834 7.67C153.78 7.52333 153.694 7.40333 153.574 7.31C153.454 7.21 153.29 7.16 153.084 7.16C152.884 7.16 152.714 7.19333 152.574 7.26C152.44 7.32667 152.327 7.41667 152.234 7.53C152.147 7.64333 152.084 7.77333 152.044 7.92C152.004 8.06667 151.984 8.22 151.984 8.38V11H150.784V6.2ZM155.966 7.22V6.2H156.956V4.81H158.156V6.2H159.476V7.22H158.156V9.32C158.156 9.56 158.199 9.75 158.286 9.89C158.379 10.03 158.559 10.1 158.826 10.1C158.932 10.1 159.049 10.09 159.176 10.07C159.302 10.0433 159.402 10.0033 159.476 9.95V10.96C159.349 11.02 159.192 11.06 159.006 11.08C158.826 11.1067 158.666 11.12 158.526 11.12C158.206 11.12 157.942 11.0833 157.736 11.01C157.536 10.9433 157.376 10.84 157.256 10.7C157.142 10.5533 157.062 10.3733 157.016 10.16C156.976 9.94667 156.956 9.7 156.956 9.42V7.22H155.966ZM160.442 6.2H161.642V11H160.442V6.2ZM160.272 4.57C160.272 4.37667 160.342 4.21 160.482 4.07C160.629 3.92333 160.812 3.85 161.032 3.85C161.252 3.85 161.436 3.92 161.582 4.06C161.736 4.19333 161.812 4.36333 161.812 4.57C161.812 4.77667 161.736 4.95 161.582 5.09C161.436 5.22333 161.252 5.29 161.032 5.29C160.812 5.29 160.629 5.22 160.482 5.08C160.342 4.93333 160.272 4.76333 160.272 4.57ZM163.02 6.2H164.16V6.97H164.18C164.293 6.73 164.467 6.52333 164.7 6.35C164.933 6.17 165.25 6.08 165.65 6.08C165.97 6.08 166.24 6.13333 166.46 6.24C166.687 6.34667 166.87 6.48667 167.01 6.66C167.15 6.83333 167.25 7.03333 167.31 7.26C167.37 7.48667 167.4 7.72333 167.4 7.97V11H166.2V8.57C166.2 8.43667 166.193 8.29 166.18 8.13C166.167 7.96333 166.13 7.81 166.07 7.67C166.017 7.52333 165.93 7.40333 165.81 7.31C165.69 7.21 165.527 7.16 165.32 7.16C165.12 7.16 164.95 7.19333 164.81 7.26C164.677 7.32667 164.563 7.41667 164.47 7.53C164.383 7.64333 164.32 7.77333 164.28 7.92C164.24 8.06667 164.22 8.22 164.22 8.38V11H163.02V6.2ZM173.142 11H172.002V10.23H171.982C171.869 10.47 171.695 10.68 171.462 10.86C171.229 11.0333 170.912 11.12 170.512 11.12C170.192 11.12 169.919 11.07 169.692 10.97C169.472 10.8633 169.292 10.7233 169.152 10.55C169.012 10.37 168.912 10.1667 168.852 9.94C168.792 9.71333 168.762 9.47667 168.762 9.23V6.2H169.962V8.63C169.962 8.76333 169.969 8.91333 169.982 9.08C169.995 9.24 170.029 9.39333 170.082 9.54C170.142 9.68 170.229 9.8 170.342 9.9C170.462 9.99333 170.629 10.04 170.842 10.04C171.042 10.04 171.209 10.0067 171.342 9.94C171.482 9.87333 171.595 9.78333 171.682 9.67C171.775 9.55667 171.842 9.42667 171.882 9.28C171.922 9.13333 171.942 8.98 171.942 8.82V6.2H173.142V11ZM175.464 9.02C175.504 9.38 175.644 9.66 175.884 9.86C176.124 10.06 176.414 10.16 176.754 10.16C177.054 10.16 177.304 10.1 177.504 9.98C177.711 9.85333 177.891 9.69667 178.044 9.51L178.904 10.16C178.624 10.5067 178.311 10.7533 177.964 10.9C177.618 11.0467 177.254 11.12 176.874 11.12C176.514 11.12 176.174 11.06 175.854 10.94C175.534 10.82 175.258 10.65 175.024 10.43C174.791 10.21 174.604 9.94667 174.464 9.64C174.331 9.32667 174.264 8.98 174.264 8.6C174.264 8.22 174.331 7.87667 174.464 7.57C174.604 7.25667 174.791 6.99 175.024 6.77C175.258 6.55 175.534 6.38 175.854 6.26C176.174 6.14 176.514 6.08 176.874 6.08C177.208 6.08 177.511 6.14 177.784 6.26C178.064 6.37333 178.301 6.54 178.494 6.76C178.694 6.98 178.848 7.25333 178.954 7.58C179.068 7.9 179.124 8.27 179.124 8.69V9.02H175.464ZM177.924 8.12C177.918 7.76667 177.808 7.49 177.594 7.29C177.381 7.08333 177.084 6.98 176.704 6.98C176.344 6.98 176.058 7.08333 175.844 7.29C175.638 7.49667 175.511 7.77333 175.464 8.12H177.924ZM182.555 6.2H183.855L184.895 9.56H184.915L185.885 6.2H187.185L188.225 9.56H188.245L189.245 6.2H190.455L188.825 11H187.635L186.495 7.72H186.475L185.465 11H184.225L182.555 6.2ZM191.184 6.2H192.384V11H191.184V6.2ZM191.014 4.57C191.014 4.37667 191.084 4.21 191.224 4.07C191.371 3.92333 191.554 3.85 191.774 3.85C191.994 3.85 192.178 3.92 192.324 4.06C192.478 4.19333 192.554 4.36333 192.554 4.57C192.554 4.77667 192.478 4.95 192.324 5.09C192.178 5.22333 191.994 5.29 191.774 5.29C191.554 5.29 191.371 5.22 191.224 5.08C191.084 4.93333 191.014 4.76333 191.014 4.57ZM193.202 7.22V6.2H194.192V4.81H195.392V6.2H196.712V7.22H195.392V9.32C195.392 9.56 195.435 9.75 195.522 9.89C195.615 10.03 195.795 10.1 196.062 10.1C196.169 10.1 196.285 10.09 196.412 10.07C196.539 10.0433 196.639 10.0033 196.712 9.95V10.96C196.585 11.02 196.429 11.06 196.242 11.08C196.062 11.1067 195.902 11.12 195.762 11.12C195.442 11.12 195.179 11.0833 194.972 11.01C194.772 10.9433 194.612 10.84 194.492 10.7C194.379 10.5533 194.299 10.3733 194.252 10.16C194.212 9.94667 194.192 9.7 194.192 9.42V7.22H193.202ZM198.859 6.87H198.879C198.972 6.67 199.135 6.49 199.369 6.33C199.609 6.16333 199.915 6.08 200.289 6.08C200.609 6.08 200.879 6.13333 201.099 6.24C201.325 6.34667 201.509 6.48667 201.649 6.66C201.789 6.83333 201.889 7.03333 201.949 7.26C202.009 7.48667 202.039 7.72333 202.039 7.97V11H200.839V8.57C200.839 8.43667 200.832 8.29 200.819 8.13C200.805 7.96333 200.769 7.81 200.709 7.67C200.655 7.52333 200.569 7.40333 200.449 7.31C200.329 7.21 200.165 7.16 199.959 7.16C199.759 7.16 199.589 7.19333 199.449 7.26C199.315 7.32667 199.202 7.41667 199.109 7.53C199.022 7.64333 198.959 7.77333 198.919 7.92C198.879 8.06667 198.859 8.22 198.859 8.38V11H197.659V3.44H198.859V6.87Z" fill="#B7B7B7"/>
<line x1="0.998328" y1="7.86231" x2="109.331" y2="7.49999" stroke="#8897A0"/>
<line x1="217.998" y1="7.86231" x2="326.331" y2="7.49999" stroke="#8897A0"/>
</svg>
