<svg width="16" height="18" viewBox="0 0 16 18" fill="none" xmlns="http://www.w3.org/2000/svg">
<path fill-rule="evenodd" clip-rule="evenodd" d="M14.9059 3.33138C15.2301 3.33138 15.5 3.60054 15.5 3.94304V4.2597C15.5 4.59387 15.2301 4.87136 14.9059 4.87136H1.09488C0.769883 4.87136 0.5 4.59387 0.5 4.2597V3.94304C0.5 3.60054 0.769883 3.33138 1.09488 3.33138H3.52464C4.01821 3.33138 4.44775 2.98055 4.55879 2.48555L4.68603 1.91723C4.88378 1.14307 5.53458 0.628906 6.27939 0.628906H9.72061C10.4573 0.628906 11.1154 1.14307 11.3059 1.87639L11.442 2.48472C11.5522 2.98055 11.9818 3.33138 12.4762 3.33138H14.9059ZM13.6716 14.9079C13.9253 12.5437 14.3694 6.92714 14.3694 6.87047C14.3857 6.69881 14.3297 6.53631 14.2187 6.40548C14.0996 6.28298 13.9488 6.21048 13.7827 6.21048H2.22389C2.05693 6.21048 1.89808 6.28298 1.78786 6.40548C1.67601 6.53631 1.6209 6.69881 1.62901 6.87047C1.6305 6.88088 1.64643 7.07873 1.67308 7.40949C1.79144 8.87885 2.12109 12.9713 2.33411 14.9079C2.48485 16.3345 3.42094 17.2312 4.77683 17.2637C5.82314 17.2879 6.90105 17.2962 8.00328 17.2962C9.04148 17.2962 10.0959 17.2879 11.1746 17.2637C12.5775 17.2395 13.5128 16.3587 13.6716 14.9079Z" fill="#0075FA"/>
</svg>
