<svg width="20" height="21" viewBox="0 0 20 21" fill="none" xmlns="http://www.w3.org/2000/svg">
<path fill-rule="evenodd" clip-rule="evenodd" d="M14.6653 0.971273C16.1038 0.881366 17.5224 1.38085 18.5913 2.35984C19.5703 3.42873 20.0697 4.84726 19.9898 6.29576V15.6261C20.0797 17.0746 19.5703 18.4931 18.6013 19.562C17.5323 20.541 16.1038 21.0405 14.6653 20.9506H5.33487C3.88636 21.0405 2.46781 20.541 1.39891 19.562C0.419915 18.4931 -0.0795724 17.0746 0.0103353 15.6261V6.29576C-0.0795724 4.84726 0.419915 3.42873 1.39891 2.35984C2.46781 1.38085 3.88636 0.881366 5.33487 0.971273H14.6653ZM8.98113 15.8059L15.7042 9.0629C16.3136 8.44354 16.3136 7.44458 15.7042 6.83521L14.4056 5.53655C13.7862 4.91719 12.7872 4.91719 12.1679 5.53655L11.4985 6.21585C11.3986 6.31574 11.3986 6.48557 11.4985 6.58546C11.4985 6.58546 13.0869 8.16383 13.1169 8.20379C13.2268 8.32367 13.2967 8.4835 13.2967 8.66331C13.2967 9.02294 13.007 9.32263 12.6374 9.32263C12.4675 9.32263 12.3077 9.2527 12.1978 9.14282L10.5295 7.48453C10.4496 7.40462 10.3098 7.40462 10.2298 7.48453L5.46474 12.2496C5.13507 12.5793 4.94527 13.0188 4.93528 13.4883L4.87534 15.8559C4.87534 15.9857 4.9153 16.1056 5.00521 16.1955C5.09512 16.2854 5.21499 16.3354 5.34486 16.3354H7.69245C8.17196 16.3354 8.63149 16.1456 8.98113 15.8059Z" fill="url(#paint0_linear)"/>
<defs>
<linearGradient id="paint0_linear" x1="0" y1="0.960938" x2="20" y2="21.6442" gradientUnits="userSpaceOnUse">
<stop stop-color="#66ADFF"/>
<stop offset="1" stop-color="#0077FF"/>
</linearGradient>
</defs>
</svg>
