<svg width="44" height="44" viewBox="0 0 44 44" fill="none" xmlns="http://www.w3.org/2000/svg">
<circle cx="22" cy="22" r="22" fill="white"/>
<path d="M22.001 12.0039C16.479 12.0039 12.002 16.4809 12.002 22.0029C12.002 26.9929 15.658 31.1289 20.439 31.8819V24.8939H17.899V22.0029H20.439V19.7999C20.439 17.2919 21.932 15.9089 24.215 15.9089C25.309 15.9089 26.455 16.1039 26.455 16.1039V18.5629H25.191C23.951 18.5629 23.563 19.3349 23.563 20.1259V22.0009H26.334L25.891 24.8919H23.563V31.8799C28.344 31.1309 32 26.9939 32 22.0029C32 16.4809 27.523 12.0039 22.001 12.0039Z" fill="#374B58"/>
</svg>
