<svg width="157" height="238" viewBox="0 0 157 238" fill="none" xmlns="http://www.w3.org/2000/svg">
<path d="M134.581 0H22.6389V201.929H134.581V0Z" fill="#1765CF"/>
<path d="M127.811 7.49219H29.4088V190.308H127.811V7.49219Z" fill="#4F94F9" stroke="#0553A8" stroke-width="0.951707"/>
<path d="M105.109 100.015L105.507 98.8931L103.248 96.4493L105.507 98.8931L105.916 97.7383L59.2782 27.7813L50.9987 26.7838L52.7822 28.5064L50.9987 26.7838L50.2325 26.6914L50.9987 26.7838L45.3821 21.3594V105.592H111.697L105.507 98.8931L105.109 100.015Z" fill="#1765CF"/>
<path opacity="0.41" d="M45.3821 21.207V21.3623L50.9987 26.7867L59.2782 27.7842L58.4484 26.5392L59.2782 27.7842L63.0988 28.2444L59.2782 27.7842L105.916 97.7412L106.814 95.2121L105.916 97.7412L106.504 98.6225L105.916 97.7412L105.507 98.896L111.697 105.595H111.838V21.207H45.3821Z" fill="#CDDBFE"/>
<path d="M109.036 23.9688H48.1837V102.831H109.036V23.9688Z" fill="#2C82E1"/>
<path d="M105.109 166.655L105.507 165.533L103.248 163.089L105.507 165.533L105.916 164.379L59.2782 123.063L50.9987 122.065L52.7822 123.788L50.9987 122.065L50.2325 121.973L50.9987 122.065L45.3821 116.641V172.233H111.697L105.507 165.533L105.109 166.655Z" fill="#1765CF"/>
<path opacity="0.41" d="M45.3821 116.488V116.644L50.9987 122.068L59.2782 123.065L58.4484 121.82L59.2782 123.065L63.0988 123.526L59.2782 123.065L105.916 164.381L106.814 161.852L105.916 164.381L106.504 165.263L105.916 164.381L105.507 165.536L111.697 172.235H111.838V116.488H45.3821Z" fill="#CDDBFE"/>
<path d="M109.036 119.25H48.1837V169.471H109.036V119.25Z" fill="#2C82E1"/>
<path opacity="0.61" d="M42.2433 85.1041C42.2433 82.7577 40.3411 80.8555 37.9946 80.8555C35.6481 80.8555 33.7459 82.7577 33.7459 85.1041V101.496C33.7459 103.842 35.6481 105.745 37.9946 105.745C40.3411 105.745 42.2433 103.842 42.2433 101.496V85.1041Z" fill="#03277D"/>
<path d="M50.6709 89.7857H37.8675C37.4841 89.7857 37.1164 89.6334 36.8453 89.3623C36.5742 89.0912 36.4219 88.7235 36.4219 88.3401C36.4219 87.9567 36.5742 87.589 36.8453 87.3179C37.1164 87.0468 37.4841 86.8945 37.8675 86.8945H50.6709C50.8607 86.8945 51.0487 86.9319 51.2241 87.0046C51.3995 87.0772 51.5588 87.1837 51.6931 87.3179C51.8273 87.4522 51.9338 87.6115 52.0064 87.7869C52.0791 87.9623 52.1165 88.1503 52.1165 88.3401C52.1165 88.53 52.0791 88.7179 52.0064 88.8933C51.9338 89.0687 51.8273 89.2281 51.6931 89.3623C51.5588 89.4965 51.3995 89.603 51.2241 89.6757C51.0487 89.7483 50.8607 89.7857 50.6709 89.7857Z" fill="#03277D"/>
<path d="M37.9945 98.4903C38.708 98.4903 39.2865 97.9118 39.2865 97.1983C39.2865 96.4847 38.708 95.9062 37.9945 95.9062C37.2809 95.9062 36.7025 96.4847 36.7025 97.1983C36.7025 97.9118 37.2809 98.4903 37.9945 98.4903Z" fill="#03277D"/>
<path d="M37.9946 101.094C37.9216 101.094 37.8493 101.08 37.7819 101.052C37.7144 101.024 37.6532 100.983 37.6016 100.932C37.55 100.88 37.509 100.819 37.4811 100.751C37.4532 100.684 37.4388 100.612 37.4388 100.539V96.6808C37.4388 96.6078 37.4532 96.5355 37.4811 96.4681C37.509 96.4007 37.55 96.3394 37.6016 96.2878C37.6532 96.2362 37.7144 96.1952 37.7819 96.1673C37.8493 96.1394 37.9216 96.125 37.9946 96.125C38.0676 96.125 38.1398 96.1394 38.2073 96.1673C38.2747 96.1952 38.336 96.2362 38.3876 96.2878C38.4392 96.3394 38.4801 96.4007 38.508 96.4681C38.536 96.5355 38.5503 96.6078 38.5503 96.6808V100.539C38.5503 100.612 38.536 100.684 38.508 100.751C38.4801 100.819 38.4392 100.88 38.3876 100.932C38.336 100.983 38.2747 101.024 38.2073 101.052C38.1398 101.08 38.0676 101.094 37.9946 101.094Z" fill="#03277D"/>
<path d="M156.504 222.773H0V237.999H156.504V222.773Z" fill="#ADC4EA"/>
<path d="M146.449 215.234H10.0554L0.000244141 222.775H156.504L146.449 215.234Z" fill="#1765CF"/>
<path d="M146.298 202.781H10.1727V215.234H146.298V202.781Z" fill="#ADC4EA"/>
<path d="M138.074 196.613H18.3968L10.1726 202.78H146.298L138.074 196.613Z" fill="#1765CF"/>
<path d="M51.0044 183.527C50.3459 183.859 49.6472 184.105 48.9255 184.258C49.8214 183.485 50.5182 182.508 50.9569 181.409C50.9118 180.634 50.836 179.804 50.7339 178.926C49.8885 179.562 48.782 179.929 47.7929 180.155C49.108 179.079 49.7839 177.754 50.3578 176.271C50.2622 175.703 50.16 175.124 50.0468 174.528C49.121 175.33 47.8199 175.783 46.6604 176.054C48.1111 174.886 48.842 173.452 49.4761 171.84C49.364 171.345 49.2455 170.847 49.119 170.34C48.137 171.182 46.7559 171.662 45.5295 171.95C47.0039 170.784 47.7808 169.369 48.4437 167.786C48.3066 167.295 48.1613 166.799 48.0118 166.299C46.9874 167.088 45.6194 167.557 44.3988 167.847C45.8094 166.749 46.6226 165.442 47.2901 163.99C47.1149 163.449 46.9275 162.905 46.7398 162.357C45.7062 163.039 44.423 163.466 43.2682 163.744C44.4306 162.836 45.3731 161.678 46.0251 160.355C45.772 159.675 45.5125 159.007 45.2515 158.349C44.223 159.163 42.83 159.642 41.5884 159.937C42.9421 158.883 43.7417 157.638 44.3946 156.259C44.1303 155.64 43.8665 155.031 43.6 154.437C42.614 155.333 41.1778 155.833 39.9109 156.13C41.2542 155.069 42.0196 153.803 42.6466 152.391C42.3589 151.798 42.0715 151.221 41.7843 150.659C40.8548 151.555 39.4601 152.039 38.2313 152.324C39.4853 151.317 40.1999 150.111 40.7811 148.765C40.4479 148.164 40.1181 147.586 39.7917 147.03C38.9215 147.826 37.6678 148.263 36.5562 148.517C37.6348 147.635 38.2836 146.583 38.7984 145.412C38.3824 144.764 37.9748 144.153 37.5763 143.595C36.7931 144.176 35.7834 144.507 34.8767 144.71C35.6315 144.07 36.2409 143.275 36.6641 142.381C34.8313 140.067 33.2674 138.889 32.3114 139.23C29.7614 140.136 34.2059 150.84 38.9844 164.293C43.7632 177.748 47.0653 188.857 49.6167 187.951C50.4877 187.641 50.9568 186.038 51.0044 183.527Z" fill="#FD9F02"/>
<path d="M37.5762 143.593C37.2656 143.16 36.9607 142.754 36.664 142.379C36.2408 143.274 35.6314 144.068 34.8766 144.708C35.7833 144.505 36.793 144.174 37.5762 143.593ZM36.5561 148.515C37.6678 148.261 38.9214 147.825 39.7916 147.028C39.4568 146.463 39.1257 145.923 38.7983 145.41C38.2835 146.581 37.6348 147.633 36.5561 148.515ZM38.2312 152.322C39.4601 152.037 40.8547 151.553 41.7843 150.657C41.4478 150.004 41.1134 149.373 40.781 148.763C40.1998 150.109 39.4852 151.315 38.2312 152.322ZM39.9109 156.128C41.1778 155.832 42.6139 155.331 43.6 154.435C43.2837 153.736 42.9659 153.054 42.6465 152.389C42.0195 153.802 41.2542 155.068 39.9109 156.128ZM45.2514 158.347C44.9713 157.636 44.6857 156.939 44.3946 156.257C43.7416 157.636 42.942 158.881 41.5884 159.935C42.8299 159.64 44.223 159.161 45.2514 158.347ZM48.9255 184.256C49.6471 184.103 50.3458 183.857 51.0043 183.525C51.0166 182.878 51.0009 182.167 50.9568 181.407C50.5181 182.506 49.8213 183.483 48.9255 184.256ZM47.7928 180.153C48.7819 179.927 49.8884 179.56 50.7338 178.924C50.6339 178.082 50.5099 177.195 50.3577 176.269C49.7838 177.752 49.1079 179.077 47.7928 180.153ZM46.6603 176.052C47.8198 175.781 49.1209 175.329 50.0467 174.526C49.8792 173.658 49.689 172.762 49.476 171.838C48.842 173.45 48.111 174.885 46.6603 176.052ZM45.5294 171.948C46.7558 171.66 48.1369 171.181 49.119 170.338C48.9103 169.501 48.6852 168.65 48.4436 167.784C47.7807 169.367 47.0038 170.782 45.5294 171.948ZM48.0117 166.297C47.7847 165.536 47.5442 164.766 47.29 163.988C46.6225 165.44 45.8093 166.747 44.3987 167.845C45.6193 167.555 46.9873 167.086 48.0117 166.297ZM46.7397 162.355C46.6557 162.111 46.5738 161.87 46.4878 161.626C46.3352 161.198 46.179 160.775 46.025 160.353C45.373 161.676 44.4306 162.834 43.2681 163.742C44.4229 163.464 45.7061 163.037 46.7397 162.355Z" fill="#CE7C05"/>
<path d="M53.6164 163.097L53.5775 173.209C53.5757 174.001 52.7875 174.648 51.8263 174.641L45.9824 174.621C45.0172 174.618 44.2328 173.97 44.2347 173.174L44.2717 163.062L44.2971 155.92C44.3009 154.743 46.1221 151.384 46.792 151.309L51.1837 151.326C51.8498 151.403 53.6436 154.778 53.6416 155.952L53.6164 163.097Z" fill="white"/>
<path d="M51.0828 149.98L46.7028 149.965C45.3416 149.959 43.4989 154.195 43.4952 155.405L43.4312 173.079C43.4273 174.29 44.5261 175.276 45.8872 175.28L51.7195 175.302C53.0784 175.305 54.1852 174.329 54.189 173.119L54.2512 155.442C54.2551 154.232 52.4455 149.986 51.0828 149.98ZM53.2593 162.891L53.2223 172.696C53.2203 173.463 52.4748 174.09 51.5679 174.086L46.0483 174.065C45.1377 174.063 44.3982 173.434 44.3999 172.665L44.4347 162.86L44.4604 155.933C44.4641 154.795 46.1821 151.537 46.8153 151.465L50.9622 151.479C51.5914 151.555 53.2865 154.826 53.2825 155.966L53.2593 162.891Z" fill="#CDDBFE"/>
<path d="M52.7074 148.897L52.7131 147.48C52.7138 147.326 52.6842 147.174 52.626 147.032C52.5678 146.89 52.4821 146.761 52.3739 146.652C52.2657 146.543 52.1371 146.457 51.9954 146.398C51.8537 146.339 51.7018 146.309 51.5484 146.309L46.3978 146.289C46.2443 146.288 46.0921 146.317 45.9499 146.375C45.8077 146.433 45.6783 146.519 45.5692 146.627C45.46 146.735 45.3733 146.863 45.3139 147.005C45.2544 147.147 45.2235 147.298 45.2229 147.452L45.219 148.872C45.2202 148.985 45.2381 149.097 45.272 149.206H52.6604C52.69 149.105 52.7058 149.001 52.7074 148.897Z" fill="#FE2D5D"/>
<path d="M45.2721 149.207C45.3419 149.449 45.4882 149.661 45.6891 149.813C45.89 149.965 46.1346 150.047 46.3863 150.048L51.5333 150.065C51.7893 150.066 52.0384 149.982 52.2421 149.827C52.4459 149.672 52.5929 149.454 52.6605 149.207H45.2721Z" fill="#CB0030"/>
<path d="M58.695 144.037C58.6535 143.178 58.6429 142.409 58.5655 140.961L55.8203 141.209C56.0038 142.648 56.1319 143.406 56.2448 144.258L58.695 144.037Z" fill="#FC8006"/>
<path d="M58.7002 143.996L56.25 144.218C56.5505 146.46 56.8211 150.21 56.1182 151.71C54.8787 154.362 54.0956 153.515 54.6845 160.02C55.2736 166.526 55.8056 172.402 55.8056 172.402L64.1992 171.642C64.1992 171.642 63.6672 165.766 63.0782 159.26C62.4892 152.755 61.8732 153.729 60.176 151.343C59.2159 149.993 58.8078 146.256 58.7002 143.996ZM62.1212 159.346L62.6617 165.316L56.183 165.903L55.6425 159.933C55.5545 158.962 55.4986 158.167 55.4686 157.509L61.8568 156.93C61.9446 157.583 62.0332 158.375 62.1212 159.346Z" fill="#03277D"/>
<path d="M62.1214 159.346L62.6619 165.316L56.1831 165.902L55.6426 159.932C55.5547 158.961 55.4988 158.166 55.4688 157.508L61.857 156.93C61.9447 157.583 62.0334 158.374 62.1214 159.346Z" fill="white"/>
<path d="M66.8198 153.836C67.307 154.428 67.7404 155.063 68.1148 155.732C68.2592 155.99 68.3939 156.252 68.5189 156.517C68.7152 156.932 68.8884 157.357 69.038 157.792C69.1362 158.073 69.2241 158.358 69.3016 158.646C69.4531 159.206 69.5661 159.776 69.6399 160.351C69.6818 160.671 69.7113 160.991 69.7284 161.312C69.7664 162.011 69.7472 162.712 69.6712 163.409C69.6331 163.766 69.5797 164.122 69.511 164.474C69.3601 165.258 69.1361 166.026 68.842 166.768C68.7147 167.092 68.5731 167.411 68.4173 167.726C68.0168 168.538 67.5311 169.305 66.9686 170.014C66.767 170.27 66.554 170.518 66.3294 170.76C66.1045 171.004 65.8685 171.24 65.6214 171.47C65.2919 171.776 64.9466 172.065 64.587 172.335C64.3185 172.536 64.0443 172.726 63.7642 172.904C63.2258 173.247 62.6622 173.549 62.078 173.807C61.8031 173.93 61.5247 174.042 61.2427 174.143C60.4882 174.416 59.7097 174.617 58.9174 174.744C58.5496 174.803 58.1804 174.847 57.8098 174.873C57.25 174.915 56.6881 174.919 56.1277 174.887C55.779 174.868 55.4316 174.834 55.0856 174.786C54.4325 174.696 53.7872 174.556 53.1555 174.367C52.8355 174.272 52.5203 174.164 52.2075 174.044C51.4072 173.735 50.64 173.347 49.9173 172.885C49.639 172.707 49.3668 172.518 49.1007 172.317C48.6974 172.013 48.3123 171.685 47.9476 171.336L66.8198 153.836Z" fill="#48956B"/>
<path d="M69.6709 163.407C69.6328 163.765 69.5794 164.12 69.5107 164.473C69.494 164.475 69.4772 164.478 69.4604 164.481C69.2591 164.526 69.0229 164.66 68.8729 164.519C68.828 164.476 68.8037 164.416 68.7582 164.374C68.6738 164.315 68.5701 164.289 68.4676 164.302C68.1228 164.301 67.778 164.302 67.4331 164.303C67.4518 164.301 67.4704 164.3 67.4884 164.298L67.2769 163.499C67.3238 163.42 67.3936 163.357 67.4772 163.318C67.5607 163.28 67.6539 163.268 67.7444 163.284C67.9246 163.32 68.0977 163.385 68.2562 163.477C68.4161 163.57 68.5993 163.613 68.7835 163.603C68.9274 163.568 69.0672 163.518 69.201 163.454C69.3517 163.401 69.5128 163.385 69.6709 163.407ZM58.5476 172.969C58.5612 173.152 58.5442 173.336 58.4973 173.514C58.4506 173.692 58.4572 173.88 58.5162 174.055C58.5888 174.184 58.6741 174.305 58.7709 174.417C58.8391 174.516 58.8886 174.626 58.9171 174.742C58.5493 174.802 58.1801 174.845 57.8095 174.872C57.7094 174.711 57.5723 174.544 57.6574 174.385C57.686 174.33 57.7379 174.29 57.7659 174.235C57.8007 174.138 57.7984 174.032 57.7592 173.936C57.6671 173.604 57.5749 173.271 57.4828 172.939L57.5023 172.992L58.2164 172.576C58.3052 172.599 58.3845 172.65 58.4437 172.72C58.5029 172.791 58.5392 172.878 58.5476 172.969ZM56.0957 172.803C56.0765 172.985 56.0272 173.164 55.9497 173.33C55.8718 173.498 55.8444 173.684 55.8708 173.867C55.9192 174.007 55.9815 174.141 56.0569 174.269C56.1438 174.462 56.1684 174.678 56.1274 174.886C55.7787 174.867 55.4313 174.833 55.0853 174.785C55.0833 174.728 55.0739 174.673 55.0571 174.619C54.9941 174.422 54.8395 174.199 54.967 174.037C55.0057 173.988 55.063 173.958 55.1011 173.91C55.1523 173.82 55.1688 173.715 55.1475 173.614C55.1166 173.27 55.0852 172.927 55.0534 172.584C55.0567 172.602 55.0606 172.62 55.0632 172.639L55.8405 172.356C55.9232 172.396 55.992 172.46 56.0376 172.54C56.0831 172.62 56.1034 172.711 56.0957 172.803ZM53.5627 172.586C53.5074 172.761 53.4232 172.926 53.3135 173.073C53.2038 173.222 53.1399 173.399 53.1297 173.583C53.1569 173.782 53.1733 173.982 53.1789 174.183C53.1741 174.244 53.1662 174.305 53.1552 174.366C52.8352 174.271 52.52 174.163 52.2072 174.043C52.1955 173.892 52.2069 173.741 52.2411 173.594C52.294 173.488 52.3552 173.387 52.4242 173.291C52.4895 173.125 52.5193 172.946 52.5117 172.768C52.5295 172.567 52.5634 172.364 52.5858 172.162L52.584 172.219L53.4023 172.098C53.4754 172.153 53.5299 172.23 53.5585 172.317C53.5871 172.404 53.5886 172.498 53.5627 172.586ZM68.8417 166.767C68.7143 167.09 68.5727 167.41 68.417 167.725C68.1109 167.615 67.747 167.589 67.4713 167.409C67.3444 167.327 67.2403 167.215 67.114 167.132C67.0538 167.086 66.9835 167.055 66.909 167.042C66.8344 167.029 66.7579 167.034 66.6857 167.057L67.0635 165.815C67.1349 165.783 67.2142 165.775 67.2904 165.791C67.3667 165.807 67.4361 165.846 67.4889 165.903C67.5916 166.02 67.6757 166.151 67.7382 166.293C67.8013 166.436 67.9095 166.555 68.0462 166.63C68.2794 166.734 68.5749 166.608 68.7965 166.736C68.8124 166.745 68.8275 166.755 68.8417 166.767ZM50.8476 171.2C50.8755 171.292 50.7739 171.365 50.6977 171.424C50.3102 171.723 50.3464 172.331 50.0546 172.726C50.0122 172.781 49.9663 172.834 49.917 172.883C49.6386 172.706 49.3664 172.517 49.1003 172.316C49.1886 172.266 49.2616 172.193 49.3114 172.105C49.4293 171.879 49.3215 171.576 49.4621 171.362C49.5804 171.232 49.7309 171.136 49.8983 171.084C50.0557 171.008 50.2171 170.868 50.1956 170.694C50.3849 170.831 50.5734 170.967 50.7609 171.104C50.7995 171.126 50.83 171.159 50.8476 171.2ZM61.6006 171.971C61.6061 172.126 61.5872 172.281 61.5446 172.43C61.5022 172.58 61.5102 172.741 61.5675 172.887C61.6814 173.115 61.9888 173.207 62.078 173.446C62.112 173.564 62.1119 173.688 62.0777 173.806C61.8028 173.928 61.5244 174.04 61.2424 174.142C61.1023 173.786 60.7466 173.499 60.6277 173.121C60.5828 172.976 60.5735 172.822 60.5293 172.679C60.5121 172.605 60.4774 172.536 60.4283 172.479C60.3791 172.421 60.3169 172.376 60.2468 172.347L61.3305 171.631C61.4051 171.653 61.4712 171.697 61.5196 171.758C61.568 171.819 61.5963 171.893 61.6006 171.971ZM66.4836 169.157C66.5671 169.281 66.6289 169.419 66.6663 169.563C66.7358 169.732 66.8385 169.885 66.9682 170.013C66.7667 170.268 66.5536 170.517 66.329 170.759C66.2043 170.671 66.0905 170.568 65.9899 170.454C65.8989 170.323 65.8158 170.188 65.7412 170.047C65.5784 169.785 65.3494 169.571 65.0774 169.425L65.6445 168.567C65.6646 168.744 65.8424 168.858 66.0103 168.919C66.1854 168.958 66.3481 169.04 66.4836 169.157ZM63.9481 171.336C64.0638 171.384 64.1726 171.446 64.2717 171.522C64.3592 171.659 64.4093 171.817 64.4169 171.98C64.4467 172.109 64.5047 172.23 64.5866 172.334C64.3182 172.535 64.044 172.725 63.7639 172.903C63.7204 172.773 63.6934 172.639 63.6835 172.502C63.6882 172.343 63.6645 172.185 63.6135 172.035C63.5259 171.845 63.3293 171.735 63.1708 171.598C63.0123 171.461 62.8796 171.236 62.9752 171.051L63.5586 170.594C63.6202 170.875 63.7022 171.186 63.9481 171.336ZM68.1144 155.73C68.2589 155.989 68.3936 156.25 68.5186 156.515C68.4678 156.559 68.4141 156.599 68.3579 156.635C68.0487 156.829 67.6612 156.821 67.3018 156.877C67.0097 156.922 66.7265 157.013 66.4622 157.146C66.2454 157.254 66.0252 157.513 65.8088 157.589C65.5269 157.689 65.5453 157.612 65.4324 157.349C65.3906 157.251 65.2653 156.585 65.1833 156.562C65.4661 156.615 65.7583 156.567 66.0098 156.427C66.2588 156.288 66.5201 156.172 66.7903 156.081C67.1308 155.993 67.5024 156.038 67.8258 155.902C67.9287 155.857 68.0257 155.799 68.1144 155.73ZM69.1096 158.064C69.2078 158.346 69.2957 158.631 69.3732 158.919C69.0795 158.972 68.7811 158.993 68.4829 158.983C68.1879 158.999 67.897 159.06 67.621 159.165C67.3947 159.251 67.1483 159.487 66.9261 159.541C66.6355 159.611 66.6609 159.537 66.5753 159.264C66.5438 159.163 66.4868 158.486 66.4063 158.456C66.6828 158.537 66.9789 158.519 67.2436 158.405C67.5052 158.292 67.7766 158.203 68.0543 158.139C68.4027 158.087 68.7667 158.169 69.1031 158.067C69.1051 158.066 69.1077 158.065 69.1096 158.064ZM69.6395 160.35C69.6815 160.669 69.711 160.99 69.7281 161.31C69.6471 161.321 69.5667 161.336 69.4876 161.356C69.2168 161.445 68.9382 161.51 68.6555 161.547C68.305 161.568 67.9496 161.453 67.6052 161.525C67.3597 161.599 67.1248 161.705 66.9064 161.839C66.8216 161.894 66.7196 161.915 66.62 161.9C66.4459 161.852 66.403 161.625 66.4214 161.446C66.4392 161.267 66.4807 161.065 66.3698 160.923C66.4401 160.953 66.5162 160.968 66.5927 160.965C66.6693 160.963 66.7443 160.943 66.8125 160.908C66.9534 160.848 67.0806 160.759 67.2233 160.704C67.5625 160.573 67.942 160.654 68.3055 160.668C68.6007 160.679 68.8959 160.644 69.1804 160.565C69.3393 160.506 69.493 160.434 69.6395 160.35Z" fill="#70BB92"/>
<path d="M65.6825 154.887C67.4891 157.123 68.3793 159.962 68.1731 162.83C67.9669 165.697 66.6796 168.38 64.5715 170.334C62.4635 172.289 59.6918 173.371 56.8168 173.361C53.9419 173.35 51.178 172.249 49.084 170.279L49.4153 169.972L65.3505 155.195L65.6825 154.887Z" fill="white"/>
<path d="M65.3504 155.195L65.3671 155.216C67.0766 157.355 67.9178 160.059 67.7231 162.791C67.5285 165.522 66.3124 168.08 64.3169 169.955L64.2647 170.004C62.2476 171.875 59.5977 172.913 56.8469 172.91C54.0961 172.907 51.4481 171.864 49.4346 169.99L49.4153 169.972L65.3504 155.195Z" fill="#FE9592"/>
<path d="M65.0871 155.441C66.7475 157.519 67.5603 160.149 67.3624 162.801C67.1645 165.454 65.9705 167.933 64.02 169.742C62.0696 171.55 59.5073 172.554 56.8474 172.552C54.1874 172.549 51.6269 171.541 49.6799 169.728L49.9644 169.465L65.0871 155.441Z" fill="#FE2D5D"/>
<path d="M62.8898 163.133C62.9202 163.362 62.812 163.443 62.6597 163.463C62.6211 163.473 62.5807 163.473 62.5417 163.465C62.5028 163.457 62.4663 163.439 62.4351 163.414C62.404 163.39 62.379 163.358 62.3623 163.322C62.3455 163.285 62.3374 163.246 62.3386 163.206C62.3082 162.977 62.5498 162.633 62.5498 162.633C62.7068 162.765 62.8244 162.938 62.8898 163.133ZM65.6705 163.604C65.7009 163.833 65.5927 163.914 65.4404 163.934C65.4018 163.944 65.3614 163.945 65.3225 163.936C65.2835 163.928 65.247 163.911 65.2158 163.886C65.1847 163.861 65.1598 163.829 65.143 163.793C65.1262 163.757 65.1181 163.717 65.1193 163.677C65.0889 163.448 65.3305 163.104 65.3305 163.104C65.4875 163.236 65.6052 163.409 65.6705 163.604ZM56.2263 165.477C56.2566 165.706 56.1484 165.787 55.9962 165.807C55.9576 165.817 55.9172 165.818 55.8782 165.809C55.8392 165.801 55.8027 165.784 55.7716 165.759C55.7404 165.734 55.7155 165.702 55.6987 165.666C55.682 165.63 55.6739 165.59 55.675 165.55C55.6446 165.321 55.8862 164.977 55.8862 164.977C56.0433 165.109 56.1609 165.282 56.2263 165.477Z" fill="#231F20"/>
<path d="M59.8847 165.655C60.0141 165.847 59.9531 165.967 59.8258 166.053C59.7957 166.079 59.7599 166.098 59.7212 166.108C59.6826 166.118 59.6422 166.119 59.6032 166.11C59.5643 166.102 59.5278 166.084 59.4966 166.06C59.4655 166.035 59.4406 166.003 59.4239 165.967C59.2945 165.775 59.3573 165.359 59.3573 165.359C59.5569 165.408 59.7393 165.51 59.8847 165.655Z" fill="#FE2D5D"/>
<path d="M60.4887 169.465C60.6181 169.656 60.5571 169.777 60.4298 169.863C60.3996 169.889 60.3638 169.907 60.3252 169.917C60.2866 169.927 60.2462 169.928 60.2072 169.92C60.1683 169.911 60.1318 169.894 60.1006 169.869C60.0695 169.844 60.0446 169.812 60.0279 169.776C59.8985 169.585 59.9613 169.169 59.9613 169.169C60.1609 169.217 60.3433 169.32 60.4887 169.465ZM65.0259 158.217C65.2416 158.3 65.2604 158.433 65.2051 158.576C65.1953 158.615 65.1766 158.651 65.1506 158.681C65.1246 158.711 65.0919 158.735 65.0552 158.75C65.0184 158.766 64.9785 158.773 64.9387 158.77C64.899 158.767 64.8603 158.755 64.8259 158.735C64.6102 158.652 64.424 158.275 64.424 158.275C64.6154 158.201 64.8237 158.181 65.0259 158.217ZM60.2986 161.643C60.5164 161.721 60.5387 161.853 60.4872 161.998C60.4784 162.037 60.4608 162.073 60.4355 162.104C60.4103 162.135 60.3783 162.16 60.3419 162.176C60.3056 162.192 60.2659 162.2 60.2261 162.199C60.1862 162.197 60.1473 162.186 60.1124 162.167C59.8945 162.09 59.6985 161.718 59.6985 161.718C59.8879 161.638 60.0955 161.612 60.2986 161.643ZM52.9701 169.177C53.1858 169.26 53.2045 169.394 53.1492 169.537C53.1394 169.576 53.1208 169.612 53.0948 169.642C53.0688 169.672 53.0361 169.696 52.9993 169.711C52.9625 169.727 52.9227 169.733 52.8829 169.731C52.8431 169.728 52.8045 169.716 52.7701 169.696C52.5544 169.613 52.3682 169.236 52.3682 169.236C52.5596 169.162 52.7678 169.141 52.9701 169.177ZM56.8859 168.823C57.0923 168.927 57.0976 169.062 57.0284 169.199C57.0148 169.236 56.9927 169.27 56.9638 169.298C56.9349 169.325 56.9 169.345 56.8619 169.357C56.8238 169.369 56.7835 169.371 56.7442 169.365C56.7048 169.358 56.6676 169.343 56.6353 169.319C56.429 169.215 56.2811 168.822 56.2811 168.822C56.479 168.767 56.6882 168.767 56.8859 168.823ZM63.7048 167.378C63.8779 167.532 63.8488 167.663 63.7469 167.778C63.7243 167.811 63.6943 167.838 63.6593 167.857C63.6244 167.876 63.5855 167.887 63.5456 167.889C63.5058 167.89 63.4661 167.883 63.4298 167.866C63.3934 167.85 63.3614 167.825 63.3361 167.795C63.1631 167.641 63.1203 167.223 63.1203 167.223C63.3257 167.22 63.5279 167.274 63.7048 167.378Z" fill="#231F20"/>
<path d="M70.8559 159.125C70.8559 159.125 67.9879 162.176 66.7134 173.228L68.0721 174.999L69.1219 174.357L74.7198 163.171L74.9091 160.735L70.8559 159.125Z" fill="#CC5B06"/>
<path d="M72.3014 160.224C72.3468 160.132 72.3877 160.038 72.4236 159.946C73.2568 157.921 71.6994 154.311 70.1331 152.796L70.8662 152.062C72.6337 153.874 74.3912 157.545 73.3929 160.312C73.3458 160.441 73.2909 160.568 73.2286 160.69L72.3014 160.224ZM73.9421 160.367C74.4066 159.169 75.5298 158.06 76.8285 157.224C78.1341 156.4 79.613 155.847 80.9208 155.996L80.7994 157.023C79.8968 156.904 78.5505 157.349 77.3874 158.099C76.2149 158.837 75.2274 159.879 74.9091 160.736C74.9055 160.747 74.9009 160.757 74.8954 160.767L74.899 160.769L73.9199 160.426C73.9262 160.406 73.9336 160.386 73.9421 160.367Z" fill="#70BB92"/>
<path d="M73.8614 159.472C74.7751 157.139 77.1243 154.816 78.8496 153.961L78.8515 153.961L79.302 154.893C77.8899 155.553 75.5631 157.863 74.8313 159.846C74.654 160.27 74.5636 160.725 74.5657 161.185L73.5276 161.218C73.5226 160.62 73.636 160.026 73.8614 159.472Z" fill="#70BB92"/>
<path d="M74.0798 159.899C74.1785 159.226 74.3547 158.566 74.6051 157.933C75.3647 155.943 76.7298 153.904 77.7047 152.667L76.8843 152.027C75.8706 153.328 74.46 155.415 73.6384 157.563C73.3918 158.2 73.2079 158.859 73.0894 159.531C73.4294 159.625 73.7607 159.749 74.0798 159.899Z" fill="#70BB92"/>
<path d="M73.2295 151.979L74.2076 151.637C75.0518 154.137 73.9389 157.192 73.5449 159.417L72.5251 159.227C72.9797 156.897 73.9379 153.928 73.2295 151.979Z" fill="#70BB92"/>
<path d="M74.5059 157.999C72.9252 157.393 71.1721 158.044 69.8401 160.673C69.9484 160.461 70.0565 160.258 70.1749 160.069C71.4376 160.53 72.6084 161.211 73.6326 162.082C72.6697 161.73 71.1353 160.948 69.8396 160.675C69.6648 161.024 69.497 161.401 69.3349 161.82C69.3976 161.658 69.461 161.509 69.525 161.359C70.7923 161.856 71.9849 162.459 73.0458 163.395C72.0888 163.042 70.5624 162.27 69.273 161.995C69.1932 162.212 69.1073 162.446 69.0244 162.708C70.2786 163.165 71.4411 163.842 72.4573 164.708C71.5346 164.369 70.0813 163.636 68.8231 163.338C68.6969 163.747 68.5664 164.19 68.4359 164.658C68.4925 164.464 68.5454 164.27 68.5995 164.086C69.7916 164.539 70.8968 165.193 71.8665 166.022C70.9918 165.696 69.6363 165.025 68.4237 164.7C68.3547 164.954 68.2861 165.214 68.2142 165.481C69.3307 165.925 70.366 166.552 71.278 167.334C70.459 167.032 69.2149 166.414 68.0614 166.074C68.1038 165.906 68.1469 165.743 68.1885 165.579C68.0752 166.008 67.9676 166.447 67.857 166.898C68.8874 167.329 69.8438 167.919 70.6913 168.647C69.9316 168.369 68.8061 167.822 67.7253 167.469C66.7356 171.772 66.0597 176.625 67.2295 177.069C69.0182 177.752 74.45 167.877 75.8172 164.292C77.1868 160.705 76.2952 158.681 74.5059 157.999ZM66.7134 173.225C66.7262 173.08 66.7442 172.933 66.7608 172.783C67.3235 173.099 67.8516 173.473 68.3366 173.899C67.8939 173.739 67.3248 173.479 66.7134 173.225ZM66.9016 171.747C66.924 171.589 66.95 171.423 66.9755 171.26C67.6755 171.622 68.3295 172.067 68.9234 172.586C68.385 172.387 67.6626 172.053 66.9016 171.747ZM67.1412 170.303C67.1731 170.129 67.203 169.955 67.2389 169.782C68.0608 170.175 68.826 170.676 69.5137 171.274C68.8924 171.043 68.0261 170.635 67.1412 170.303ZM67.4176 168.876C67.4542 168.692 67.4966 168.508 67.5361 168.327C68.4671 168.741 69.332 169.291 70.1031 169.957C69.4085 169.705 68.4088 169.226 67.4176 168.876Z" fill="#FC8006"/>
<path d="M36.5105 164.879C36.5627 164.855 37.2915 165.341 37.3992 165.388C37.7307 165.533 38.0767 165.643 38.4314 165.715C39.1432 165.861 39.8774 165.858 40.5879 165.705C41.1421 165.585 42.3472 165.257 41.3068 164.821C40.5988 164.527 39.8415 164.369 39.0749 164.357C38.1919 164.339 37.316 164.517 36.5105 164.879Z" fill="#48956B"/>
<path d="M42.1126 164.985C41.5529 163.827 39.8395 162.749 38.6337 162.453C38.4426 162.796 38.2867 163.157 38.1686 163.531C39.5893 163.322 41.2265 164.016 41.847 165.367L42.1126 164.985Z" fill="#48956B"/>
<path d="M49.1436 165.859C50.2959 168.433 49.6143 172.658 46.8028 173.917C44.786 174.82 41.6022 173.449 39.9848 171.872C38.4424 170.368 37.4929 167.713 39.4012 166.109C40.0906 165.529 40.9837 165.262 41.7683 164.82C42.4127 164.456 42.9873 163.972 43.6564 163.656C45.8791 162.608 48.1773 163.701 49.1436 165.859Z" fill="#E31F26"/>
<path opacity="0.57" d="M39.4961 169.449C39.8742 170.62 40.9766 171.473 42.1773 171.741C42.2459 171.767 42.3196 171.775 42.3923 171.766C42.4649 171.758 42.5344 171.732 42.5949 171.69C42.7371 171.556 42.663 171.316 42.5548 171.153C42.0975 170.463 41.2481 170.139 40.6983 169.52C39.7983 168.507 40.0094 167.239 40.4845 166.43C39.4827 166.955 39.1708 168.442 39.4961 169.449Z" fill="#FE2D5D"/>
<path d="M47.016 161.514C47.8144 160.767 49.3865 160.716 50.3369 160.863C51.4933 161.041 52.5842 161.506 53.6458 161.998C54.7165 162.467 55.7228 163.071 56.64 163.796C57.5272 164.524 57.3589 165.14 56.5561 165.963C56.0729 166.459 55.4858 166.838 54.9401 167.263C53.7904 168.16 52.8211 169.267 52.0833 170.525C51.8401 170.94 51.6142 171.382 51.2452 171.691C50.8763 171.999 50.313 172.139 49.9121 171.873C49.3363 171.491 49.4549 170.637 49.5262 169.95C49.6848 168.344 49.2097 166.74 48.2021 165.479C47.8491 165.041 47.4367 164.654 47.1008 164.203C46.7401 163.766 46.5351 163.222 46.5181 162.655C46.5181 162.441 46.5623 162.229 46.648 162.033C46.7337 161.836 46.8589 161.66 47.016 161.514Z" fill="white"/>
<path d="M52.4616 173.303L47.8476 172.157C48.8726 170.63 48.748 166.093 46.2662 163.559C46.5319 163.405 46.7624 163.197 46.9431 162.949C47.9773 164.106 49.2551 165.921 49.3947 167.3C49.5558 166.082 49.7877 164.231 49.8691 163.052C50.2779 163.278 50.7343 163.404 51.2012 163.421C51.6326 165.134 51.3399 167.8 50.8611 169.352C50.9011 169.27 50.9609 169.181 51.0089 169.096C51.8693 167.582 53.9659 165.739 55.732 165.314L55.9229 165.678C56.0004 166.153 56.0916 166.147 56.3708 166.561C54.5002 167.984 52.7552 170.931 52.4616 173.303Z" fill="#0A8657"/>
<path d="M59.5745 167.878C58.6521 168.602 57.1693 168.256 56.2622 167.1C55.9345 166.69 55.7167 166.203 55.6291 165.685C55.3624 165.603 55.1027 165.499 54.8524 165.376C53.9176 164.928 53.1464 164.198 52.647 163.29C52.5735 163.346 52.4955 163.397 52.4138 163.442C52.1425 163.599 51.8426 163.701 51.5314 163.741C51.2203 163.782 50.9043 163.76 50.6018 163.676C49.754 163.466 49.1204 162.905 48.9388 162.286C48.7315 162.366 48.5175 162.428 48.2993 162.471C47.9645 162.53 47.623 162.541 47.2851 162.505C47.1984 163.236 46.4325 163.865 45.4319 163.967C44.3191 164.079 43.3525 163.495 43.2673 162.661C43.1854 161.85 43.977 161.104 45.0467 160.962C45.0087 160.869 44.978 160.773 44.9551 160.674C44.7193 159.386 45.8325 158.102 47.441 157.806C47.5329 157.789 47.6211 157.788 47.711 157.78L47.719 157.705C48.0747 156.273 49.9982 155.517 52.0181 156.018C52.7509 156.193 53.4325 156.538 54.008 157.024C54.4909 157.419 54.8407 157.954 55.0102 158.555C56.0274 158.406 57.0657 158.577 57.9818 159.044C60.1461 160.112 61.1996 162.396 60.3349 164.145C60.2061 164.397 60.0416 164.629 59.8464 164.834C60.4929 165.927 60.4054 167.225 59.5745 167.878Z" fill="#1AA671"/>
<path d="M45.785 160.971L45.6827 160.828C45.3454 160.195 45.7163 159.328 46.5132 158.89C46.6072 158.837 46.7053 158.793 46.8066 158.757C46.021 159.226 45.6965 160.176 46.0914 160.911L46.206 161.073C46.2987 161.2 46.4115 161.312 46.5399 161.403C46.2427 161.359 45.9731 161.205 45.785 160.971ZM48.4032 159.66C48.0965 159.087 48.1746 158.393 48.5335 157.776C48.8993 157.162 49.4685 156.696 50.1423 156.457C49.5992 156.778 49.1795 157.272 48.9507 157.86C48.8237 158.168 48.7655 158.5 48.78 158.834C48.7945 159.167 48.8814 159.492 49.0347 159.788C49.2011 160.095 49.4393 160.358 49.729 160.553C49.4541 160.516 49.1913 160.417 48.9612 160.262C48.7312 160.107 48.5402 159.901 48.4032 159.66ZM49.6136 162.532C49.5262 162.376 49.4813 162.2 49.4834 162.021C49.4889 161.815 49.5447 161.613 49.6461 161.433C49.7474 161.254 49.8911 161.101 50.0647 160.99L50.221 160.89C50.2997 160.851 50.3812 160.818 50.465 160.791C50.3567 160.855 50.2575 160.934 50.1702 161.024C49.9607 161.237 49.829 161.514 49.7965 161.811C49.7666 162.094 49.8269 162.379 49.9687 162.625C50.0698 162.804 50.2089 162.959 50.3763 163.078C50.2182 163.045 50.0687 162.98 49.9374 162.886C49.8061 162.792 49.6959 162.671 49.6136 162.532ZM53.7908 161.64C53.5936 162.046 53.4942 162.493 53.5007 162.944C53.2251 162.375 53.1837 161.721 53.3854 161.121C53.4081 161.039 53.4363 160.959 53.4699 160.881C53.6211 160.592 53.8309 160.339 54.0859 160.137C54.3409 159.934 54.6354 159.788 54.9505 159.706C55.8043 159.476 56.7132 159.572 57.5 159.976C57.6885 160.069 57.8693 160.177 58.0405 160.3C56.411 159.566 54.5311 160.144 53.7908 161.64ZM56.8484 164.459C56.6992 164.601 56.5822 164.773 56.5052 164.963C56.5 164.802 56.5284 164.641 56.5887 164.492C56.6489 164.342 56.7398 164.207 56.8553 164.094C57.3303 163.647 58.1077 163.736 58.5933 164.295C58.6502 164.362 58.7016 164.434 58.7468 164.509C58.6264 164.379 58.4814 164.275 58.3202 164.202C58.159 164.13 57.9849 164.09 57.808 164.085C57.6312 164.081 57.4553 164.111 57.2905 164.176C57.1257 164.24 56.9754 164.336 56.8484 164.459Z" fill="#0A8657"/>
<path d="M66.5548 170.105H38.6644V201.549H66.5548V170.105Z" fill="#D9C6A5"/>
<path d="M73.1683 170.105H66.5546V201.549H73.1683V170.105Z" fill="#CEB58A"/>
<path d="M69.8614 170.105H66.5546V201.549H69.8614V170.105Z" fill="#C4A672"/>
<path d="M73.1683 201.548H66.5546L69.8614 196.742L73.1683 201.548Z" fill="#B89556"/>
<path d="M66.5595 173.491V173.488L66.5555 173.491L66.5595 173.491Z" fill="#A5071A"/>
<path d="M39.894 168.91L39.242 169.561L38.6643 170.137H41.1236L39.894 168.91Z" fill="#D9C6A5"/>
<path d="M42.2013 168.91L40.9717 170.137H43.431L42.2013 168.91Z" fill="#D9C6A5"/>
<path d="M44.509 168.91L43.2795 170.137H45.7386L44.509 168.91Z" fill="#D9C6A5"/>
<path d="M46.8168 168.91L45.5872 170.137H48.0463L46.8168 168.91Z" fill="#D9C6A5"/>
<path d="M49.124 168.91L47.8945 170.137H50.3536L49.124 168.91Z" fill="#D9C6A5"/>
<path d="M51.4318 168.91L50.2021 170.137H52.6614L51.4318 168.91Z" fill="#D9C6A5"/>
<path d="M53.7392 168.91L52.5095 170.137H54.9688L53.7392 168.91Z" fill="#D9C6A5"/>
<path d="M56.0468 168.91L54.8171 170.137H57.2764L56.0468 168.91Z" fill="#D9C6A5"/>
<path d="M58.3544 168.91L57.1248 170.137H59.5841L58.3544 168.91Z" fill="#D9C6A5"/>
<path d="M60.6618 168.91L59.4321 170.137H61.8914L60.6618 168.91Z" fill="#D9C6A5"/>
<path d="M62.9694 168.91L61.7397 170.137H64.199L62.9694 168.91Z" fill="#D9C6A5"/>
<path d="M65.2768 168.91L64.0471 170.137H66.5064L65.2768 168.91Z" fill="#D9C6A5"/>
<path d="M66.3546 170.136H66.5541V169.938L66.3546 170.136Z" fill="#D9C6A5"/>
<path d="M67.5843 168.91L66.5532 169.939V170.137H68.8139L67.5843 168.91Z" fill="#C4A672"/>
<path d="M69.8921 168.91L69.8701 168.932V170.137H71.1216L69.8921 168.91Z" fill="#CEB58A"/>
<path d="M68.6624 170.135H69.87V168.93L68.6624 170.135Z" fill="#C4A672"/>
<path d="M72.1993 168.91L70.9695 170.137H73.1682V169.892L72.1993 168.91Z" fill="#CEB58A"/>
<path d="M97.2534 152.842L96.1694 153L96.6177 156.08L97.7017 155.922L97.2534 152.842Z" fill="#CDDBFE"/>
<path d="M98.0785 155.339L96.0889 155.629L96.3197 157.215L98.3094 156.925L98.0785 155.339Z" fill="#CDDBFE"/>
<path d="M98.9409 156.094L95.4774 156.598L96.029 160.387L99.4925 159.883L98.9409 156.094Z" fill="#03277D"/>
<path d="M95.5284 158.066L99.3109 157.515C100.11 157.399 100.922 157.605 101.569 158.087C102.216 158.57 102.644 159.289 102.761 160.088L104.403 171.376L94.5982 172.803L92.9553 161.515C92.8977 161.12 92.9186 160.717 93.0168 160.33C93.1149 159.942 93.2884 159.578 93.5274 159.258C93.7663 158.937 94.066 158.667 94.4093 158.463C94.7526 158.258 95.1329 158.123 95.5284 158.066Z" fill="#03277D"/>
<path d="M102.867 160.823L93.0619 162.25L94.0691 169.17L103.874 167.743L102.867 160.823Z" fill="white"/>
<path d="M93.2359 152.874C92.7112 152.951 92.2384 153.233 91.9213 153.658C91.6042 154.083 91.4687 154.617 91.5445 155.142L91.6521 155.881C91.6735 156.024 91.7508 156.153 91.8671 156.239C91.9833 156.325 92.129 156.362 92.2723 156.341C92.4156 156.32 92.5447 156.244 92.6315 156.128C92.7183 156.012 92.7557 155.866 92.7355 155.723L92.6279 154.984C92.5936 154.746 92.6549 154.505 92.7985 154.312C92.942 154.12 93.156 153.992 93.3936 153.957L99.2099 153.111L99.0522 152.027L93.2359 152.874Z" fill="#CDDBFE"/>
<path d="M96.689 163.54L96.7589 164.02L96.4805 166.806L96.0118 166.874L96.2902 164.088L95.3238 164.229L95.2539 163.749L96.689 163.54ZM98.8849 165.721C98.9141 165.921 98.8624 166.125 98.7411 166.288C98.6199 166.451 98.439 166.558 98.2383 166.588C98.0376 166.617 97.8335 166.565 97.6709 166.444C97.5083 166.323 97.4006 166.142 97.3713 165.941L97.1198 164.213C97.105 164.113 97.11 164.012 97.1345 163.914C97.159 163.817 97.2025 163.725 97.2625 163.644C97.3225 163.563 97.3979 163.495 97.4843 163.444C97.5708 163.392 97.6665 163.358 97.7661 163.343C97.8657 163.329 97.9671 163.334 98.0647 163.359C98.1622 163.384 98.2539 163.428 98.3344 163.488C98.415 163.548 98.4829 163.624 98.5342 163.71C98.5855 163.797 98.6192 163.893 98.6334 163.992L98.8849 165.721ZM98.1365 164.054C98.1258 163.981 98.0866 163.916 98.0274 163.872C97.9683 163.828 97.8941 163.809 97.8211 163.819C97.785 163.824 97.7502 163.836 97.7189 163.855C97.6877 163.873 97.6606 163.898 97.6395 163.928C97.6175 163.957 97.6017 163.991 97.5929 164.026C97.5842 164.061 97.5827 164.098 97.5885 164.134L97.8404 165.865C97.8451 165.901 97.857 165.936 97.8755 165.968C97.894 165.999 97.9187 166.026 97.9481 166.048C97.9768 166.07 98.0098 166.087 98.0451 166.096C98.0804 166.105 98.1172 166.106 98.1532 166.101C98.2262 166.09 98.2919 166.051 98.336 165.992C98.3801 165.932 98.399 165.858 98.3884 165.785L98.1365 164.054ZM99.8177 164.277C99.8258 164.329 99.8231 164.382 99.8099 164.432C99.7966 164.483 99.773 164.531 99.7406 164.572C99.7093 164.614 99.6699 164.65 99.6248 164.676C99.5797 164.703 99.5297 164.721 99.4777 164.729C99.4257 164.736 99.3728 164.733 99.3218 164.721C99.2709 164.708 99.2231 164.685 99.181 164.653C99.1384 164.623 99.1025 164.584 99.0756 164.539C99.0486 164.494 99.0311 164.444 99.0242 164.392L98.8925 163.488C98.8777 163.383 98.9051 163.276 98.9687 163.191C99.0323 163.106 99.1269 163.05 99.2318 163.035C99.3367 163.02 99.4434 163.047 99.5286 163.11C99.6137 163.173 99.6703 163.267 99.6861 163.372L99.8177 164.277ZM99.7558 166.386L99.4752 166.427L100.605 162.841L100.882 162.801L99.7558 166.386ZM99.2686 164.352C99.2713 164.371 99.2777 164.389 99.2874 164.405C99.2972 164.422 99.3101 164.436 99.3254 164.448C99.3408 164.459 99.3582 164.468 99.3768 164.473C99.3954 164.477 99.4148 164.478 99.4338 164.476C99.4528 164.473 99.471 164.466 99.4875 164.456C99.5039 164.447 99.5183 164.434 99.5297 164.418C99.5412 164.403 99.5494 164.385 99.5541 164.367C99.5587 164.348 99.5596 164.329 99.5567 164.31L99.4251 163.405C99.4224 163.386 99.416 163.368 99.4063 163.351C99.3965 163.335 99.3836 163.32 99.3683 163.309C99.3529 163.297 99.3355 163.289 99.3169 163.284C99.2983 163.279 99.2789 163.278 99.2599 163.281C99.2409 163.284 99.2227 163.29 99.2062 163.3C99.1897 163.31 99.1754 163.323 99.164 163.339C99.1525 163.354 99.1443 163.371 99.1396 163.39C99.135 163.409 99.1341 163.428 99.137 163.447L99.2686 164.352ZM100.876 164.456C100.928 164.447 100.981 164.45 101.032 164.463C101.083 164.476 101.131 164.5 101.172 164.532C101.214 164.564 101.25 164.603 101.277 164.648C101.303 164.693 101.321 164.743 101.328 164.795L101.459 165.699C101.468 165.751 101.465 165.804 101.452 165.855C101.439 165.906 101.416 165.953 101.384 165.994C101.32 166.078 101.225 166.134 101.121 166.149C101.016 166.164 100.91 166.137 100.825 166.074C100.782 166.044 100.746 166.006 100.719 165.961C100.693 165.916 100.675 165.866 100.668 165.815L100.537 164.91C100.521 164.805 100.549 164.698 100.612 164.613C100.676 164.527 100.771 164.471 100.876 164.456ZM101.069 164.827C101.067 164.808 101.06 164.79 101.05 164.774C101.041 164.757 101.028 164.742 101.012 164.731C100.997 164.719 100.98 164.711 100.961 164.706C100.942 164.701 100.923 164.7 100.904 164.703C100.885 164.706 100.867 164.713 100.85 164.722C100.834 164.732 100.819 164.745 100.808 164.761C100.797 164.776 100.788 164.794 100.784 164.812C100.779 164.831 100.778 164.85 100.781 164.869L100.913 165.774C100.915 165.793 100.922 165.811 100.931 165.828C100.941 165.844 100.954 165.859 100.969 165.87C100.985 165.882 101.002 165.89 101.021 165.895C101.04 165.9 101.059 165.901 101.078 165.898C101.097 165.895 101.115 165.889 101.132 165.879C101.148 165.869 101.163 165.856 101.174 165.841C101.185 165.825 101.194 165.808 101.198 165.789C101.203 165.77 101.204 165.751 101.201 165.732L101.069 164.827Z" fill="#4F94F9"/>
<path d="M110.127 174.581C110.397 173.255 110.638 171.814 110.162 170.493C110.011 170.029 109.892 169.555 109.807 169.075C109.708 168.593 109.904 167.908 109.994 167.427C110.37 165.575 110.551 164.647 110.898 162.79C111.958 162 112.744 160.735 112.991 159.001C113.394 156.169 112.539 152.825 110.333 150.981C110.244 150.907 110.174 150.813 110.128 150.706C110.083 150.6 110.063 150.485 110.069 150.369C110.171 149.743 110.222 149.43 110.322 148.803C109.293 148.621 108.778 148.53 107.749 148.348C107.627 148.97 107.566 149.281 107.446 149.905C107.412 150.015 107.353 150.117 107.274 150.201C107.194 150.285 107.096 150.349 106.988 150.388C104.281 151.362 102.324 154.205 101.728 157.006C101.363 158.719 101.665 160.177 102.39 161.283C102.077 163.146 101.928 164.079 101.645 165.948C101.565 166.431 101.514 167.141 101.256 167.56C101.011 167.982 100.737 168.386 100.436 168.77C99.5362 169.846 99.2692 171.284 99.0694 172.622C98.8474 174.206 98.8 175.809 98.928 177.404C98.9663 177.938 99.2237 178.518 99.7245 178.72C99.7602 178.735 99.7954 178.748 99.8308 178.762C99.9893 178.813 100.154 178.841 100.321 178.847C100.718 178.856 101.44 178.335 101.44 178.335C101.45 178.34 101.356 178.992 101.478 179.182C101.595 179.363 101.937 179.479 102.143 179.534C102.594 179.653 103.043 179.751 103.495 179.832L103.499 179.833L103.503 179.833C103.956 179.912 104.411 179.975 104.875 180.018C105.087 180.037 105.449 180.046 105.62 179.916C105.799 179.78 105.946 179.133 105.946 179.133C105.96 179.131 106.446 179.87 106.822 179.999C106.98 180.051 107.145 180.081 107.311 180.087C107.349 180.087 107.387 180.086 107.426 180.084C107.964 180.066 108.405 179.611 108.624 179.122C109.29 177.668 109.794 176.145 110.127 174.581Z" fill="#FE2D5D"/>
<path d="M109.995 167.429C110.349 165.683 110.52 164.808 110.849 163.057C108.014 162.555 105.18 162.053 102.346 161.551C102.052 163.308 101.912 164.188 101.645 165.95C101.597 166.406 101.508 166.856 101.38 167.295C104.181 167.792 106.982 168.288 109.783 168.784C109.813 168.327 109.884 167.874 109.995 167.429Z" fill="#FE2D5D"/>
<path d="M110.335 150.981C110.246 150.908 110.177 150.814 110.132 150.708C110.087 150.602 110.069 150.487 110.078 150.372C110.18 149.746 110.23 149.433 110.331 148.807C109.292 148.623 108.773 148.532 107.735 148.348C107.613 148.97 107.552 149.281 107.431 149.905C107.4 150.016 107.343 150.118 107.264 150.202C107.186 150.286 107.088 150.351 106.98 150.389C106.832 150.439 106.685 150.498 106.539 150.564C108.2 150.858 109.031 151.006 110.691 151.3C110.576 151.186 110.457 151.08 110.335 150.981Z" fill="#4F94F9"/>
<path d="M110.6 148.19C110.629 148.013 110.588 147.831 110.486 147.684C110.384 147.536 110.228 147.435 110.052 147.4C109.405 147.286 109.082 147.229 108.435 147.114C108.258 147.086 108.077 147.128 107.93 147.231C107.783 147.334 107.682 147.491 107.648 147.667C107.549 148.16 107.5 148.407 107.402 148.9C108.603 149.112 109.203 149.219 110.403 149.431C110.482 148.935 110.522 148.687 110.6 148.19Z" fill="#FDB702"/>
<path d="M110.679 149.627C110.662 149.739 110.448 149.794 110.202 149.751C109.133 149.562 108.599 149.467 107.53 149.277C107.284 149.234 107.102 149.109 107.125 148.997C107.147 148.886 107.364 148.831 107.609 148.874C108.673 149.063 109.205 149.157 110.268 149.345C110.513 149.389 110.696 149.515 110.679 149.627Z" fill="#CDDBFE"/>
<path opacity="0.38" d="M103.242 162.777C103.103 163.737 102.965 164.697 102.826 165.657M106.437 151.965C105.274 152.701 104.369 153.783 103.851 155.058C103.333 156.334 103.226 157.74 103.547 159.079L106.437 151.965Z" stroke="white" stroke-width="0.599081" stroke-linecap="round" stroke-linejoin="round"/>
<path d="M111.601 171.621L110.099 176.211L112.378 176.957L113.88 172.366L111.601 171.621Z" fill="#48956B"/>
<path d="M118.899 152.512C117.094 152.988 115.532 154.12 114.517 155.687C113.038 157.966 111.147 161.234 111.147 161.234L112.004 167.4L113.532 169.029L115.403 169.145L119.046 167L119.571 165.393C119.571 165.393 120.948 157.931 120.394 155.335C120.19 154.379 119.45 152.867 118.899 152.512Z" fill="#FFC23B"/>
<path d="M112.684 158.5C111.872 157.659 110.995 156.884 110.062 156.18C110.606 157.177 110.862 158.306 110.801 159.441C111.139 159.668 111.462 159.917 111.769 160.184C112.058 159.616 112.365 159.053 112.684 158.5ZM120.707 164.924C121.427 164.109 122.268 163.408 123.376 163.205C122.335 162.849 121.234 162.705 120.137 162.783C120.021 163.511 119.884 164.224 119.73 164.909C120.047 164.899 120.372 164.902 120.707 164.924Z" fill="#48956B"/>
<path d="M120.136 162.785C120.871 158.17 120.756 153.122 118.899 152.514C117.86 152.175 116.44 153.28 115.016 155.043C115.133 154.963 115.268 154.913 115.408 154.897C115.549 154.881 115.691 154.9 115.823 154.952C116.243 155.09 116.508 155.436 116.413 155.727C116.317 156.019 115.899 156.142 115.479 156.004C115.057 155.866 114.794 155.521 114.889 155.229C114.914 155.157 114.957 155.093 115.016 155.045C114.153 156.137 113.373 157.292 112.684 158.501C112.365 159.054 112.058 159.618 111.769 160.186C111.784 160.199 111.799 160.212 111.816 160.226C111.848 160.256 111.883 160.286 111.916 160.316C112.112 160.197 112.333 160.124 112.562 160.103C112.791 160.083 113.022 160.114 113.236 160.197C113.954 160.431 114.404 161.024 114.242 161.52C114.177 161.674 114.071 161.806 113.936 161.902C113.801 161.999 113.641 162.056 113.476 162.067C113.527 162.136 113.578 162.203 113.629 162.273C113.853 162.583 114.046 162.916 114.203 163.265C114.396 163.167 114.607 163.109 114.823 163.097C115.038 163.084 115.255 163.117 115.457 163.192C116.175 163.427 116.625 164.019 116.462 164.515C116.3 165.012 115.588 165.223 114.87 164.988C114.811 164.969 114.758 164.944 114.704 164.92C114.723 165.024 114.744 165.125 114.76 165.232C114.769 165.235 114.778 165.236 114.788 165.24C115.013 165.3 115.221 165.413 115.395 165.569C115.569 165.725 115.704 165.92 115.789 166.138C116.188 165.882 116.61 165.662 117.049 165.482C116.931 165.376 116.843 165.24 116.796 165.088C116.749 164.936 116.745 164.774 116.782 164.62C116.945 164.123 117.658 163.912 118.377 164.147C118.58 164.205 118.77 164.304 118.935 164.437C119.099 164.571 119.235 164.736 119.335 164.923C119.434 164.915 119.541 164.918 119.644 164.913C119.672 164.912 119.702 164.911 119.73 164.91C119.884 164.226 120.02 163.512 120.136 162.785ZM114.958 156.493C115.445 156.652 115.748 157.05 115.638 157.386C115.528 157.722 115.048 157.865 114.562 157.706C114.077 157.547 113.772 157.147 113.882 156.812C113.992 156.476 114.474 156.334 114.958 156.493ZM113.667 159.857C113.109 159.675 112.769 159.173 112.868 158.711C112.87 158.707 112.873 158.703 112.876 158.699C112.874 158.697 112.873 158.695 112.871 158.693C112.874 158.672 112.878 158.65 112.883 158.629C113.042 158.143 113.651 157.908 114.242 158.101C114.833 158.295 115.185 158.844 115.026 159.33C114.867 159.816 114.258 160.051 113.667 159.857ZM120.365 158.933C120.255 159.268 119.772 159.411 119.288 159.252C118.804 159.094 118.499 158.693 118.608 158.358C118.718 158.022 119.201 157.881 119.685 158.039C120.169 158.198 120.475 158.597 120.365 158.933ZM120.489 157.061C120.393 157.353 119.975 157.475 119.555 157.337C119.134 157.2 118.87 156.854 118.965 156.562C119.06 156.271 119.478 156.148 119.899 156.286C120.32 156.423 120.584 156.77 120.489 157.061ZM119.842 154.979C120.158 155.082 120.354 155.341 120.283 155.558C120.212 155.775 119.9 155.868 119.585 155.765C119.272 155.663 119.072 155.402 119.143 155.185C119.215 154.968 119.53 154.876 119.842 154.979ZM118.885 152.671C119.199 152.774 119.397 153.033 119.325 153.25C119.254 153.467 118.941 153.56 118.627 153.458C118.313 153.355 118.116 153.095 118.187 152.878C118.258 152.66 118.57 152.568 118.885 152.671ZM118.577 153.744C119.081 153.909 119.399 154.326 119.285 154.675C119.171 155.025 118.668 155.173 118.163 155.008C117.656 154.842 117.34 154.426 117.455 154.076C117.569 153.727 118.07 153.578 118.577 153.744ZM118.092 155.268C118.718 155.473 119.109 155.988 118.968 156.42C118.826 156.853 118.206 157.037 117.581 156.832C116.955 156.627 116.561 156.112 116.703 155.679C116.844 155.247 117.466 155.063 118.092 155.268ZM116.384 154.718C116.068 154.614 115.871 154.355 115.942 154.138C116.013 153.92 116.325 153.828 116.641 153.931C116.954 154.034 117.153 154.293 117.081 154.511C117.01 154.728 116.697 154.82 116.384 154.718ZM115.54 162.938C114.823 162.704 114.371 162.112 114.533 161.616C114.695 161.12 115.41 160.908 116.128 161.143C116.846 161.377 117.295 161.97 117.133 162.466C116.97 162.962 116.258 163.173 115.54 162.938ZM116.21 160.891C115.493 160.656 115.041 160.064 115.203 159.568C115.365 159.072 116.08 158.86 116.798 159.095C117.516 159.33 117.965 159.922 117.803 160.418C117.64 160.914 116.928 161.125 116.21 160.891ZM116.881 158.842C116.163 158.607 115.711 158.015 115.873 157.52C116.036 157.023 116.75 156.812 117.468 157.047C118.186 157.282 118.635 157.873 118.473 158.37C118.311 158.865 117.598 159.077 116.881 158.842ZM119.312 159.76C119.904 159.954 120.255 160.503 120.096 160.989C119.937 161.474 119.33 161.71 118.738 161.516C118.147 161.323 117.795 160.773 117.954 160.288C118.113 159.802 118.721 159.567 119.312 159.76ZM118.299 163.841C117.581 163.606 117.129 163.014 117.292 162.518C117.454 162.022 118.168 161.81 118.887 162.045C119.604 162.28 120.054 162.873 119.891 163.369C119.729 163.865 119.016 164.076 118.299 163.841Z" fill="#FD9F02"/>
<path d="M114.522 167.774C114.605 165.59 114.344 163.844 113.349 162.477C111.879 160.463 110.391 159.097 106.533 157.938C112.135 161.733 106.002 169.264 110.022 173.028C113.723 176.496 114.44 169.963 114.522 167.774Z" fill="#48956B"/>
<path d="M119.279 168.098C120.443 166.454 121.685 165.983 123.594 165.802C120.869 165.024 118.305 164.898 115.921 166.463C114.185 167.601 112.258 169.314 111.874 171.462C111.65 172.734 111.868 174.507 113.479 174.413C116.031 174.265 117.483 170.631 119.279 168.098Z" fill="#48956B"/>
<path d="M87.1011 169.194C86.2706 167.891 85.305 166.679 84.2203 165.578C84.8425 166.571 85.8296 167.894 86.206 169.754C87.0271 172.835 86.0527 174.924 86.4989 175.831C86.7528 176.264 87.9634 176.138 89.0029 174.776C89.0946 174.671 89.1675 174.546 89.2548 174.423C89.2351 174.388 89.2234 174.35 89.2206 174.311C88.7928 172.819 88.2694 170.968 87.1011 169.194Z" fill="#FDB702"/>
<path d="M82.5398 162.871C83.3249 164.138 85.808 166.045 87.5463 168.899C89.8857 172.434 89.7448 176.314 90.9803 176.663C91.5337 176.798 92.4005 175.875 92.8211 173.952C93.0922 172.752 93.0572 171.14 92.593 169.465C91.7155 168.362 90.7367 167.344 89.6693 166.425C87.8927 164.849 85.3617 162.942 82.5398 162.871Z" fill="#FDB702"/>
<path d="M92.6681 162.847C97.0305 166.641 96.8605 171.534 95.8095 171.614C94.6475 171.899 93.0511 168.531 90.0109 166.011C87.7628 164.018 84.3135 161.484 80.4856 162.596C80.4453 161.928 80.5487 161.686 80.47 160.999C80.5156 161.42 83.6005 161.001 83.9041 160.934C84.772 160.708 85.5905 160.479 86.4992 160.463C88.7398 160.406 90.9886 161.435 92.6681 162.847Z" fill="#FDB702"/>
<path d="M104.155 171.566C105.565 172.06 106.91 172.043 108.038 171.545C108.098 171.517 108.16 171.49 108.219 171.46C108.291 171.639 108.351 171.797 108.397 171.927C108.441 172.047 108.475 172.143 108.496 172.208L108.519 172.28L108.527 172.303C108.557 172.402 108.618 172.488 108.7 172.551C108.782 172.613 108.882 172.649 108.985 172.652C109.088 172.655 109.189 172.627 109.275 172.569C109.361 172.512 109.427 172.43 109.464 172.334C109.504 172.23 109.507 172.116 109.474 172.01C109.471 171.999 109.333 171.552 109.065 170.911C109.972 170.181 110.572 169.138 110.748 167.987C110.786 167.723 110.804 167.457 110.8 167.191C110.799 167.127 110.727 166.494 110.736 166.49C111.375 166.185 111.787 165.938 111.797 165.932C111.892 165.876 111.966 165.788 112.005 165.685C112.042 165.588 112.048 165.483 112.022 165.383C111.996 165.283 111.939 165.194 111.86 165.128C111.781 165.061 111.684 165.021 111.581 165.013C111.478 165.005 111.375 165.029 111.287 165.082L111.278 165.087C111.226 165.119 110.917 165.298 110.455 165.524C110.431 165.466 110.404 165.408 110.378 165.349C109.857 164.243 108.879 163.344 107.557 162.724C107.489 162.692 107.422 162.664 107.355 162.638C106.992 162.499 106.604 162.438 106.217 162.462C105.829 162.486 105.451 162.592 105.108 162.775C104.474 163.106 103.98 163.655 103.718 164.321C103.527 164.797 103.502 165.324 103.647 165.817C103.716 166.031 103.818 166.232 103.95 166.414C103.925 166.42 103.902 166.429 103.876 166.435C103.685 166.48 103.502 166.551 103.331 166.648C102.895 166.911 102.563 167.315 102.388 167.793C102.138 168.477 102.149 169.228 102.418 169.904C102.563 170.277 102.785 170.615 103.069 170.896C103.353 171.177 103.694 171.394 104.068 171.535C104.096 171.546 104.125 171.556 104.155 171.566ZM105.23 166.283C104.932 166.117 104.706 165.848 104.595 165.526C104.515 165.244 104.532 164.945 104.644 164.674L104.646 164.668C104.824 164.231 105.15 163.872 105.568 163.653C105.786 163.535 106.027 163.466 106.275 163.451C106.522 163.436 106.77 163.475 107.001 163.565C107.046 163.582 107.09 163.601 107.135 163.622C108.299 164.169 109.076 164.915 109.48 165.772C109.504 165.824 109.528 165.877 109.549 165.931C109.391 165.995 109.225 166.059 109.054 166.12C108.46 166.343 107.842 166.498 107.213 166.585C106.662 166.672 106.099 166.626 105.571 166.45C105.452 166.405 105.338 166.349 105.23 166.283ZM107.284 167.865C107.226 167.798 107.165 167.733 107.105 167.669C107.083 167.646 107.061 167.621 107.038 167.597C107.159 167.588 107.28 167.577 107.401 167.561C108.222 167.438 109.025 167.217 109.793 166.901C109.842 167.468 109.778 168.038 109.604 168.58C109.599 168.593 109.591 168.604 109.585 168.617C109.354 169.122 109.033 169.581 108.636 169.969C108.589 169.876 108.541 169.78 108.49 169.685C108.157 169.036 107.752 168.425 107.284 167.865ZM103.342 169.541C103.164 169.097 103.154 168.604 103.313 168.153L103.315 168.147C103.409 167.879 103.592 167.652 103.834 167.503C104.134 167.341 104.482 167.293 104.814 167.37C104.939 167.392 105.062 167.426 105.18 167.472C105.709 167.703 106.173 168.06 106.533 168.512C107.045 169.135 107.476 169.82 107.817 170.551C107.758 170.582 107.698 170.61 107.638 170.637C106.769 171.018 105.71 171.057 104.481 170.629L104.422 170.608C104.177 170.517 103.953 170.375 103.767 170.191C103.58 170.007 103.435 169.785 103.342 169.541Z" fill="#FD9F02"/>
<path d="M112.847 169.973H84.9563V201.416H112.847V169.973Z" fill="#D9C6A5"/>
<path d="M119.46 169.973H112.846V201.416H119.46V169.973Z" fill="#CEB58A"/>
<path d="M116.153 169.973H112.846V201.416H116.153V169.973Z" fill="#C4A672"/>
<path d="M119.46 201.415H112.847L116.153 196.609L119.46 201.415Z" fill="#B89556"/>
<path d="M112.851 173.358V173.355L112.847 173.358L112.851 173.358Z" fill="#A5071A"/>
<path d="M112.847 173.362L112.85 173.36L112.847 173.359V173.362Z" fill="#A5071A"/>
<path d="M86.1859 168.777L85.534 169.428L84.9563 170.005H87.4154L86.1859 168.777Z" fill="#D9C6A5"/>
<path d="M88.4933 168.777L87.2637 170.005H89.723L88.4933 168.777Z" fill="#D9C6A5"/>
<path d="M90.8009 168.777L89.5713 170.005H92.0306L90.8009 168.777Z" fill="#D9C6A5"/>
<path d="M93.1086 168.777L91.8789 170.005H94.3382L93.1086 168.777Z" fill="#D9C6A5"/>
<path d="M95.4162 168.777L94.1865 170.005H96.6458L95.4162 168.777Z" fill="#D9C6A5"/>
<path d="M97.7233 168.777L96.4937 170.005H98.953L97.7233 168.777Z" fill="#D9C6A5"/>
<path d="M100.031 168.777L98.8013 170.005H101.261L100.031 168.777Z" fill="#D9C6A5"/>
<path d="M102.339 168.777L101.109 170.005H103.568L102.339 168.777Z" fill="#D9C6A5"/>
<path d="M104.646 168.777L103.416 170.005H105.876L104.646 168.777Z" fill="#D9C6A5"/>
<path d="M106.954 168.777L105.724 170.005H108.183L106.954 168.777Z" fill="#D9C6A5"/>
<path d="M109.261 168.777L108.031 170.005H110.491L109.261 168.777Z" fill="#D9C6A5"/>
<path d="M111.568 168.777L110.339 170.005H112.798L111.568 168.777Z" fill="#D9C6A5"/>
<path d="M112.647 170.004H112.846V169.805L112.647 170.004Z" fill="#D9C6A5"/>
<path d="M113.876 168.777L112.845 169.807V170.005H115.106L113.876 168.777Z" fill="#C4A672"/>
<path d="M116.184 168.777L116.162 168.799V170.005H117.413L116.184 168.777Z" fill="#CEB58A"/>
<path d="M114.954 170.003H116.162V168.797L114.954 170.003Z" fill="#C4A672"/>
<path d="M118.491 168.777L117.262 170.005H119.46V169.759L118.491 168.777Z" fill="#CEB58A"/>
</svg>
