<svg width="87" height="20" viewBox="0 0 87 20" fill="none" xmlns="http://www.w3.org/2000/svg">
<path d="M27.8937 2.45329C27.8937 3.04807 27.6707 3.56851 27.3733 3.94025C26.9272 4.38633 26.4068 4.60938 25.7376 4.60938C25.0685 4.60938 24.5481 4.38633 24.102 3.94025C23.6559 3.49416 23.4329 2.97373 23.4329 2.3046C23.4329 1.63547 23.6559 1.11503 24.102 0.668948C24.5481 0.222862 25.0685 -0.000180721 25.7376 -0.000180721C26.035 -0.000180721 26.3324 0.0741668 26.6298 0.222862C26.9272 0.371557 27.1502 0.520253 27.2989 0.743296L26.9272 1.11503C26.6298 0.743296 26.2581 0.594601 25.6633 0.594601C25.2172 0.594601 24.7711 0.743296 24.4737 1.11503C24.102 1.41243 23.9533 1.85851 23.9533 2.37894C23.9533 2.89938 24.102 3.34546 24.4737 3.64286C24.8455 3.94025 25.2172 4.16329 25.6633 4.16329C26.1837 4.16329 26.5555 4.01459 26.9272 3.64286C27.1502 3.41981 27.2989 3.12242 27.2989 2.75068H25.6633V2.23025H27.8194C27.8937 2.23025 27.8937 2.37895 27.8937 2.45329Z" fill="#575A65"/>
<path d="M31.3881 0.594858H29.3807V2.00746H31.2394V2.5279H29.3807V3.9405H31.3881V4.46094H28.7859V0.0744247H31.3881V0.594858Z" fill="#575A65"/>
<path d="M33.7666 4.46094H33.1718V0.594858H31.9822V0.0744247H35.0305V0.594858H33.7666V4.46094Z" fill="#575A65"/>
<path d="M37.2645 4.46094V0.0744247H37.8593V4.46094H37.2645Z" fill="#575A65"/>
<path d="M40.3863 4.46094H39.7915V0.594858H38.5276V0.0744247H41.6502V0.594858H40.3863V4.46094Z" fill="#575A65"/>
<path d="M47.4503 3.94025C47.0043 4.38633 46.4838 4.60938 45.8147 4.60938C45.1456 4.60938 44.6251 4.38633 44.179 3.94025C43.733 3.49416 43.5099 2.97373 43.5099 2.3046C43.5099 1.63547 43.733 1.11503 44.179 0.668948C44.6251 0.222862 45.1456 -0.000180721 45.8147 -0.000180721C46.4838 -0.000180721 47.0043 0.222862 47.4503 0.668948C47.8964 1.11503 48.1195 1.63547 48.1195 2.3046C48.1195 2.89938 47.8964 3.49416 47.4503 3.94025ZM44.5508 3.56851C44.8482 3.8659 45.2943 4.08894 45.7403 4.08894C46.1864 4.08894 46.6325 3.94025 46.9299 3.56851C47.2273 3.27112 47.4503 2.82503 47.4503 2.3046C47.4503 1.78416 47.3016 1.33808 46.9299 1.04069C46.6325 0.743296 46.1864 0.520253 45.7403 0.520253C45.2943 0.520253 44.8482 0.668948 44.5508 1.04069C44.2534 1.33808 44.0303 1.78416 44.0303 2.3046C44.1047 2.82503 44.2534 3.19677 44.5508 3.56851Z" fill="#575A65"/>
<path d="M48.9359 4.46094V0.0744247H49.605L51.7611 3.49442V2.67659V0.0744247H52.3559V4.46094H51.7611L49.4563 0.892249V1.71007V4.46094H48.9359Z" fill="#575A65"/>
<path d="M43.5092 10.9281C41.7248 10.9281 40.3122 12.2663 40.3122 14.0507C40.3122 15.835 41.7248 17.1733 43.5092 17.1733C45.2935 17.1733 46.7061 15.835 46.7061 14.0507C46.7061 12.2663 45.2935 10.9281 43.5092 10.9281ZM43.5092 15.9837C42.5427 15.9837 41.7248 15.1659 41.7248 14.0507C41.7248 12.9355 42.5427 12.1176 43.5092 12.1176C44.4757 12.1176 45.2935 12.8611 45.2935 14.0507C45.2935 15.1659 44.4757 15.9837 43.5092 15.9837ZM36.5948 10.9281C34.8105 10.9281 33.3979 12.2663 33.3979 14.0507C33.3979 15.835 34.8105 17.1733 36.5948 17.1733C38.3792 17.1733 39.7918 15.835 39.7918 14.0507C39.7174 12.2663 38.3048 10.9281 36.5948 10.9281ZM36.5948 15.9837C35.6283 15.9837 34.8105 15.1659 34.8105 14.0507C34.8105 12.9355 35.6283 12.1176 36.5948 12.1176C37.5614 12.1176 38.3792 12.8611 38.3792 14.0507C38.3792 15.1659 37.5614 15.9837 36.5948 15.9837ZM28.3423 11.8946V13.2328H31.5392C31.4649 13.9763 31.1675 14.4968 30.7957 14.8685C30.3496 15.3146 29.6062 15.835 28.3423 15.835C26.3349 15.835 24.8479 14.2737 24.8479 12.2663C24.8479 10.2589 26.4092 8.69764 28.3423 8.69764C29.3831 8.69764 30.2009 9.14372 30.7957 9.66416L31.7622 8.69764C30.9444 7.95416 29.9036 7.35938 28.4166 7.35938C25.6657 7.35938 23.4353 9.51546 23.4353 12.192C23.4353 14.8685 25.7401 17.0246 28.4166 17.0246C29.9036 17.0246 31.0188 16.5785 31.8366 15.6863C32.7288 14.7941 33.0262 13.6046 33.0262 12.5637C33.0262 12.2663 33.0262 11.9689 32.9518 11.7459C32.8031 11.8946 28.3423 11.8946 28.3423 11.8946ZM62.0961 12.9355C61.7987 12.2663 61.0552 10.9281 59.3452 10.9281C57.7096 10.9281 56.3713 12.192 56.3713 14.0507C56.3713 15.835 57.7096 17.1733 59.4939 17.1733C60.9809 17.1733 61.7987 16.2811 62.1704 15.7607L61.0552 15.0172C60.6835 15.5376 60.2374 15.9094 59.4939 15.9094C58.8248 15.9094 58.3044 15.612 57.9326 14.9428L62.1704 13.2328C62.2448 13.3072 62.0961 12.9355 62.0961 12.9355ZM57.7839 13.9763C57.7839 12.7868 58.7504 12.1176 59.4196 12.1176C59.94 12.1176 60.4604 12.415 60.6091 12.7868L57.7839 13.9763ZM54.2896 17.0246H55.7022V7.80547H54.2896V17.0246ZM52.0592 11.5972C51.6874 11.2255 51.0926 10.9281 50.3492 10.9281C48.7879 10.9281 47.3009 12.3407 47.3009 14.0507C47.3009 15.835 48.7879 17.1733 50.3492 17.1733C51.0926 17.1733 51.6874 16.8759 51.9848 16.4298H52.0592V16.8759C52.0592 18.0654 51.39 18.7346 50.3492 18.7346C49.5313 18.7346 48.9366 18.1398 48.7879 17.6194L47.5983 18.1398C47.97 18.9576 48.8622 19.9985 50.4235 19.9985C52.0592 19.9985 53.4718 19.032 53.4718 16.7272V11.0768H52.1335L52.0592 11.5972ZM50.4235 15.9837C49.457 15.9837 48.6392 15.1659 48.6392 14.125C48.6392 13.0098 49.457 12.192 50.4235 12.192C51.39 12.192 52.1335 13.0098 52.1335 14.125C52.1335 15.1659 51.39 15.9837 50.4235 15.9837ZM68.5643 7.80547H65.2187V17.0246H66.6313V13.5302H68.5643C70.1256 13.5302 71.6126 12.415 71.6126 10.705C71.6869 8.92068 70.1256 7.80547 68.5643 7.80547ZM68.6387 12.2663H66.6313V9.06937H68.6387C69.6796 9.06937 70.2743 9.8872 70.2743 10.6307C70.2743 11.3742 69.6796 12.2663 68.6387 12.2663ZM77.263 10.9281C76.2221 10.9281 75.1813 11.3742 74.8095 12.3407L76.0735 12.8611C76.3708 12.3407 76.8169 12.192 77.3374 12.192C78.0808 12.192 78.8243 12.6381 78.8243 13.3815V13.4559C78.6013 13.3072 78.0065 13.0841 77.3374 13.0841C75.9991 13.0841 74.6608 13.8276 74.6608 15.1659C74.6608 16.4298 75.7761 17.1733 76.9656 17.1733C77.9321 17.1733 78.4526 16.7272 78.75 16.2811H78.8243V17.0246H80.1626V13.4559C80.0882 11.8202 78.8243 10.9281 77.263 10.9281ZM77.04 15.9837C76.5939 15.9837 75.9248 15.7607 75.9248 15.2402C75.9248 14.4968 76.7426 14.2737 77.4117 14.2737C78.0065 14.2737 78.3039 14.4224 78.6756 14.5711C78.6013 15.3889 77.8578 15.9837 77.04 15.9837ZM84.9208 11.1511L83.3595 15.1659H83.2852L81.6495 11.1511H80.1626L82.6161 16.7272L81.2034 19.8498H82.6904L86.4821 11.1511H84.9208ZM72.4304 17.0246H73.843V7.80547H72.4304V17.0246Z" fill="#575A65"/>
<path d="M0.49057 0.632812C0.269031 0.854352 0.121338 1.22358 0.121338 1.66666V17.839C0.121338 18.2821 0.269031 18.6513 0.49057 18.8729L0.564417 18.9467L9.72137 9.86361V9.64207L0.49057 0.632812Z" fill="url(#paint0_linear)"/>
<path d="M12.7491 12.8902L9.72144 9.86252V9.64098L12.7491 6.61328L12.823 6.68713L16.4415 8.75483C17.4753 9.3456 17.4753 10.3056 16.4415 10.8964L12.7491 12.8902C12.823 12.8902 12.7491 12.8902 12.7491 12.8902Z" fill="url(#paint1_linear)"/>
<path d="M12.8231 12.8906L9.72152 9.78906L0.490723 18.8722C0.859955 19.2414 1.37688 19.2414 2.0415 18.946L12.8231 12.8906Z" fill="url(#paint2_linear)"/>
<path d="M12.8231 6.68878L2.0415 0.633377C1.37688 0.264145 0.859955 0.337991 0.490723 0.707223L9.72152 9.79033L12.8231 6.68878Z" fill="url(#paint3_linear)"/>
<defs>
<linearGradient id="paint0_linear" x1="8.89453" y1="18.0022" x2="-3.38256" y2="5.58005" gradientUnits="userSpaceOnUse">
<stop stop-color="#00A0FF"/>
<stop offset="0.0066" stop-color="#00A1FF"/>
<stop offset="0.2601" stop-color="#00BEFF"/>
<stop offset="0.5122" stop-color="#00D2FF"/>
<stop offset="0.7604" stop-color="#00DFFF"/>
<stop offset="1" stop-color="#00E3FF"/>
</linearGradient>
<linearGradient id="paint1_linear" x1="17.7822" y1="9.75171" x2="-0.129182" y2="9.75171" gradientUnits="userSpaceOnUse">
<stop stop-color="#FFE000"/>
<stop offset="0.4087" stop-color="#FFBD00"/>
<stop offset="0.7754" stop-color="#FFA500"/>
<stop offset="1" stop-color="#FF9C00"/>
</linearGradient>
<linearGradient id="paint2_linear" x1="4.94937" y1="14.1757" x2="-11.6994" y2="-2.66967" gradientUnits="userSpaceOnUse">
<stop stop-color="#FF3A44"/>
<stop offset="1" stop-color="#C31162"/>
</linearGradient>
<linearGradient id="paint3_linear" x1="-7.99884" y1="18.2006" x2="-0.564433" y2="10.6784" gradientUnits="userSpaceOnUse">
<stop stop-color="#32A071"/>
<stop offset="0.0685" stop-color="#2DA771"/>
<stop offset="0.4762" stop-color="#15CF74"/>
<stop offset="0.8009" stop-color="#06E775"/>
<stop offset="1" stop-color="#00F076"/>
</linearGradient>
</defs>
</svg>
