<svg width="24" height="25" viewBox="0 0 24 25" fill="none" xmlns="http://www.w3.org/2000/svg">
<path fill-rule="evenodd" clip-rule="evenodd" d="M15.85 3.4611C16.481 3.4611 17.111 3.5501 17.71 3.7511C21.401 4.9511 22.731 9.0011 21.62 12.5411C20.99 14.3501 19.96 16.0011 18.611 17.3501C16.68 19.2201 14.561 20.8801 12.28 22.3101L12.03 22.4611L11.77 22.3001C9.48102 20.8801 7.35002 19.2201 5.40102 17.3401C4.06102 15.9911 3.03002 14.3501 2.39002 12.5411C1.26002 9.0011 2.59002 4.9511 6.32102 3.7301C6.61102 3.6301 6.91002 3.5601 7.21002 3.5211H7.33002C7.61102 3.4801 7.89002 3.4611 8.17002 3.4611H8.28002C8.91002 3.4801 9.52002 3.5901 10.111 3.7911H10.17C10.21 3.8101 10.24 3.8311 10.26 3.8501C10.481 3.9211 10.69 4.0011 10.89 4.1111L11.27 4.2811C11.3618 4.33007 11.4649 4.4049 11.554 4.46957C11.6104 4.51054 11.6612 4.54744 11.7 4.5711C11.7163 4.58072 11.7329 4.59041 11.7496 4.60017C11.8354 4.65022 11.9247 4.70236 12 4.7601C13.111 3.9111 14.46 3.4511 15.85 3.4611ZM18.5102 10.6622C18.9202 10.6512 19.2702 10.3222 19.3002 9.90119V9.78219C19.3302 8.38119 18.4812 7.11219 17.1902 6.62219C16.7802 6.48119 16.3302 6.70219 16.1802 7.12219C16.0402 7.54219 16.2602 8.00219 16.6802 8.15119C17.3212 8.39119 17.7502 9.02219 17.7502 9.72119V9.75219C17.7312 9.98119 17.8002 10.2022 17.9402 10.3722C18.0802 10.5422 18.2902 10.6412 18.5102 10.6622Z" fill="#0077FF" fill-opacity="0.1"/>
</svg>
