<svg width="179" height="55" viewBox="0 0 179 55" fill="none" xmlns="http://www.w3.org/2000/svg">
<path d="M23.8024 28.3477V52.1289H18.5116C13.602 52.1289 8.89353 50.1773 5.42194 46.7033C1.95034 43.2293 0 38.5175 0 33.6046V28.3477H23.8024Z" fill="white"/>
<path d="M50.2066 28.3477V33.6421C50.2066 38.5551 48.2563 43.2668 44.7847 46.7408C41.3131 50.2148 36.6046 52.1665 31.6951 52.1665H26.4418V28.3477H50.2066Z" fill="white"/>
<path d="M26.4418 25.7329V20.4384C26.4418 15.5255 28.3921 10.8137 31.8637 7.33973C35.3353 3.86574 40.0437 1.91406 44.9533 1.91406H50.2441V25.6954L26.4418 25.7329Z" fill="white"/>
<path d="M72.985 13.8544C72.517 12.313 72.517 10.7852 72.985 9.27127C73.3979 9.16116 73.8245 9.07858 74.265 9.02353C74.7054 8.94095 75.1458 8.89966 75.5862 8.89966C76.0267 8.89966 76.4671 8.94095 76.9075 9.02353C77.3479 9.07858 77.7608 9.16116 78.1462 9.27127C78.6142 10.7852 78.6142 12.313 78.1462 13.8544C77.3204 14.0747 76.4533 14.1848 75.5449 14.1848C74.6641 14.1848 73.8108 14.0747 72.985 13.8544ZM70.5076 46.8451C69.5717 45.9367 69.1863 44.7393 69.3515 43.2529C70.7553 42.372 71.705 41.4499 72.2005 40.4864C72.6959 39.523 72.9437 38.188 72.9437 36.4813V17.4467C73.797 17.6394 74.6779 17.7357 75.5862 17.7357C76.5221 17.7357 77.403 17.6394 78.2288 17.4467V36.1923C78.2288 39.3854 77.5957 41.8352 76.3294 43.5419C75.0632 45.2485 73.1226 46.3496 70.5076 46.8451ZM99.4757 33.0543C100.577 34.0727 101.113 35.4353 101.086 37.142C98.8288 38.6559 96.1862 39.4129 93.1583 39.4129C90.9562 39.4129 89.0844 38.9862 87.5429 38.1329C86.0014 37.2796 84.8315 36.0271 84.0332 34.3755C83.235 32.7239 82.8358 30.7145 82.8358 28.3472C82.8358 24.7687 83.7167 22.0023 85.4784 20.0479C87.2676 18.0935 89.7725 17.1164 92.9931 17.1164C95.6908 17.1164 97.7965 17.8045 99.3105 19.1808C100.824 20.5296 101.595 22.4427 101.623 24.9201C101.65 26.6268 101.43 28.3059 100.962 29.9575C96.6679 30.8384 92.4426 30.9347 88.2861 30.2465C88.5889 31.7055 89.2082 32.7928 90.1441 33.5084C91.08 34.1966 92.3876 34.5407 94.0667 34.5407C96.1312 34.5407 97.9342 34.0452 99.4757 33.0543ZM92.7867 21.8647C91.4104 21.8647 90.3506 22.2088 89.6074 22.8969C88.8642 23.5851 88.3962 24.6586 88.2035 26.1176C91.259 26.558 94.0116 26.5717 96.4615 26.1588C96.5166 25.7735 96.5441 25.333 96.5441 24.8376C96.5441 22.8556 95.2916 21.8647 92.7867 21.8647ZM121.532 33.0543C122.633 34.0727 123.17 35.4353 123.142 37.142C120.885 38.6559 118.242 39.4129 115.215 39.4129C113.012 39.4129 111.141 38.9862 109.599 38.1329C108.058 37.2796 106.888 36.0271 106.089 34.3755C105.291 32.7239 104.892 30.7145 104.892 28.3472C104.892 24.7687 105.773 22.0023 107.535 20.0479C109.324 18.0935 111.829 17.1164 115.049 17.1164C117.747 17.1164 119.853 17.8045 121.367 19.1808C122.881 20.5296 123.651 22.4427 123.679 24.9201C123.706 26.6268 123.486 28.3059 123.018 29.9575C118.724 30.8384 114.499 30.9347 110.342 30.2465C110.645 31.7055 111.264 32.7928 112.2 33.5084C113.136 34.1966 114.444 34.5407 116.123 34.5407C118.187 34.5407 119.99 34.0452 121.532 33.0543ZM114.843 21.8647C113.467 21.8647 112.407 22.2088 111.664 22.8969C110.92 23.5851 110.452 24.6586 110.26 26.1176C113.315 26.558 116.068 26.5717 118.518 26.1588C118.573 25.7735 118.6 25.333 118.6 24.8376C118.6 22.8556 117.348 21.8647 114.843 21.8647ZM138.463 33.7975C138.739 34.0452 138.973 34.3618 139.165 34.7471C139.385 35.105 139.537 35.5179 139.619 35.9858C139.702 36.4263 139.73 36.8805 139.702 37.3484C138.105 38.7247 136.151 39.4129 133.839 39.4129C132.6 39.4129 131.554 39.1652 130.701 38.6697C129.848 38.1742 129.201 37.4585 128.76 36.5226C128.347 35.5592 128.141 34.3893 128.141 33.013V16.208C129.517 14.0884 131.279 12.5882 133.426 11.7074V17.5292H138.876C138.931 19.1258 138.615 20.5985 137.927 21.9473H133.426V31.8568C133.426 32.8478 133.591 33.5773 133.921 34.0452C134.252 34.5132 134.789 34.7471 135.532 34.7471C136.413 34.7471 137.39 34.4306 138.463 33.7975ZM150.819 39.4129C147.956 39.4129 145.74 38.8073 144.171 37.5961C142.63 36.3574 141.859 34.6095 141.859 32.3523C141.859 30.2053 142.588 28.5537 144.047 27.3975C145.534 26.2139 147.626 25.6221 150.323 25.6221C152.36 25.6221 153.957 25.9386 155.113 26.5717V25.3743C155.168 23.0346 153.695 21.8647 150.695 21.8647C148.768 21.8647 147.006 22.2914 145.41 23.1447C144.309 22.0711 143.799 20.7086 143.882 19.057C145.974 17.7632 148.369 17.1164 151.066 17.1164C154.094 17.1164 156.365 17.8733 157.879 19.3873C159.393 20.9013 160.15 23.3511 160.15 26.7369V37.3484C157.453 38.7247 154.342 39.4129 150.819 39.4129ZM151.19 34.9949C152.814 34.9949 154.108 34.8022 155.072 34.4168V30.5356C154.026 29.9575 152.704 29.6685 151.108 29.6685C149.676 29.6685 148.63 29.8887 147.97 30.3291C147.309 30.7695 146.979 31.4577 146.979 32.3936C146.979 34.1278 148.383 34.9949 151.19 34.9949ZM165.073 38.8348V19.9654C168.129 18.0385 171.06 17.0751 173.868 17.0751C175.547 17.0751 176.978 17.3641 178.162 17.9421C178.272 19.869 177.804 21.5481 176.758 22.9795C175.987 22.484 175.148 22.2363 174.239 22.2363C172.918 22.2363 171.624 22.6767 170.358 23.5576V38.8348C168.596 39.3028 166.835 39.3028 165.073 38.8348Z" fill="white"/>
</svg>
