<svg width="22" height="23" viewBox="0 0 22 23" fill="none" xmlns="http://www.w3.org/2000/svg">
<g clip-path="url(#clip0)">
<path d="M2.65918 2.46484V8.17223L5.25033 6.62802V2.46484H2.65918Z" fill="#FF7E7E"/>
<path d="M5.24967 2.46484V6.62867L2.6582 8.1719V5.31837C3.55438 5.12426 4.41765 3.7719 4.41765 2.7269C4.41765 2.63955 4.41118 2.5522 4.40148 2.46484H5.24967Z" fill="#EF3D3D"/>
<path d="M19.1214 7.79099V20.1747H2.88086V7.79099L11.0027 2.81641L19.1214 7.79099Z" fill="#FBC41A"/>
<path d="M19.1198 7.78983V20.1745H2.88184V18.1588C15.7103 16.5278 17.211 6.82247 17.211 6.82247L17.2498 6.64453L19.1198 7.78983Z" fill="#F59F02"/>
<path d="M20.3051 9.56578C20.1185 9.56578 19.9296 9.51599 19.7586 9.41123L11.0032 4.0464L2.24398 9.41123C1.75034 9.71415 1.10542 9.55843 0.80298 9.06495C0.500545 8.57131 0.655613 7.92623 1.14925 7.62395L10.456 1.92382C10.7922 1.71792 11.215 1.71828 11.5509 1.92382L20.8537 7.62399C21.3471 7.92642 21.5022 8.57167 21.1998 9.06515C21.0021 9.38787 20.6577 9.56578 20.3051 9.56578Z" fill="#FF7E7E"/>
<path d="M13.1024 14.3608V20.1746H8.89648V14.3608C8.89648 13.1993 9.84119 12.2578 10.9994 12.2578H11.0027C12.1609 12.2578 13.1024 13.1993 13.1024 14.3608Z" fill="#DEE1E6"/>
<path d="M13.1024 14.3583V20.1721H8.89648V19.4086H9.5306C10.7762 19.4086 11.7856 18.3992 11.7856 17.1536V13.5948C11.7856 13.0965 11.6141 12.6404 11.3262 12.2812C12.3324 12.4365 13.1024 13.3068 13.1024 14.3583Z" fill="#C7CBD1"/>
<path d="M17.6481 11.0926V15.9604H14.7363V11.0926C14.7363 10.289 15.3886 9.63672 16.1922 9.63672C16.594 9.63672 16.9609 9.79978 17.223 10.0618C17.485 10.3268 17.6481 10.6908 17.6481 11.0926Z" fill="url(#paint0_linear)"/>
<path d="M17.6481 11.0933V15.9592H14.7363V15.2247C15.694 15.1827 16.4543 14.3933 16.4543 13.4292V10.3621C16.4543 10.0968 16.3831 9.85415 16.2602 9.64062C16.6354 9.6568 16.9784 9.81533 17.2243 10.0612C17.4863 10.3265 17.6481 10.6889 17.6481 11.0933Z" fill="#0075FA"/>
<path d="M7.2643 11.0926V15.9604H4.35254V11.0926C4.35254 10.289 5.00477 9.63672 5.80842 9.63672C6.21024 9.63672 6.57713 9.79978 6.83919 10.0618C7.10124 10.3268 7.2643 10.6908 7.2643 11.0926Z" fill="url(#paint1_linear)"/>
<path d="M7.2643 11.0933V15.9592H4.35254V15.2247C5.31019 15.1827 6.07048 14.3933 6.07048 13.4292V10.3621C6.07048 10.0968 5.9993 9.85415 5.87636 9.64062C6.25166 9.6568 6.5946 9.81533 6.84048 10.0612C7.10254 10.3265 7.2643 10.6889 7.2643 11.0933Z" fill="#0075FA"/>
<path d="M12.7786 8.17394C12.7786 9.15618 11.9849 9.95335 10.9991 9.95335C10.0169 9.95335 9.21973 9.15618 9.21973 8.17394C9.21973 7.18815 10.0169 6.39453 10.9991 6.39453C11.9849 6.39453 12.7786 7.18815 12.7786 8.17394Z" fill="white"/>
<path d="M12.7792 8.17324C12.7792 9.15677 11.9865 9.95266 10.9998 9.95266C10.0906 9.95266 9.34329 9.27324 9.23653 8.39324C9.48241 8.52589 9.76711 8.6003 10.0648 8.6003C11.0515 8.6003 11.8442 7.80119 11.8442 6.82089C11.8442 6.74648 11.841 6.66883 11.828 6.59766C12.3942 6.89207 12.7792 7.48736 12.7792 8.17324ZM0.648438 20.4965V21.826C0.648438 22.0046 0.793282 22.1495 0.971967 22.1495H21.0308C21.2095 22.1495 21.3543 22.0046 21.3543 21.826V20.4965C21.3543 20.3178 21.2095 20.1729 21.0308 20.1729H0.971967C0.793314 20.1729 0.648438 20.3178 0.648438 20.4965Z" fill="#DEE1E6"/>
<path d="M14.7362 16.2809H17.6479C17.8259 16.2809 17.9715 16.1353 17.9715 15.9574V11.0883C17.9715 10.1172 17.188 9.30884 16.192 9.30884C15.2085 9.30884 14.4126 10.108 14.4126 11.0883V15.9574C14.4126 16.1353 14.5582 16.2809 14.7362 16.2809ZM15.0597 11.0883C15.0597 10.4638 15.5676 9.9559 16.192 9.9559C16.8305 9.9559 17.3244 10.4773 17.3244 11.0883V15.6338H15.0597V11.0883ZM4.35087 16.2809H7.26264C7.44381 16.2809 7.58617 16.1353 7.58617 15.9574V11.0883C7.58617 10.121 6.81345 9.30884 5.80676 9.30884C4.82646 9.30884 4.02734 10.108 4.02734 11.0883V15.9574C4.02734 16.1353 4.17293 16.2809 4.35087 16.2809ZM4.6744 11.0883C4.6744 10.4638 5.18231 9.9559 5.80676 9.9559C6.43214 9.9559 6.93911 10.4577 6.93911 11.0883V15.6338H4.6744V11.0883ZM14.7354 17.7344H17.6471C17.8258 17.7344 17.9707 17.5895 17.9707 17.4108C17.9707 17.2322 17.8258 17.0873 17.6471 17.0873H14.7354C14.5567 17.0873 14.4118 17.2322 14.4118 17.4108C14.4118 17.5895 14.5567 17.7344 14.7354 17.7344ZM7.26371 17.0873H4.35194C4.17329 17.0873 4.02841 17.2322 4.02841 17.4108C4.02841 17.5895 4.17329 17.7344 4.35194 17.7344H7.26371C7.44236 17.7344 7.58724 17.5895 7.58724 17.4108C7.58724 17.2322 7.44236 17.0873 7.26371 17.0873ZM10.9994 10.2762C12.1576 10.2762 13.1023 9.33149 13.1023 8.17325C13.1023 7.01178 12.1576 6.07031 10.9994 6.07031C9.83793 6.07031 8.89646 7.01178 8.89646 8.17325C8.89646 9.33149 9.83793 10.2762 10.9994 10.2762ZM10.9994 6.71737C11.8018 6.71737 12.4553 7.3709 12.4553 8.17325C12.4553 8.97561 11.8018 9.62914 10.9994 9.62914C10.197 9.62914 9.54352 8.97561 9.54352 8.17325C9.54352 7.3709 10.197 6.71737 10.9994 6.71737Z" fill="black"/>
</g>
<defs>
<linearGradient id="paint0_linear" x1="14.7363" y1="9.63672" x2="19.6484" y2="11.9758" gradientUnits="userSpaceOnUse">
<stop stop-color="#66ADFF"/>
<stop offset="1" stop-color="#0077FF"/>
</linearGradient>
<linearGradient id="paint1_linear" x1="4.35254" y1="9.63672" x2="9.2646" y2="11.9758" gradientUnits="userSpaceOnUse">
<stop stop-color="#66ADFF"/>
<stop offset="1" stop-color="#0077FF"/>
</linearGradient>
<clipPath id="clip0">
<rect width="22" height="22" fill="white" transform="translate(0 0.960938)"/>
</clipPath>
</defs>
</svg>
