<svg width="15" height="15" viewBox="0 0 15 15" fill="none" xmlns="http://www.w3.org/2000/svg">
<path d="M8.36859 1.20739L8.36859 5.77696L12.8985 5.77696C13.6279 5.77696 14.2192 6.37341 14.2192 7.10916C14.2192 7.84491 13.6279 8.44135 12.8985 8.44135L8.36859 8.44135L8.36859 13.0109C8.29813 13.6972 7.72482 14.2187 7.04084 14.2187C6.35686 14.2187 5.78355 13.6972 5.7131 13.0109L5.7131 8.45568L1.19735 8.45568C0.517006 8.38461 -2.80298e-07 7.80628 -3.10457e-07 7.11632C-3.40616e-07 6.42636 0.517006 5.84803 1.19735 5.77696L5.7131 5.77696L5.7131 1.20739C5.78355 0.521094 6.35686 -0.0004342 7.04084 -0.00043423C7.72482 -0.000434259 8.29813 0.521094 8.36859 1.20739Z" fill="#0075FA"/>
</svg>
