<svg width="82" height="89" viewBox="0 0 82 89" fill="none" xmlns="http://www.w3.org/2000/svg">
<path d="M40.6808 35.8505V88.2461L0 70.6749L0.194076 18.4688L40.6808 35.8505Z" fill="#006BE6"/>
<path d="M40.6816 35.8825V88.2781L81.1645 71.3139V18.6367L40.6816 35.8825Z" fill="#0077FF" fill-opacity="0.49"/>
<path d="M40.6808 35.852L81.3616 18.8129L41.0003 0.921875L0 18.3869L40.6808 35.852Z" fill="#0077FF"/>
<path d="M15.335 11.8535L55.8606 29.4927L56.2287 42.347L67.5674 37.6685L67.2245 24.733L25.4999 7.52344L15.335 11.8535Z" fill="#006BE6"/>
<path d="M53.5536 54.6829C54.1959 54.6829 54.7166 53.7325 54.7166 52.5602C54.7166 51.3879 54.1959 50.4375 53.5536 50.4375C52.9113 50.4375 52.3906 51.3879 52.3906 52.5602C52.3906 53.7325 52.9113 54.6829 53.5536 54.6829Z" fill="white"/>
<path d="M72.289 47.0501C72.9313 47.0501 73.452 46.0997 73.452 44.9274C73.452 43.755 72.9313 42.8047 72.289 42.8047C71.6467 42.8047 71.126 43.755 71.126 44.9274C71.126 46.0997 71.6467 47.0501 72.289 47.0501Z" fill="white"/>
<path d="M60.2923 65.8891L59.5371 65.5959C61.2103 61.2882 63.3085 58.915 65.7735 58.5424C68.1318 58.186 70.118 59.8106 70.8388 60.7193L70.2041 61.2227C69.7056 60.5941 67.9604 59.0314 65.8949 59.3435C63.7679 59.6648 61.8306 61.9283 60.2923 65.8891Z" fill="white"/>
</svg>
