<svg width="22" height="22" viewBox="0 0 22 22" fill="none" xmlns="http://www.w3.org/2000/svg">
<path d="M2.65918 1.50537V7.21275L5.25033 5.66855V1.50537H2.65918Z" fill="#FF7E7E"/>
<path d="M5.24967 1.50586V5.66968L2.6582 7.21292V4.35939C3.55438 4.16527 4.41765 2.81292 4.41765 1.76792C4.41765 1.68057 4.41118 1.59321 4.40148 1.50586H5.24967Z" fill="#EF3D3D"/>
<path d="M19.1214 6.82908V19.2128H2.88086V6.82908L11.0027 1.85449L19.1214 6.82908Z" fill="#FBC41A"/>
<path d="M19.1198 6.82779V19.2125H2.88184V17.1968C15.7103 15.5657 17.211 5.86044 17.211 5.86044L17.2498 5.6825L19.1198 6.82779Z" fill="#F59F02"/>
<path d="M20.3051 8.60301C20.1185 8.60301 19.9296 8.55322 19.7586 8.44846L11.0032 3.08363L2.24398 8.44846C1.75034 8.75138 1.10542 8.59566 0.80298 8.10218C0.500545 7.60854 0.655613 6.96346 1.14925 6.66118L10.456 0.96105C10.7922 0.755156 11.215 0.755512 11.5509 0.96105L20.8537 6.66122C21.3471 6.96365 21.5022 7.6089 21.1998 8.10238C21.0021 8.4251 20.6577 8.60301 20.3051 8.60301Z" fill="#FF7E7E"/>
<path d="M13.1024 13.3987V19.2125H8.89648V13.3987C8.89648 12.2372 9.84119 11.2958 10.9994 11.2958H11.0027C12.1609 11.2958 13.1024 12.2372 13.1024 13.3987Z" fill="#DEE1E6"/>
<path d="M13.1024 13.3987V19.2125H8.89648V18.449H9.5306C10.7762 18.449 11.7856 17.4396 11.7856 16.194V12.6352C11.7856 12.1369 11.6141 11.6808 11.3262 11.3217C12.3324 11.4769 13.1024 12.3472 13.1024 13.3987Z" fill="#C7CBD1"/>
<path d="M17.6481 10.1301V14.9979H14.7363V10.1301C14.7363 9.32643 15.3886 8.67419 16.1922 8.67419C16.594 8.67419 16.9609 8.83725 17.223 9.09931C17.485 9.36428 17.6481 9.72825 17.6481 10.1301Z" fill="url(#paint0_linear)"/>
<path d="M17.6481 10.1311V14.997H14.7363V14.2626C15.694 14.2205 16.4543 13.4311 16.4543 12.467V9.39994C16.4543 9.13464 16.3831 8.892 16.2602 8.67847C16.6354 8.69464 16.9784 8.85317 17.2243 9.09905C17.4863 9.36435 17.6481 9.7267 17.6481 10.1311Z" fill="#0075FA"/>
<path d="M7.2643 10.1301V14.9979H4.35254V10.1301C4.35254 9.32643 5.00477 8.67419 5.80842 8.67419C6.21024 8.67419 6.57713 8.83725 6.83919 9.09931C7.10124 9.36428 7.2643 9.72825 7.2643 10.1301Z" fill="url(#paint1_linear)"/>
<path d="M7.2643 10.1311V14.997H4.35254V14.2626C5.31019 14.2205 6.07048 13.4311 6.07048 12.467V9.39994C6.07048 9.13464 5.9993 8.892 5.87636 8.67847C6.25166 8.69464 6.5946 8.85317 6.84048 9.09905C7.10254 9.36435 7.2643 9.7267 7.2643 10.1311Z" fill="#0075FA"/>
<path d="M12.7786 7.21288C12.7786 8.19512 11.9849 8.9923 10.9991 8.9923C10.0169 8.9923 9.21973 8.19512 9.21973 7.21288C9.21973 6.22709 10.0169 5.43347 10.9991 5.43347C11.9849 5.43347 12.7786 6.22709 12.7786 7.21288Z" fill="white"/>
<path d="M12.7792 7.21292C12.7792 8.19645 11.9865 8.99233 10.9998 8.99233C10.0906 8.99233 9.34329 8.31292 9.23653 7.43292C9.48241 7.56556 9.76711 7.63998 10.0648 7.63998C11.0515 7.63998 11.8442 6.84086 11.8442 5.86056C11.8442 5.78615 11.841 5.70851 11.828 5.63733C12.3942 5.93174 12.7792 6.52704 12.7792 7.21292ZM0.648438 19.5362V20.8656C0.648438 21.0443 0.793282 21.1892 0.971967 21.1892H21.0308C21.2095 21.1892 21.3543 21.0443 21.3543 20.8656V19.5362C21.3543 19.3575 21.2095 19.2126 21.0308 19.2126H0.971967C0.793314 19.2126 0.648438 19.3575 0.648438 19.5362Z" fill="#DEE1E6"/>
<path d="M14.7371 15.3215H17.6489C17.8268 15.3215 17.9724 15.176 17.9724 14.998V10.1289C17.9724 9.15789 17.189 8.34949 16.193 8.34949C15.2095 8.34949 14.4136 9.14861 14.4136 10.1289V14.998C14.4136 15.176 14.5592 15.3215 14.7371 15.3215ZM15.0607 10.1289C15.0607 9.50449 15.5686 8.99655 16.193 8.99655C16.8315 8.99655 17.3254 9.51795 17.3254 10.1289V14.6745H15.0607V10.1289ZM4.35185 15.3215H7.26361C7.44479 15.3215 7.58714 15.176 7.58714 14.998V10.1289C7.58714 9.16165 6.81443 8.34949 5.80773 8.34949C4.82744 8.34949 4.02832 9.14861 4.02832 10.1289V14.998C4.02832 15.176 4.17391 15.3215 4.35185 15.3215ZM4.67538 10.1289C4.67538 9.50449 5.18329 8.99655 5.80773 8.99655C6.43311 8.99655 6.94009 9.49834 6.94009 10.1289V14.6745H4.67538V10.1289ZM14.7363 16.775H17.6481C17.8268 16.775 17.9716 16.6301 17.9716 16.4515C17.9716 16.2728 17.8268 16.1279 17.6481 16.1279H14.7363C14.5577 16.1279 14.4128 16.2728 14.4128 16.4515C14.4128 16.6301 14.5577 16.775 14.7363 16.775ZM7.26468 16.1279H4.35292C4.17426 16.1279 4.02939 16.2728 4.02939 16.4515C4.02939 16.6301 4.17426 16.775 4.35292 16.775H7.26468C7.44334 16.775 7.58821 16.6301 7.58821 16.4515C7.58821 16.2728 7.44334 16.1279 7.26468 16.1279ZM11.0004 9.31684C12.1586 9.31684 13.1033 8.37214 13.1033 7.2139C13.1033 6.05243 12.1586 5.11096 11.0004 5.11096C9.83891 5.11096 8.89744 6.05243 8.89744 7.2139C8.89744 8.37214 9.83891 9.31684 11.0004 9.31684ZM11.0004 5.75802C11.8027 5.75802 12.4563 6.41155 12.4563 7.2139C12.4563 8.01626 11.8027 8.66979 11.0004 8.66979C10.198 8.66979 9.5445 8.01626 9.5445 7.2139C9.5445 6.41155 10.198 5.75802 11.0004 5.75802Z" fill="black"/>
<defs>
<linearGradient id="paint0_linear" x1="14.7363" y1="8.67419" x2="19.6484" y2="11.0132" gradientUnits="userSpaceOnUse">
<stop stop-color="#66ADFF"/>
<stop offset="1" stop-color="#0077FF"/>
</linearGradient>
<linearGradient id="paint1_linear" x1="4.35254" y1="8.67419" x2="9.2646" y2="11.0132" gradientUnits="userSpaceOnUse">
<stop stop-color="#66ADFF"/>
<stop offset="1" stop-color="#0077FF"/>
</linearGradient>
</defs>
</svg>
