<svg width="18" height="19" viewBox="0 0 18 19" fill="none" xmlns="http://www.w3.org/2000/svg">
<path d="M14.1856 17.3721C14.0884 17.3722 13.9913 17.3661 13.8949 17.3538C10.7667 16.9484 7.8599 15.5215 5.62584 13.2947C3.39918 11.0605 1.97244 8.15377 1.56711 5.02566C1.52565 4.70469 1.55306 4.37857 1.64753 4.06903C1.74199 3.75948 1.90134 3.47362 2.11495 3.2305C2.32562 2.99117 2.58484 2.79946 2.87537 2.66812C3.16589 2.53678 3.48106 2.46882 3.7999 2.46877H6.06967C6.60052 2.46628 7.11496 2.65273 7.52094 2.99477C7.92692 3.33681 8.19797 3.81214 8.28561 4.33572C8.31124 4.50711 8.34274 4.67557 8.37973 4.84329C8.45404 5.1774 8.55107 5.50604 8.67013 5.82694C8.79609 6.17831 8.78608 6.56408 8.64209 6.90845C8.49809 7.25283 8.23051 7.5309 7.89193 7.68802L7.54918 7.84769C8.38437 9.31862 9.60194 10.5362 11.0729 11.3714L11.2329 11.0279C11.3906 10.6898 11.6688 10.4228 12.013 10.2791C12.3572 10.1353 12.7427 10.1252 13.094 10.2508C13.4156 10.3697 13.7448 10.4668 14.0795 10.5415C14.2461 10.5782 14.4146 10.6097 14.5834 10.6345C15.1073 10.7218 15.5831 10.9928 15.9254 11.3989C16.2678 11.805 16.4544 12.3197 16.4518 12.8509V15.1206C16.4517 15.4395 16.3837 15.7547 16.2524 16.0453C16.1211 16.3359 15.9294 16.5952 15.6901 16.8059C15.2741 17.1713 14.7393 17.3725 14.1856 17.3721Z" fill="url(#paint0_linear)"/>
<defs>
<linearGradient id="paint0_linear" x1="1.54834" y1="2.46875" x2="16.4517" y2="17.8814" gradientUnits="userSpaceOnUse">
<stop stop-color="#66ADFF"/>
<stop offset="1" stop-color="#0077FF"/>
</linearGradient>
</defs>
</svg>
