<svg width="22" height="22" viewBox="0 0 22 22" fill="none" xmlns="http://www.w3.org/2000/svg">
<g clip-path="url(#clip0)">
<path d="M8.75542 17.1477L9.1196 17.2247L8.69845 17.3438C8.47666 17.4066 8.30729 17.5857 8.25751 17.8102L8.17943 18.1623L8.10135 17.8102C8.05157 17.5857 7.88219 17.4066 7.66041 17.3438L7.23926 17.2247L7.60343 17.1478C7.83923 17.098 8.02543 16.9177 8.08245 16.6842L8.17943 16.2871L8.27641 16.6842C8.33343 16.9177 8.51968 17.0979 8.75542 17.1477Z" fill="#D38DBF"/>
<path d="M9.95196 11.633C9.95196 11.0099 9.74404 10.4354 9.3942 9.97457C9.45136 9.75391 9.48187 9.52254 9.48187 9.28406C9.48187 8.12737 8.76617 7.13831 7.75351 6.73328C7.45364 5.54077 6.37404 4.65771 5.08779 4.65771C3.80155 4.65771 2.72195 5.54077 2.42208 6.73328C1.40938 7.13831 0.693718 8.12732 0.693718 9.28406C0.693718 9.52258 0.724227 9.75391 0.781389 9.97457C0.431552 10.4355 0.223633 11.0099 0.223633 11.633C0.223633 12.9764 1.18877 14.0939 2.46373 14.3324C2.81277 15.449 3.85561 16.2593 5.08784 16.2593C6.32008 16.2593 7.36287 15.449 7.71195 14.3324C8.98682 14.0939 9.95196 12.9764 9.95196 11.633Z" fill="#A9E3CA"/>
<path d="M3.30989 14.3324C2.03492 14.0938 1.06979 12.9763 1.06979 11.633C1.06979 11.0098 1.27771 10.4354 1.62754 9.97452C1.57038 9.75386 1.53987 9.52249 1.53987 9.28401C1.53987 8.12732 2.25558 7.13826 3.26824 6.73324C3.53454 5.67418 4.41604 4.8598 5.51087 4.69067C5.3729 4.66937 5.23174 4.65771 5.0878 4.65771C3.80155 4.65771 2.72195 5.54077 2.42208 6.73328C1.40938 7.13831 0.693718 8.12732 0.693718 9.28406C0.693718 9.52258 0.724227 9.75391 0.781389 9.97457C0.431552 10.4355 0.223633 11.0099 0.223633 11.633C0.223633 12.9764 1.18877 14.0939 2.46373 14.3324C2.81277 15.4489 3.85561 16.2593 5.08784 16.2593C5.23178 16.2593 5.37295 16.2479 5.51092 16.2266C4.46775 16.0654 3.61821 15.3185 3.30989 14.3324Z" fill="#71A6B8"/>
<path d="M2.58163 20.6386C2.61496 19.9891 3.15213 19.4728 3.80992 19.4728C4.46771 19.4728 5.00488 19.9891 5.03821 20.6386C5.58059 20.7223 5.99582 21.1911 5.99582 21.7569H1.62402C1.62402 21.1911 2.03925 20.7223 2.58163 20.6386Z" fill="#A9E3CA"/>
<path d="M3.4748 20.6386C3.50013 20.1448 3.81697 19.7281 4.2565 19.5567C4.11801 19.5027 3.96749 19.4728 3.80992 19.4728C3.15213 19.4728 2.61496 19.9891 2.58163 20.6386C2.03925 20.7224 1.62402 21.1911 1.62402 21.7569H2.51719C2.51719 21.1911 2.93241 20.7224 3.4748 20.6386Z" fill="#71A6B8"/>
<path d="M6.95273 20.6386C6.98606 19.9891 7.52322 19.4728 8.18101 19.4728C8.8388 19.4728 9.37597 19.9891 9.4093 20.6386C9.95168 20.7223 10.3669 21.1911 10.3669 21.7569H5.99512C5.99512 21.1911 6.41034 20.7223 6.95273 20.6386Z" fill="#A9E3CA"/>
<path d="M7.84589 20.6386C7.87123 20.1448 8.18807 19.7281 8.6276 19.5567C8.48911 19.5027 8.33859 19.4728 8.18101 19.4728C7.52322 19.4728 6.98606 19.9891 6.95273 20.6386C6.41034 20.7224 5.99512 21.1911 5.99512 21.7569H6.88828C6.88828 21.1911 7.30351 20.7224 7.84589 20.6386Z" fill="#71A6B8"/>
<path d="M20.3385 11.3071H11.8379V13.8591H20.3385V11.3071Z" fill="#F6E16E"/>
<path d="M13.1541 12.1528H20.3385V11.3071H11.8379V13.8591H12.684V12.6225C12.684 12.3631 12.8945 12.1528 13.1541 12.1528Z" fill="#DEA86A"/>
<path d="M21.5129 16.6075H10.6641V19.1595H21.5129V16.6075Z" fill="#F6E16E"/>
<path d="M11.9803 17.4532H21.5129V16.6075H10.6641V19.1595H11.5102V17.9229C11.5102 17.6635 11.7207 17.4532 11.9803 17.4532Z" fill="#DEA86A"/>
<path d="M21.5038 16.3803H20.5656V11.3148C20.5656 11.185 20.4605 11.0799 20.3308 11.0799H11.8383C11.7086 11.0799 11.6035 11.185 11.6035 11.3148V16.3803H10.6653C10.5356 16.3803 10.4305 16.4854 10.4305 16.6152V19.1672C10.4305 19.2969 10.5357 19.4021 10.6653 19.4021H11.6035V21.5311H10.5834C10.4965 21.0179 10.1275 20.6003 9.62575 20.4537C9.50428 19.7633 8.90281 19.2455 8.18452 19.2455C7.46627 19.2455 6.8648 19.7633 6.74328 20.4537C6.43303 20.5444 6.1742 20.7393 6.00069 20.9957C5.84072 20.7593 5.6077 20.5763 5.32926 20.4779V16.4928C6.49484 16.4028 7.49448 15.6465 7.89565 14.5421C9.23257 14.2267 10.1889 13.0282 10.1889 11.6407C10.1889 11.0225 10.003 10.4339 9.65034 9.93129C9.69608 9.72196 9.7192 9.50732 9.7192 9.2917C9.7192 8.1052 9.03039 7.04915 7.95418 6.5691C7.58285 5.30401 6.42353 4.43054 5.09446 4.43054C3.76538 4.43054 2.60601 5.30401 2.23474 6.5691C1.15848 7.04911 0.469662 8.10511 0.469662 9.29165C0.469662 9.50728 0.492791 9.72192 0.53853 9.93125C0.185778 10.4338 0 11.0224 0 11.6406C0 13.0281 0.956295 14.2267 2.29322 14.5421C2.69434 15.6465 3.69398 16.4027 4.8596 16.4928V19.682C4.59363 19.412 4.22409 19.2455 3.81681 19.2455C3.09857 19.2455 2.49709 19.7633 2.37558 20.4536C1.8739 20.6003 1.50484 21.0179 1.41792 21.531H0.454855V22.0008H21.5689V21.531H20.5656V19.402H21.5038C21.6335 19.402 21.7386 19.2969 21.7386 19.1671V16.6151C21.7386 16.4854 21.6335 16.3803 21.5038 16.3803ZM2.69693 14.27C2.67103 14.187 2.60141 14.1252 2.51604 14.1091C1.33029 13.8871 0.469662 12.8489 0.469662 11.6406C0.469662 11.088 0.64585 10.5636 0.979141 10.1241C1.02258 10.0669 1.03738 9.99288 1.01938 9.9233C0.966261 9.71797 0.939325 9.50544 0.939325 9.29165C0.939325 8.25864 1.55918 7.343 2.51853 6.95899C2.58843 6.93102 2.64066 6.87118 2.65899 6.79813C2.93973 5.68069 3.9412 4.9002 5.09446 4.9002C6.24767 4.9002 7.24919 5.68064 7.52992 6.79813C7.54826 6.87118 7.60048 6.93097 7.67038 6.95894C8.62969 7.343 9.24959 8.25864 9.24959 9.29165C9.24959 9.50544 9.22265 9.71797 9.16953 9.9233C9.15153 9.99288 9.16634 10.0669 9.20977 10.1241C9.54306 10.5637 9.71925 11.0881 9.71925 11.6406C9.71925 12.8489 8.85862 13.8871 7.67288 14.1091C7.58746 14.1252 7.51789 14.187 7.49199 14.27C7.18638 15.2485 6.33393 15.9285 5.32931 16.0209L5.3232 13.6763H5.39888C6.62679 13.6763 7.62582 12.6779 7.62582 11.4507H7.15574C7.15574 12.4188 6.36764 13.2065 5.39888 13.2065H5.3232V10.8575H5.39888C6.62679 10.8575 7.62582 9.85909 7.62582 8.63193H7.15574C7.15574 9.60007 6.36764 10.3877 5.39888 10.3877H5.3232V8.66376H4.85312V11.7971H4.77743C3.80873 11.7971 3.02058 11.0094 3.02058 10.0413H2.5505C2.5505 11.2685 3.54947 12.2669 4.77743 12.2669H4.85312L4.85965 16.0208C3.85498 15.9285 3.00253 15.2484 2.69693 14.27ZM1.89943 21.531C1.99086 21.1971 2.27263 20.9328 2.62552 20.8783C2.73552 20.8613 2.81849 20.7694 2.82423 20.6582C2.85135 20.1294 3.28735 19.7152 3.81681 19.7152C4.34632 19.7152 4.78232 20.1294 4.8094 20.6582C4.81509 20.7694 4.89806 20.8613 5.00806 20.8783C5.36095 20.9328 5.64272 21.1971 5.73415 21.531H1.89943ZM6.26709 21.531C6.35852 21.1971 6.64029 20.9328 6.99318 20.8783C7.10318 20.8613 7.18615 20.7694 7.19184 20.6582C7.21896 20.1294 7.65497 19.7152 8.18442 19.7152C8.71393 19.7152 9.14993 20.1294 9.17701 20.6582C9.1827 20.7694 9.26567 20.8613 9.37571 20.8783C9.72861 20.9328 10.0104 21.1971 10.1018 21.531H6.26709ZM12.0731 11.5497H20.096V13.6319H12.0731V11.5497ZM12.0731 14.1017H20.096V16.3803H12.0731V14.1017ZM20.096 21.531H12.0731V19.402H20.096V21.531ZM21.269 18.9323H10.9001V16.8501H21.269V18.9323Z" fill="#333333"/>
</g>
<defs>
<clipPath id="clip0">
<rect width="22" height="22" fill="white"/>
</clipPath>
</defs>
</svg>
