<svg width="23" height="24" viewBox="0 0 23 24" fill="none" xmlns="http://www.w3.org/2000/svg">
<g clip-path="url(#clip0)">
<path fill-rule="evenodd" clip-rule="evenodd" d="M12.65 2.07187C12.65 1.43675 12.1351 0.921875 11.5 0.921875C10.8649 0.921875 10.35 1.43675 10.35 2.07187V4.4534C6.82446 4.95768 4.03581 7.74633 3.53152 11.2719H1.15C0.514872 11.2719 0 11.7867 0 12.4219C0 13.057 0.514872 13.5719 1.15 13.5719H3.53152C4.03581 17.0974 6.82446 19.8861 10.35 20.3903V22.7719C10.35 23.407 10.8649 23.9219 11.5 23.9219C12.1351 23.9219 12.65 23.407 12.65 22.7719V20.3903C16.1756 19.8861 18.9642 17.0974 19.4685 13.5719H21.85C22.4851 13.5719 23 13.057 23 12.4219C23 11.7867 22.4851 11.2719 21.85 11.2719H19.4685C18.9642 7.74633 16.1756 4.95768 12.65 4.4534V2.07187ZM17.25 12.4219C17.25 9.24624 14.6756 6.67188 11.5 6.67188C8.32437 6.67188 5.75 9.24624 5.75 12.4219C5.75 15.5975 8.32437 18.1719 11.5 18.1719C14.6756 18.1719 17.25 15.5975 17.25 12.4219Z" fill="#0075FA"/>
</g>
<defs>
<clipPath id="clip0">
<rect width="23" height="23" fill="white" transform="translate(0 0.921875)"/>
</clipPath>
</defs>
</svg>
