<svg width="33" height="33" viewBox="0 0 33 33" fill="none" xmlns="http://www.w3.org/2000/svg">
<path opacity="0.4" d="M23.3025 0H9.21375C3.705 0 0 3.8675 0 9.62V22.8963C0 28.6325 3.705 32.5 9.21375 32.5H23.3025C28.8112 32.5 32.5 28.6325 32.5 22.8963V9.62C32.5 3.8675 28.8112 0 23.3025 0Z" fill="#8897A0"/>
<path d="M21.1505 19.1271L18.2597 16.2378L21.1489 13.3486C21.7047 12.7944 21.7047 11.8926 21.1489 11.3384C20.5932 10.7794 19.6945 10.7811 19.1388 11.3368L16.2479 14.2261L13.357 11.3336C12.8013 10.7778 11.901 10.7811 11.3453 11.3336C10.7912 11.8893 10.7912 12.7912 11.3453 13.3453L14.2378 16.2378L11.3518 19.1222C10.796 19.6779 10.796 20.5798 11.3518 21.1323C11.6297 21.4118 11.992 21.5499 12.356 21.5499C12.7217 21.5499 13.084 21.4118 13.3619 21.1339L16.2479 18.2479L19.1404 21.1388C19.4183 21.4167 19.7807 21.5548 20.1447 21.5548C20.5087 21.5548 20.8727 21.4151 21.1505 21.1388C21.7063 20.5831 21.7063 19.6828 21.1505 19.1271Z" fill="#374B58"/>
</svg>
