<svg width="22" height="23" viewBox="0 0 22 23" fill="none" xmlns="http://www.w3.org/2000/svg">
<path fill-rule="evenodd" clip-rule="evenodd" d="M1.83398 10.7013C1.83398 6.31209 5.3543 2.75391 9.69682 2.75391C11.7822 2.75391 13.7821 3.59122 15.2567 5.08166C16.7313 6.57209 17.5597 8.59355 17.5597 10.7013C17.5597 15.0906 14.0393 18.6488 9.69682 18.6488C5.3543 18.6488 1.83398 15.0906 1.83398 10.7013ZM17.4296 17.1037L19.7713 18.9939H19.812C20.2858 19.4728 20.2858 20.2492 19.812 20.7281C19.3382 21.2069 18.5701 21.2069 18.0963 20.7281L16.153 18.5008C15.9692 18.3158 15.866 18.0644 15.866 17.8022C15.866 17.5401 15.9692 17.2887 16.153 17.1037C16.5073 16.7517 17.0752 16.7517 17.4296 17.1037Z" fill="url(#paint0_linear)"/>
<defs>
<linearGradient id="paint0_linear" x1="1.83398" y1="2.75391" x2="20.1673" y2="21.7135" gradientUnits="userSpaceOnUse">
<stop stop-color="#66ADFF"/>
<stop offset="1" stop-color="#0077FF"/>
</linearGradient>
</defs>
</svg>
