<svg width="24" height="25" viewBox="0 0 24 25" fill="none" xmlns="http://www.w3.org/2000/svg">
<path fill-rule="evenodd" clip-rule="evenodd" d="M16.6653 2.93221C18.1038 2.8423 19.5224 3.34179 20.5913 4.32077C21.5703 5.38967 22.0697 6.8082 21.9898 8.2567V17.587C22.0797 19.0355 21.5703 20.4541 20.6013 21.523C19.5323 22.502 18.1038 23.0014 16.6653 22.9115H7.33487C5.88636 23.0014 4.46781 22.502 3.39891 21.523C2.41991 20.4541 1.92043 19.0355 2.01034 17.587V8.2567C1.92043 6.8082 2.41991 5.38967 3.39891 4.32077C4.46781 3.34179 5.88636 2.8423 7.33487 2.93221H16.6653ZM10.9811 17.7669L17.7042 11.0238C18.3136 10.4045 18.3136 9.40551 17.7042 8.79614L16.4056 7.49749C15.7862 6.87813 14.7872 6.87813 14.1679 7.49749L13.4985 8.17678C13.3986 8.27668 13.3986 8.44651 13.4985 8.5464C13.4985 8.5464 15.0869 10.1248 15.1169 10.1647C15.2268 10.2846 15.2967 10.4444 15.2967 10.6243C15.2967 10.9839 15.007 11.2836 14.6374 11.2836C14.4675 11.2836 14.3077 11.2136 14.1978 11.1038L12.5295 9.44547C12.4496 9.36555 12.3098 9.36555 12.2298 9.44547L7.46474 14.2105C7.13507 14.5402 6.94527 14.9797 6.93528 15.4493L6.87534 17.8168C6.87534 17.9467 6.9153 18.0666 7.00521 18.1565C7.09512 18.2464 7.21499 18.2963 7.34486 18.2963H9.69245C10.172 18.2963 10.6315 18.1065 10.9811 17.7669Z" fill="url(#paint0_linear)"/>
<defs>
<linearGradient id="paint0_linear" x1="2" y1="2.92188" x2="22" y2="23.6051" gradientUnits="userSpaceOnUse">
<stop stop-color="#66ADFF"/>
<stop offset="1" stop-color="#0077FF"/>
</linearGradient>
</defs>
</svg>
