<svg width="98" height="99" viewBox="0 0 98 99" fill="none" xmlns="http://www.w3.org/2000/svg">
<g opacity="0.6">
<path d="M84.8594 13.676C75.0401 8.44031 60.7816 13.3267 49 24.7483C37.2184 13.3267 22.96 8.4405 13.1404 13.676C0.205394 20.5726 -0.123633 42.4099 12.4054 62.4507C19.8776 74.4029 30.2355 83.0135 40.1234 86.557C42.8174 87.8517 45.8181 88.429 49 88.3375C52.1818 88.429 55.1826 87.8517 57.8767 86.557C67.7645 83.0137 78.1223 74.4029 85.5946 62.4507C98.1237 42.4099 97.7946 20.5726 84.8594 13.676Z" fill="#0075FA"/>
<path d="M57.2979 86.5561C47.41 83.0128 37.0522 74.402 29.5799 62.4498C17.0509 42.409 17.3799 20.5717 30.3149 13.6751C30.599 13.5237 30.8871 13.3817 31.1784 13.2471C24.6116 10.9688 18.2701 10.9401 13.1404 13.6751C0.205394 20.5717 -0.123633 42.409 12.4054 62.4498C19.8776 74.402 30.2355 83.0126 40.1234 86.5561C42.8174 87.851 45.8183 88.428 49 88.3365C52.0686 88.4248 54.9681 87.889 57.5873 86.6893C57.4908 86.6453 57.3938 86.6022 57.2979 86.5561Z" fill="#006BE6"/>
<path d="M43.7331 72.1401C45.405 72.1401 46.7602 70.7848 46.7602 69.113C46.7602 67.4412 45.405 66.0859 43.7331 66.0859C42.0613 66.0859 40.7061 67.4412 40.7061 69.113C40.7061 70.7848 42.0613 72.1401 43.7331 72.1401Z" fill="#006BE6"/>
<path d="M53.115 78.3901C54.7868 78.3901 56.1421 77.0348 56.1421 75.363C56.1421 73.6912 54.7868 72.3359 53.115 72.3359C51.4432 72.3359 50.0879 73.6912 50.0879 75.363C50.0879 77.0348 51.4432 78.3901 53.115 78.3901Z" fill="#006BE6"/>
<path d="M87.9417 45.3212C87.765 45.3212 87.5857 45.2803 87.4178 45.194C86.8537 44.9042 86.6313 44.2119 86.9211 43.6476C90.6036 36.481 90.781 30.1071 87.4484 24.703C84.9578 20.6641 81.3862 18.7102 81.3504 18.6911C80.7919 18.3904 80.5829 17.694 80.8836 17.1355C81.1841 16.5772 81.8808 16.368 82.4391 16.6687C82.6074 16.7592 86.593 18.9397 89.4036 23.4975C92.0048 27.7161 94.0403 34.8184 88.9642 44.6974C88.7605 45.0937 88.3584 45.3212 87.9417 45.3212Z" fill="url(#paint0_linear)"/>
</g>
<defs>
<linearGradient id="paint0_linear" x1="86.4196" y1="16.5312" x2="86.4196" y2="45.3212" gradientUnits="userSpaceOnUse">
<stop stop-color="white"/>
<stop offset="1" stop-color="#F0F7FF"/>
</linearGradient>
</defs>
</svg>
