<svg width="22" height="22" viewBox="0 0 22 22" fill="none" xmlns="http://www.w3.org/2000/svg">
<path d="M20.9688 19.5938H1.03125V20.9688H20.9688V19.5938Z" fill="#57565C"/>
<path d="M17.875 2.40625H4.125V19.5938H17.875V2.40625Z" fill="#898890"/>
<path d="M16.1562 1.03125H5.84375V2.40625H16.1562V1.03125Z" fill="#57565C"/>
<path d="M5.5 5.84375H1.375V19.5938H5.5V5.84375Z" fill="#ACABB1"/>
<path d="M20.625 5.84375H16.5V19.5938H20.625V5.84375Z" fill="#ACABB1"/>
<path d="M7.21875 6.1875H6.53125V6.875H7.21875V6.1875Z" fill="black"/>
<path d="M3.09375 6.875H2.40625V7.5625H3.09375V6.875Z" fill="black"/>
<path d="M4.46875 6.875H3.78125V7.5625H4.46875V6.875Z" fill="black"/>
<path d="M18.2188 6.875H17.5312V7.5625H18.2188V6.875Z" fill="black"/>
<path d="M19.5938 6.875H18.9062V7.5625H19.5938V6.875Z" fill="black"/>
<path d="M18.2188 8.25H17.5312V8.9375H18.2188V8.25Z" fill="black"/>
<path d="M19.5938 8.25H18.9062V8.9375H19.5938V8.25Z" fill="black"/>
<path d="M18.2188 9.625H17.5312V10.3125H18.2188V9.625Z" fill="black"/>
<path d="M19.5938 9.625H18.9062V10.3125H19.5938V9.625Z" fill="black"/>
<path d="M19.5938 11H18.9062V11.6875H19.5938V11Z" fill="black"/>
<path d="M7.21875 3.4375H6.53125V4.125H7.21875V3.4375Z" fill="black"/>
<path d="M8.59375 3.4375H7.90625V4.125H8.59375V3.4375Z" fill="black"/>
<path d="M7.21875 4.8125H6.53125V5.5H7.21875V4.8125Z" fill="black"/>
<path d="M8.59375 4.8125H7.90625V5.5H8.59375V4.8125Z" fill="black"/>
<path d="M8.59375 6.1875H7.90625V6.875H8.59375V6.1875Z" fill="black"/>
<path d="M9.96875 3.4375H9.28125V4.125H9.96875V3.4375Z" fill="black"/>
<path d="M11.3438 3.4375H10.6562V4.125H11.3438V3.4375Z" fill="black"/>
<path d="M9.96875 4.8125H9.28125V5.5H9.96875V4.8125Z" fill="black"/>
<path d="M11.3438 4.8125H10.6562V5.5H11.3438V4.8125Z" fill="black"/>
<path d="M9.96875 6.1875H9.28125V6.875H9.96875V6.1875Z" fill="black"/>
<path d="M12.7188 3.4375H12.0312V4.125H12.7188V3.4375Z" fill="black"/>
<path d="M14.0938 3.4375H13.4062V4.125H14.0938V3.4375Z" fill="black"/>
<path d="M12.7188 4.8125H12.0312V5.5H12.7188V4.8125Z" fill="black"/>
<path d="M14.0938 4.8125H13.4062V5.5H14.0938V4.8125Z" fill="black"/>
<path d="M12.7188 6.1875H12.0312V6.875H12.7188V6.1875Z" fill="black"/>
<path d="M14.0938 6.1875H13.4062V6.875H14.0938V6.1875Z" fill="black"/>
<path d="M15.4688 3.4375H14.7812V4.125H15.4688V3.4375Z" fill="black"/>
<path d="M15.4688 4.8125H14.7812V5.5H15.4688V4.8125Z" fill="black"/>
<path d="M15.4688 6.1875H14.7812V6.875H15.4688V6.1875Z" fill="black"/>
<path d="M11.3438 6.1875H10.6562V6.875H11.3438V6.1875Z" fill="black"/>
</svg>
