<svg width="18" height="19" viewBox="0 0 18 19" fill="none" xmlns="http://www.w3.org/2000/svg">
<path fill-rule="evenodd" clip-rule="evenodd" d="M12.7047 3.17188C13.7105 3.17188 14.678 3.56937 15.3897 4.28262C16.1022 4.99437 16.5005 5.95438 16.5005 6.95938V12.8844C16.5005 14.9769 14.798 16.6719 12.7047 16.6719H5.29549C3.20224 16.6719 1.50049 14.9769 1.50049 12.8844V6.95938C1.50049 4.86688 3.19474 3.17188 5.29549 3.17188H12.7047ZM13.898 8.07679L13.958 8.01679C14.1373 7.79929 14.1373 7.48429 13.9498 7.26679C13.8455 7.15504 13.7023 7.08679 13.553 7.07179C13.3955 7.06354 13.2455 7.11679 13.1323 7.22179L9.75051 9.92179C9.31551 10.2825 8.69226 10.2825 8.25051 9.92179L4.87551 7.22179C4.64226 7.04929 4.31976 7.07179 4.12551 7.27429C3.92301 7.47679 3.90051 7.79929 4.07226 8.02429L4.17051 8.12179L7.58301 10.7843C8.00301 11.1143 8.51226 11.2943 9.04551 11.2943C9.57726 11.2943 10.0955 11.1143 10.5148 10.7843L13.898 8.07679Z" fill="url(#paint0_linear)"/>
<defs>
<linearGradient id="paint0_linear" x1="1.50049" y1="3.17188" x2="14.8787" y2="18.5444" gradientUnits="userSpaceOnUse">
<stop stop-color="#66ADFF"/>
<stop offset="1" stop-color="#0077FF"/>
</linearGradient>
</defs>
</svg>
