<svg width="35" height="35" viewBox="0 0 35 35" fill="none" xmlns="http://www.w3.org/2000/svg">
<path d="M25.6667 0H9.33333C3.37556 0 0 3.37556 0 9.33333V25.6667C0 31.6089 3.36 35 9.33333 35H25.6667C31.6244 35 35 31.6089 35 25.6667V9.33333C35 3.37556 31.6244 0 25.6667 0Z" fill="#0077FF" fill-opacity="0.1"/>
<path d="M23.3108 18.7396H18.8117V23.1997C18.8117 23.9178 18.2244 24.5 17.5 24.5C16.7756 24.5 16.1883 23.9178 16.1883 23.1997V18.7396H11.6892C11.0135 18.6702 10.5 18.1058 10.5 17.4323C10.5 16.7589 11.0135 16.1944 11.6892 16.125H16.1742V11.6789C16.2442 11.009 16.8136 10.5 17.4929 10.5C18.1723 10.5 18.7417 11.009 18.8117 11.6789V16.125H23.3108C23.9865 16.1944 24.5 16.7589 24.5 17.4323C24.5 18.1058 23.9865 18.6702 23.3108 18.7396Z" fill="#0075FA"/>
</svg>
