<svg width="72" height="72" viewBox="0 0 72 72" fill="none" xmlns="http://www.w3.org/2000/svg">
<g filter="url(#filter0_d)">
<circle cx="36" cy="31" r="22" fill="url(#paint0_linear)"/>
<path d="M35.999 26.3759C33.445 26.3759 31.376 28.4459 31.376 30.9989C31.376 33.5529 33.445 35.6229 35.999 35.6229C38.551 35.6229 40.622 33.5529 40.622 30.9989C40.622 28.4459 38.551 26.3759 35.999 26.3759ZM35.999 34.0029C34.34 34.0029 32.995 32.6579 32.995 30.9999C32.995 29.3409 34.34 27.9969 35.999 27.9969C37.658 27.9969 39.001 29.3409 39.001 30.9999C39.001 32.6579 37.658 34.0029 35.999 34.0029Z" fill="white"/>
<path d="M40.806 27.2839C41.4013 27.2839 41.884 26.8013 41.884 26.2059C41.884 25.6105 41.4013 25.1279 40.806 25.1279C40.2106 25.1279 39.728 25.6105 39.728 26.2059C39.728 26.8013 40.2106 27.2839 40.806 27.2839Z" fill="white"/>
<path d="M44.533 25.1099C44.064 23.9009 43.109 22.9449 41.9 22.4779C41.201 22.2149 40.462 22.0739 39.714 22.0579C38.751 22.0159 38.446 22.0039 36.004 22.0039C33.562 22.0039 33.249 22.0039 32.294 22.0579C31.548 22.0729 30.809 22.2139 30.11 22.4779C28.9 22.9449 27.945 23.9009 27.477 25.1099C27.214 25.8099 27.073 26.5479 27.058 27.2959C27.015 28.2579 27.002 28.5629 27.002 31.0059C27.002 33.4479 27.002 33.7589 27.058 34.7159C27.073 35.4639 27.214 36.2019 27.477 36.9029C27.946 38.1109 28.901 39.0669 30.111 39.5349C30.807 39.8069 31.546 39.9609 32.296 39.9849C33.259 40.0269 33.564 40.0399 36.006 40.0399C38.448 40.0399 38.761 40.0399 39.716 39.9849C40.463 39.9699 41.202 39.8279 41.902 39.5659C43.111 39.0969 44.066 38.1419 44.535 36.9329C44.798 36.2329 44.939 35.4949 44.954 34.7469C44.997 33.7849 45.01 33.4799 45.01 31.0369C45.01 28.5939 45.01 28.2839 44.954 27.3269C44.941 26.5689 44.801 25.8179 44.533 25.1099ZM43.315 34.6419C43.308 35.2179 43.204 35.7889 43.004 36.3299C42.699 37.1169 42.078 37.7389 41.292 38.0409C40.757 38.2399 40.193 38.3439 39.622 38.3519C38.672 38.3959 38.404 38.4069 35.968 38.4069C33.53 38.4069 33.281 38.4069 32.313 38.3519C31.744 38.3449 31.178 38.2399 30.644 38.0409C29.855 37.7399 29.23 37.1179 28.925 36.3299C28.729 35.7959 28.623 35.2309 28.614 34.6609C28.571 33.7109 28.561 33.4429 28.561 31.0069C28.561 28.5699 28.561 28.3209 28.614 27.3519C28.621 26.7759 28.725 26.2059 28.925 25.6649C29.23 24.8759 29.855 24.2549 30.644 23.9529C31.178 23.7549 31.744 23.6499 32.313 23.6419C33.264 23.5989 33.531 23.5869 35.968 23.5869C38.405 23.5869 38.655 23.5869 39.622 23.6419C40.193 23.6489 40.757 23.7539 41.292 23.9529C42.078 24.2559 42.699 24.8779 43.004 25.6649C43.2 26.1989 43.306 26.7639 43.315 27.3339C43.358 28.2849 43.369 28.5519 43.369 30.9889C43.369 33.4249 43.369 33.6869 43.326 34.6429H43.315V34.6419Z" fill="white"/>
</g>
<defs>
<filter id="filter0_d" x="0" y="0" width="72" height="72" filterUnits="userSpaceOnUse" color-interpolation-filters="sRGB">
<feFlood flood-opacity="0" result="BackgroundImageFix"/>
<feColorMatrix in="SourceAlpha" type="matrix" values="0 0 0 0 0 0 0 0 0 0 0 0 0 0 0 0 0 0 127 0" result="hardAlpha"/>
<feOffset dy="5"/>
<feGaussianBlur stdDeviation="7"/>
<feColorMatrix type="matrix" values="0 0 0 0 1 0 0 0 0 0.658824 0 0 0 0 0 0 0 0 0.2 0"/>
<feBlend mode="normal" in2="BackgroundImageFix" result="effect1_dropShadow"/>
<feBlend mode="normal" in="SourceGraphic" in2="effect1_dropShadow" result="shape"/>
</filter>
<linearGradient id="paint0_linear" x1="14" y1="9" x2="58" y2="54.5031" gradientUnits="userSpaceOnUse">
<stop stop-color="#66ADFF"/>
<stop offset="1" stop-color="#0077FF"/>
</linearGradient>
</defs>
</svg>
