<svg width="116" height="52" viewBox="0 0 116 52" fill="none" xmlns="http://www.w3.org/2000/svg">
<rect x="0.205078" width="115.556" height="52" rx="26" fill="#F1F2F4"/>
<path d="M33.1451 19.19C33.5232 18.7543 33.8114 18.2482 33.9933 17.7007C34.1752 17.1533 34.2472 16.5753 34.2051 16C33.0445 16.0937 31.9671 16.6396 31.2051 17.52C30.8402 17.942 30.5637 18.4329 30.3919 18.9636C30.2202 19.4944 30.1566 20.0542 30.2051 20.61C30.7713 20.6147 31.3309 20.4891 31.8407 20.2429C32.3505 19.9966 32.7968 19.6364 33.1451 19.19ZM35.6651 26.63C35.6718 25.8637 35.8737 25.1118 36.2516 24.4452C36.6295 23.7786 37.1711 23.2193 37.8251 22.82C37.4123 22.2252 36.8667 21.7348 36.2314 21.3877C35.5961 21.0405 34.8886 20.8462 34.1651 20.82C32.6051 20.66 31.1651 21.73 30.3351 21.73C29.5051 21.73 28.3351 20.84 27.0351 20.86C26.1852 20.888 25.3571 21.1358 24.6316 21.5792C23.906 22.0226 23.3077 22.6465 22.8951 23.39C21.1351 26.45 22.4451 31 24.2051 33.47C25.0051 34.68 26.0051 36.05 27.3251 36C28.6451 35.95 29.0751 35.18 30.6051 35.18C32.1351 35.18 32.6051 36 33.9051 35.97C35.2051 35.94 36.1251 34.73 36.9651 33.52C37.5602 32.6415 38.025 31.6816 38.3451 30.67C37.5526 30.332 36.8764 29.7693 36.4002 29.0513C35.9239 28.3333 35.6683 27.4916 35.6651 26.63Z" fill="#374B58"/>
<path d="M51.1851 31H52.7251V21.2H51.1851V31ZM58.6751 23.776C57.5551 23.776 56.6871 24.266 56.1551 25.022V23.958H54.6851V33.94H56.1551V29.936C56.6871 30.692 57.5551 31.182 58.6751 31.182C60.6631 31.182 62.1891 29.6 62.1891 27.472C62.1891 25.358 60.6631 23.776 58.6751 23.776ZM58.4371 29.866C57.1491 29.866 56.1131 28.858 56.1131 27.472C56.1131 26.1 57.1491 25.092 58.4371 25.092C59.7811 25.092 60.7331 26.086 60.7331 27.472C60.7331 28.858 59.7811 29.866 58.4371 29.866ZM67.5868 23.776C66.4668 23.776 65.6548 24.308 65.1648 25.008V20.78H63.6948V31H65.1648V27.5C65.1648 26.086 65.9628 25.148 67.1948 25.148C68.3428 25.148 68.9308 25.904 68.9308 27.136V31H70.3868V26.87C70.3868 24.966 69.3928 23.776 67.5868 23.776ZM75.5848 31.182C77.7408 31.182 79.3228 29.586 79.3228 27.472C79.3228 25.372 77.7408 23.776 75.5848 23.776C73.4288 23.776 71.8468 25.372 71.8468 27.472C71.8468 29.586 73.4288 31.182 75.5848 31.182ZM75.5848 29.852C74.2408 29.852 73.2748 28.83 73.2748 27.486C73.2748 26.128 74.2408 25.106 75.5848 25.106C76.9288 25.106 77.8948 26.128 77.8948 27.486C77.8948 28.83 76.9288 29.852 75.5848 29.852ZM84.7314 23.776C83.6114 23.776 82.7994 24.308 82.3094 25.008V23.958H80.8394V31H82.3094V27.5C82.3094 26.086 83.1074 25.148 84.3394 25.148C85.4874 25.148 86.0754 25.904 86.0754 27.136V31H87.5314V26.87C87.5314 24.966 86.5374 23.776 84.7314 23.776ZM92.7433 31.182C94.5773 31.182 95.6833 30.132 96.1173 29.18L94.7733 28.788C94.4793 29.404 93.8213 29.922 92.7713 29.922C91.3433 29.922 90.5313 29.096 90.4333 27.934H96.1593C96.1873 27.724 96.2013 27.556 96.2013 27.346C96.2013 25.358 94.8993 23.776 92.6173 23.776C90.4333 23.776 88.9913 25.386 88.9913 27.486C88.9913 29.712 90.5453 31.182 92.7433 31.182ZM90.4333 26.954C90.5313 25.946 91.3573 25.036 92.6173 25.036C93.9053 25.036 94.6753 25.862 94.7593 26.94L90.4333 26.954Z" fill="#374B58"/>
</svg>
