<svg width="49" height="18" viewBox="0 0 49 18" fill="none" xmlns="http://www.w3.org/2000/svg">
<path d="M2.55716 3.038C2.35316 2.366 2.35316 1.7 2.55716 1.04C2.73716 0.991999 2.92316 0.955999 3.11516 0.932C3.30716 0.896 3.49916 0.877999 3.69116 0.877999C3.88316 0.877999 4.07516 0.896 4.26716 0.932C4.45916 0.955999 4.63916 0.991999 4.80716 1.04C5.01116 1.7 5.01116 2.366 4.80716 3.038C4.44716 3.134 4.06916 3.182 3.67316 3.182C3.28916 3.182 2.91716 3.134 2.55716 3.038ZM1.47716 17.42C1.06916 17.024 0.901164 16.502 0.973164 15.854C1.58516 15.47 1.99916 15.068 2.21516 14.648C2.43116 14.228 2.53916 13.646 2.53916 12.902V4.604C2.91116 4.688 3.29516 4.73 3.69116 4.73C4.09916 4.73 4.48316 4.688 4.84316 4.604V12.776C4.84316 14.168 4.56716 15.236 4.01516 15.98C3.46316 16.724 2.61716 17.204 1.47716 17.42ZM14.1056 11.408C14.5856 11.852 14.8196 12.446 14.8076 13.19C13.8236 13.85 12.6716 14.18 11.3516 14.18C10.3916 14.18 9.57557 13.994 8.90357 13.622C8.23157 13.25 7.72157 12.704 7.37357 11.984C7.02557 11.264 6.85157 10.388 6.85157 9.356C6.85157 7.796 7.23557 6.59 8.00357 5.738C8.78357 4.886 9.87557 4.46 11.2796 4.46C12.4556 4.46 13.3736 4.76 14.0336 5.36C14.6936 5.948 15.0296 6.782 15.0416 7.862C15.0536 8.606 14.9576 9.338 14.7536 10.058C12.8816 10.442 11.0396 10.484 9.22757 10.184C9.35957 10.82 9.62957 11.294 10.0376 11.606C10.4456 11.906 11.0156 12.056 11.7476 12.056C12.6476 12.056 13.4336 11.84 14.1056 11.408ZM11.1896 6.53C10.5896 6.53 10.1276 6.68 9.80357 6.98C9.47957 7.28 9.27557 7.748 9.19157 8.384C10.5236 8.576 11.7236 8.582 12.7916 8.402C12.8156 8.234 12.8276 8.042 12.8276 7.826C12.8276 6.962 12.2816 6.53 11.1896 6.53ZM23.7208 11.408C24.2008 11.852 24.4348 12.446 24.4228 13.19C23.4388 13.85 22.2868 14.18 20.9668 14.18C20.0068 14.18 19.1908 13.994 18.5188 13.622C17.8468 13.25 17.3368 12.704 16.9888 11.984C16.6408 11.264 16.4668 10.388 16.4668 9.356C16.4668 7.796 16.8508 6.59 17.6188 5.738C18.3988 4.886 19.4908 4.46 20.8948 4.46C22.0708 4.46 22.9888 4.76 23.6488 5.36C24.3088 5.948 24.6448 6.782 24.6568 7.862C24.6688 8.606 24.5728 9.338 24.3688 10.058C22.4968 10.442 20.6548 10.484 18.8428 10.184C18.9748 10.82 19.2448 11.294 19.6528 11.606C20.0608 11.906 20.6308 12.056 21.3628 12.056C22.2628 12.056 23.0488 11.84 23.7208 11.408ZM20.8048 6.53C20.2048 6.53 19.7428 6.68 19.4188 6.98C19.0948 7.28 18.8908 7.748 18.8068 8.384C20.1388 8.576 21.3388 8.582 22.4068 8.402C22.4308 8.234 22.4428 8.042 22.4428 7.826C22.4428 6.962 21.8968 6.53 20.8048 6.53ZM31.1019 11.732C31.2219 11.84 31.3239 11.978 31.4079 12.146C31.5039 12.302 31.5699 12.482 31.6059 12.686C31.6419 12.878 31.6539 13.076 31.6419 13.28C30.9459 13.88 30.0939 14.18 29.0859 14.18C28.5459 14.18 28.0899 14.072 27.7179 13.856C27.3459 13.64 27.0639 13.328 26.8719 12.92C26.6919 12.5 26.6019 11.99 26.6019 11.39V4.064C27.2019 3.14 27.9699 2.486 28.9059 2.102V4.64H31.2819C31.3059 5.336 31.1679 5.978 30.8679 6.566H28.9059V10.886C28.9059 11.318 28.9779 11.636 29.1219 11.84C29.2659 12.044 29.4999 12.146 29.8239 12.146C30.2079 12.146 30.6339 12.008 31.1019 11.732ZM36.4881 14.18C35.2401 14.18 34.2741 13.916 33.5901 13.388C32.9181 12.848 32.5821 12.086 32.5821 11.102C32.5821 10.166 32.9001 9.446 33.5361 8.942C34.1841 8.426 35.0961 8.168 36.2721 8.168C37.1601 8.168 37.8561 8.306 38.3601 8.582V8.06C38.3841 7.04 37.7421 6.53 36.4341 6.53C35.5941 6.53 34.8261 6.716 34.1301 7.088C33.6501 6.62 33.4281 6.026 33.4641 5.306C34.3761 4.742 35.4201 4.46 36.5961 4.46C37.9161 4.46 38.9061 4.79 39.5661 5.45C40.2261 6.11 40.5561 7.178 40.5561 8.654V13.28C39.3801 13.88 38.0241 14.18 36.4881 14.18ZM36.6501 12.254C37.3581 12.254 37.9221 12.17 38.3421 12.002V10.31C37.8861 10.058 37.3101 9.932 36.6141 9.932C35.9901 9.932 35.5341 10.028 35.2461 10.22C34.9581 10.412 34.8141 10.712 34.8141 11.12C34.8141 11.876 35.4261 12.254 36.6501 12.254ZM42.7022 13.928V5.702C44.0342 4.862 45.3122 4.442 46.5362 4.442C47.2682 4.442 47.8922 4.568 48.4082 4.82C48.4562 5.66 48.2522 6.392 47.7962 7.016C47.4602 6.8 47.0942 6.692 46.6982 6.692C46.1222 6.692 45.5582 6.884 45.0062 7.268V13.928C44.2382 14.132 43.4702 14.132 42.7022 13.928Z" fill="#FDC535"/>
</svg>
