<svg width="18" height="19" viewBox="0 0 18 19" fill="none" xmlns="http://www.w3.org/2000/svg">
<path d="M13.9739 4.77432C13.977 4.85189 13.9621 4.92913 13.9303 5H12.4932C12.4654 4.92794 12.4506 4.85153 12.4497 4.77432C12.4497 2.85682 10.8899 1.30238 8.96575 1.30238C7.04164 1.30238 5.48184 2.85682 5.48184 4.77432C5.49502 4.84898 5.49502 4.92535 5.48184 5H4.00989C3.9967 4.92535 3.9967 4.84898 4.00989 4.77432C4.12172 2.10591 6.32499 0 9.00494 0C11.6849 0 13.8882 2.10591 14 4.77432H13.9739Z" fill="#FDC535"/>
<path d="M17.9133 13.3147L17.1444 7.12007C16.676 4.90964 15.3503 4 14.0865 4H3.93171C2.65022 4 1.28034 4.84597 0.882639 7.12007L0.104905 13.3147C-0.531424 17.8629 1.81062 19 4.86853 19H13.1585C16.2075 19 18.4789 17.3535 17.9133 13.3147Z" fill="url(#paint0_linear)"/>
<path d="M6.09668 9.14741C5.60858 9.14741 5.21289 8.74015 5.21289 8.23777C5.21289 7.73539 5.60858 7.32812 6.09668 7.32812C6.58478 7.32812 6.98047 7.73539 6.98047 8.23777C6.98047 8.74015 6.58478 9.14741 6.09668 9.14741Z" fill="white"/>
<path d="M11.8857 9.14741C11.3976 9.14741 11.002 8.74015 11.002 8.23777C11.002 7.73539 11.3976 7.32812 11.8857 7.32812C12.3738 7.32812 12.7695 7.73539 12.7695 8.23777C12.7695 8.74015 12.3738 9.14741 11.8857 9.14741Z" fill="white"/>
<defs>
<linearGradient id="paint0_linear" x1="0" y1="4" x2="14.6653" y2="22.1995" gradientUnits="userSpaceOnUse">
<stop stop-color="#66ADFF"/>
<stop offset="1" stop-color="#0077FF"/>
</linearGradient>
</defs>
</svg>
