<svg width="103" height="31" viewBox="0 0 103 31" fill="none" xmlns="http://www.w3.org/2000/svg">
<path d="M13.6443 16.25V29.8822H10.6114C7.7971 29.8822 5.09805 28.7634 3.10802 26.772C1.118 24.7806 0 22.0797 0 19.2634V16.25H13.6443Z" fill="white"/>
<path d="M28.7799 16.25V19.285C28.7799 22.1012 27.6619 24.8021 25.6719 26.7935C23.6819 28.7849 20.9828 29.9037 18.1685 29.9037H15.1572V16.25H28.7799Z" fill="white"/>
<path d="M15.1572 14.7514V11.7164C15.1572 8.90014 16.2751 6.19922 18.2652 4.20782C20.2552 2.21642 22.9542 1.09766 25.7686 1.09766H28.8014V14.7298L15.1572 14.7514Z" fill="white"/>
<path d="M41.8373 7.58578C41.5691 6.70215 41.5691 5.82641 41.8373 4.95856C42.074 4.89544 42.3186 4.8481 42.571 4.81655C42.8235 4.76921 43.076 4.74554 43.3284 4.74554C43.5809 4.74554 43.8334 4.76921 44.0858 4.81655C44.3383 4.8481 44.575 4.89544 44.7959 4.95856C45.0641 5.82641 45.0641 6.70215 44.7959 7.58578C44.3225 7.71201 43.8255 7.77513 43.3048 7.77513C42.7998 7.77513 42.3107 7.71201 41.8373 7.58578ZM40.4172 26.497C39.8807 25.9763 39.6598 25.2899 39.7545 24.4379C40.5592 23.9329 41.1036 23.4043 41.3876 22.8521C41.6716 22.2998 41.8136 21.5345 41.8136 20.5562V9.64495C42.3028 9.75541 42.8077 9.81063 43.3284 9.81063C43.8649 9.81063 44.3698 9.75541 44.8432 9.64495V20.3905C44.8432 22.2209 44.4803 23.6252 43.7545 24.6036C43.0286 25.5819 41.9162 26.213 40.4172 26.497ZM57.0226 18.5917C57.6538 19.1755 57.9615 19.9566 57.9457 20.9349C56.6518 21.8028 55.137 22.2367 53.4013 22.2367C52.139 22.2367 51.066 21.9921 50.1824 21.503C49.2987 21.0138 48.6281 20.2959 48.1705 19.3491C47.7129 18.4024 47.4841 17.2505 47.4841 15.8935C47.4841 13.8422 47.9891 12.2564 48.9989 11.1361C50.0246 10.0158 51.4605 9.4556 53.3066 9.4556C54.853 9.4556 56.0601 9.85008 56.9279 10.639C57.7958 11.4122 58.2376 12.5089 58.2534 13.929C58.2692 14.9073 58.1429 15.8698 57.8747 16.8166C55.4131 17.3215 52.991 17.3767 50.6084 16.9822C50.782 17.8185 51.137 18.4418 51.6735 18.8521C52.21 19.2465 52.9595 19.4438 53.922 19.4438C55.1054 19.4438 56.139 19.1598 57.0226 18.5917ZM53.1883 12.1775C52.3993 12.1775 51.7918 12.3747 51.3658 12.7692C50.9398 13.1637 50.6715 13.7791 50.5611 14.6154C52.3125 14.8678 53.8904 14.8757 55.2948 14.639C55.3263 14.4181 55.3421 14.1657 55.3421 13.8816C55.3421 12.7455 54.6242 12.1775 53.1883 12.1775ZM69.6659 18.5917C70.2971 19.1755 70.6048 19.9566 70.589 20.9349C69.2951 21.8028 67.7803 22.2367 66.0446 22.2367C64.7823 22.2367 63.7093 21.9921 62.8257 21.503C61.942 21.0138 61.2714 20.2959 60.8138 19.3491C60.3562 18.4024 60.1274 17.2505 60.1274 15.8935C60.1274 13.8422 60.6324 12.2564 61.6422 11.1361C62.6679 10.0158 64.1038 9.4556 65.9499 9.4556C67.4963 9.4556 68.7034 9.85008 69.5712 10.639C70.4391 11.4122 70.8809 12.5089 70.8967 13.929C70.9125 14.9073 70.7862 15.8698 70.518 16.8166C68.0565 17.3215 65.6344 17.3767 63.2517 16.9822C63.4253 17.8185 63.7803 18.4418 64.3168 18.8521C64.8533 19.2465 65.6028 19.4438 66.5653 19.4438C67.7488 19.4438 68.7823 19.1598 69.6659 18.5917ZM65.8316 12.1775C65.0426 12.1775 64.4351 12.3747 64.0091 12.7692C63.5831 13.1637 63.3148 13.7791 63.2044 14.6154C64.9559 14.8678 66.5338 14.8757 67.9381 14.639C67.9697 14.4181 67.9854 14.1657 67.9854 13.8816C67.9854 12.7455 67.2675 12.1775 65.8316 12.1775ZM79.3716 19.0177C79.5293 19.1598 79.6635 19.3412 79.7739 19.5621C79.9002 19.7673 79.9869 20.0039 80.0343 20.2722C80.0816 20.5247 80.0974 20.785 80.0816 21.0533C79.1664 21.8422 78.0461 22.2367 76.7207 22.2367C76.0106 22.2367 75.411 22.0947 74.9218 21.8107C74.4327 21.5266 74.0619 21.1164 73.8094 20.5799C73.5727 20.0276 73.4544 19.357 73.4544 18.568V8.93489C74.2433 7.7199 75.2532 6.85994 76.484 6.35501V9.69229H79.6082C79.6398 10.6075 79.4583 11.4517 79.0639 12.2248H76.484V17.9053C76.484 18.4734 76.5787 18.8915 76.768 19.1598C76.9574 19.428 77.265 19.5621 77.6911 19.5621C78.196 19.5621 78.7562 19.3807 79.3716 19.0177ZM86.454 22.2367C84.813 22.2367 83.5428 21.8895 82.6434 21.1953C81.7598 20.4852 81.3179 19.4832 81.3179 18.1893C81.3179 16.9586 81.7361 16.0118 82.5724 15.3491C83.4244 14.6706 84.6237 14.3314 86.17 14.3314C87.3377 14.3314 88.2529 14.5128 88.9156 14.8757V14.1893C88.9471 12.8481 88.103 12.1775 86.383 12.1775C85.2785 12.1775 84.2686 12.4221 83.3534 12.9112C82.7223 12.2958 82.4304 11.5148 82.4777 10.568C83.6769 9.82641 85.0497 9.4556 86.596 9.4556C88.3318 9.4556 89.6335 9.88953 90.5014 10.7574C91.3692 11.6252 91.8032 13.0296 91.8032 14.9704V21.0533C90.2568 21.8422 88.4738 22.2367 86.454 22.2367ZM86.6671 19.7041C87.598 19.7041 88.3396 19.5937 88.8919 19.3728V17.1479C88.2923 16.8166 87.5349 16.6509 86.6197 16.6509C85.7992 16.6509 85.1996 16.7771 84.8209 17.0296C84.4422 17.282 84.2529 17.6765 84.2529 18.213C84.2529 19.2071 85.0576 19.7041 86.6671 19.7041ZM94.6251 21.9053V11.0887C96.3766 9.98421 98.057 9.43194 99.6665 9.43194C100.629 9.43194 101.45 9.59762 102.128 9.92898C102.191 11.0335 101.923 11.996 101.323 12.8166C100.882 12.5325 100.4 12.3905 99.8795 12.3905C99.1221 12.3905 98.3805 12.643 97.6547 13.1479V21.9053C96.6448 22.1736 95.635 22.1736 94.6251 21.9053Z" fill="white"/>
</svg>
