<svg width="89" height="80" viewBox="0 0 89 80" fill="none" xmlns="http://www.w3.org/2000/svg">
<rect width="88.2051" height="80" rx="10" fill="url(#paint0_linear)"/>
<path d="M43.6443 27.1523V40.7845H40.6114C37.7971 40.7845 35.098 39.6658 33.108 37.6744C31.118 35.683 30 32.982 30 30.1658V27.1523H43.6443Z" fill="white"/>
<path d="M58.7799 27.1523V30.1873C58.7799 33.0036 57.6619 35.7045 55.6719 37.6959C53.6819 39.6873 50.9828 40.8061 48.1685 40.8061H45.1572V27.1523H58.7799Z" fill="white"/>
<path d="M45.1572 25.6537V22.6188C45.1572 19.8025 46.2751 17.1016 48.2652 15.1102C50.2552 13.1188 52.9542 12 55.7686 12H58.8014V25.6322L45.1572 25.6537Z" fill="white"/>
<path d="M22.5572 51.038C22.3532 50.366 22.3532 49.7 22.5572 49.04C22.7372 48.992 22.9232 48.956 23.1152 48.932C23.3072 48.896 23.4992 48.878 23.6912 48.878C23.8832 48.878 24.0752 48.896 24.2672 48.932C24.4592 48.956 24.6392 48.992 24.8072 49.04C25.0112 49.7 25.0112 50.366 24.8072 51.038C24.4472 51.134 24.0692 51.182 23.6732 51.182C23.2892 51.182 22.9172 51.134 22.5572 51.038ZM21.4772 65.42C21.0692 65.024 20.9012 64.502 20.9732 63.854C21.5852 63.47 21.9992 63.068 22.2152 62.648C22.4312 62.228 22.5392 61.646 22.5392 60.902V52.604C22.9112 52.688 23.2952 52.73 23.6912 52.73C24.0992 52.73 24.4832 52.688 24.8432 52.604V60.776C24.8432 62.168 24.5672 63.236 24.0152 63.98C23.4632 64.724 22.6172 65.204 21.4772 65.42ZM34.1056 59.408C34.5856 59.852 34.8196 60.446 34.8076 61.19C33.8236 61.85 32.6716 62.18 31.3516 62.18C30.3916 62.18 29.5756 61.994 28.9036 61.622C28.2316 61.25 27.7216 60.704 27.3736 59.984C27.0256 59.264 26.8516 58.388 26.8516 57.356C26.8516 55.796 27.2356 54.59 28.0036 53.738C28.7836 52.886 29.8756 52.46 31.2796 52.46C32.4556 52.46 33.3736 52.76 34.0336 53.36C34.6936 53.948 35.0296 54.782 35.0416 55.862C35.0536 56.606 34.9576 57.338 34.7536 58.058C32.8816 58.442 31.0396 58.484 29.2276 58.184C29.3596 58.82 29.6296 59.294 30.0376 59.606C30.4456 59.906 31.0156 60.056 31.7476 60.056C32.6476 60.056 33.4336 59.84 34.1056 59.408ZM31.1896 54.53C30.5896 54.53 30.1276 54.68 29.8036 54.98C29.4796 55.28 29.2756 55.748 29.1916 56.384C30.5236 56.576 31.7236 56.582 32.7916 56.402C32.8156 56.234 32.8276 56.042 32.8276 55.826C32.8276 54.962 32.2816 54.53 31.1896 54.53ZM43.7208 59.408C44.2008 59.852 44.4348 60.446 44.4228 61.19C43.4388 61.85 42.2868 62.18 40.9668 62.18C40.0068 62.18 39.1908 61.994 38.5188 61.622C37.8468 61.25 37.3368 60.704 36.9888 59.984C36.6408 59.264 36.4668 58.388 36.4668 57.356C36.4668 55.796 36.8508 54.59 37.6188 53.738C38.3988 52.886 39.4908 52.46 40.8948 52.46C42.0708 52.46 42.9888 52.76 43.6488 53.36C44.3088 53.948 44.6448 54.782 44.6568 55.862C44.6688 56.606 44.5728 57.338 44.3688 58.058C42.4968 58.442 40.6548 58.484 38.8428 58.184C38.9748 58.82 39.2448 59.294 39.6528 59.606C40.0608 59.906 40.6308 60.056 41.3628 60.056C42.2628 60.056 43.0488 59.84 43.7208 59.408ZM40.8048 54.53C40.2048 54.53 39.7428 54.68 39.4188 54.98C39.0948 55.28 38.8908 55.748 38.8068 56.384C40.1388 56.576 41.3388 56.582 42.4068 56.402C42.4308 56.234 42.4428 56.042 42.4428 55.826C42.4428 54.962 41.8968 54.53 40.8048 54.53ZM51.1019 59.732C51.2219 59.84 51.3239 59.978 51.4079 60.146C51.5039 60.302 51.5699 60.482 51.6059 60.686C51.6419 60.878 51.6539 61.076 51.6419 61.28C50.9459 61.88 50.0939 62.18 49.0859 62.18C48.5459 62.18 48.0899 62.072 47.7179 61.856C47.3459 61.64 47.0639 61.328 46.8719 60.92C46.6919 60.5 46.6019 59.99 46.6019 59.39V52.064C47.2019 51.14 47.9699 50.486 48.9059 50.102V52.64H51.2819C51.3059 53.336 51.1679 53.978 50.8679 54.566H48.9059V58.886C48.9059 59.318 48.9779 59.636 49.1219 59.84C49.2659 60.044 49.4999 60.146 49.8239 60.146C50.2079 60.146 50.6339 60.008 51.1019 59.732ZM56.4881 62.18C55.2401 62.18 54.2741 61.916 53.5901 61.388C52.9181 60.848 52.5821 60.086 52.5821 59.102C52.5821 58.166 52.9001 57.446 53.5361 56.942C54.1841 56.426 55.0961 56.168 56.2721 56.168C57.1601 56.168 57.8561 56.306 58.3601 56.582V56.06C58.3841 55.04 57.7421 54.53 56.4341 54.53C55.5941 54.53 54.8261 54.716 54.1301 55.088C53.6501 54.62 53.4281 54.026 53.4641 53.306C54.3761 52.742 55.4201 52.46 56.5961 52.46C57.9161 52.46 58.9061 52.79 59.5661 53.45C60.2261 54.11 60.5561 55.178 60.5561 56.654V61.28C59.3801 61.88 58.0241 62.18 56.4881 62.18ZM56.6501 60.254C57.3581 60.254 57.9221 60.17 58.3421 60.002V58.31C57.8861 58.058 57.3101 57.932 56.6141 57.932C55.9901 57.932 55.5341 58.028 55.2461 58.22C54.9581 58.412 54.8141 58.712 54.8141 59.12C54.8141 59.876 55.4261 60.254 56.6501 60.254ZM62.7022 61.928V53.702C64.0342 52.862 65.3122 52.442 66.5362 52.442C67.2682 52.442 67.8922 52.568 68.4082 52.82C68.4562 53.66 68.2522 54.392 67.7962 55.016C67.4602 54.8 67.0942 54.692 66.6982 54.692C66.1222 54.692 65.5582 54.884 65.0062 55.268V61.928C64.2382 62.132 63.4702 62.132 62.7022 61.928Z" fill="white"/>
<defs>
<linearGradient id="paint0_linear" x1="0" y1="0" x2="79.3608" y2="90.4895" gradientUnits="userSpaceOnUse">
<stop stop-color="#66ADFF"/>
<stop offset="1" stop-color="#0077FF"/>
</linearGradient>
</defs>
</svg>
