<svg width="218" height="308" viewBox="0 0 218 308" fill="none" xmlns="http://www.w3.org/2000/svg">
<path d="M148.885 160.574H187.866V228.502C187.866 235.302 185.165 241.824 180.356 246.633C175.547 251.442 169.025 254.144 162.224 254.144H148.885V160.574Z" fill="#1765CF"/>
<path d="M71.0881 254.141H57.749C50.9483 254.141 44.4261 251.439 39.6173 246.63C34.8085 241.821 32.1069 235.299 32.1069 228.499L32.1069 160.571H71.0881L71.0881 254.141Z" fill="#1765CF"/>
<path d="M98.3787 104.527C98.3787 104.527 43.6807 115.89 35.1915 136.214C26.7023 156.537 34.9944 226.388 43.3477 242.323C55.8187 266.113 80.5285 249.025 80.5285 249.025L120.996 121.791L98.3787 104.527Z" fill="#1765CF"/>
<path d="M120.93 104.527C120.93 104.527 175.628 115.89 184.117 136.214C192.606 156.537 185.605 224.044 173.852 243.345C160.017 266.068 138.78 249.025 138.78 249.025L98.3121 121.791L120.93 104.527Z" fill="#1765CF"/>
<path d="M121.38 116.844C119.439 118.082 116.778 118.966 115.073 119.528C109.122 121.488 102.5 121.506 96.6086 119.315C94.8795 118.673 93.1791 117.831 91.8916 116.51C90.1206 114.692 90.1741 112.972 90.174 110.664C90.1739 108.649 90.1739 106.633 90.174 104.618V87.2239C90.174 87.2239 123.678 87.2239 123.678 87.235V105.921C123.678 108.339 124.704 113.171 123.258 115.184C122.74 115.849 122.103 116.412 121.38 116.844ZM133.478 64.8489C134.297 63.9508 135.145 63.0303 136.245 62.5131C137.345 61.996 138.772 61.9772 139.672 62.7937C140.768 63.7871 140.676 65.5301 140.288 66.9571C139.741 68.9294 138.806 70.7729 137.539 72.3801C136.272 73.9873 134.697 75.326 132.907 76.3181C132.814 76.155 132.722 75.992 132.629 75.8289L133.478 64.8489Z" fill="#D79774"/>
<path d="M130.622 31.1495C126.698 28.5141 122.384 28.9414 117.966 28.8959L107.102 28.7842C107.027 28.7834 106.951 28.7826 106.876 28.7819C103.255 28.7446 99.6332 28.7073 96.0117 28.6701C91.594 28.6247 87.2898 28.1087 83.3124 30.6629C79.4709 33.1299 76.8708 37.1602 76.8215 41.9864C76.7719 46.8343 76.722 51.6821 76.6719 56.5298L76.4143 78.8368C76.3498 85.1123 80.2034 91.1445 84.6804 95.1207C92.2455 101.84 98.7548 104.788 106.065 104.92L106.065 104.925C106.102 104.925 106.14 104.923 106.178 104.923C106.215 104.924 106.253 104.927 106.29 104.927L106.29 104.922C113.602 104.941 120.78 102.126 128.482 95.5641C133.039 91.6808 136.407 85.7301 136.472 79.4545L136.729 57.1476C136.779 52.2998 136.829 47.452 136.879 42.6042C136.929 37.778 134.412 33.695 130.622 31.1495Z" fill="#D79774"/>
<path d="M70.6528 46.0674C70.6545 45.7731 70.6582 45.4789 70.6641 45.1846C70.7321 41.7934 71.1157 38.2909 72.7009 35.3621C73.4961 33.8618 74.6657 32.5926 76.0962 31.6777C77.4844 30.8188 79.0002 30.9667 80.342 30.3829C79.4885 26.3581 80.6215 22.4165 83.7897 19.8883C86.8692 17.4309 90.8813 16.8118 94.7044 16.8285C105.968 16.8776 116.938 21.7268 128.188 21.0909C130.551 20.9574 133.175 20.4107 134.546 18.3215C138.762 25.1604 141.049 33.3167 141.3 41.5235C141.43 45.6302 141.039 49.7368 140.135 53.745C139.659 55.7279 139.074 57.6833 138.384 59.6022C137.94 60.8891 136.63 64.1518 136.643 65.5494C136.582 58.8898 136.019 50.5362 134.418 44.1083C127.148 48.7232 116.399 47.8618 108.268 45.3678C100.977 43.1317 89.5836 33.0972 89.6071 33.0801C85.8005 35.8572 83.4857 37.3716 81.6 41.9496C79.9648 45.9197 76.5332 69.8369 76.6839 73.4436C75.1112 62.0461 70.6047 54.8832 70.6528 46.0674Z" fill="#03277D"/>
<path d="M78.4289 64.2828C77.6286 63.368 76.799 62.4302 75.7099 61.8906C74.6208 61.351 73.1948 61.3027 72.2778 62.1006C71.1622 63.0712 71.2179 64.8158 71.5764 66.2505C72.083 68.2335 72.9795 70.0959 74.2136 71.7288C75.4476 73.3617 76.9945 74.7325 78.764 75.7613C78.8597 75.6002 78.9555 75.439 79.0512 75.2779L78.4289 64.2828Z" fill="#D79774"/>
<path d="M80.4038 45.082L79.1003 70.5082C79.1003 70.5082 78.0339 63.9345 75.7099 61.8922L80.4038 45.082ZM96.6124 66.6353C96.5993 67.9128 95.7319 68.9397 94.6751 68.9288C93.6182 68.9179 92.7721 67.8735 92.7853 66.5959C92.7984 65.3184 93.6658 64.2916 94.7227 64.3024C95.7795 64.3133 96.6256 65.3578 96.6124 66.6353Z" fill="#03277D"/>
<path d="M124.446 66.9216C124.459 65.6442 123.613 64.5997 122.556 64.5888C121.499 64.578 120.632 65.6047 120.619 66.8822C120.606 68.1597 121.452 69.2041 122.509 69.215C123.566 69.2259 124.433 68.1991 124.446 66.9216Z" fill="#03277D"/>
<path d="M86.9203 59.9207C87.8492 59.0394 88.9425 58.3496 90.1379 57.8907C92.5525 56.9345 95.231 56.8814 97.6815 57.7412C98.8809 58.149 99.9877 58.7901 100.938 59.6277C101.022 59.7033 101.076 59.8064 101.091 59.9184C101.105 60.0305 101.079 60.144 101.017 60.2385C100.955 60.3329 100.861 60.4021 100.753 60.4333C100.644 60.4646 100.528 60.4559 100.425 60.4089L100.419 60.406C99.3995 59.9296 98.33 59.5676 97.2304 59.3268C95.0849 58.8647 92.8558 58.974 90.7658 59.6438C89.7142 59.9858 88.703 60.4413 87.75 61.0021L87.7411 61.0073C87.5961 61.0914 87.4254 61.1195 87.2612 61.0864C87.0969 61.0532 86.9505 60.9611 86.8495 60.8274C86.7485 60.6937 86.7 60.5277 86.713 60.3606C86.7261 60.1936 86.7998 60.0371 86.9203 59.9207ZM116.076 59.7908C117.054 58.9825 118.181 58.3736 119.393 57.9988C120.614 57.6101 121.895 57.4415 123.175 57.5008C124.454 57.5588 125.712 57.8506 126.887 58.3615C128.051 58.8533 129.102 59.5778 129.976 60.4904C130.047 60.5655 130.088 60.6633 130.093 60.7661C130.098 60.869 130.066 60.9703 130.003 61.0518C129.94 61.1334 129.851 61.1898 129.75 61.211C129.649 61.2323 129.544 61.2169 129.453 61.1677L129.448 61.1648C128.46 60.6176 127.418 60.1746 126.339 59.8429C125.285 59.5272 124.196 59.3431 123.097 59.2948C122 59.2542 120.901 59.3558 119.83 59.5971C118.739 59.8485 117.68 60.2203 116.672 60.7058L116.666 60.7087C116.545 60.7659 116.407 60.7772 116.279 60.7404C116.15 60.7037 116.04 60.6214 115.967 60.509C115.895 60.3965 115.866 60.2616 115.886 60.1295C115.906 59.9973 115.974 59.877 116.076 59.7908Z" fill="#03277D"/>
<path d="M131.32 75.6901L131.14 72.7356C131.14 72.7356 114.516 70.4414 106.798 70.4414C99.4401 70.4414 83.0631 72.7356 83.0631 72.7356L82.7112 75.6667C85.563 75.288 99.824 73.4407 106.617 73.4407C113.907 73.4407 128.913 75.3738 131.32 75.6901Z" fill="#6EAEF9"/>
<path d="M106.729 105.844C122.218 106.817 132.287 91.5902 132.287 91.5902L131.32 75.6948C128.913 75.3784 113.908 73.4453 106.617 73.4453C99.8242 73.4453 85.5632 75.2926 82.7114 75.6713L80.8585 91.1022C82.3087 92.9073 91.2394 104.871 106.729 105.844Z" fill="#4F94F9"/>
<g opacity="0.57">
<path opacity="0.57" d="M87.8745 78.6564C90.8717 77.8234 93.9248 77.2068 97.0104 76.8114L99.3299 76.5406L101.658 76.35C102.436 76.3069 103.214 76.2589 103.992 76.2267L106.329 76.178C109.445 76.1536 112.561 76.3323 115.654 76.7131C118.745 77.0854 121.802 77.6975 124.797 78.544C124.839 78.556 124.874 78.5831 124.897 78.62C124.919 78.6568 124.927 78.7008 124.918 78.743C124.909 78.7853 124.885 78.8228 124.85 78.848C124.815 78.8732 124.772 78.8843 124.729 78.8792C121.656 78.5094 118.597 78.174 115.532 77.9561C112.468 77.7293 109.402 77.6143 106.333 77.6111L104.032 77.635C103.265 77.6661 102.498 77.6813 101.731 77.7014L99.4309 77.8176L97.1315 77.9704C94.0663 78.2057 91.0087 78.5679 87.9444 78.9911C87.9014 78.9971 87.8578 78.9865 87.8223 78.9615C87.7868 78.9365 87.7621 78.8989 87.7532 78.8564C87.7443 78.8139 87.7519 78.7696 87.7744 78.7325C87.7969 78.6954 87.8327 78.6682 87.8745 78.6564ZM87.94 81.7026C91 82.1041 94.0782 82.3944 97.1529 82.6312C100.23 82.8584 103.31 83.007 106.39 83.0383C109.469 83.0689 112.549 82.984 115.613 82.7257C118.681 82.4826 121.724 81.993 124.714 81.2617C124.757 81.2507 124.802 81.2567 124.84 81.2783C124.879 81.2999 124.907 81.3356 124.92 81.3778C124.933 81.42 124.929 81.4656 124.909 81.5049C124.889 81.5442 124.854 81.5743 124.813 81.5888C123.337 82.088 121.834 82.5006 120.31 82.8245C118.785 83.1458 117.243 83.3773 115.697 83.5623C114.151 83.7475 112.597 83.8494 111.043 83.931C109.489 83.9956 107.934 84.0192 106.379 84.0018C103.271 83.9576 100.171 83.7726 97.0797 83.4468C93.9909 83.1338 90.92 82.664 87.879 82.0391C87.8358 82.03 87.7977 82.0046 87.7728 81.9682C87.7479 81.9317 87.7381 81.887 87.7454 81.8435C87.7527 81.7999 87.7766 81.7609 87.812 81.7345C87.8474 81.7082 87.8917 81.6966 87.9355 81.7021L87.94 81.7026ZM87.7985 84.9809C90.7225 86.3922 93.809 87.4384 96.9885 88.0959C100.148 88.7796 103.371 89.1196 106.604 89.1101C108.206 89.0786 109.845 88.9953 111.45 88.8404C113.057 88.6983 114.655 88.461 116.234 88.1299L116.825 88.0043L117.41 87.8568C117.803 87.7646 118.188 87.6506 118.574 87.5353C119.348 87.3141 120.109 87.048 120.86 86.7557C122.37 86.1645 123.828 85.4498 125.219 84.6187C125.257 84.5965 125.301 84.5896 125.344 84.5992C125.387 84.6088 125.424 84.6344 125.448 84.6706C125.473 84.7068 125.482 84.7509 125.475 84.794C125.468 84.8371 125.445 84.8758 125.41 84.9023C122.745 86.8995 119.701 88.3329 116.464 89.1151C114.853 89.5134 113.216 89.8005 111.565 89.9742C110.742 90.0602 109.918 90.1259 109.094 90.1793L107.859 90.2461L106.613 90.2727C103.292 90.2754 99.9846 89.8601 96.7679 89.0366C93.5665 88.217 90.4338 87.029 87.6314 85.2792C87.6123 85.2673 87.5958 85.2518 87.5827 85.2335C87.5697 85.2152 87.5604 85.1945 87.5553 85.1726C87.5502 85.1508 87.5495 85.1281 87.5532 85.1059C87.5569 85.0838 87.565 85.0625 87.5769 85.0435C87.5997 85.0076 87.6349 84.9815 87.6758 84.9699C87.7167 84.9584 87.7604 84.9623 87.7985 84.9809Z" fill="#1765CF"/>
</g>
<path d="M123.213 211.939C125.333 213.057 127.701 213.792 129.886 214.286C126.772 211.684 124.87 208.586 123.366 205.14C123.51 202.652 123.754 199.988 124.082 197.169C126.795 199.213 130.347 200.389 133.522 201.115C129.301 197.66 127.131 193.409 125.289 188.647C125.596 186.824 125.924 184.966 126.287 183.053C129.259 185.629 133.435 187.082 137.157 187.951C132.501 184.204 130.154 179.598 128.119 174.424C128.479 172.835 128.859 171.237 129.265 169.609C132.417 172.314 136.851 173.853 140.787 174.779C136.055 171.035 133.561 166.493 131.433 161.412C131.873 159.836 132.339 158.242 132.819 156.638C136.108 159.171 140.499 160.677 144.417 161.608C139.889 158.082 137.279 153.889 135.136 149.226C135.698 147.491 136.3 145.743 136.903 143.983C140.22 146.175 144.339 147.544 148.046 148.437C143.932 145.268 141.305 141.605 139.197 137.558C140.009 135.375 140.842 133.231 141.68 131.119C144.981 133.733 149.453 135.269 153.438 136.217C149.093 132.835 146.526 128.838 144.43 124.41C145.279 122.424 146.126 120.468 146.981 118.563C150.146 121.438 154.756 123.045 158.822 123.997C154.511 120.592 152.054 116.529 150.041 111.994C150.965 110.092 151.887 108.239 152.809 106.435C155.793 109.31 160.27 110.865 164.214 111.779C160.189 108.548 157.895 104.676 156.029 100.357C157.099 98.428 158.158 96.5715 159.205 94.7871C161.999 97.3428 166.023 98.7435 169.591 99.5584C166.129 96.7279 164.046 93.3501 162.394 89.5938C163.729 87.5144 165.037 85.5515 166.317 83.7612C168.831 85.6252 172.072 86.687 174.982 87.3386C172.377 85.1643 170.625 82.6443 169.245 79.8628C175.128 72.4352 180.148 68.6541 183.217 69.7485C191.402 72.6574 177.135 107.017 161.797 150.199C146.457 193.388 135.858 229.049 127.668 226.139C124.872 225.144 123.366 219.998 123.213 211.939Z" fill="#FD9F02"/>
<path d="M166.317 83.7617C167.314 82.3716 168.292 81.0675 169.245 79.8633C170.625 82.6448 172.377 85.1648 174.982 87.339C172.072 86.6875 168.831 85.6257 166.317 83.7617ZM169.591 99.5589C166.023 98.744 161.999 97.3433 159.205 94.7876C160.28 92.9721 161.343 91.241 162.394 89.5943C164.046 93.3506 166.129 96.7284 169.591 99.5589ZM164.214 111.779C160.27 110.866 155.793 109.311 152.809 106.435C153.889 104.34 154.962 102.314 156.029 100.357C157.895 104.676 160.189 108.549 164.214 111.779ZM158.823 123.998C154.756 123.045 150.146 121.438 146.981 118.564C147.996 116.318 149.016 114.128 150.041 111.994C152.054 116.529 154.511 120.593 158.823 123.998ZM141.68 131.119C142.579 128.836 143.496 126.599 144.43 124.41C146.526 128.839 149.093 132.835 153.438 136.217C149.453 135.269 144.981 133.733 141.68 131.119ZM129.886 214.286C127.702 213.793 125.333 213.057 123.213 211.939C123.174 209.862 123.224 207.58 123.366 205.14C124.87 208.586 126.772 211.685 129.886 214.286ZM133.522 201.116C130.347 200.39 126.795 199.213 124.082 197.169C124.403 194.467 124.8 191.62 125.289 188.647C127.131 193.41 129.301 197.66 133.522 201.116ZM137.157 187.951C133.435 187.083 129.259 185.629 126.287 183.054C126.825 180.266 127.436 177.39 128.119 174.424C130.154 179.598 132.501 184.204 137.157 187.951ZM140.787 174.779C136.851 173.853 132.417 172.315 129.265 169.609C129.935 166.923 130.658 164.191 131.433 161.413C133.561 166.494 136.055 171.035 140.787 174.779ZM132.82 156.638C133.548 154.195 134.32 151.724 135.136 149.227C137.279 153.889 139.889 158.082 144.417 161.608C140.499 160.677 136.108 159.172 132.82 156.638ZM136.903 143.984C137.172 143.203 137.435 142.427 137.711 141.646C138.201 140.272 138.702 138.913 139.197 137.559C141.305 141.606 143.932 145.269 148.046 148.437C144.339 147.544 140.22 146.175 136.903 143.984Z" fill="#CE7C05"/>
<path d="M119.977 129.373C119.971 126.139 124.911 116.847 126.745 116.634L138.838 116.586C140.683 116.794 145.698 126.043 145.708 129.283L145.778 148.952L145.88 176.795C145.885 178.987 143.725 180.773 141.068 180.779L124.976 180.836C122.329 180.854 120.158 179.073 120.153 176.891L120.046 149.048L119.977 129.373Z" fill="white"/>
<path d="M118.299 127.968L118.47 176.646C118.48 179.978 121.528 182.666 125.27 182.655L141.33 182.597C145.078 182.586 148.104 179.87 148.093 176.534L147.917 127.867C147.907 124.536 142.833 112.87 139.084 112.887L127.023 112.928C123.271 112.946 118.288 124.637 118.299 127.968ZM120.966 129.412C120.955 126.274 125.623 117.265 127.355 117.056L138.774 117.019C140.518 117.217 145.249 126.187 145.259 129.32L145.33 148.396L145.426 175.395C145.431 177.513 143.394 179.245 140.886 179.25L125.687 179.309C123.19 179.319 121.137 177.592 121.132 175.481L121.03 148.481L120.966 129.412Z" fill="#CDDBFE"/>
<path d="M122.549 109.946L122.534 106.044C122.532 105.621 122.613 105.203 122.773 104.812C122.934 104.421 123.17 104.065 123.468 103.766C123.766 103.466 124.12 103.228 124.51 103.066C124.9 102.904 125.318 102.82 125.741 102.82L139.924 102.766C140.346 102.763 140.766 102.844 141.157 103.004C141.549 103.163 141.905 103.398 142.205 103.696C142.506 103.993 142.745 104.347 142.908 104.737C143.072 105.127 143.157 105.545 143.159 105.968L143.17 109.877C143.166 110.189 143.117 110.499 143.024 110.797H122.679C122.597 110.52 122.554 110.234 122.549 109.946Z" fill="#4F94F9"/>
<path d="M143.024 110.797C142.832 111.463 142.429 112.048 141.876 112.466C141.323 112.883 140.649 113.11 139.956 113.112L125.783 113.16C125.078 113.161 124.392 112.931 123.831 112.504C123.27 112.077 122.865 111.477 122.679 110.797H143.024Z" fill="#1765CF"/>
<path d="M78.3357 107.343C77.4248 105.208 76.5446 103.328 75.0267 99.7205L81.9866 97.0898C83.2357 100.799 83.818 102.792 84.5478 104.995L78.3357 107.343Z" fill="#FC8006"/>
<path d="M83.3479 126.837C82.0365 134.63 79.3931 132.991 85.6267 149.483C91.8616 165.978 97.4926 180.876 97.4926 180.876L118.773 172.833C118.773 172.833 113.142 157.935 106.908 141.439C100.674 124.947 99.7699 127.927 93.6359 122.948C90.1611 120.133 86.4002 110.706 84.4882 104.906L78.2761 107.254C80.6772 112.869 84.0896 122.428 83.3479 126.837ZM85.8486 142.387L102.045 136.265C102.747 137.899 103.548 139.895 104.479 142.357L110.2 157.494L93.7742 163.702L88.0531 148.566C87.1223 146.103 86.4048 144.076 85.8486 142.387Z" fill="#03277D"/>
<path d="M85.8483 142.384L102.045 136.262C102.747 137.895 103.548 139.892 104.479 142.354L110.2 157.49L93.7739 163.699L88.0528 148.563C87.1221 146.1 86.4045 144.073 85.8483 142.384Z" fill="white"/>
<path d="M70.4567 119.551C69.0732 121.587 67.8741 123.742 66.8739 125.991C66.488 126.859 66.1341 127.735 65.8122 128.618C65.3069 130.003 64.878 131.414 64.5274 132.846C64.2962 133.776 64.099 134.712 63.9357 135.656C63.6156 137.489 63.4215 139.343 63.3546 141.203C63.3145 142.238 63.3142 143.27 63.3536 144.301C63.4376 146.547 63.7046 148.784 64.152 150.987C64.3788 152.119 64.6537 153.239 64.9767 154.345C65.6893 156.806 66.6306 159.196 67.7884 161.481C68.2906 162.478 68.8369 163.458 69.4274 164.42C70.9459 166.897 72.7234 169.207 74.7299 171.309C75.4489 172.065 76.203 172.797 76.992 173.505C77.7823 174.218 78.606 174.905 79.4632 175.566C80.6065 176.448 81.7949 177.269 83.0238 178.027C83.9408 178.592 84.873 179.117 85.8206 179.605C87.6423 180.544 89.5327 181.343 91.4754 181.996C92.3903 182.307 93.3132 182.584 94.2441 182.824C96.736 183.475 99.2836 183.89 101.853 184.063C103.046 184.145 104.239 184.175 105.432 184.151C107.233 184.12 109.031 183.97 110.813 183.703C111.922 183.539 113.022 183.329 114.114 183.073C116.175 182.594 118.197 181.956 120.16 181.167C121.156 180.771 122.131 180.333 123.096 179.858C125.564 178.635 127.902 177.168 130.076 175.478C130.914 174.83 131.729 174.145 132.52 173.424C133.72 172.333 134.854 171.173 135.918 169.949L70.4567 119.551Z" fill="#48956B"/>
<path d="M64.152 150.985C64.3788 152.117 64.6537 153.236 64.9767 154.343C65.0308 154.344 65.0854 154.35 65.1399 154.356C65.7968 154.44 66.5909 154.798 67.0291 154.303C67.1599 154.154 67.2201 153.954 67.3532 153.807C67.5737 153.562 67.9329 153.518 68.2609 153.49C69.3628 153.387 70.465 153.287 71.5676 153.189C71.5077 153.191 71.4478 153.192 71.3896 153.191L71.8311 150.573C71.5342 150.065 70.8492 149.903 70.2739 150.026C69.6963 150.147 69.1977 150.488 68.6945 150.793C68.1891 151.095 67.6352 151.375 67.0459 151.35C66.5687 151.329 66.1296 151.111 65.6677 150.994C65.1704 150.871 64.6509 150.868 64.152 150.985ZM102.514 178.283C102.479 178.872 102.675 179.442 102.835 180.009C102.994 180.576 103.114 181.186 102.933 181.745C102.786 182.199 102.458 182.566 102.225 182.978C102.036 183.313 101.91 183.68 101.853 184.06C103.046 184.143 104.239 184.172 105.432 184.149C105.704 183.606 106.094 183.031 105.775 182.546C105.667 182.382 105.49 182.269 105.384 182.102C105.207 181.823 105.26 181.466 105.318 181.142C105.515 180.053 105.712 178.964 105.909 177.875C105.893 177.933 105.877 177.99 105.862 178.048L103.457 176.928C102.887 177.077 102.549 177.695 102.514 178.283ZM110.303 177.032C110.373 177.618 110.668 178.147 110.924 178.675C111.182 179.204 111.411 179.781 111.334 180.367C111.269 180.837 111.015 181.257 110.857 181.706C110.636 182.35 110.62 183.047 110.813 183.7C111.922 183.536 113.022 183.327 114.114 183.071C114.104 182.89 114.118 182.709 114.155 182.531C114.299 181.884 114.728 181.127 114.273 180.646C114.135 180.501 113.943 180.422 113.807 180.279C113.586 180.037 113.571 179.674 113.572 179.347C113.569 178.238 113.569 177.131 113.57 176.026C113.565 176.084 113.558 176.145 113.555 176.206L110.987 175.53C110.455 175.782 110.233 176.45 110.303 177.032ZM118.336 175.595C118.521 176.156 118.917 176.613 119.275 177.08C119.633 177.548 119.973 178.068 120.012 178.655C120.058 179.31 119.915 179.919 120.031 180.588C120.064 180.782 120.107 180.975 120.16 181.164C121.156 180.768 122.131 180.331 123.096 179.855C123.043 179.371 123.05 178.856 122.856 178.429C122.701 178.083 122.391 177.833 122.182 177.515C121.848 177.007 121.854 176.441 121.748 175.868C121.633 175.232 121.464 174.591 121.334 173.955C121.342 174.016 121.349 174.073 121.356 174.134L118.705 173.987C118.235 174.34 118.151 175.038 118.336 175.595ZM67.7884 161.479C68.2906 162.476 68.8369 163.455 69.4274 164.417C70.3735 163.975 71.5288 163.785 72.3574 163.13C72.7389 162.83 73.0389 162.441 73.4181 162.139C73.7973 161.837 74.3039 161.628 74.7653 161.774L73.1928 157.913C72.7384 157.706 72.1859 157.946 71.8594 158.322C71.5346 158.696 71.373 159.182 71.1769 159.641C70.9826 160.098 70.7253 160.565 70.2914 160.809C69.5764 161.211 68.5947 160.895 67.9238 161.367C67.8758 161.401 67.8306 161.438 67.7884 161.479ZM126.607 170.368C126.545 170.67 126.891 170.874 127.152 171.041C128.479 171.884 128.542 173.836 129.59 175.012C129.742 175.177 129.904 175.332 130.076 175.476C130.914 174.828 131.729 174.143 132.52 173.422C132.223 173.289 131.969 173.077 131.784 172.81C131.34 172.121 131.596 171.122 131.084 170.479C130.731 170.042 130.133 169.914 129.608 169.718C129.082 169.522 128.525 169.121 128.543 168.559C127.978 169.051 127.416 169.543 126.856 170.035C126.739 170.116 126.652 170.233 126.607 170.368ZM92.462 175.988C92.449 176.486 92.6342 176.963 92.7758 177.438C92.9178 177.918 93.0155 178.441 92.8367 178.906C92.5394 179.67 91.584 180.053 91.3688 180.844C91.2947 181.229 91.3317 181.628 91.4754 181.993C92.3903 182.305 93.3132 182.581 94.2441 182.822C94.5876 181.644 95.6402 180.621 95.9095 179.378C96.0104 178.904 95.9949 178.408 96.094 177.936C96.195 177.462 96.4503 176.979 96.8999 176.795L93.2259 174.824C92.7469 174.956 92.4732 175.491 92.462 175.988ZM76.0279 168.428C75.7465 168.817 75.6967 169.32 75.5629 169.78C75.3902 170.339 75.1069 170.858 74.7299 171.306C75.4489 172.063 76.203 172.795 76.992 173.503C77.3647 173.185 77.6985 172.824 77.9863 172.427C78.239 171.984 78.4647 171.525 78.6622 171.055C79.1056 170.17 79.7744 169.417 80.6013 168.872L78.5367 166.295C78.5246 166.868 77.9896 167.284 77.4707 167.529C76.9519 167.773 76.3642 167.964 76.0279 168.428ZM84.7722 174.649C84.4494 174.888 84.0391 175.022 83.7923 175.338C83.4721 175.748 83.5308 176.325 83.4622 176.844C83.4049 177.265 83.2552 177.668 83.0238 178.025C83.9408 178.589 84.873 179.115 85.8206 179.602C85.9215 179.175 85.9683 178.737 85.9601 178.298C85.9512 177.79 85.8757 177.262 86.0466 176.783C86.271 176.151 86.8669 175.742 87.3333 175.257C87.7998 174.773 88.158 174.016 87.7983 173.451L85.7992 172.161C85.6846 173.078 85.5139 174.096 84.7722 174.649ZM66.8739 125.988C66.488 126.856 66.1341 127.732 65.8122 128.616C65.9873 128.74 66.1708 128.853 66.3613 128.952C67.4064 129.48 68.6428 129.342 69.8077 129.413C70.7548 129.474 71.6869 129.681 72.5706 130.027C73.2952 130.309 74.0752 131.072 74.7895 131.254C75.7198 131.489 75.6383 131.248 75.9219 130.374C76.027 130.05 76.2318 127.883 76.4873 127.787C75.6291 128.102 74.6667 127.908 73.8059 127.598C72.9451 127.288 72.112 126.867 71.2092 126.719C70.0952 126.54 68.9206 126.792 67.8469 126.452C67.5046 126.339 67.1777 126.183 66.8739 125.988ZM64.3777 133.74C64.1465 134.67 63.9493 135.606 63.7861 136.55C64.7095 136.714 65.6961 136.532 66.6507 136.495C67.5983 136.456 68.546 136.567 69.4592 136.823C70.2079 137.031 71.0645 137.711 71.7907 137.82C72.7403 137.96 72.6371 137.728 72.831 136.832C72.9019 136.5 72.8854 134.318 73.1337 134.199C72.3111 134.601 71.3317 134.504 70.4424 134.282C69.5555 134.062 68.6853 133.726 67.7731 133.671C66.6442 133.605 65.5046 133.974 64.3991 133.746C64.3928 133.744 64.3841 133.741 64.3777 133.74ZM63.3546 141.201C63.3145 142.235 63.3142 143.268 63.3536 144.298C63.6156 144.307 63.8768 144.332 64.1357 144.373C65.0376 144.513 65.9354 144.771 66.8516 144.741C67.9784 144.705 69.0804 144.233 70.2023 144.36C71.0201 144.456 71.7639 144.859 72.5283 145.161C72.8155 145.31 73.1477 145.349 73.4615 145.269C74.0041 145.066 74.0746 144.328 73.9632 143.761C73.8537 143.193 73.6616 142.56 73.9745 142.073C73.5668 142.345 73.0213 142.307 72.5554 142.157C72.0871 142.006 71.6544 141.757 71.1823 141.625C70.0594 141.305 68.8703 141.676 67.7122 141.827C66.7719 141.949 65.8182 141.924 64.8855 141.753C64.3603 141.613 63.8481 141.428 63.3546 141.201Z" fill="#70BB92"/>
<path d="M74.4006 122.582C69.2821 130.261 67.27 139.597 68.7708 148.703C70.2717 157.808 75.1737 166.004 82.4859 171.634C89.7981 177.264 98.9751 179.908 108.162 179.032C117.349 178.155 125.86 173.823 131.975 166.912L130.826 166.026L75.5523 123.47L74.4006 122.582Z" fill="white"/>
<path d="M75.5526 123.469L75.5053 123.539C70.6688 130.878 68.7739 139.77 70.1977 148.444C71.6215 157.117 76.2596 164.937 83.1886 170.345L83.3697 170.486C90.3662 175.873 99.1415 178.413 107.934 177.597C116.726 176.781 124.884 172.67 130.77 166.088L130.826 166.025L75.5526 123.469Z" fill="#FE9592"/>
<path d="M76.4664 124.18C71.7689 131.309 69.9425 139.952 71.3537 148.373C72.7649 156.793 77.3094 164.369 84.0747 169.577C90.8399 174.786 99.3252 177.242 107.827 176.454C116.328 175.665 124.217 171.69 129.909 165.325L128.922 164.567L76.4664 124.18Z" fill="#FE2D5D"/>
<path d="M85.7465 148.116C85.7166 148.858 86.0861 149.083 86.5787 149.103C87.0712 149.123 87.5002 148.93 87.53 148.188C87.5599 147.447 86.6866 146.418 86.6866 146.418C86.6866 146.418 85.7764 147.375 85.7465 148.116ZM76.9963 150.439C76.9664 151.181 77.336 151.406 77.8286 151.426C78.3211 151.445 78.7501 151.252 78.7798 150.511C78.8097 149.769 77.9365 148.741 77.9365 148.741C77.9365 148.741 77.0262 149.698 76.9963 150.439ZM107.734 153.654C107.705 154.395 108.074 154.621 108.567 154.64C109.059 154.66 109.488 154.467 109.518 153.726C109.548 152.984 108.675 151.955 108.675 151.955C108.675 151.955 107.764 152.912 107.734 153.654Z" fill="#231F20"/>
<path d="M96.094 155.3C95.7366 155.951 95.9669 156.317 96.399 156.554C96.8311 156.792 97.3012 156.81 97.6584 156.16C98.0157 155.509 97.6929 154.199 97.6929 154.199C97.6929 154.199 96.4514 154.65 96.094 155.3Z" fill="#FE2D5D"/>
<path d="M95.2812 167.654C94.9238 168.304 95.1541 168.67 95.5862 168.908C96.0183 169.145 96.4883 169.163 96.8455 168.513C97.2029 167.863 96.8801 166.553 96.8801 166.553C96.8801 166.553 95.6386 167.003 95.2812 167.654ZM77.4764 133.03C76.8113 133.359 76.7906 133.791 77.0093 134.233C77.228 134.675 77.6031 134.959 78.268 134.63C78.9331 134.301 79.4176 133.041 79.4176 133.041C79.4176 133.041 78.1415 132.701 77.4764 133.03ZM93.5929 142.596C92.9193 142.907 92.8873 143.339 93.0942 143.786C93.3012 144.233 93.6686 144.527 94.3419 144.216C95.0155 143.904 95.5331 142.658 95.5331 142.658C95.5331 142.658 94.2664 142.284 93.5929 142.596ZM119.23 164.527C118.565 164.856 118.544 165.289 118.763 165.73C118.981 166.172 119.356 166.456 120.021 166.127C120.686 165.798 121.171 164.539 121.171 164.539C121.171 164.539 119.895 164.198 119.23 164.527ZM106.609 164.544C105.98 164.937 106.002 165.37 106.264 165.787C106.525 166.205 106.927 166.451 107.556 166.057C108.185 165.664 108.542 164.362 108.542 164.362C108.542 164.362 107.238 164.15 106.609 164.544ZM84.3883 161.928C83.8801 162.468 84.0118 162.881 84.3711 163.218C84.7304 163.556 85.181 163.691 85.689 163.15C86.1972 162.609 86.2112 161.26 86.2112 161.26C86.2112 161.26 84.8965 161.387 84.3883 161.928Z" fill="#231F20"/>
<path d="M60.9659 136.305C60.9659 136.305 69.7348 145.632 73.6315 179.424L69.4773 184.84L66.2674 182.876L49.1523 148.677L48.5735 141.228L60.9659 136.305Z" fill="#CC5B06"/>
<path d="M56.5464 139.664C56.4075 139.385 56.2826 139.095 56.1727 138.814C53.6254 132.622 58.387 121.587 63.176 116.953L60.9345 114.711C55.5303 120.249 50.1569 131.473 53.209 139.932C53.3531 140.328 53.5208 140.715 53.7113 141.09L56.5464 139.664ZM51.53 140.101C50.1098 136.438 46.6757 133.048 42.705 130.493C38.7132 127.974 34.1914 126.283 30.1928 126.739L30.5639 129.878C33.3235 129.514 37.4401 130.875 40.9962 133.168C44.5811 135.423 47.6003 138.611 48.5736 141.23C48.5846 141.262 48.5985 141.294 48.6152 141.323L48.6042 141.332L51.5978 140.284C51.5785 140.222 51.5559 140.161 51.53 140.101Z" fill="#48956B"/>
<path d="M51.7769 137.369C48.9835 130.236 41.8007 123.133 36.5257 120.52L36.5199 120.521L35.1426 123.368C39.4599 125.387 46.5739 132.451 48.8114 138.511C49.3854 139.99 49.67 141.394 49.6236 142.606L52.7974 142.709C52.8524 140.935 52.4507 139.138 51.7769 137.369Z" fill="#48956B"/>
<path d="M51.1099 138.682C50.8084 136.622 50.2694 134.604 49.5038 132.668C47.1814 126.586 43.0077 120.352 40.0269 116.569L42.5355 114.613C45.6347 118.59 49.9475 124.972 52.4596 131.54C53.2135 133.485 53.7757 135.5 54.1382 137.555C53.0986 137.844 52.0855 138.221 51.1099 138.682Z" fill="#48956B"/>
<path d="M53.709 114.465L50.7184 113.418C48.1374 121.062 51.54 130.402 52.7447 137.207L55.8626 136.624C54.4726 129.502 51.5431 120.423 53.709 114.465Z" fill="#48956B"/>
<path d="M45.7972 152.112C49.9774 163.075 66.585 193.268 72.0537 191.178C75.6304 189.822 73.5639 174.983 70.5379 161.826C67.2334 162.905 63.7923 164.579 61.4693 165.428C64.1168 163.095 67.0423 161.437 70.1352 160.081C69.797 158.703 69.4679 157.359 69.1216 156.049C69.2487 156.549 69.3807 157.048 69.5101 157.56C65.9836 158.602 62.1797 160.49 59.6755 161.414C62.5195 158.895 65.6865 157.166 69.043 155.748C68.8231 154.931 68.6135 154.138 68.4026 153.361C64.695 154.353 60.5506 156.406 57.8763 157.401C60.9012 154.729 64.2768 152.939 67.865 151.483C68.0305 152.046 68.192 152.64 68.3653 153.232C67.9662 151.802 67.5672 150.445 67.1814 149.197C63.3345 150.107 58.891 152.348 56.07 153.384C59.2436 150.58 62.7855 148.755 66.566 147.27C66.3125 146.469 66.0497 145.754 65.8057 145.089C61.8635 145.931 57.1965 148.292 54.2707 149.37C57.5144 146.508 61.1607 144.664 65.0353 143.145C65.231 143.605 65.4249 144.059 65.6166 144.556C65.121 143.275 64.6079 142.12 64.0734 141.054C60.1118 141.889 55.4205 144.279 52.4767 145.356C55.6701 142.536 59.2455 140.697 63.0484 139.201C63.4102 139.779 63.7407 140.399 64.072 141.048C59.9993 133.01 54.6395 131.02 49.8063 132.872C44.3356 134.957 41.6095 141.145 45.7972 152.112ZM68.6688 181.485C70.1517 180.183 71.7665 179.039 73.4869 178.072C73.5375 178.531 73.5925 178.983 73.6317 179.425C71.7624 180.202 70.0224 180.996 68.6688 181.485ZM66.8746 177.47C68.6905 175.886 70.6901 174.525 72.8304 173.417C72.9082 173.917 72.9878 174.423 73.0562 174.907C70.7295 175.842 68.5209 176.863 66.8746 177.47ZM65.0697 173.459C67.1723 171.633 69.5119 170.099 72.0251 168.899C72.1348 169.428 72.2264 169.96 72.3238 170.492C69.6182 171.507 66.9693 172.754 65.0697 173.459ZM63.2679 169.435C65.6857 167.302 68.3311 165.735 71.1162 164.449C71.2372 165.005 71.3668 165.565 71.4787 166.129C68.448 167.198 65.3916 168.663 63.2679 169.435Z" fill="#FC8006"/>
<path d="M169.2 153.536C169.033 153.46 166.693 155.018 166.348 155.17C165.284 155.636 164.173 155.988 163.034 156.22C160.75 156.688 158.393 156.677 156.112 156.188C154.333 155.803 150.465 154.749 153.805 153.35C156.077 152.405 158.508 151.899 160.969 151.86C163.803 151.801 166.615 152.374 169.2 153.536Z" fill="#48956B"/>
<path d="M151.218 153.866C153.015 150.149 158.514 146.688 162.385 145.738C162.999 146.838 163.499 147.998 163.878 149.199C159.318 148.527 154.062 150.756 152.071 155.091L151.218 153.866Z" fill="#48956B"/>
<path d="M128.649 156.672C124.95 164.934 127.138 178.495 136.163 182.536C142.636 185.434 152.856 181.033 158.048 175.972C162.999 171.146 166.047 162.623 159.921 157.473C157.708 155.612 154.842 154.755 152.323 153.335C150.255 152.168 148.41 150.613 146.262 149.6C139.128 146.235 131.751 149.743 128.649 156.672Z" fill="#E31F26"/>
<path opacity="0.57" d="M159.616 168.193C158.403 171.952 154.864 174.687 151.01 175.549C150.552 175.652 150.01 175.71 149.669 175.387C149.213 174.954 149.451 174.184 149.798 173.66C151.266 171.445 153.993 170.407 155.758 168.42C158.646 165.168 157.969 161.099 156.444 158.5C159.659 160.186 160.661 164.96 159.616 168.193Z" fill="#FE2D5D"/>
<path d="M136.016 141.283C133.453 138.885 128.407 138.721 125.356 139.191C121.644 139.764 118.142 141.256 114.735 142.836C111.303 144.426 108.055 146.199 105.123 148.606C102.276 150.945 102.816 152.923 105.393 155.565C106.944 157.155 108.828 158.371 110.58 159.737C114.27 162.617 117.382 166.17 119.75 170.208C120.531 171.541 121.256 172.957 122.44 173.948C123.624 174.939 125.433 175.388 126.72 174.534C128.568 173.309 128.187 170.568 127.958 168.362C127.449 163.206 128.974 158.056 132.209 154.009C133.341 152.605 134.665 151.361 135.743 149.915C136.821 148.469 137.661 146.749 137.614 144.946C137.614 144.258 137.472 143.578 137.197 142.948C136.922 142.317 136.52 141.751 136.016 141.283Z" fill="white"/>
<path d="M118.536 179.123L133.347 175.444C130.056 170.54 130.456 155.977 138.423 147.845C137.57 147.351 136.83 146.684 136.25 145.887C132.93 149.601 128.829 155.426 128.38 159.854C127.863 155.942 127.119 150.002 126.858 146.217C125.546 146.943 124.08 147.348 122.581 147.4C121.197 152.901 122.136 161.457 123.673 166.439C123.545 166.177 123.353 165.891 123.199 165.619C120.437 160.756 113.707 154.842 108.038 153.476L107.425 154.647C107.176 156.171 106.884 156.151 105.988 157.479C111.992 162.048 117.593 171.506 118.536 179.123Z" fill="#0A8657"/>
<path d="M95.7037 161.702C98.6645 164.029 103.424 162.915 106.336 159.205C107.388 157.889 108.087 156.326 108.368 154.665C109.224 154.4 110.058 154.068 110.861 153.672C114.072 152.092 116.509 149.667 117.941 146.975C118.176 147.157 118.427 147.32 118.689 147.462C120.189 148.402 122.294 148.766 124.505 148.216C127.227 147.54 129.26 145.74 129.843 143.753C130.509 144.011 131.196 144.211 131.896 144.349C132.971 144.537 134.067 144.573 135.152 144.455C135.43 146.803 137.889 148.823 141.1 149.148C144.672 149.509 147.775 147.633 148.049 144.958C148.311 142.355 145.771 139.958 142.337 139.505C142.459 139.204 142.557 138.895 142.631 138.58C143.388 134.443 139.814 130.323 134.651 129.373C134.356 129.319 134.073 129.315 133.784 129.289L133.759 129.048C132.617 124.45 126.443 122.024 119.959 123.635C117.607 124.196 115.419 125.301 113.572 126.862C111.929 128.289 110.794 129.998 110.355 131.776C107.089 131.3 103.757 131.848 100.816 133.346C93.8689 136.775 90.4871 144.107 93.2627 149.72C93.6762 150.53 94.2044 151.275 94.831 151.933C92.7556 155.441 93.0365 159.608 95.7037 161.702Z" fill="#1AA671"/>
<path d="M137.544 140.928C137.956 140.634 138.318 140.276 138.616 139.867L138.984 139.348C140.251 136.987 139.21 133.939 136.688 132.434C137.013 132.55 137.328 132.692 137.63 132.86C140.188 134.267 141.378 137.05 140.296 139.082L139.967 139.54C139.363 140.291 138.498 140.787 137.544 140.928ZM127.307 138.197C128.237 137.571 129.002 136.73 129.536 135.744C130.575 133.807 130.587 131.576 129.806 129.554C129.071 127.667 127.724 126.081 125.98 125.051C128.143 125.817 129.97 127.315 131.145 129.286C132.297 131.264 132.547 133.494 131.563 135.332C130.721 136.906 129.157 137.881 127.307 138.197ZM125.23 146.305C125.767 145.922 126.213 145.426 126.538 144.851C126.993 144.059 127.186 143.144 127.09 142.236C126.986 141.284 126.564 140.394 125.891 139.712C125.611 139.421 125.292 139.169 124.945 138.963C125.214 139.049 125.475 139.155 125.728 139.281L126.23 139.601C127.422 140.417 128.1 141.661 128.096 142.91C128.102 143.485 127.958 144.051 127.677 144.552C127.414 144.998 127.06 145.385 126.638 145.686C126.217 145.988 125.737 146.199 125.23 146.305ZM100.628 137.385C101.178 136.993 101.758 136.646 102.363 136.346C105.13 134.976 108.08 134.766 110.547 135.481C112.627 136.099 114.367 137.358 115.299 139.25C115.407 139.501 115.498 139.76 115.571 140.023C116.218 141.947 116.085 144.047 115.2 145.873C115.221 144.425 114.902 142.991 114.269 141.688C111.893 136.886 105.858 135.031 100.628 137.385ZM98.3607 150.897C98.5059 150.655 98.6708 150.426 98.8536 150.211C100.412 148.415 102.908 148.13 104.432 149.565C104.803 149.926 105.095 150.361 105.288 150.841C105.482 151.322 105.573 151.837 105.556 152.355C105.309 151.743 104.933 151.192 104.454 150.738C104.047 150.343 103.564 150.033 103.035 149.827C102.506 149.62 101.942 149.522 101.374 149.537C100.807 149.551 100.248 149.679 99.7302 149.913C99.2127 150.147 98.7471 150.481 98.3607 150.897Z" fill="#0A8657"/>
<path d="M162.824 168.855H52.0684V269.787H162.824V168.855Z" fill="url(#paint0_linear)"/>
<path d="M73.285 179.722V179.715L73.2961 179.721L73.285 179.722Z" fill="#A5071A"/>
<path d="M158.877 165.02L160.97 167.109L162.824 168.959H154.93L158.877 165.02Z" fill="#D9C6A5"/>
<path d="M151.47 165.02L155.417 168.959H147.523L151.47 165.02Z" fill="#D9C6A5"/>
<path d="M144.063 165.02L148.01 168.959H140.116L144.063 165.02Z" fill="#D9C6A5"/>
<path d="M136.656 165.02L140.603 168.959H132.709L136.656 165.02Z" fill="#D9C6A5"/>
<path d="M129.249 165.02L133.196 168.959H125.302L129.249 165.02Z" fill="#D9C6A5"/>
<path d="M121.842 165.02L125.789 168.959H117.895L121.842 165.02Z" fill="#D9C6A5"/>
<path d="M114.435 165.02L118.382 168.959H110.487L114.435 165.02Z" fill="#D9C6A5"/>
<path d="M107.028 165.02L110.975 168.959H103.081L107.028 165.02Z" fill="#D9C6A5"/>
<path d="M99.6208 165.02L103.568 168.959H95.6736L99.6208 165.02Z" fill="#D9C6A5"/>
<path d="M92.2139 165.02L96.161 168.959H88.267L92.2139 165.02Z" fill="#D9C6A5"/>
<path d="M84.8067 165.02L88.7535 168.959H80.8596L84.8067 165.02Z" fill="#D9C6A5"/>
<path d="M77.3997 165.02L81.3469 168.959H73.4526L77.3997 165.02Z" fill="#D9C6A5"/>
<path d="M73.9397 168.96H73.3024V168.324L73.9397 168.96Z" fill="#D9C6A5"/>
<path d="M69.9927 165.02L73.3025 168.323V168.959H66.0458L69.9927 165.02Z" fill="#D9C6A5"/>
<path d="M62.5854 165.02L62.6557 165.09V168.959H58.6385L62.5854 165.02Z" fill="#D9C6A5"/>
<path d="M66.5329 168.955H62.656V165.086L66.5329 168.955Z" fill="#D9C6A5"/>
<path d="M55.1785 165.02L59.1261 168.959H52.0682V168.172L55.1785 165.02Z" fill="#D9C6A5"/>
<path d="M153.367 237.211C152.451 237.199 151.577 236.824 150.938 236.169C150.298 235.514 149.944 234.632 149.954 233.716C149.939 231.773 151.45 230.189 153.321 230.181L165.597 230.004C166.512 230.015 167.386 230.389 168.026 231.044C168.666 231.698 169.02 232.58 169.009 233.496C169.022 235.439 167.515 237.023 165.644 237.035L153.367 237.211Z" fill="#D79774"/>
<path d="M153.978 231.215C152.315 231.215 150.955 232.371 150.955 233.784C150.955 235.198 152.315 236.354 153.978 236.354H154.218V231.215H153.978Z" fill="#EED3C3"/>
<path d="M152.298 244.254C151.382 244.242 150.509 243.867 149.869 243.212C149.229 242.557 148.875 241.675 148.885 240.759C148.87 238.816 150.381 237.232 152.252 237.224L164.528 237.047C165.443 237.058 166.317 237.432 166.957 238.086C167.597 238.741 167.951 239.623 167.941 240.539C167.953 242.482 166.446 244.066 164.575 244.078L152.298 244.254Z" fill="#D79774"/>
<path d="M152.808 238.207C151.145 238.207 149.785 239.363 149.785 240.777C149.785 242.19 151.145 243.346 152.808 243.346H153.048V238.207H152.808Z" fill="#EED3C3"/>
<path d="M154.751 229.356C153.82 229.345 152.932 228.964 152.282 228.298C151.632 227.632 151.272 226.735 151.282 225.804C151.267 223.829 152.803 222.219 154.704 222.211L165.012 222.031C166.913 222.019 168.468 223.607 168.481 225.581C168.494 227.556 166.961 229.165 165.06 229.178L154.751 229.356Z" fill="#D79774"/>
<path d="M155.269 223.211C153.58 223.211 152.197 224.386 152.197 225.823C152.197 227.259 153.58 228.435 155.269 228.435H155.513V223.211H155.269Z" fill="#EED3C3"/>
<path d="M153.543 250.523C152.715 250.513 151.924 250.174 151.345 249.581C150.767 248.988 150.447 248.19 150.456 247.362C150.445 246.952 150.516 246.544 150.663 246.161C150.811 245.778 151.032 245.428 151.315 245.131C151.598 244.834 151.937 244.596 152.312 244.43C152.687 244.264 153.091 244.173 153.501 244.164L162.675 244.004C163.504 244.014 164.294 244.352 164.873 244.944C165.452 245.537 165.772 246.335 165.763 247.163C165.783 247.991 165.474 248.794 164.903 249.394C164.332 249.994 163.546 250.343 162.718 250.365L153.543 250.523Z" fill="#D79774"/>
<path d="M154.269 245.148C152.81 245.148 151.616 246.163 151.616 247.404C151.616 248.645 152.81 249.66 154.269 249.66H154.48V245.148H154.269Z" fill="#EED3C3"/>
<path d="M62.6444 237.106C64.5861 237.116 66.174 235.495 66.187 233.478C66.2028 231.461 64.6338 229.817 62.692 229.809L49.9492 229.625C48.0075 229.612 46.4197 231.235 46.4067 233.25C46.3937 235.267 47.9584 236.911 49.9002 236.924L62.6444 237.106Z" fill="#D79774"/>
<path d="M62.01 230.875C63.736 230.875 65.1482 232.075 65.1482 233.542C65.1482 235.01 63.736 236.21 62.01 236.21H61.7609V230.875H62.01Z" fill="#EED3C3"/>
<path d="M63.7542 244.411C65.696 244.421 67.2838 242.8 67.2968 240.783C67.3127 238.766 65.7437 237.122 63.8019 237.113L51.0591 236.93C49.1173 236.917 47.5295 238.539 47.5165 240.555C47.5035 242.572 49.0682 244.216 51.01 244.229L63.7542 244.411Z" fill="#D79774"/>
<path d="M63.2249 238.133C64.9508 238.133 66.363 239.333 66.363 240.8C66.363 242.267 64.9508 243.468 63.2249 243.468H62.9758V238.133H63.2249Z" fill="#EED3C3"/>
<path d="M61.2077 228.944C63.1813 228.954 64.7952 227.306 64.8084 225.256C64.8245 223.206 63.2298 221.535 61.2562 221.527L50.5563 221.34C48.5826 221.327 46.9688 222.976 46.9556 225.024C46.9423 227.074 48.5327 228.745 50.5063 228.759L61.2077 228.944Z" fill="#D79774"/>
<path d="M60.6696 222.562C62.4238 222.562 63.8591 223.783 63.8591 225.274C63.8591 226.765 62.4238 227.985 60.6696 227.985H60.4164V222.562H60.6696Z" fill="#EED3C3"/>
<path d="M62.4621 250.916C63.322 250.905 64.1424 250.553 64.7433 249.938C65.3441 249.323 65.6763 248.494 65.6669 247.634C65.6777 247.208 65.6045 246.785 65.4515 246.387C65.2984 245.99 65.0684 245.627 64.7747 245.319C64.4811 245.01 64.1295 244.763 63.74 244.59C63.3506 244.418 62.9311 244.324 62.5053 244.314L52.9822 244.148C52.1224 244.159 51.302 244.51 50.701 245.125C50.1001 245.74 49.7679 246.568 49.7775 247.428C49.7562 248.287 50.0771 249.12 50.6697 249.743C51.2623 250.367 52.078 250.729 52.9377 250.751L62.4621 250.916Z" fill="#D79774"/>
<path d="M61.7076 245.336C63.2226 245.336 64.4622 246.389 64.4622 247.677C64.4622 248.965 63.2226 250.019 61.7076 250.019H61.489V245.336H61.7076Z" fill="#EED3C3"/>
<path d="M105.208 238.466C115.761 238.466 124.315 229.912 124.315 219.36C124.315 208.808 115.761 200.254 105.208 200.254C94.6564 200.254 86.1023 208.808 86.1023 219.36C86.1023 229.912 94.6564 238.466 105.208 238.466Z" fill="white"/>
<path d="M104.024 219.398V227.431H102.238C100.579 227.431 98.989 226.771 97.8165 225.598C96.644 224.425 95.9852 222.833 95.9852 221.174V219.398H104.024Z" fill="#0075FA"/>
<path d="M112.943 219.398V221.187C112.943 222.846 112.284 224.437 111.111 225.611C109.939 226.784 108.349 227.443 106.69 227.443H104.916V219.398H112.943Z" fill="#0075FA"/>
<path d="M104.916 218.514V216.725C104.916 215.066 105.575 213.475 106.747 212.301C107.92 211.128 109.51 210.469 111.168 210.469H112.955V218.501L104.916 218.514Z" fill="#0075FA"/>
<defs>
<linearGradient id="paint0_linear" x1="52.0684" y1="168.855" x2="152.254" y2="282.549" gradientUnits="userSpaceOnUse">
<stop stop-color="#66ADFF"/>
<stop offset="1" stop-color="#0077FF"/>
</linearGradient>
</defs>
</svg>
