<svg width="213" height="270" viewBox="0 0 213 270" fill="none" xmlns="http://www.w3.org/2000/svg">
<path d="M98.9902 121.594L131.321 178.35" stroke="#03277D" stroke-width="1.37599" stroke-miterlimit="10"/>
<path d="M113.316 146.831L131.36 178.328" stroke="#03277D" stroke-width="3.77352" stroke-miterlimit="10"/>
<path d="M102.294 230.583C99.2228 234.021 96.2501 237.846 94.418 246.787H119.633C116.949 238.649 111.51 231.106 102.294 230.583Z" fill="#FE2D5D"/>
<path d="M94.4187 246.786C93.6694 250.441 93.1105 254.946 92.8145 260.636H121.71C121.857 256.721 121.237 251.647 119.633 246.786H94.4187Z" fill="#CB0030"/>
<path d="M171.131 208.85H164.955V221.78H171.131V208.85Z" fill="#03277D"/>
<path d="M135.926 178.123C133.131 177.882 130.332 177.108 127.868 176.211C132.583 175.62 136.416 173.772 140.079 171.329C141.512 168.787 142.958 166.009 144.419 163.025C140.452 163.32 136.209 162.232 132.623 160.937C138.967 160.205 143.795 157.392 148.624 153.866C149.475 151.877 150.328 149.839 151.18 147.725C146.623 148.381 141.589 147.17 137.373 145.67C144.332 144.926 149.558 141.874 154.837 138.065C155.488 136.273 156.125 134.458 156.756 132.598C151.939 133.267 146.598 131.977 142.134 130.397C149.166 129.705 154.496 126.81 159.808 123.152C160.372 121.321 160.921 119.456 161.464 117.572C156.622 117.986 151.344 116.69 146.895 115.127C153.587 114.52 158.812 112.042 163.873 108.805C164.417 106.74 164.931 104.638 165.451 102.523C160.796 102.582 155.873 101.323 151.656 99.8568C157.714 99.3394 162.62 97.3944 167.258 94.742C167.839 92.0778 168.376 89.4387 168.887 86.8278C163.982 87.3131 158.605 85.9963 154.079 84.4078C160.5 83.8262 165.557 81.5142 170.425 78.4787C170.846 75.9854 171.249 73.523 171.612 71.1057C166.675 71.9339 161.118 70.5989 156.509 68.9635C162.911 68.3387 167.903 65.8906 172.756 62.6976C173.05 60.2401 173.313 57.8356 173.548 55.4703C168.789 56.414 163.395 55.1125 158.932 53.5159C164.941 52.8816 169.651 50.5186 174.222 47.4453C174.389 44.8686 174.522 42.3699 174.619 39.9493C170.25 40.6987 165.4 39.5316 161.369 38.0759C166.571 37.4792 170.76 35.47 174.765 32.816C174.766 29.9226 174.72 27.1609 174.593 24.588C170.937 24.833 167.072 23.8277 163.793 22.6273C167.735 22.1344 171.056 20.7611 174.176 18.8949C173.082 7.85533 170.53 0.953842 166.815 0.0895686C156.911 -2.22555 149.218 40.6476 136.997 92.8902C124.772 145.14 112.643 186.974 122.552 189.291C125.935 190.08 130.675 185.965 135.926 178.123Z" fill="#FD9F02"/>
<path d="M174.594 24.5877C174.491 22.5875 174.353 20.6835 174.177 18.8945C171.057 20.7607 167.736 22.1341 163.794 22.627C167.073 23.8273 170.938 24.8326 174.594 24.5877ZM161.37 38.0756C165.401 39.5313 170.251 40.6984 174.62 39.949C174.71 37.4804 174.759 35.1026 174.766 32.8156C170.761 35.4697 166.572 37.4789 161.37 38.0756ZM158.933 53.5156C163.396 55.1122 168.79 56.4137 173.549 55.47C173.811 52.7224 174.036 50.0474 174.223 47.445C169.652 50.5182 164.942 52.8813 158.933 53.5156ZM156.51 68.9632C161.119 70.5986 166.676 71.9336 171.613 71.1054C172.035 68.2509 172.416 65.4482 172.757 62.6973C167.904 65.8902 162.912 68.3383 156.51 68.9632ZM168.888 86.8275C169.448 84.0092 169.96 81.2261 170.426 78.4784C165.558 81.5139 160.501 83.8258 154.08 84.4075C158.606 85.996 163.983 87.3127 168.888 86.8275ZM127.869 176.211C130.333 177.108 133.132 177.882 135.927 178.122C137.281 176.102 138.676 173.821 140.08 171.329C136.417 173.771 132.584 175.62 127.869 176.211ZM132.624 160.937C136.21 162.231 140.453 163.32 144.42 163.024C145.814 160.159 147.224 157.103 148.625 153.866C143.796 157.391 138.968 160.205 132.624 160.937ZM137.374 145.669C141.59 147.169 146.624 148.381 151.181 147.725C152.416 144.639 153.635 141.419 154.838 138.065C149.559 141.874 144.333 144.925 137.374 145.669ZM142.135 130.397C146.599 131.977 151.94 133.267 156.757 132.597C157.797 129.528 158.814 126.379 159.809 123.152C154.497 126.81 149.167 129.705 142.135 130.397ZM161.465 117.571C162.294 114.704 163.097 111.781 163.874 108.805C158.813 112.041 153.588 114.519 146.896 115.127C151.345 116.69 156.623 117.986 161.465 117.571ZM165.452 102.523C165.681 101.583 165.913 100.652 166.136 99.7081C166.523 98.0445 166.889 96.3885 167.259 94.7417C162.621 97.394 157.715 99.3391 151.657 99.8565C155.874 101.323 160.797 102.582 165.452 102.523Z" fill="#CE7C05"/>
<path d="M121.091 113.31L122.8 147.045C122.938 149.689 120.427 151.989 117.219 152.143L97.7219 153.136C94.5021 153.305 91.7673 151.283 91.6292 148.628L89.9134 114.893L88.6988 91.0619C88.4972 87.1361 93.9614 75.6014 96.1823 75.2274L110.835 74.4863C113.071 74.6237 119.668 85.5536 119.875 89.4717L121.091 113.31Z" fill="white"/>
<path d="M110.253 70.0154L95.6396 70.7617C91.0981 70.9888 85.7221 85.4562 85.9297 89.4916L88.9311 148.457C89.1385 152.499 92.9829 155.589 97.5238 155.355L116.983 154.365C121.516 154.131 125.031 150.673 124.823 146.636L121.815 87.6578C121.608 83.6218 114.8 69.7888 110.253 70.0154ZM119.862 112.687L121.522 145.401C121.654 147.959 119.282 150.186 116.256 150.339L97.8404 151.272C94.8026 151.431 92.2211 149.467 92.0871 146.902L90.4199 114.19L89.2452 91.0767C89.0506 87.2802 94.189 76.1017 96.2881 75.7469L110.123 75.0379C112.236 75.1762 118.485 85.7806 118.679 89.583L119.862 112.687Z" fill="#CDDBFE"/>
<path d="M115.476 66.1064L115.237 61.3781C115.212 60.8661 115.085 60.3642 114.865 59.9012C114.645 59.4382 114.336 59.0232 113.955 58.68C113.575 58.3368 113.13 58.0722 112.646 57.9013C112.163 57.7305 111.651 57.6567 111.139 57.6844L93.9548 58.5557C93.4425 58.5805 92.9401 58.7061 92.4763 58.9253C92.0125 59.1445 91.5966 59.453 91.2522 59.8331C90.9078 60.2133 90.6418 60.6576 90.4693 61.1407C90.2968 61.6238 90.2213 62.1361 90.2471 62.6484L90.4924 67.3844C90.5172 67.7622 90.5972 68.1343 90.7299 68.4888L115.375 67.1449C115.456 66.8049 115.49 66.4555 115.476 66.1064Z" fill="#4F94F9"/>
<path d="M90.7305 68.4894C91.0073 69.2833 91.534 69.966 92.2317 70.4352C92.9294 70.9043 93.7604 71.1346 94.6 71.0914L111.772 70.2128C112.626 70.1681 113.442 69.8436 114.093 69.2892C114.745 68.7349 115.195 67.9815 115.376 67.1455L90.7305 68.4894Z" fill="#1765CF"/>
<path d="M137.488 43.7166C137.538 40.4859 137.682 37.5994 137.738 32.1504L127.383 32.4253C127.727 37.8637 128.025 40.7385 128.245 43.962L137.488 43.7166Z" fill="#FC8006"/>
<path d="M137.517 43.5674L128.275 43.8128C128.865 52.2947 128.982 66.4242 125.986 71.8825C120.703 81.5298 117.969 78.1655 118.62 102.704C119.272 127.246 119.86 149.412 119.86 149.412L151.523 148.572C151.523 148.572 150.935 126.406 150.283 101.863C149.632 77.3249 147.088 80.8293 141.293 71.4761C138.016 66.1843 137.38 52.0686 137.517 43.5674ZM146.673 101.959L147.271 124.479L122.832 125.128L122.234 102.608C122.136 98.9439 122.117 95.9494 122.162 93.4741L146.26 92.8343C146.433 95.3039 146.576 98.295 146.673 101.959Z" fill="#03277D"/>
<path d="M146.673 101.959L147.271 124.48L122.831 125.129L122.233 102.608C122.136 98.9446 122.117 95.9501 122.162 93.4748L146.26 92.835C146.432 95.3046 146.575 98.2957 146.673 101.959Z" fill="#1765CF"/>
<path d="M165.386 83.9971C167.217 86.2225 168.846 88.6069 170.253 91.1219C170.796 92.0926 171.302 93.0759 171.772 94.0717C172.509 95.6318 173.161 97.2314 173.722 98.863C174.092 99.9223 174.422 100.993 174.713 102.076C175.283 104.179 175.708 106.32 175.985 108.481C176.142 109.683 176.253 110.887 176.317 112.092C176.46 114.721 176.388 117.357 176.102 119.974C175.959 121.318 175.759 122.652 175.5 123.977C174.933 126.923 174.091 129.809 172.986 132.598C172.507 133.814 171.975 135.015 171.39 136.2C169.885 139.251 168.06 142.134 165.945 144.799C165.188 145.758 164.387 146.692 163.543 147.602C162.698 148.518 161.811 149.407 160.883 150.27C159.644 151.42 158.346 152.505 156.995 153.52C155.986 154.276 154.955 154.989 153.903 155.659C151.879 156.949 149.761 158.083 147.566 159.052C146.533 159.513 145.486 159.934 144.427 160.314C141.591 161.34 138.665 162.096 135.688 162.573C134.305 162.797 132.918 162.959 131.525 163.059C129.421 163.215 127.309 163.233 125.203 163.112C123.893 163.04 122.587 162.913 121.287 162.732C118.832 162.393 116.407 161.867 114.033 161.157C112.83 160.801 111.646 160.396 110.47 159.945C107.463 158.783 104.579 157.323 101.864 155.586C100.817 154.92 99.7943 154.209 98.7943 153.452C97.2786 152.309 95.8316 151.078 94.4609 149.764L165.386 83.9971Z" fill="#48956B"/>
<path d="M176.101 119.973C175.958 121.317 175.757 122.652 175.499 123.976C175.436 123.984 175.373 123.996 175.31 124.009C174.553 124.178 173.666 124.68 173.102 124.149C172.934 123.99 172.842 123.763 172.671 123.606C172.388 123.344 171.964 123.331 171.579 123.334C170.283 123.332 168.987 123.333 167.691 123.337C167.761 123.332 167.831 123.327 167.899 123.32L167.104 120.315C167.396 119.691 168.177 119.429 168.861 119.511C169.547 119.59 170.165 119.934 170.784 120.235C171.406 120.534 172.082 120.801 172.766 120.709C173.32 120.633 173.809 120.332 174.335 120.146C174.902 119.949 175.507 119.89 176.101 119.973V119.973ZM134.298 155.907C134.402 156.59 134.233 157.276 134.108 157.954C133.984 158.631 133.908 159.356 134.18 159.989C134.4 160.501 134.821 160.895 135.137 161.351C135.393 161.721 135.579 162.135 135.686 162.572C134.304 162.796 132.916 162.958 131.524 163.058C131.147 162.454 130.632 161.826 130.952 161.227C131.06 161.023 131.255 160.873 131.36 160.666C131.537 160.323 131.436 159.913 131.335 159.541L130.296 155.794C130.32 155.86 130.345 155.926 130.369 155.992L133.053 154.428C133.733 154.541 134.194 155.225 134.298 155.907ZM125.083 155.282C125.064 155.973 124.776 156.621 124.534 157.264C124.29 157.909 124.085 158.606 124.238 159.281C124.363 159.822 124.705 160.285 124.937 160.791C125.264 161.518 125.356 162.329 125.202 163.111C123.892 163.039 122.586 162.912 121.285 162.731C121.278 162.519 121.243 162.309 121.18 162.107C120.943 161.367 120.362 160.53 120.841 159.921C120.986 159.738 121.202 159.624 121.345 159.443C121.576 159.137 121.556 158.713 121.519 158.331C121.403 157.039 121.285 155.748 121.166 154.459C121.178 154.527 121.193 154.597 121.203 154.667L124.124 153.605C124.771 153.842 125.102 154.596 125.083 155.282ZM115.563 154.467C115.407 155.141 114.994 155.716 114.627 156.299C114.259 156.883 113.919 157.525 113.936 158.214C113.953 158.983 114.184 159.677 114.121 160.47C114.103 160.7 114.073 160.929 114.032 161.156C112.829 160.8 111.645 160.395 110.469 159.944C110.48 159.373 110.416 158.774 110.596 158.255C110.74 157.835 111.075 157.511 111.285 157.118C111.62 156.49 111.551 155.83 111.614 155.15C111.68 154.396 111.808 153.632 111.892 152.876C111.89 152.948 111.887 153.015 111.885 153.088L114.961 152.632C115.547 152.992 115.719 153.797 115.563 154.467ZM172.985 132.597C172.506 133.813 171.974 135.014 171.389 136.199C170.238 135.785 168.871 135.687 167.835 135.011C167.358 134.702 166.966 134.281 166.492 133.97C166.018 133.659 165.404 133.468 164.882 133.688L166.302 129.019C166.81 128.729 167.48 128.95 167.901 129.353C168.319 129.754 168.56 130.303 168.838 130.818C169.113 131.33 169.463 131.847 169.995 132.085C170.872 132.476 171.982 132.002 172.815 132.481C172.875 132.516 172.931 132.554 172.985 132.597V132.597ZM105.36 149.259C105.464 149.604 105.083 149.879 104.796 150.101C103.34 151.226 103.476 153.509 102.379 154.992C102.22 155.201 102.047 155.399 101.862 155.585C100.816 154.919 99.793 154.208 98.793 153.452C99.1247 153.265 99.399 152.991 99.586 152.66C100.029 151.809 99.6241 150.672 100.153 149.867C100.517 149.319 101.2 149.107 101.792 148.822C102.384 148.537 102.99 148.009 102.909 147.356C103.621 147.87 104.329 148.384 105.034 148.897C105.179 148.979 105.293 149.106 105.36 149.259V149.259ZM145.771 152.155C145.84 152.735 145.675 153.31 145.561 153.88C145.447 154.454 145.389 155.074 145.647 155.597C146.075 156.456 147.23 156.801 147.566 157.7C147.726 158.133 147.661 158.592 147.564 159.051C146.531 159.512 145.485 159.933 144.425 160.314C143.899 158.977 142.562 157.897 142.115 156.477C141.946 155.935 141.912 155.355 141.745 154.816C141.577 154.273 141.227 153.737 140.684 153.571L144.756 150.88C145.329 150.982 145.705 151.577 145.771 152.155ZM164.122 141.581C164.492 142.005 164.604 142.586 164.809 143.108C165.071 143.742 165.456 144.317 165.944 144.798C165.187 145.757 164.386 146.692 163.542 147.601C163.073 147.27 162.645 146.885 162.267 146.454C161.894 145.987 161.646 145.435 161.332 144.926C160.721 143.942 159.86 143.136 158.838 142.589L160.969 139.363C161.045 140.03 161.713 140.458 162.344 140.688C162.975 140.917 163.681 141.076 164.122 141.581ZM154.594 149.771C154.995 150.015 155.488 150.127 155.81 150.469C156.227 150.913 156.22 151.592 156.356 152.189C156.468 152.674 156.685 153.128 156.993 153.519C155.985 154.275 154.954 154.988 153.901 155.658C153.738 155.171 153.637 154.665 153.599 154.153C153.555 153.559 153.587 152.936 153.336 152.396C153.007 151.682 152.268 151.269 151.673 150.754C151.077 150.239 150.578 149.395 150.937 148.698L153.13 146.98C153.362 148.037 153.67 149.205 154.594 149.771ZM170.252 91.1211C170.794 92.0918 171.301 93.0751 171.771 94.0708C171.58 94.2348 171.378 94.3854 171.166 94.5216C170.005 95.2488 168.548 95.2202 167.198 95.4285C166.1 95.6005 165.035 95.9418 164.042 96.4402C163.228 96.8459 162.4 97.8195 161.586 98.1073C160.527 98.4812 160.596 98.1919 160.172 97.2032C160.015 96.837 159.544 94.3319 159.236 94.2476C160.27 94.5231 161.372 94.1939 162.342 93.7401C163.312 93.2863 164.238 92.7058 165.275 92.4372C166.555 92.1087 167.951 92.2776 169.167 91.7664C169.554 91.5972 169.918 91.3804 170.252 91.1211V91.1211ZM173.992 99.8916C174.361 100.951 174.691 102.022 174.982 103.104C173.923 103.394 172.754 103.288 171.637 103.347C170.528 103.403 169.435 103.634 168.397 104.031C167.547 104.353 166.621 105.237 165.786 105.442C164.694 105.707 164.789 105.426 164.467 104.401C164.349 104.022 164.135 101.477 163.832 101.364C164.834 101.744 165.966 101.527 166.979 101.173C167.989 100.822 168.968 100.337 170.026 100.175C171.335 99.9772 172.703 100.285 173.967 99.9005C173.975 99.8983 173.984 99.8938 173.992 99.8916ZM175.983 108.48C176.141 109.682 176.252 110.886 176.316 112.092C176.012 112.13 175.71 112.187 175.412 112.263C174.376 112.522 173.357 112.919 172.285 112.982C170.968 113.061 169.632 112.629 168.338 112.897C167.395 113.097 166.571 113.646 165.712 114.08C165.376 114.25 164.996 114.406 164.635 114.306C163.981 114.127 163.82 113.274 163.889 112.602C163.956 111.927 164.112 111.168 163.695 110.635C164.199 110.908 164.831 110.805 165.359 110.581C165.888 110.354 166.366 110.018 166.902 109.813C168.177 109.32 169.603 109.625 170.97 109.677C172.079 109.719 173.188 109.588 174.258 109.289C174.807 109.137 175.406 108.766 175.983 108.48Z" fill="#70BB92"/>
<path d="M161.113 87.9551C175.098 105.25 173.488 130.665 156.936 146.013C140.386 161.358 114.923 161.054 98.7324 145.803L99.9777 144.647L159.865 89.1131L161.113 87.9551Z" fill="#70BB92"/>
<path d="M159.864 89.1133L159.927 89.1899C166.351 97.2293 169.512 107.393 168.781 117.658C168.05 127.923 163.479 137.536 155.98 144.584L155.784 144.768C148.203 151.797 138.244 155.698 127.906 155.688C117.568 155.678 107.616 151.758 100.049 144.714L99.9766 144.647L159.864 89.1133Z" fill="#FE9592"/>
<path d="M158.874 90.0352C165.112 97.8456 168.166 107.727 167.422 117.695C166.678 127.663 162.192 136.982 154.863 143.779C139.546 157.981 116.01 157.749 100.971 143.728L102.04 142.738L158.874 90.0352Z" fill="#FE2D5D"/>
<path d="M150.617 118.938C150.731 119.799 150.324 120.102 149.752 120.177C149.18 120.253 148.659 120.074 148.545 119.213C148.431 118.352 149.339 117.059 149.339 117.059C149.339 117.059 150.503 118.077 150.617 118.938ZM161.067 120.709C161.181 121.571 160.775 121.873 160.203 121.949C159.63 122.024 159.11 121.845 158.995 120.984C158.881 120.123 159.789 118.83 159.789 118.83C159.789 118.83 160.953 119.848 161.067 120.709ZM125.574 127.748C125.688 128.61 125.281 128.912 124.709 128.988C124.137 129.063 123.616 128.884 123.502 128.023C123.388 127.162 124.296 125.869 124.296 125.869C124.296 125.869 125.46 126.887 125.574 127.748Z" fill="#231F20"/>
<path d="M139.323 128.425C139.809 129.145 139.58 129.597 139.101 129.92C138.623 130.243 138.077 130.315 137.591 129.595C137.104 128.875 137.341 127.312 137.341 127.312C137.341 127.312 138.836 127.705 139.323 128.425Z" fill="#FE2D5D"/>
<path d="M141.593 142.736C142.079 143.456 141.85 143.908 141.371 144.231C140.893 144.554 140.347 144.626 139.861 143.906C139.375 143.186 139.611 141.624 139.611 141.624C139.611 141.624 141.106 142.016 141.593 142.736ZM158.645 100.462C159.455 100.775 159.526 101.277 159.318 101.815C159.11 102.354 158.703 102.725 157.893 102.412C157.082 102.1 156.382 100.683 156.382 100.683C156.382 100.683 157.834 100.15 158.645 100.462ZM140.878 113.34C141.697 113.631 141.781 114.131 141.587 114.675C141.394 115.219 140.997 115.6 140.179 115.309C139.36 115.018 138.623 113.621 138.623 113.621C138.623 113.621 140.06 113.049 140.878 113.34ZM113.336 141.655C114.147 141.967 114.217 142.469 114.01 143.008C113.802 143.546 113.395 143.917 112.585 143.605C111.774 143.293 111.074 141.876 111.074 141.876C111.074 141.876 112.526 141.343 113.336 141.655ZM128.053 140.323C128.828 140.715 128.848 141.221 128.588 141.736C128.328 142.251 127.886 142.58 127.111 142.189C126.335 141.797 125.78 140.318 125.78 140.318C125.78 140.318 127.277 139.932 128.053 140.323ZM153.68 134.894C154.33 135.47 154.221 135.965 153.838 136.397C153.455 136.829 152.944 137.035 152.294 136.459C151.644 135.883 151.483 134.311 151.483 134.311C151.483 134.311 153.029 134.318 153.68 134.894Z" fill="#231F20"/>
<path d="M176.907 105.803C176.907 105.803 166.158 115.19 158.135 152.252L162.15 158.715L165.926 156.888L188.659 120.822L190.116 112.621L176.907 105.803Z" fill="#CC5B06"/>
<path d="M181.444 110.012C181.629 109.717 181.799 109.409 181.952 109.109C185.456 102.52 181.382 89.7558 176.576 84.0904L179.308 81.8486C184.697 88.5839 189.43 101.624 185.117 110.675C184.914 111.098 184.686 111.509 184.433 111.905V111.905L181.444 110.012ZM186.961 111.046C188.938 107.137 193.119 103.753 197.804 101.353C202.508 98.9958 207.71 97.6148 212.096 98.5582L211.34 102C208.319 101.294 203.603 102.353 199.407 104.508C195.183 106.618 191.484 109.823 190.118 112.622C190.102 112.657 190.083 112.69 190.061 112.721V112.721L190.073 112.731L186.866 111.241C186.894 111.174 186.926 111.109 186.961 111.046Z" fill="#48956B"/>
<path d="M186.986 107.989C190.867 100.381 199.613 93.2876 205.751 90.9658L205.757 90.968L206.973 94.2772C201.963 96.0449 193.297 103.102 190.151 109.581C189.352 111.158 188.883 112.685 188.802 114.034L185.27 113.801C185.403 111.827 186.045 109.877 186.986 107.989V107.989Z" fill="#48956B"/>
<path d="M187.582 109.517C188.142 107.265 188.961 105.086 190.022 103.022C193.265 96.5284 198.577 90.0698 202.299 86.1996L199.73 83.7549C195.856 87.8274 190.373 94.4352 186.867 101.446C185.817 103.522 184.973 105.696 184.346 107.936C185.467 108.37 186.55 108.899 187.582 109.517Z" fill="#48956B"/>
<path d="M187.351 82.369L190.783 81.5352C192.809 90.2982 188.012 100.287 185.93 107.704L182.535 106.716C184.857 98.9677 189.101 89.2158 187.351 82.369Z" fill="#48956B"/>
<path d="M189.665 103.215C184.506 100.631 178.342 102.253 172.944 110.724C173.382 110.04 173.817 109.388 174.282 108.786C178.337 110.863 182.102 113.295 185.336 116.773C182.188 115.256 177.245 112.09 172.942 110.73C172.232 111.854 171.536 113.08 170.846 114.446C171.113 113.916 171.378 113.433 171.645 112.945C175.778 115.053 179.621 117.499 182.906 121.03C179.778 119.513 174.859 116.382 170.578 115.016C170.234 115.728 169.865 116.492 169.496 117.353C173.527 119.414 177.257 121.827 180.47 125.285C177.454 123.827 172.77 120.854 168.602 119.424C168.037 120.766 167.446 122.227 166.847 123.77C167.104 123.133 167.348 122.492 167.593 121.885C171.415 123.893 174.963 126.248 178.027 129.544C175.169 128.147 170.796 125.416 166.791 123.91C166.472 124.748 166.153 125.606 165.819 126.487C169.388 128.428 172.712 130.693 175.591 133.799C172.914 132.5 168.901 129.988 165.103 128.447C165.302 127.893 165.503 127.353 165.699 126.813C165.172 128.228 164.659 129.683 164.133 131.175C167.416 133.018 170.48 135.178 173.162 138.055C170.677 136.859 167.043 134.625 163.495 133.066C158.698 147.332 154.78 163.567 158.6 165.464C164.438 168.381 186.168 136.703 192.006 124.999C197.853 113.291 195.506 106.127 189.665 103.215ZM158.136 152.252C158.228 151.766 158.339 151.271 158.445 150.767C160.248 152.028 161.914 153.473 163.416 155.08C161.968 154.39 160.125 153.319 158.136 152.252ZM159.269 147.303C159.398 146.773 159.542 146.221 159.683 145.674C161.936 147.138 164.005 148.866 165.846 150.823C164.087 149.969 161.748 148.595 159.269 147.303ZM160.565 142.485C160.732 141.906 160.891 141.325 161.071 140.75C163.728 142.356 166.155 144.314 168.288 146.57C166.258 145.581 163.456 143.907 160.565 142.485V142.485ZM161.981 137.737C162.167 137.124 162.372 136.516 162.567 135.913C165.516 137.645 168.279 139.673 170.728 142.304C168.456 141.215 165.226 139.255 161.981 137.737V137.737Z" fill="#FC8006"/>
<path d="M66.6254 126.11C64.728 122.184 58.9199 118.53 54.8323 117.526C54.1844 118.688 53.6562 119.912 53.2559 121.181C58.0718 120.472 63.6214 122.825 65.725 127.403L66.6254 126.11Z" fill="#48956B"/>
<path d="M63.7984 118.171C62.9037 123.054 66.8361 127.896 66.8361 127.896C66.8361 127.896 72.2348 124.791 73.1332 119.899C74.0419 114.995 70.1141 110.165 70.1141 110.165C70.1141 110.165 64.7098 113.274 63.7984 118.171Z" fill="#48956B"/>
<path d="M90.4595 129.071C94.3657 137.796 89.8136 148.326 80.283 152.593C73.4464 155.653 64.8954 154.798 59.4128 149.453C54.1841 144.356 50.9657 135.356 57.4342 129.917C59.7713 127.952 62.7987 127.047 65.4585 125.547C67.6429 124.315 69.5905 122.673 71.8588 121.603C79.3934 118.05 87.1838 121.754 90.4595 129.071Z" fill="#E31F26"/>
<path opacity="0.57" d="M57.7552 141.242C59.0368 145.21 62.7738 148.1 66.844 149.01C67.328 149.118 67.8999 149.179 68.2597 148.838C68.7415 148.381 68.4906 147.568 68.1238 147.015C66.5737 144.676 63.6941 143.579 61.8304 141.481C58.7795 138.047 59.495 133.75 61.1058 131.005C57.7099 132.785 56.6525 137.827 57.7552 141.242Z" fill="#FE2D5D"/>
<path d="M158.571 141.422H53.7539V270H158.571V141.422Z" fill="url(#paint0_linear)"/>
<path d="M183.426 141.422H158.57V270H183.426V141.422Z" fill="#0075FA"/>
<path d="M170.998 141.422H158.57V270H170.998V141.422Z" fill="#006BE6"/>
<path d="M183.426 270H158.57L170.998 251.938L183.426 270Z" fill="#0075FA"/>
<path d="M158.587 154.148V154.14L158.574 154.147L158.587 154.148Z" fill="#A5071A"/>
<path d="M158.57 154.148L158.573 154.147L158.57 154.146V154.148Z" fill="#A5071A"/>
<path d="M91.7262 108.999L83.6211 117.379V142.265H91.7008V117.079H91.8099V108.999H91.7262Z" fill="#70BB92"/>
<path d="M133.368 108.999H132.807V117.079H132.964V143.911H141.043V117.372L133.368 108.999Z" fill="#70BB92"/>
<path d="M132.805 108.999H91.8086V117.079H132.805V108.999Z" fill="#48956B"/>
<path d="M130.379 111.096C130.075 110.473 127.41 101.591 127.005 101.029C127.005 101.029 117.301 87.8084 115.272 86.3493C113.25 84.9022 99.7216 82.2956 97.9289 80.6055C96.1365 78.9157 68.5648 63.5195 66.6509 63.5195L56.0189 87.2871L54.0293 91.7312L74.376 97.3732C78.9246 105.517 82.845 113.752 90.9223 117.713C91 117.757 91.0799 117.797 91.1617 117.832L96.7948 126.645C97.4725 127.703 98.5429 128.45 99.7707 128.72C100.998 128.989 102.283 128.761 103.342 128.084C104.402 127.406 105.148 126.337 105.419 125.109C105.69 123.881 105.462 122.596 104.785 121.537L106.133 123.638C106.804 124.684 107.839 125.445 109.038 125.774C110.237 126.102 111.515 125.975 112.626 125.416C113.737 124.857 114.601 123.906 115.052 122.747C115.502 121.588 115.508 120.304 115.067 119.141C115.614 119.94 116.394 120.55 117.3 120.889C118.207 121.229 119.196 121.28 120.133 121.037C121.07 120.794 121.909 120.268 122.536 119.53C123.163 118.793 123.548 117.88 123.638 116.917C124.486 117.404 125.464 117.616 126.438 117.523C127.411 117.429 128.332 117.036 129.072 116.397C129.813 115.758 130.336 114.904 130.57 113.955C130.804 113.005 130.737 112.006 130.379 111.096Z" fill="#FE9592"/>
<path opacity="0.62" d="M103.344 128.086C102.283 128.76 100.999 128.987 99.7718 128.717C98.5445 128.447 97.4742 127.702 96.7948 126.645L91.1617 117.832C91.0799 117.797 91 117.757 90.9223 117.713C82.845 113.752 78.9246 105.517 74.376 97.3732L54.0293 91.7311L56.0189 87.2871L76.1907 95.0838C76.1907 95.0838 81.0387 109.546 91.9666 114.77L99.2749 126.559C99.2749 126.559 101.087 129.033 103.344 128.086Z" fill="#FB7874"/>
<path d="M78.6865 65.6581C70.2503 60.444 14.7729 35.1048 -2 27.5049V80.2248C24.2817 88.2154 62.4308 100.558 62.4308 100.558L78.6865 65.6581Z" fill="#FDC535"/>
<path d="M65.8842 93.1453C45.5607 88.5961 18.7782 79.3101 -2 70.7314V80.2256C24.2814 88.2162 62.4305 100.559 62.4305 100.559L65.8842 93.1453Z" fill="#FDB702"/>
<path d="M111.413 216.652C124.471 216.652 135.057 206.067 135.057 193.009C135.057 179.951 124.471 169.365 111.413 169.365C98.3551 169.365 87.7695 179.951 87.7695 193.009C87.7695 206.067 98.3551 216.652 111.413 216.652Z" fill="white"/>
<path d="M109.948 193.049V202.988H107.737C105.685 202.988 103.717 202.173 102.266 200.721C100.815 199.269 100 197.299 100 195.246V193.049H109.948Z" fill="#0075FA"/>
<path d="M120.984 193.049V195.262C120.984 197.315 120.168 199.284 118.717 200.736C117.266 202.188 115.298 203.004 113.246 203.004H111.051V193.049H120.984Z" fill="#0075FA"/>
<path d="M111.051 191.955V189.742C111.051 187.689 111.866 185.72 113.317 184.268C114.768 182.816 116.736 182 118.788 182H120.999V191.94L111.051 191.955Z" fill="#0075FA"/>
<defs>
<linearGradient id="paint0_linear" x1="53.7539" y1="141.422" x2="180.552" y2="248.32" gradientUnits="userSpaceOnUse">
<stop stop-color="#66ADFF"/>
<stop offset="1" stop-color="#0077FF"/>
</linearGradient>
</defs>
</svg>
