<svg width="160" height="256" viewBox="0 0 160 256" fill="none" xmlns="http://www.w3.org/2000/svg">
<path d="M119.848 145.146H159.209V213.734C159.209 220.601 156.481 227.187 151.625 232.043C146.769 236.898 140.184 239.626 133.317 239.626H119.848V145.146V145.146Z" fill="#1765CF"/>
<path d="M41.293 239.627H27.824C20.957 239.627 14.3713 236.899 9.51567 232.043C4.66 227.188 1.93212 220.602 1.93212 213.735L1.93212 145.146H41.293L41.293 239.627Z" fill="#1765CF"/>
<path d="M68.8496 88.5547C68.8496 88.5547 13.6189 100.028 5.047 120.55C-3.52489 141.071 4.84792 211.602 13.2826 227.692C25.8751 251.714 50.8256 234.46 50.8256 234.46L91.6876 105.986L68.8496 88.5547Z" fill="#1765CF"/>
<path d="M91.6212 88.5547C91.6212 88.5547 146.852 100.028 155.424 120.55C163.996 141.071 156.926 209.236 145.059 228.725C131.089 251.669 109.645 234.46 109.645 234.46L68.7832 105.986L91.6212 88.5547Z" fill="#1765CF"/>
<path d="M92.0745 100.991C90.1145 102.241 87.428 103.134 85.7059 103.701C79.6976 105.681 73.0104 105.698 67.0619 103.487C65.316 102.837 63.599 101.988 62.299 100.653C60.5107 98.8184 60.5648 97.0813 60.5646 94.7508C60.5646 92.7158 60.5646 90.6808 60.5646 88.6458V71.0824C60.5646 71.0824 94.3948 71.0824 94.3948 71.0936V89.9621C94.3948 92.4034 95.4307 97.2823 93.9704 99.3151C93.4479 99.9865 92.805 100.555 92.0745 100.991ZM104.29 48.4895C105.117 47.5826 105.974 46.6531 107.085 46.1309C108.195 45.6088 109.636 45.5897 110.545 46.4142C111.651 47.4173 111.559 49.1773 111.167 50.6182C110.614 52.6097 109.671 54.4711 108.391 56.094C107.111 57.7168 105.521 59.0686 103.713 60.0703C103.62 59.9057 103.527 59.7411 103.433 59.5764L104.29 48.4895Z" fill="#FE9592"/>
<path d="M101.406 14.4595C97.4442 11.7984 93.0883 12.2299 88.6276 12.184L77.657 12.0711C77.5812 12.0704 77.5053 12.0696 77.4295 12.0688C73.7727 12.0312 70.1158 11.9936 66.459 11.956C61.9983 11.9101 57.6521 11.3891 53.636 13.9682C49.7571 16.4592 47.1317 20.5288 47.0819 25.402C47.0318 30.297 46.9814 35.1921 46.9308 40.0871L46.6707 62.6113C46.6056 68.948 50.4968 75.0389 55.0173 79.0538C62.6562 85.8382 69.2288 88.8151 76.6103 88.9482L76.6103 88.9537C76.648 88.954 76.6863 88.9518 76.7241 88.952C76.7618 88.9526 76.8 88.9556 76.8378 88.956L76.8378 88.9505C84.2206 88.9693 91.4684 86.1274 99.2452 79.5015C103.847 75.5804 107.248 69.5717 107.313 63.2351L107.573 40.7108C107.623 35.8158 107.674 30.9208 107.724 26.0258C107.774 21.1526 105.233 17.0298 101.406 14.4595Z" fill="#FE9592"/>
<path d="M40.8539 29.5241C40.8555 29.2269 40.8593 28.9298 40.8653 28.6327C40.934 25.2084 41.3212 21.6718 42.9219 18.7145C43.7248 17.1996 44.9058 15.918 46.3502 14.9942C47.752 14.127 49.2826 14.2763 50.6374 13.6868C49.7756 9.62281 50.9196 5.64283 54.1187 3.09003C57.2282 0.608665 61.2794 -0.0165136 65.1398 0.000328682C76.5135 0.0499777 87.5903 4.94638 98.9497 4.30433C101.335 4.16948 103.985 3.61752 105.369 1.50793C109.627 8.41344 111.936 16.6491 112.189 24.936C112.32 29.0826 111.925 33.2292 111.013 37.2764C110.532 39.2787 109.942 41.2531 109.245 43.1907C108.796 44.4901 107.474 47.7846 107.486 49.1958C107.425 42.4714 106.857 34.0364 105.24 27.5459C97.8991 32.2057 87.0456 31.336 78.8352 28.8177C71.4736 26.5598 59.9691 16.4276 59.9928 16.4103C56.1491 19.2145 53.8117 20.7435 51.9077 25.3662C50.2565 29.375 46.7916 53.5251 46.9437 57.1669C45.3557 45.6584 40.8053 38.4258 40.8539 29.5241Z" fill="#03277D"/>
<path d="M48.706 47.9174C47.8979 46.9937 47.0602 46.0468 45.9605 45.5019C44.8608 44.957 43.4209 44.9083 42.495 45.7139C41.3686 46.694 41.4248 48.4556 41.7868 49.9042C42.2983 51.9066 43.2036 53.7871 44.4496 55.4359C45.6957 57.0848 47.2576 58.4689 49.0443 59.5077C49.141 59.345 49.2377 59.1823 49.3344 59.0196L48.706 47.9174Z" fill="#FE9592"/>
<path d="M50.7006 28.5283L49.3844 54.2021C49.3844 54.2021 48.3076 47.5644 45.9609 45.5022L50.7006 28.5283ZM67.0671 50.2915C67.0538 51.5815 66.1779 52.6183 65.1108 52.6073C64.0437 52.5963 63.1894 51.5417 63.2026 50.2518C63.2159 48.9618 64.0917 47.925 65.1589 47.9359C66.226 47.9469 67.0803 49.0015 67.0671 50.2915Z" fill="#03277D"/>
<path d="M95.1718 50.5792C95.1851 49.2893 94.3307 48.2347 93.2636 48.2237C92.1964 48.2127 91.3205 49.2495 91.3073 50.5394C91.294 51.8293 92.1483 52.8839 93.2155 52.8949C94.2826 52.9059 95.1585 51.8691 95.1718 50.5792Z" fill="#03277D"/>
<path d="M57.2798 43.5152C58.2177 42.6253 59.3217 41.9288 60.5287 41.4655C62.9668 40.4999 65.6714 40.4463 68.1458 41.3145C69.3569 41.7262 70.4744 42.3736 71.434 43.2194C71.5188 43.2957 71.5736 43.3998 71.5882 43.5129C71.6029 43.6261 71.5766 43.7407 71.514 43.8361C71.4514 43.9315 71.3567 44.0013 71.2471 44.0329C71.1374 44.0644 71.0201 44.0557 70.9164 44.0082L70.9103 44.0052C69.8805 43.5242 68.8006 43.1587 67.6903 42.9155C65.5239 42.4489 63.273 42.5593 61.1627 43.2357C60.1009 43.581 59.0798 44.0409 58.1175 44.6072L58.1085 44.6124C57.9622 44.6973 57.7898 44.7257 57.624 44.6922C57.4581 44.6588 57.3103 44.5658 57.2083 44.4308C57.1063 44.2958 57.0573 44.1281 57.0705 43.9594C57.0836 43.7908 57.1581 43.6327 57.2798 43.5152V43.5152ZM86.7191 43.3841C87.7066 42.5679 88.8445 41.9531 90.0685 41.5746C91.3016 41.1822 92.5948 41.0119 93.8875 41.0718C95.1793 41.1304 96.4495 41.4249 97.6353 41.9408C98.8108 42.4375 99.8724 43.169 100.755 44.0905C100.826 44.1663 100.868 44.265 100.873 44.3689C100.878 44.4728 100.846 44.5751 100.782 44.6574C100.719 44.7397 100.628 44.7967 100.526 44.8182C100.425 44.8396 100.319 44.8241 100.227 44.7744L100.222 44.7714C99.2246 44.2189 98.1724 43.7716 97.0825 43.4367C96.0183 43.1179 94.9188 42.932 93.809 42.8832C92.7007 42.8422 91.5919 42.9448 90.51 43.1885C89.4089 43.4423 88.3394 43.8178 87.3213 44.308L87.3148 44.311C87.1928 44.3687 87.054 44.3801 86.9243 44.343C86.7945 44.3058 86.6827 44.2228 86.6098 44.1092C86.5368 43.9957 86.5077 43.8595 86.5278 43.7261C86.5479 43.5926 86.6159 43.4711 86.7191 43.3841V43.3841Z" fill="#03277D"/>
<path d="M102.112 59.4385L101.93 56.4552C101.93 56.4552 85.1436 54.1387 77.351 54.1387C69.9211 54.1387 53.3846 56.4552 53.3846 56.4552L53.0293 59.4148C55.9089 59.0325 70.3088 57.1672 77.1683 57.1672C84.5294 57.1672 99.6811 59.1191 102.112 59.4385Z" fill="#6EAEF9"/>
<path d="M77.2808 89.8809C92.9206 90.8635 103.088 75.4886 103.088 75.4886L102.111 59.4383C99.6809 59.1189 84.5292 57.167 77.1681 57.167C70.3087 57.167 55.9087 59.0323 53.0292 59.4147L51.1582 74.9958C52.6226 76.8186 61.6403 88.8983 77.2808 89.8809Z" fill="#4F94F9"/>
<g opacity="0.57">
<path opacity="0.57" d="M58.2428 62.4276C61.2691 61.5865 64.352 60.9639 67.4676 60.5647L69.8098 60.2912L72.1609 60.0988C72.9459 60.0553 73.7312 60.0067 74.5171 59.9743L76.8766 59.9251C80.0239 59.9004 83.1694 60.0809 86.2932 60.4654C89.4139 60.8413 92.5005 61.4594 95.5253 62.3141C95.5671 62.3262 95.6029 62.3536 95.6254 62.3908C95.648 62.4281 95.6557 62.4724 95.647 62.5151C95.6383 62.5578 95.6139 62.5956 95.5786 62.6211C95.5433 62.6465 95.4997 62.6578 95.4565 62.6526C92.3529 62.2792 89.2648 61.9405 86.1698 61.7206C83.0761 61.4916 79.9798 61.3754 76.8809 61.3722L74.5574 61.3963C73.7834 61.4277 73.0088 61.443 72.234 61.4633L69.9117 61.5807L67.5899 61.735C64.4949 61.9726 61.4075 62.3383 58.3134 62.7656C58.27 62.7716 58.2259 62.7609 58.19 62.7357C58.1542 62.7104 58.1292 62.6725 58.1203 62.6296C58.1113 62.5867 58.119 62.542 58.1417 62.5045C58.1644 62.467 58.2006 62.4395 58.2428 62.4276V62.4276ZM58.3089 65.5035C61.3987 65.9089 64.5068 66.202 67.6116 66.4412C70.7181 66.6706 73.8285 66.8207 76.9384 66.8522C80.0479 66.8832 83.1571 66.7974 86.2515 66.5366C89.3493 66.2911 92.4223 65.7967 95.4409 65.0583C95.484 65.0472 95.5298 65.0532 95.5686 65.0751C95.6075 65.0969 95.6363 65.1329 95.6493 65.1756C95.6622 65.2182 95.6581 65.2642 95.6379 65.3039C95.6177 65.3436 95.5829 65.374 95.5409 65.3886C94.0509 65.8927 92.5328 66.3093 90.9942 66.6363C89.4544 66.9607 87.8978 67.1945 86.3365 67.3813C84.775 67.5683 83.2061 67.6712 81.6371 67.7536C80.0675 67.8188 78.4977 67.8426 76.9278 67.8251C73.789 67.7804 70.6589 67.5936 67.5376 67.2647C64.4187 66.9487 61.318 66.4742 58.2473 65.8433C58.2037 65.8341 58.1653 65.8085 58.1401 65.7716C58.115 65.7348 58.105 65.6897 58.1124 65.6457C58.1198 65.6018 58.1439 65.5624 58.1797 65.5358C58.2154 65.5092 58.2601 65.4974 58.3044 65.503L58.3089 65.5035ZM58.1661 68.8137C61.1185 70.2388 64.2351 71.2952 67.4455 71.9591C70.6354 72.6494 73.8906 72.9928 77.1543 72.9832C78.7722 72.9514 80.4276 72.8672 82.0477 72.7109C83.6709 72.5674 85.2841 72.3278 86.8789 71.9934L87.4755 71.8666L88.0663 71.7177C88.4623 71.6245 88.8517 71.5094 89.2411 71.393C90.0229 71.1697 90.7909 70.9009 91.5499 70.6058C93.0739 70.0089 94.546 69.2872 95.9513 68.448C95.9892 68.4256 96.0343 68.4186 96.0773 68.4283C96.1203 68.438 96.1579 68.4638 96.1825 68.5004C96.2071 68.537 96.2168 68.5815 96.2097 68.625C96.2025 68.6685 96.179 68.7076 96.1439 68.7343C93.4531 70.751 90.3797 72.1984 87.1111 72.9882C85.4838 73.3904 83.8308 73.6802 82.1637 73.8557C81.3325 73.9425 80.5009 74.0088 79.6693 74.0628L78.4223 74.1302L77.1633 74.1571C73.8106 74.1598 70.4708 73.7405 67.2228 72.9089C63.9902 72.0814 60.827 70.8818 57.9973 69.1149C57.978 69.1029 57.9614 69.0873 57.9482 69.0688C57.935 69.0503 57.9256 69.0294 57.9205 69.0073C57.9153 68.9852 57.9146 68.9624 57.9184 68.94C57.9221 68.9176 57.9302 68.8962 57.9422 68.8769C57.9653 68.8407 58.0008 68.8143 58.0421 68.8026C58.0834 68.791 58.1275 68.7949 58.1661 68.8137V68.8137Z" fill="#1765CF"/>
</g>
<path d="M93.9277 197.009C96.0682 198.138 98.4595 198.881 100.666 199.379C97.5206 196.752 95.6007 193.624 94.0816 190.144C94.2277 187.632 94.4735 184.942 94.8045 182.095C97.5446 184.159 101.131 185.347 104.337 186.08C100.074 182.591 97.8836 178.299 96.0234 173.49C96.3332 171.649 96.6644 169.773 97.0314 167.842C100.032 170.443 104.249 171.911 108.007 172.788C103.306 169.004 100.936 164.353 98.8813 159.129C99.2445 157.525 99.6285 155.911 100.038 154.267C103.221 156.999 107.698 158.552 111.673 159.487C106.894 155.707 104.376 151.121 102.227 145.991C102.672 144.399 103.143 142.79 103.627 141.17C106.948 143.727 111.381 145.248 115.338 146.188C110.766 142.628 108.13 138.394 105.966 133.686C106.534 131.933 107.142 130.169 107.75 128.392C111.1 130.605 115.259 131.987 119.002 132.889C114.848 129.689 112.195 125.991 110.067 121.904C110.887 119.7 111.728 117.535 112.574 115.402C115.907 118.041 120.423 119.593 124.447 120.55C120.059 117.135 117.468 113.099 115.351 108.628C116.208 106.622 117.063 104.647 117.927 102.724C121.123 105.627 125.777 107.249 129.884 108.211C125.53 104.773 123.049 100.67 121.017 96.0905C121.949 94.1704 122.881 92.2994 123.812 90.4775C126.825 93.3808 131.345 94.951 135.328 95.8735C131.263 92.6118 128.947 88.7012 127.063 84.3402C128.143 82.3927 129.212 80.5181 130.27 78.7164C133.091 81.297 137.154 82.7113 140.757 83.5342C137.261 80.6761 135.158 77.2654 133.49 73.4725C134.838 71.3728 136.159 69.3908 137.451 67.5831C139.989 69.4652 143.262 70.5374 146.201 71.1953C143.57 68.9998 141.801 66.4554 140.407 63.6467C146.348 56.1468 151.417 52.3289 154.515 53.4339C162.78 56.3712 148.375 91.0651 132.887 134.668C117.398 178.278 106.695 214.286 98.4253 211.347C95.6023 210.343 94.0818 205.147 93.9277 197.009Z" fill="#FD9F02"/>
<path d="M137.45 67.5828C138.457 66.1793 139.445 64.8625 140.407 63.6465C141.801 66.4551 143.57 68.9996 146.2 71.1951C143.261 70.5372 139.989 69.465 137.45 67.5828ZM140.757 83.534C137.153 82.7111 133.09 81.2968 130.27 78.7162C131.355 76.883 132.428 75.1351 133.489 73.4723C135.158 77.2652 137.26 80.6759 140.757 83.534ZM135.327 95.8732C131.344 94.9508 126.824 93.3806 123.811 90.4773C124.901 88.3612 125.985 86.3155 127.063 84.34C128.947 88.701 131.263 92.6115 135.327 95.8732ZM129.883 108.211C125.777 107.249 121.122 105.627 117.926 102.724C118.951 100.456 119.981 98.2452 121.016 96.0903C123.049 100.669 125.529 104.773 129.883 108.211ZM112.573 115.402C113.481 113.096 114.407 110.838 115.351 108.627C117.467 113.099 120.059 117.134 124.446 120.55C120.422 119.592 115.907 118.041 112.573 115.402ZM100.665 199.379C98.4589 198.881 96.0676 198.138 93.9272 197.009C93.8874 194.912 93.9381 192.607 94.081 190.144C95.6001 193.623 97.52 196.752 100.665 199.379ZM104.336 186.08C101.13 185.347 97.544 184.159 94.8039 182.095C95.1278 179.366 95.5295 176.492 96.0228 173.49C97.883 178.299 100.074 182.591 104.336 186.08ZM108.007 172.787C104.249 171.91 100.032 170.443 97.0308 167.842C97.5738 165.027 98.1904 162.123 98.8807 159.128C100.936 164.353 103.305 169.004 108.007 172.787ZM111.672 159.487C107.697 158.552 103.221 156.998 100.038 154.267C100.714 151.554 101.444 148.796 102.227 145.99C104.375 151.121 106.894 155.707 111.672 159.487ZM103.627 141.169C104.362 138.702 105.142 136.208 105.966 133.686C108.129 138.393 110.765 142.627 115.337 146.188C111.381 145.248 106.947 143.727 103.627 141.169ZM107.75 128.392C108.022 127.603 108.287 126.819 108.566 126.031C109.061 124.643 109.567 123.271 110.066 121.904C112.195 125.991 114.848 129.689 119.002 132.888C115.259 131.987 111.1 130.604 107.75 128.392Z" fill="#CE7C05"/>
<path d="M90.6582 113.64C90.6527 110.375 95.6405 100.992 97.4923 100.777L109.703 100.729C111.566 100.939 116.63 110.277 116.64 113.549L116.711 133.41L116.814 161.524C116.819 163.737 114.638 165.541 111.955 165.547L95.7058 165.605C93.0331 165.622 90.8415 163.824 90.8367 161.621L90.7283 133.507L90.6582 113.64Z" fill="white"/>
<path d="M88.9649 112.221L89.1378 161.373C89.1482 164.737 92.2258 167.452 96.0041 167.441L112.221 167.382C116.005 167.371 119.06 164.629 119.049 161.26L118.872 112.119C118.861 108.756 113.738 96.9761 109.953 96.9932L97.7744 97.0352C93.9856 97.0529 88.9539 108.858 88.9649 112.221ZM91.6582 113.679C91.6472 110.51 96.3604 101.414 98.1099 101.203L109.64 101.166C111.401 101.365 116.178 110.423 116.188 113.587L116.259 132.849L116.356 160.111C116.361 162.249 114.305 163.998 111.773 164.003L96.4255 164.062C93.904 164.073 91.8312 162.329 91.8257 160.197L91.7227 132.934L91.6582 113.679Z" fill="#CDDBFE"/>
<path d="M93.256 94.0231L93.2403 90.0827C93.2383 89.656 93.3205 89.2332 93.4824 88.8384C93.6442 88.4437 93.8824 88.0847 94.1833 87.7823C94.4842 87.4798 94.8418 87.2397 95.2357 87.0758C95.6296 86.9119 96.0521 86.8274 96.4787 86.8272L110.8 86.7725C111.227 86.7699 111.65 86.8515 112.045 87.0127C112.441 87.1738 112.8 87.4114 113.104 87.7117C113.407 88.012 113.648 88.3693 113.814 88.7629C113.979 89.1566 114.065 89.579 114.067 90.0059L114.077 93.953C114.074 94.2681 114.024 94.5809 113.93 94.8816H93.3866C93.3045 94.6027 93.2605 94.3139 93.256 94.0231V94.0231Z" fill="#4F94F9"/>
<path d="M113.93 94.8818C113.736 95.5541 113.329 96.1454 112.771 96.5669C112.212 96.9884 111.532 97.2175 110.832 97.2197L96.521 97.2677C95.8091 97.2693 95.1165 97.0365 94.55 96.6053C93.9836 96.1741 93.5748 95.5685 93.3867 94.8818H113.93Z" fill="#1765CF"/>
<path d="M48.6107 91.3967C47.691 89.2415 46.8022 87.3431 45.2695 83.7002L52.2972 81.0439C53.5584 84.7894 54.1464 86.8014 54.8833 89.0259L48.6107 91.3967Z" fill="#FC8006"/>
<path d="M53.6721 111.078C52.3478 118.948 49.6787 117.293 55.973 133.945C62.2686 150.602 67.9545 165.645 67.9545 165.645L89.4426 157.523C89.4426 157.523 83.7568 142.48 77.4612 125.823C71.1668 109.171 70.254 112.18 64.0603 107.152C60.5516 104.309 56.7541 94.791 54.8234 88.9346L48.5508 91.3055C50.9753 96.9752 54.4209 106.627 53.6721 111.078ZM56.1971 126.78L72.5513 120.599C73.2605 122.248 74.069 124.264 75.0088 126.75L80.7857 142.034L64.1998 148.303L58.423 133.019C57.4832 130.533 56.7586 128.486 56.1971 126.78Z" fill="#03277D"/>
<path d="M56.1973 126.78L72.5515 120.599C73.2607 122.248 74.0692 124.264 75.009 126.75L80.7858 142.034L64.2 148.303L58.4232 133.019C57.4834 130.533 56.7588 128.486 56.1973 126.78Z" fill="white"/>
<path d="M40.655 103.722C39.258 105.777 38.0473 107.954 37.0373 110.224C36.6476 111.101 36.2903 111.985 35.9653 112.878C35.455 114.276 35.0219 115.701 34.668 117.146C34.4345 118.085 34.2354 119.031 34.0705 119.983C33.7473 121.835 33.5513 123.707 33.4838 125.585C33.4433 126.63 33.4429 127.672 33.4828 128.713C33.5676 130.981 33.8372 133.239 34.2889 135.464C34.5179 136.607 34.7955 137.738 35.1217 138.855C35.8411 141.34 36.7916 143.753 37.9608 146.061C38.4678 147.067 39.0195 148.056 39.6156 149.028C41.149 151.53 42.9438 153.861 44.9698 155.984C45.6959 156.748 46.4573 157.487 47.254 158.202C48.0519 158.921 48.8837 159.615 49.7492 160.283C50.9036 161.173 52.1037 162.002 53.3445 162.768C54.2704 163.337 55.2118 163.868 56.1686 164.36C58.008 165.309 59.9168 166.116 61.8785 166.775C62.8022 167.09 63.7341 167.369 64.6741 167.612C67.1903 168.269 69.7627 168.687 72.3573 168.862C73.5622 168.945 74.7667 168.975 75.9708 168.952C77.7899 168.92 79.6049 168.768 81.4041 168.498C82.5238 168.333 83.635 168.121 84.7377 167.863C86.819 167.379 88.8601 166.735 90.8429 165.938C91.8478 165.538 92.833 165.096 93.8072 164.616C96.2986 163.382 98.6597 161.9 100.855 160.194C101.701 159.539 102.524 158.848 103.323 158.12C104.534 157.018 105.68 155.847 106.754 154.611L40.655 103.722Z" fill="#48956B"/>
<path d="M34.2889 135.464C34.5179 136.608 34.7955 137.738 35.1217 138.855C35.1763 138.857 35.2314 138.863 35.2865 138.868C35.9497 138.954 36.7516 139.315 37.194 138.815C37.3261 138.665 37.3869 138.463 37.5213 138.314C37.7439 138.067 38.1066 138.022 38.4378 137.994C39.5505 137.89 40.6634 137.789 41.7768 137.691C41.7163 137.692 41.6557 137.693 41.597 137.692L42.0428 135.049C41.743 134.536 41.0513 134.372 40.4704 134.496C39.8872 134.619 39.3837 134.963 38.8757 135.271C38.3653 135.576 37.8061 135.859 37.211 135.834C36.7292 135.812 36.2858 135.592 35.8194 135.474C35.3172 135.35 34.7926 135.346 34.2889 135.464V135.464ZM73.0244 163.029C72.9889 163.623 73.1876 164.199 73.3482 164.771C73.5088 165.344 73.6309 165.96 73.4475 166.525C73.299 166.982 72.9683 167.354 72.733 167.77C72.5421 168.108 72.4148 168.478 72.3574 168.862C73.5622 168.946 74.7667 168.975 75.9708 168.952C76.2461 168.403 76.639 167.823 76.3171 167.334C76.2087 167.167 76.0293 167.053 75.9227 166.884C75.7437 166.603 75.7975 166.243 75.8554 165.916C76.0544 164.816 76.2534 163.716 76.4523 162.616C76.4365 162.675 76.4207 162.733 76.4049 162.792L73.9767 161.66C73.4012 161.811 73.0598 162.435 73.0244 163.029ZM80.8889 161.765C80.9599 162.357 81.258 162.891 81.5163 163.424C81.7768 163.959 82.0077 164.541 81.9301 165.133C81.8652 165.607 81.608 166.032 81.4484 166.485C81.2253 167.135 81.2098 167.839 81.4041 168.499C82.5238 168.333 83.635 168.121 84.7377 167.863C84.7271 167.681 84.7411 167.497 84.7792 167.318C84.9245 166.665 85.3572 165.9 84.8978 165.415C84.7584 165.269 84.5644 165.188 84.4274 165.044C84.2047 164.8 84.1888 164.433 84.1899 164.103C84.1877 162.984 84.1871 161.866 84.1881 160.749C84.1828 160.809 84.1758 160.87 84.1729 160.931L81.5804 160.249C81.0428 160.504 80.8185 161.178 80.8889 161.765ZM89.0003 160.314C89.1874 160.881 89.5874 161.342 89.949 161.814C90.3106 162.287 90.6536 162.811 90.6933 163.404C90.7394 164.066 90.5955 164.68 90.7125 165.356C90.7458 165.552 90.7893 165.747 90.8429 165.938C91.8478 165.538 92.833 165.096 93.8072 164.616C93.7531 164.127 93.7601 163.608 93.5645 163.176C93.4085 162.827 93.095 162.575 92.8838 162.253C92.5464 161.741 92.5532 161.169 92.4463 160.59C92.3293 159.948 92.1595 159.301 92.0279 158.658C92.0356 158.72 92.0427 158.778 92.0503 158.84L89.3731 158.691C88.8982 159.047 88.8136 159.752 89.0003 160.314ZM37.9608 146.061C38.4678 147.067 39.0195 148.056 39.6156 149.028C40.571 148.582 41.7376 148.39 42.5743 147.728C42.9595 147.425 43.2624 147.032 43.6453 146.727C44.0282 146.423 44.5397 146.211 45.0056 146.359L43.4178 142.461C42.959 142.252 42.4011 142.494 42.0714 142.874C41.7435 143.251 41.5802 143.742 41.3822 144.206C41.1861 144.667 40.9263 145.138 40.4881 145.385C39.7661 145.79 38.7749 145.471 38.0974 145.948C38.049 145.982 38.0033 146.02 37.9608 146.061V146.061ZM97.3526 155.037C97.2898 155.342 97.6395 155.547 97.9029 155.716C99.2423 156.567 99.3057 158.538 100.364 159.726C100.518 159.892 100.682 160.049 100.855 160.194C101.701 159.54 102.524 158.848 103.323 158.12C103.023 157.986 102.766 157.772 102.579 157.502C102.132 156.807 102.39 155.798 101.872 155.148C101.517 154.707 100.913 154.579 100.382 154.381C99.8517 154.182 99.2891 153.777 99.3069 153.21C98.7365 153.707 98.1689 154.204 97.6039 154.7C97.4858 154.782 97.3976 154.9 97.3526 155.037ZM62.8746 160.711C62.8615 161.215 63.0485 161.696 63.1915 162.176C63.3349 162.66 63.4335 163.188 63.253 163.658C62.9529 164.429 61.9881 164.816 61.7708 165.615C61.696 166.004 61.7333 166.406 61.8785 166.775C62.8022 167.09 63.7341 167.369 64.6741 167.612C65.021 166.423 66.0838 165.39 66.3557 164.135C66.4576 163.655 66.4419 163.155 66.542 162.679C66.644 162.199 66.9018 161.712 67.3558 161.526L63.6459 159.536C63.1623 159.669 62.886 160.209 62.8746 160.711ZM46.2805 153.077C45.9963 153.47 45.9461 153.979 45.811 154.443C45.6366 155.008 45.3505 155.532 44.9698 155.984C45.6959 156.748 46.4573 157.487 47.254 158.202C47.6303 157.881 47.9673 157.516 48.2579 157.116C48.5131 156.668 48.741 156.205 48.9404 155.73C49.3882 154.836 50.0635 154.076 50.8984 153.526L48.8137 150.924C48.8015 151.503 48.2613 151.923 47.7374 152.17C47.2135 152.416 46.6201 152.609 46.2805 153.077ZM55.1099 159.36C54.784 159.601 54.3697 159.736 54.1205 160.055C53.7972 160.469 53.8565 161.052 53.7872 161.575C53.7294 162.001 53.5782 162.408 53.3445 162.768C54.2704 163.338 55.2118 163.869 56.1686 164.361C56.2704 163.929 56.3177 163.487 56.3094 163.044C56.3004 162.531 56.2242 161.998 56.3968 161.515C56.6233 160.876 57.225 160.463 57.696 159.974C58.167 159.484 58.5287 158.72 58.1655 158.15L56.147 156.847C56.0312 157.773 55.8589 158.801 55.1099 159.36ZM37.0373 110.225C36.6476 111.101 36.2903 111.985 35.9653 112.878C36.1421 113.003 36.3273 113.117 36.5197 113.217C37.575 113.75 38.8234 113.611 39.9996 113.683C40.956 113.744 41.8972 113.953 42.7895 114.303C43.5212 114.587 44.3087 115.358 45.03 115.541C45.9694 115.779 45.8871 115.536 46.1735 114.653C46.2796 114.326 46.4864 112.138 46.7444 112.041C45.8778 112.359 44.906 112.163 44.0368 111.85C43.1676 111.537 42.3265 111.111 41.4148 110.962C40.29 110.781 39.104 111.036 38.0198 110.693C37.6741 110.578 37.3441 110.421 37.0373 110.225V110.225ZM34.5168 118.052C34.2834 118.991 34.0842 119.936 33.9194 120.889C34.8519 121.054 35.848 120.871 36.8119 120.833C37.7688 120.795 38.7257 120.907 39.6478 121.165C40.4038 121.375 41.2688 122.061 42.002 122.172C42.9608 122.313 42.8566 122.079 43.0524 121.174C43.124 120.839 43.1074 118.636 43.3581 118.515C42.5275 118.921 41.5385 118.823 40.6406 118.599C39.745 118.377 38.8664 118.038 37.9453 117.982C36.8054 117.916 35.6547 118.288 34.5385 118.058C34.532 118.056 34.5233 118.053 34.5168 118.052ZM33.4838 125.585C33.4433 126.63 33.4429 127.672 33.4828 128.713C33.7473 128.722 34.0111 128.747 34.2725 128.789C35.1831 128.93 36.0897 129.19 37.0148 129.16C38.1525 129.124 39.2653 128.647 40.3981 128.775C41.2239 128.872 41.975 129.28 42.7468 129.584C43.0368 129.735 43.3722 129.774 43.6891 129.693C44.237 129.488 44.3081 128.743 44.1957 128.171C44.0851 127.597 43.8911 126.957 44.2071 126.466C43.7954 126.741 43.2446 126.702 42.7741 126.551C42.3013 126.398 41.8644 126.147 41.3877 126.013C40.2538 125.691 39.0532 126.065 37.8838 126.218C36.9343 126.341 35.9714 126.316 35.0295 126.143C34.4992 126.002 33.982 125.815 33.4838 125.585V125.585Z" fill="#70BB92"/>
<path d="M44.6391 106.784C39.4708 114.538 37.439 123.965 38.9545 133.159C40.47 142.353 45.4197 150.629 52.8032 156.314C60.1866 161.999 69.453 164.669 78.7292 163.784C88.0055 162.898 96.5997 158.524 102.775 151.545L101.614 150.651L45.802 107.68L44.6391 106.784Z" fill="white"/>
<path d="M45.8012 107.681L45.7534 107.751C40.8699 115.162 38.9565 124.141 40.3942 132.899C41.8318 141.657 46.5151 149.552 53.5115 155.013L53.6944 155.156C60.7591 160.595 69.6199 163.16 78.4976 162.336C87.3754 161.513 95.6128 157.361 101.556 150.715L101.613 150.651L45.8012 107.681Z" fill="#FE9592"/>
<path d="M46.724 108.394C41.9808 115.593 40.1366 124.32 41.5615 132.822C42.9865 141.325 47.5752 148.974 54.4064 154.233C61.2376 159.493 69.8054 161.973 78.3898 161.177C86.9742 160.38 94.9396 156.366 100.687 149.94L99.6905 149.174L46.724 108.394Z" fill="#FE2D5D"/>
<path d="M56.0949 132.565C56.0647 133.313 56.4378 133.541 56.9352 133.561C57.4326 133.581 57.8657 133.386 57.8958 132.637C57.926 131.888 57.0442 130.85 57.0442 130.85C57.0442 130.85 56.1251 131.816 56.0949 132.565ZM47.2595 134.91C47.2293 135.659 47.6025 135.886 48.0999 135.906C48.5972 135.926 49.0304 135.731 49.0604 134.982C49.0906 134.234 48.2088 133.195 48.2088 133.195C48.2088 133.195 47.2897 134.161 47.2595 134.91ZM78.297 138.156C78.2669 138.905 78.64 139.132 79.1374 139.152C79.6347 139.172 80.0679 138.977 80.0979 138.229C80.1281 137.48 79.2463 136.441 79.2463 136.441C79.2463 136.441 78.3272 137.407 78.297 138.156Z" fill="#231F20"/>
<path d="M66.5429 139.822C66.182 140.478 66.4145 140.848 66.8508 141.088C67.2871 141.328 67.7618 141.346 68.1224 140.69C68.4833 140.033 68.1573 138.71 68.1573 138.71C68.1573 138.71 66.9037 139.165 66.5429 139.822Z" fill="#FE2D5D"/>
<path d="M65.7218 152.291C65.361 152.948 65.5935 153.318 66.0298 153.557C66.4661 153.797 66.9407 153.816 67.3014 153.159C67.6623 152.502 67.3363 151.179 67.3363 151.179C67.3363 151.179 66.0827 151.634 65.7218 152.291ZM47.7436 117.33C47.072 117.663 47.0512 118.099 47.272 118.545C47.4928 118.991 47.8715 119.278 48.5429 118.946C49.2145 118.613 49.7038 117.342 49.7038 117.342C49.7038 117.342 48.4152 116.998 47.7436 117.33ZM64.0171 126.989C63.3369 127.303 63.3046 127.739 63.5136 128.191C63.7225 128.643 64.0936 128.939 64.7734 128.625C65.4536 128.31 65.9763 127.052 65.9763 127.052C65.9763 127.052 64.6972 126.675 64.0171 126.989ZM89.9037 149.134C89.2321 149.467 89.2113 149.903 89.4321 150.349C89.6529 150.795 90.0316 151.082 90.703 150.75C91.3746 150.417 91.8639 149.146 91.8639 149.146C91.8639 149.146 90.5753 148.802 89.9037 149.134ZM77.1599 149.151C76.5247 149.548 76.5473 149.985 76.8114 150.407C77.0754 150.829 77.4808 151.076 78.1158 150.679C78.751 150.282 79.1116 148.968 79.1116 148.968C79.1116 148.968 77.7952 148.754 77.1599 149.151ZM54.7229 146.509C54.2097 147.055 54.3427 147.472 54.7055 147.813C55.0683 148.153 55.5233 148.29 56.0362 147.744C56.5494 147.198 56.5635 145.835 56.5635 145.835C56.5635 145.835 55.236 145.963 54.7229 146.509Z" fill="#231F20"/>
<path d="M31.0736 120.642C31.0736 120.642 39.9279 130.06 43.8626 164.181L39.6679 169.65L36.4267 167.667L19.1449 133.134L18.5605 125.613L31.0736 120.642Z" fill="#CC5B06"/>
<path d="M26.6103 124.031C26.47 123.749 26.3439 123.456 26.2329 123.173C23.6608 116.921 28.4688 105.778 33.3045 101.099L31.0411 98.835C25.5843 104.427 20.1585 115.76 23.2404 124.302C23.3859 124.702 23.5552 125.092 23.7476 125.471L26.6103 124.031ZM21.545 124.472C20.111 120.773 16.6434 117.351 12.634 114.77C8.60342 112.227 4.03753 110.52 0 110.98L0.374734 114.15C3.16122 113.782 7.31786 115.156 10.9086 117.471C14.5285 119.749 17.577 122.968 18.5598 125.612C18.5709 125.645 18.585 125.677 18.6018 125.707V125.707L18.5907 125.715L21.6135 124.657C21.594 124.594 21.5712 124.533 21.545 124.472V124.472Z" fill="#48956B"/>
<path d="M21.7943 121.715C18.9737 114.512 11.7209 107.34 6.39462 104.701L6.38875 104.703L4.99805 107.577C9.35732 109.616 16.5407 116.749 18.7999 122.868C19.3796 124.361 19.6669 125.779 19.6201 127.002L22.8248 127.107C22.8803 125.315 22.4747 123.501 21.7943 121.715V121.715Z" fill="#48956B"/>
<path d="M21.1207 123.039C20.8162 120.959 20.272 118.922 19.4989 116.967C17.154 110.826 12.9396 104.531 9.92969 100.711L12.4627 98.7363C15.5921 102.752 19.947 109.196 22.4835 115.828C23.2447 117.792 23.8124 119.827 24.1785 121.902C23.1288 122.193 22.1058 122.574 21.1207 123.039V123.039Z" fill="#48956B"/>
<path d="M23.746 98.5892L20.7262 97.5322C18.1201 105.251 21.5558 114.682 22.7723 121.553L25.9205 120.964C24.5171 113.773 21.559 104.605 23.746 98.5892V98.5892Z" fill="#48956B"/>
<path d="M15.7569 136.601C19.9777 147.671 36.747 178.158 42.2691 176.048C45.8806 174.679 43.794 159.696 40.7385 146.41C37.4018 147.5 33.9272 149.19 31.5816 150.047C34.2549 147.692 37.2088 146.017 40.3319 144.648C39.9904 143.257 39.658 141.9 39.3084 140.577C39.4367 141.081 39.57 141.586 39.7007 142.103C36.1398 143.155 32.2989 145.061 29.7703 145.994C32.642 143.45 35.8398 141.705 39.229 140.273C39.007 139.448 38.7954 138.647 38.5824 137.863C34.8387 138.864 30.6539 140.937 27.9536 141.942C31.008 139.244 34.4164 137.436 38.0396 135.967C38.2067 136.535 38.3698 137.135 38.5447 137.733C38.1417 136.288 37.7389 134.918 37.3493 133.659C33.4649 134.577 28.9781 136.84 26.1297 137.886C29.3341 135.055 32.9106 133.212 36.7279 131.713C36.4719 130.904 36.2066 130.182 35.9602 129.51C31.9796 130.36 27.2672 132.745 24.3129 133.833C27.5881 130.943 31.27 129.081 35.1823 127.548C35.3799 128.011 35.5757 128.47 35.7693 128.971C35.2688 127.679 34.7508 126.512 34.211 125.436C30.2108 126.279 25.4739 128.693 22.5013 129.78C25.7259 126.933 29.3361 125.076 33.176 123.565C33.5413 124.148 33.8751 124.775 34.2096 125.43C30.0972 117.314 24.6852 115.304 19.8049 117.174C14.281 119.279 11.5283 125.528 15.7569 136.601ZM38.8511 166.26C40.3485 164.946 41.979 163.791 43.7162 162.815C43.7673 163.278 43.8228 163.734 43.8625 164.181C41.9749 164.965 40.2179 165.767 38.8511 166.26V166.26ZM37.0395 162.207C38.8731 160.607 40.8921 159.232 43.0533 158.114C43.1319 158.619 43.2123 159.13 43.2813 159.619C40.932 160.563 38.7018 161.593 37.0395 162.207V162.207ZM35.2171 158.156C37.3402 156.312 39.7025 154.763 42.2402 153.552C42.351 154.086 42.4434 154.624 42.5418 155.161C39.8098 156.185 37.1352 157.445 35.2171 158.156V158.156ZM33.3977 154.093C35.839 151.939 38.5102 150.357 41.3224 149.058C41.4446 149.62 41.5754 150.185 41.6885 150.755C38.6282 151.834 35.5421 153.314 33.3977 154.093V154.093Z" fill="#FC8006"/>
<path d="M140.361 138.036C140.192 137.959 137.83 139.532 137.481 139.686C136.406 140.157 135.285 140.512 134.135 140.746C131.828 141.218 129.448 141.207 127.145 140.714C125.349 140.325 121.443 139.261 124.815 137.848C127.11 136.894 129.565 136.383 132.049 136.343C134.911 136.284 137.75 136.862 140.361 138.036V138.036Z" fill="#48956B"/>
<path d="M122.203 138.375C124.017 134.622 129.571 131.127 133.479 130.168C134.099 131.279 134.604 132.449 134.986 133.662C130.382 132.984 125.075 135.235 123.064 139.612L122.203 138.375Z" fill="#48956B"/>
<path d="M99.415 141.207C95.6801 149.55 97.8892 163.243 107.002 167.323C113.539 170.25 123.858 165.806 129.1 160.696C134.1 155.822 137.177 147.217 130.992 142.016C128.757 140.137 125.863 139.272 123.32 137.838C121.231 136.66 119.369 135.09 117.2 134.067C109.996 130.669 102.547 134.211 99.415 141.207Z" fill="#E31F26"/>
<path opacity="0.57" d="M130.685 152.843C129.459 156.638 125.886 159.401 121.995 160.271C121.532 160.374 120.985 160.433 120.641 160.107C120.18 159.67 120.42 158.893 120.771 158.364C122.253 156.127 125.006 155.079 126.788 153.073C129.705 149.789 129.021 145.68 127.481 143.056C130.728 144.758 131.739 149.578 130.685 152.843Z" fill="#FE2D5D"/>
<path d="M106.853 125.669C104.265 123.247 99.1701 123.082 96.0894 123.557C92.3412 124.135 88.8055 125.642 85.3647 127.236C81.9 128.842 78.6196 130.633 75.6599 133.064C72.7844 135.425 73.3299 137.422 75.9318 140.09C77.498 141.695 79.4008 142.923 81.1697 144.302C84.8959 147.211 88.0377 150.798 90.4291 154.875C91.2172 156.221 91.9497 157.651 93.1453 158.652C94.341 159.653 96.1668 160.106 97.4663 159.244C99.3327 158.006 98.948 155.239 98.7171 153.011C98.203 147.806 99.743 142.605 103.009 138.518C104.153 137.101 105.49 135.845 106.578 134.385C107.667 132.925 108.514 131.187 108.467 129.367C108.467 128.673 108.324 127.986 108.046 127.35C107.768 126.713 107.362 126.141 106.853 125.669V125.669Z" fill="white"/>
<path d="M89.2036 163.877L104.159 160.162C100.836 155.21 101.24 140.505 109.284 132.294C108.423 131.795 107.676 131.121 107.09 130.316C103.738 134.067 99.5967 139.948 99.144 144.419C98.6219 140.469 97.8703 134.472 97.6066 130.65C96.2816 131.383 94.802 131.792 93.2887 131.844C91.8905 137.399 92.8392 146.038 94.3912 151.069C94.2616 150.805 94.0678 150.516 93.9123 150.241C91.1234 145.331 84.328 139.359 78.6036 137.98L77.9848 139.162C77.7336 140.7 77.4382 140.681 76.5332 142.022C82.5961 146.635 88.2521 156.186 89.2036 163.877Z" fill="#0A8657"/>
<path d="M66.1497 146.287C69.1393 148.636 73.9454 147.512 76.8855 143.765C77.9474 142.436 78.6536 140.859 78.9375 139.181C79.8017 138.914 80.6435 138.578 81.4548 138.178C84.6966 136.583 87.1572 134.135 88.6031 131.416C88.8413 131.6 89.0941 131.765 89.3589 131.908C90.8732 132.857 92.9985 133.224 95.2319 132.669C97.9799 131.987 100.033 130.169 100.622 128.163C101.294 128.424 101.988 128.625 102.695 128.764C103.78 128.954 104.887 128.991 105.982 128.872C106.263 131.243 108.745 133.282 111.989 133.61C115.595 133.975 118.728 132.081 119.004 129.38C119.27 126.751 116.704 124.331 113.237 123.873C113.36 123.57 113.46 123.258 113.534 122.939C114.298 118.762 110.69 114.602 105.477 113.642C105.179 113.589 104.893 113.584 104.601 113.558L104.576 113.314C103.423 108.672 97.1883 106.222 90.6413 107.848C88.2662 108.415 86.0571 109.531 84.1918 111.107C82.533 112.548 81.3867 114.274 80.9435 116.069C77.6463 115.588 74.281 116.142 71.3118 117.654C64.297 121.117 60.8823 128.521 63.6849 134.188C64.1024 135.005 64.6358 135.758 65.2685 136.422C63.1729 139.965 63.4566 144.172 66.1497 146.287Z" fill="#1AA671"/>
<path d="M108.397 125.304C108.813 125.008 109.179 124.646 109.479 124.233L109.851 123.708C111.131 121.325 110.079 118.247 107.532 116.728C107.861 116.844 108.179 116.988 108.483 117.157C111.066 118.578 112.269 121.388 111.175 123.44L110.844 123.903C110.234 124.662 109.36 125.162 108.397 125.304V125.304ZM98.0606 122.547C98.9996 121.915 99.7717 121.065 100.311 120.07C101.36 118.114 101.373 115.861 100.583 113.82C99.8414 111.914 98.4813 110.313 96.7208 109.272C98.9049 110.046 100.75 111.559 101.935 113.549C103.099 115.546 103.352 117.798 102.358 119.653C101.507 121.243 99.9287 122.228 98.0606 122.547ZM95.9626 130.734C96.505 130.347 96.9559 129.846 97.2835 129.266C97.7432 128.466 97.9386 127.542 97.8417 126.625C97.7364 125.663 97.3096 124.765 96.6305 124.076C96.3475 123.782 96.0262 123.528 95.6751 123.32C95.9465 123.407 96.211 123.514 96.466 123.641L96.9724 123.965C98.1766 124.788 98.8613 126.045 98.8567 127.306C98.8635 127.886 98.7179 128.458 98.4344 128.964C98.168 129.414 97.8106 129.804 97.385 130.109C96.9594 130.414 96.475 130.627 95.9626 130.734V130.734ZM71.1212 121.727C71.6764 121.331 72.2623 120.98 72.8733 120.678C75.6676 119.295 78.6462 119.083 81.1367 119.804C83.2378 120.428 84.9939 121.7 85.9357 123.61C86.0444 123.864 86.1359 124.125 86.2096 124.391C86.8632 126.333 86.729 128.454 85.8358 130.298C85.8568 128.835 85.5347 127.388 84.8954 126.072C82.4961 121.223 76.4029 119.35 71.1212 121.727ZM68.832 135.37C68.9787 135.126 69.1452 134.894 69.3298 134.677C70.9037 132.864 73.4232 132.577 74.9628 134.025C75.3373 134.39 75.6317 134.829 75.8271 135.314C76.0224 135.799 76.1146 136.32 76.0976 136.843C75.8481 136.225 75.4687 135.668 74.9851 135.21C74.5735 134.811 74.0864 134.498 73.5523 134.29C73.0182 134.081 72.4479 133.982 71.8748 133.997C71.3017 134.012 70.7374 134.141 70.2149 134.377C69.6924 134.613 69.2223 134.95 68.832 135.37V135.37Z" fill="#0A8657"/>
<path d="M133.922 153.511H22.0879V255.425H133.922V153.511Z" fill="url(#paint0_linear)"/>
<path d="M43.5117 164.485V164.478L43.5228 164.484L43.5117 164.485Z" fill="#A5071A"/>
<path d="M43.526 164.485L43.5234 164.484L43.526 164.483V164.485Z" fill="#A5071A"/>
<path d="M129.937 149.632L132.05 151.741L133.922 153.61H125.951L129.937 149.632Z" fill="#D9C6A5"/>
<path d="M122.458 149.632L126.444 153.61H118.473L122.458 149.632Z" fill="#D9C6A5"/>
<path d="M114.98 149.632L118.965 153.61H110.994L114.98 149.632Z" fill="#D9C6A5"/>
<path d="M107.499 149.632L111.485 153.61H103.514L107.499 149.632Z" fill="#D9C6A5"/>
<path d="M100.02 149.632L104.006 153.61H96.0352L100.02 149.632Z" fill="#D9C6A5"/>
<path d="M92.5422 149.632L96.5275 153.61H88.5566L92.5422 149.632Z" fill="#D9C6A5"/>
<path d="M85.0617 149.632L89.0473 153.61H81.0762L85.0617 149.632Z" fill="#D9C6A5"/>
<path d="M77.583 149.632L81.5685 153.61H73.5977L77.583 149.632Z" fill="#D9C6A5"/>
<path d="M70.1047 149.632L74.09 153.61H66.1191L70.1047 149.632Z" fill="#D9C6A5"/>
<path d="M62.6259 149.632L66.6115 153.61H58.6406L62.6259 149.632Z" fill="#D9C6A5"/>
<path d="M55.1457 149.632L59.131 153.61H51.1602L55.1457 149.632Z" fill="#D9C6A5"/>
<path d="M47.6672 149.632L51.6527 153.61H43.6816L47.6672 149.632Z" fill="#D9C6A5"/>
<path d="M44.1727 153.61H43.5293V152.968L44.1727 153.61Z" fill="#D9C6A5"/>
<path d="M40.1884 149.632L43.5306 152.968V153.61H36.2031L40.1884 149.632Z" fill="#D9C6A5"/>
<path d="M32.708 149.632L32.7789 149.703V153.61H28.7227L32.708 149.632Z" fill="#D9C6A5"/>
<path d="M36.6939 153.61H32.7793V149.703L36.6939 153.61Z" fill="#D9C6A5"/>
<path d="M25.2286 149.632L29.2146 153.61H22.0879V152.815L25.2286 149.632Z" fill="#D9C6A5"/>
<path d="M124.374 222.533C123.449 222.521 122.567 222.143 121.921 221.481C121.275 220.82 120.918 219.929 120.928 219.004V219.004C120.913 217.042 122.439 215.443 124.328 215.434L136.723 215.256C137.647 215.267 138.53 215.644 139.176 216.306C139.822 216.967 140.179 217.857 140.169 218.782V218.782C140.182 220.744 138.659 222.343 136.771 222.356L124.374 222.533Z" fill="#FE9592"/>
<path d="M124.992 216.478C123.313 216.478 121.939 217.645 121.939 219.072C121.939 220.499 123.313 221.667 124.992 221.667H125.234V216.478H124.992Z" fill="#FFABAB"/>
<path d="M123.294 229.641C122.369 229.63 121.487 229.251 120.841 228.59C120.195 227.928 119.838 227.037 119.848 226.112V226.112C119.832 224.15 121.359 222.551 123.247 222.543L135.643 222.364C136.567 222.375 137.449 222.753 138.096 223.414C138.742 224.075 139.099 224.966 139.089 225.89C139.101 227.852 137.579 229.452 135.691 229.464L123.294 229.641Z" fill="#FE9592"/>
<path d="M123.81 223.536C122.131 223.536 120.758 224.704 120.758 226.131C120.758 227.558 122.131 228.726 123.81 228.726H124.053V223.536H123.81Z" fill="#FFABAB"/>
<path d="M125.772 214.597C124.832 214.585 123.936 214.2 123.279 213.528C122.622 212.855 122.259 211.95 122.27 211.01V211.01C122.254 209.016 123.805 207.39 125.725 207.382L136.133 207.2C138.053 207.187 139.623 208.792 139.636 210.784C139.649 212.778 138.102 214.404 136.182 214.417L125.772 214.597Z" fill="#FE9592"/>
<path d="M126.294 208.39C124.588 208.39 123.191 209.576 123.191 211.027C123.191 212.477 124.588 213.664 126.294 213.664H126.54V208.39H126.294Z" fill="#FFABAB"/>
<path d="M124.552 235.972C123.716 235.961 122.917 235.619 122.333 235.02C121.749 234.422 121.425 233.616 121.435 232.779V232.779C121.424 232.365 121.495 231.953 121.644 231.567C121.793 231.18 122.017 230.827 122.302 230.527C122.588 230.227 122.93 229.986 123.309 229.819C123.688 229.651 124.096 229.56 124.51 229.55L133.773 229.389C134.61 229.399 135.408 229.74 135.992 230.338C136.577 230.936 136.9 231.742 136.891 232.578V232.578C136.911 233.415 136.599 234.225 136.023 234.831C135.446 235.437 134.653 235.79 133.817 235.811L124.552 235.972Z" fill="#FE9592"/>
<path d="M125.285 230.542C123.811 230.542 122.605 231.567 122.605 232.819C122.605 234.072 123.811 235.097 125.285 235.097H125.498V230.542H125.285Z" fill="#FFABAB"/>
<path d="M32.767 222.419C34.7277 222.43 36.331 220.793 36.3441 218.756C36.3601 216.719 34.7758 215.059 32.8151 215.051L19.9482 214.865C17.9876 214.852 16.3843 216.49 16.3712 218.526C16.358 220.562 17.9379 222.222 19.8987 222.235L32.767 222.419Z" fill="#FE9592"/>
<path d="M32.1265 216.134C33.8693 216.134 35.2952 217.346 35.2952 218.827C35.2952 220.309 33.8693 221.521 32.1265 221.521H31.875V216.134H32.1265Z" fill="#FFABAB"/>
<path d="M33.8881 229.799C35.8488 229.809 37.4521 228.173 37.4652 226.136C37.4813 224.099 35.897 222.439 33.9363 222.431L21.0694 222.245C19.1087 222.232 17.5054 223.87 17.4923 225.905C17.4791 227.942 19.0591 229.602 21.0198 229.615L33.8881 229.799Z" fill="#FE9592"/>
<path d="M33.3531 223.461C35.0958 223.461 36.5217 224.673 36.5217 226.154C36.5217 227.636 35.0958 228.848 33.3531 228.848H33.1016V223.461H33.3531Z" fill="#FFABAB"/>
<path d="M31.3168 214.182C33.3096 214.192 34.9393 212.529 34.9525 210.459C34.9688 208.389 33.3586 206.701 31.3657 206.692L20.5616 206.504C18.5688 206.491 16.9392 208.156 16.9259 210.224C16.9125 212.294 18.5183 213.982 20.5112 213.995L31.3168 214.182Z" fill="#FE9592"/>
<path d="M30.7732 207.739C32.5445 207.739 33.9938 208.971 33.9938 210.477C33.9938 211.982 32.5445 213.214 30.7732 213.214H30.5176V207.739H30.7732Z" fill="#FFABAB"/>
<path d="M32.5826 236.37C33.4509 236.358 34.2793 236.003 34.886 235.382C35.4927 234.761 35.8281 233.924 35.8186 233.056V233.056C35.8296 232.626 35.7557 232.198 35.6011 231.797C35.4465 231.396 35.2143 231.029 34.9178 230.718C34.6212 230.406 34.2662 230.156 33.873 229.982C33.4798 229.808 33.0561 229.714 32.6263 229.704L23.0103 229.536C22.1422 229.546 21.3138 229.901 20.707 230.522C20.1002 231.143 19.7648 231.979 19.7744 232.847C19.753 233.715 20.077 234.556 20.6753 235.186C21.2737 235.815 22.0974 236.181 22.9654 236.203L32.5826 236.37Z" fill="#FE9592"/>
<path d="M31.8223 230.733C33.3521 230.733 34.6038 231.797 34.6038 233.098C34.6038 234.398 33.3521 235.462 31.8223 235.462H31.6016V230.733H31.8223Z" fill="#FFABAB"/>
<path d="M75.7454 223.794C86.4002 223.794 95.0376 215.156 95.0376 204.501C95.0376 193.846 86.4002 185.209 75.7454 185.209C65.0906 185.209 56.4531 193.846 56.4531 204.501C56.4531 215.156 65.0906 223.794 75.7454 223.794Z" fill="white"/>
<path d="M74.5512 204.533V212.644H72.7468C71.0724 212.644 69.4666 211.978 68.2827 210.793C67.0987 209.608 66.4336 208.002 66.4336 206.326V204.533H74.5512Z" fill="#0075FA"/>
<path d="M83.5559 204.533V206.339C83.5559 208.014 82.8908 209.621 81.7068 210.806C80.5229 211.991 78.9171 212.656 77.2428 212.656H75.4512V204.533H83.5559Z" fill="#0075FA"/>
<path d="M75.4512 203.641V201.835C75.4512 200.16 76.1163 198.553 77.3003 197.368C78.4842 196.183 80.09 195.518 81.7643 195.518H83.5687V203.628L75.4512 203.641Z" fill="#0075FA"/>
<defs>
<linearGradient id="paint0_linear" x1="22.0879" y1="153.511" x2="123.249" y2="268.311" gradientUnits="userSpaceOnUse">
<stop stop-color="#66ADFF"/>
<stop offset="1" stop-color="#0077FF"/>
</linearGradient>
</defs>
</svg>
