<svg width="20" height="30" viewBox="0 0 20 30" fill="none" xmlns="http://www.w3.org/2000/svg">
<path fill-rule="evenodd" clip-rule="evenodd" d="M5.08712 2.12397C8.18233 0.325514 11.9869 0.356948 15.053 2.20631C18.0891 4.09334 19.9343 7.46113 19.9171 11.0839C19.8464 14.683 17.8678 18.066 15.3946 20.6813C13.9671 22.1976 12.3702 23.5384 10.6365 24.6763C10.458 24.7795 10.2624 24.8486 10.0594 24.8802C9.86408 24.8719 9.67385 24.8142 9.50589 24.7123C6.85909 23.0025 4.53704 20.8201 2.65145 18.27C1.07365 16.1413 0.177252 13.5696 0.083986 10.904C0.0819378 7.27422 1.9919 3.92242 5.08712 2.12397ZM6.87622 12.4058C7.39687 13.6894 8.62583 14.5266 9.98926 14.5266C10.8825 14.5331 11.7411 14.1753 12.3738 13.533C13.0065 12.8908 13.3608 12.0174 13.3576 11.1076C13.3624 9.71874 12.5447 8.46396 11.2864 7.92912C10.0282 7.39427 8.57747 7.68485 7.61169 8.66518C6.64591 9.64551 6.35556 11.1222 6.87622 12.4058Z" fill="#374B58"/>
<ellipse opacity="0.4" cx="10.0003" cy="27.7135" rx="7.08333" ry="1.41667" fill="#8897A0"/>
</svg>
