<svg width="218" height="308" viewBox="0 0 218 308" fill="none" xmlns="http://www.w3.org/2000/svg">
<path d="M148.885 160.574H187.866V228.502C187.866 235.302 185.165 241.825 180.356 246.633C175.547 251.442 169.025 254.144 162.224 254.144H148.885V160.574Z" fill="#1765CF"/>
<path d="M71.0881 254.142H57.7491C50.9484 254.142 44.4262 251.441 39.6174 246.632C34.8085 241.823 32.107 235.301 32.107 228.5L32.107 160.573H71.0881L71.0881 254.142Z" fill="#1765CF"/>
<path d="M98.3787 104.531C98.3787 104.531 43.6807 115.893 35.1915 136.217C26.7023 156.541 34.9944 226.391 43.3477 242.326C55.8187 266.116 80.5285 249.028 80.5285 249.028L120.996 121.794L98.3787 104.531Z" fill="#1765CF"/>
<path d="M120.93 104.531C120.93 104.531 175.628 115.893 184.117 136.217C192.606 156.541 185.605 224.047 173.852 243.348C160.017 266.071 138.78 249.028 138.78 249.028L98.3123 121.794L120.93 104.531Z" fill="#1765CF"/>
<path d="M121.38 116.844C119.439 118.082 116.778 118.966 115.073 119.528C109.122 121.489 102.5 121.506 96.6086 119.316C94.8795 118.673 93.1791 117.831 91.8916 116.51C90.1206 114.693 90.1741 112.972 90.174 110.664C90.1739 108.649 90.1739 106.634 90.174 104.618V87.2244C90.174 87.2244 123.678 87.2244 123.678 87.2355V105.922C123.678 108.34 124.704 113.172 123.258 115.185C122.74 115.85 122.103 116.412 121.38 116.844ZM133.478 64.8494C134.297 63.9512 135.145 63.0307 136.245 62.5136C137.345 61.9965 138.772 61.9776 139.672 62.7942C140.768 63.7876 140.676 65.5306 140.288 66.9576C139.741 68.9299 138.806 70.7734 137.539 72.3806C136.272 73.9877 134.697 75.3264 132.907 76.3186C132.814 76.1555 132.722 75.9925 132.629 75.8294L133.478 64.8494Z" fill="#D79774"/>
<path d="M130.622 31.151C126.698 28.5155 122.384 28.9428 117.967 28.8974L107.102 28.7856C107.027 28.7849 106.952 28.7841 106.876 28.7833C103.255 28.7461 99.6333 28.7088 96.0117 28.6716C91.5941 28.6261 87.2898 28.1102 83.3125 30.6644C79.4709 33.1314 76.8709 37.1617 76.8216 41.9879C76.7719 46.8357 76.7221 51.6835 76.6719 56.5313L76.4144 78.8383C76.3498 85.1138 80.2035 91.146 84.6805 95.1222C92.2456 101.841 98.7548 104.789 106.065 104.921L106.065 104.927C106.103 104.927 106.14 104.925 106.178 104.925C106.215 104.925 106.253 104.928 106.29 104.929L106.29 104.923C113.602 104.942 120.78 102.127 128.482 95.5656C133.039 91.6823 136.407 85.7315 136.472 79.456L136.729 57.149C136.779 52.3013 136.829 47.4535 136.879 42.6057C136.929 37.7795 134.412 33.6965 130.622 31.151Z" fill="#D79774"/>
<path d="M70.653 46.0689C70.6546 45.7746 70.6583 45.4803 70.6642 45.1861C70.7323 41.7949 71.1158 38.2923 72.701 35.3636C73.4962 33.8632 74.6658 32.594 76.0963 31.6792C77.4846 30.8203 79.0004 30.9682 80.3421 30.3844C79.4886 26.3596 80.6216 22.418 83.7898 19.8898C86.8693 17.4324 90.8814 16.8132 94.7046 16.8299C105.969 16.8791 116.938 21.7283 128.188 21.0924C130.551 20.9589 133.175 20.4122 134.546 18.323C138.763 25.1619 141.049 33.3181 141.3 41.525C141.43 45.6317 141.039 49.7383 140.135 53.7464C139.659 55.7294 139.074 57.6847 138.384 59.6037C137.94 60.8906 136.63 64.1532 136.643 65.5509C136.582 58.8913 136.019 50.5377 134.418 44.1098C127.148 48.7246 116.399 47.8633 108.268 45.3693C100.977 43.1332 89.5837 33.0987 89.6072 33.0816C85.8006 35.8587 83.4858 37.373 81.6001 41.9511C79.9649 45.9212 76.5334 69.8383 76.6841 73.445C75.1113 62.0475 70.6048 54.8847 70.653 46.0689Z" fill="#03277D"/>
<path d="M78.429 64.2847C77.6287 63.3699 76.7991 62.4322 75.71 61.8925C74.6209 61.3529 73.1949 61.3047 72.2779 62.1025C71.1624 63.0732 71.2181 64.8178 71.5765 66.2524C72.0832 68.2355 72.9796 70.0978 74.2137 71.7308C75.4477 73.3637 76.9946 74.7345 78.7641 75.7632C78.8598 75.6021 78.9556 75.441 79.0513 75.2799L78.429 64.2847Z" fill="#D79774"/>
<path d="M80.4039 45.0825L79.1004 70.5086C79.1004 70.5086 78.034 63.935 75.71 61.8926L80.4039 45.0825ZM96.6125 66.6358C96.5994 67.9133 95.732 68.9401 94.6751 68.9293C93.6183 68.9184 92.7722 67.8739 92.7853 66.5964C92.7985 65.3189 93.6659 64.2921 94.7227 64.3029C95.7796 64.3138 96.6256 65.3583 96.6125 66.6358Z" fill="#03277D"/>
<path d="M124.446 66.9219C124.459 65.6444 123.613 64.6 122.556 64.5891C121.5 64.5782 120.632 65.605 120.619 66.8825C120.606 68.16 121.452 69.2044 122.509 69.2153C123.566 69.2261 124.433 68.1994 124.446 66.9219Z" fill="#03277D"/>
<path d="M86.9203 59.9224C87.8492 59.0411 88.9425 58.3513 90.1379 57.8924C92.5525 56.9362 95.231 56.8831 97.6815 57.7429C98.8809 58.1507 99.9877 58.7918 100.938 59.6294C101.022 59.705 101.076 59.8081 101.091 59.9201C101.105 60.0322 101.079 60.1457 101.017 60.2402C100.955 60.3346 100.861 60.4038 100.753 60.435C100.644 60.4663 100.528 60.4576 100.425 60.4106L100.419 60.4077C99.3995 59.9313 98.33 59.5694 97.2304 59.3285C95.0849 58.8664 92.8558 58.9757 90.7658 59.6455C89.7142 59.9875 88.703 60.443 87.75 61.0038L87.7411 61.009C87.5961 61.0931 87.4254 61.1212 87.2612 61.0881C87.0969 61.0549 86.9505 60.9628 86.8495 60.8291C86.7485 60.6954 86.7 60.5294 86.713 60.3623C86.7261 60.1953 86.7998 60.0388 86.9203 59.9224ZM116.076 59.7926C117.054 58.9842 118.181 58.3754 119.393 58.0005C120.614 57.6118 121.895 57.4432 123.175 57.5025C124.454 57.5606 125.712 57.8523 126.887 58.3632C128.051 58.855 129.102 59.5795 129.976 60.4921C130.047 60.5672 130.088 60.665 130.093 60.7679C130.098 60.8707 130.066 60.972 130.003 61.0536C129.94 61.1351 129.851 61.1915 129.75 61.2128C129.649 61.234 129.544 61.2186 129.453 61.1694L129.448 61.1665C128.46 60.6193 127.418 60.1763 126.339 59.8446C125.285 59.5289 124.196 59.3448 123.097 59.2965C122 59.2559 120.901 59.3575 119.83 59.5988C118.739 59.8502 117.68 60.222 116.672 60.7075L116.666 60.7104C116.545 60.7676 116.407 60.7789 116.279 60.7421C116.15 60.7054 116.04 60.6231 115.967 60.5107C115.895 60.3982 115.866 60.2633 115.886 60.1312C115.906 59.999 115.974 59.8787 116.076 59.7926Z" fill="#03277D"/>
<path d="M131.32 75.6911L131.14 72.7366C131.14 72.7366 114.516 70.4424 106.798 70.4424C99.4401 70.4424 83.0631 72.7366 83.0631 72.7366L82.7112 75.6677C85.563 75.289 99.824 73.4417 106.617 73.4417C113.907 73.4417 128.913 75.3748 131.32 75.6911Z" fill="#6EAEF9"/>
<path d="M106.729 105.846C122.218 106.819 132.287 91.5924 132.287 91.5924L131.32 75.697C128.913 75.3806 113.908 73.4475 106.617 73.4475C99.8241 73.4475 85.5631 75.2948 82.7113 75.6735L80.8584 91.1044C82.3087 92.9095 91.2393 104.873 106.729 105.846Z" fill="#4F94F9"/>
<g opacity="0.57">
<path opacity="0.57" d="M87.8746 78.6579C90.8718 77.8249 93.9249 77.2083 97.0105 76.8129L99.33 76.5421L101.659 76.3515C102.436 76.3084 103.214 76.2603 103.992 76.2282L106.329 76.1794C109.446 76.155 112.561 76.3338 115.654 76.7146C118.745 77.0868 121.802 77.699 124.798 78.5455C124.839 78.5574 124.874 78.5845 124.897 78.6214C124.919 78.6583 124.927 78.7022 124.918 78.7445C124.909 78.7868 124.885 78.8242 124.85 78.8494C124.815 78.8747 124.772 78.8858 124.729 78.8806C121.656 78.5108 118.597 78.1754 115.532 77.9576C112.468 77.7308 109.402 77.6158 106.333 77.6126L104.032 77.6365C103.265 77.6676 102.498 77.6828 101.731 77.7029L99.431 77.8191L97.1316 77.9719C94.0664 78.2072 91.0089 78.5694 87.9446 78.9926C87.9016 78.9985 87.8579 78.9879 87.8224 78.9629C87.7869 78.9379 87.7622 78.9004 87.7533 78.8579C87.7444 78.8154 87.752 78.7711 87.7745 78.734C87.797 78.6968 87.8328 78.6696 87.8746 78.6579ZM87.9401 81.7041C91.0001 82.1056 94.0783 82.3958 97.1531 82.6327C100.23 82.8599 103.31 83.0085 106.39 83.0398C109.469 83.0704 112.549 82.9855 115.613 82.7272C118.681 82.484 121.724 81.9944 124.714 81.2632C124.757 81.2522 124.802 81.2581 124.84 81.2798C124.879 81.3014 124.907 81.3371 124.92 81.3793C124.933 81.4215 124.929 81.467 124.909 81.5064C124.889 81.5457 124.855 81.5758 124.813 81.5903C123.337 82.0895 121.834 82.5021 120.31 82.8259C118.785 83.1473 117.244 83.3787 115.697 83.5637C114.151 83.749 112.597 83.8509 111.043 83.9324C109.489 83.997 107.934 84.0206 106.379 84.0033C103.271 83.959 100.171 83.774 97.0798 83.4482C93.991 83.1353 90.9201 82.6654 87.8791 82.0406C87.8359 82.0315 87.7979 82.0061 87.773 81.9696C87.7481 81.9332 87.7382 81.8885 87.7455 81.8449C87.7528 81.8014 87.7767 81.7624 87.8121 81.736C87.8476 81.7097 87.8918 81.698 87.9356 81.7036L87.9401 81.7041ZM87.7987 84.9824C90.7226 86.3937 93.8091 87.4399 96.9886 88.0974C100.148 88.7811 103.372 89.1211 106.604 89.1116C108.206 89.0801 109.845 88.9967 111.45 88.8419C113.057 88.6998 114.655 88.4625 116.235 88.1313L116.825 88.0058L117.411 87.8583C117.803 87.766 118.188 87.6521 118.574 87.5368C119.348 87.3156 120.109 87.0494 120.86 86.7572C122.37 86.166 123.828 85.4512 125.219 84.6202C125.257 84.598 125.302 84.591 125.344 84.6007C125.387 84.6103 125.424 84.6358 125.448 84.672C125.473 84.7083 125.482 84.7524 125.475 84.7955C125.468 84.8385 125.445 84.8773 125.41 84.9037C122.745 86.901 119.702 88.3344 116.464 89.1165C114.853 89.5149 113.216 89.8019 111.565 89.9756C110.742 90.0617 109.918 90.1274 109.094 90.1808L107.86 90.2476L106.613 90.2742C103.292 90.2769 99.9847 89.8616 96.7681 89.0381C93.5666 88.2185 90.4339 87.0305 87.6315 85.2807C87.6125 85.2688 87.5959 85.2533 87.5829 85.235C87.5698 85.2167 87.5605 85.196 87.5554 85.1741C87.5504 85.1522 87.5497 85.1296 87.5534 85.1074C87.5571 85.0852 87.5651 85.064 87.577 85.045C87.5998 85.0091 87.635 84.9829 87.6759 84.9714C87.7168 84.9598 87.7605 84.9637 87.7987 84.9824Z" fill="#1765CF"/>
</g>
<path d="M123.213 211.939C125.333 213.057 127.701 213.793 129.886 214.286C126.772 211.685 124.87 208.587 123.366 205.14C123.51 202.652 123.754 199.988 124.082 197.169C126.795 199.213 130.347 200.39 133.522 201.116C129.301 197.661 127.131 193.41 125.289 188.647C125.596 186.824 125.924 184.966 126.287 183.054C129.259 185.629 133.435 187.083 137.157 187.952C132.501 184.204 130.154 179.598 128.119 174.424C128.479 172.836 128.859 171.238 129.265 169.61C132.417 172.315 136.851 173.854 140.787 174.779C136.055 171.036 133.561 166.494 131.433 161.413C131.873 159.837 132.339 158.243 132.819 156.639C136.108 159.172 140.499 160.678 144.417 161.609C139.889 158.082 137.279 153.889 135.136 149.227C135.698 147.491 136.3 145.744 136.903 143.984C140.22 146.176 144.339 147.544 148.046 148.438C143.932 145.269 141.305 141.606 139.197 137.559C140.009 135.376 140.842 133.232 141.68 131.12C144.981 133.733 149.453 135.27 153.438 136.218C149.093 132.835 146.526 128.839 144.43 124.41C145.279 122.425 146.126 120.469 146.981 118.564C150.146 121.439 154.756 123.045 158.822 123.998C154.511 120.593 152.054 116.529 150.041 111.994C150.965 110.093 151.887 108.24 152.809 106.435C155.793 109.311 160.27 110.866 164.214 111.779C160.189 108.549 157.895 104.676 156.029 100.357C157.099 98.4287 158.158 96.5722 159.205 94.7879C161.999 97.3436 166.023 98.7443 169.591 99.5592C166.129 96.7287 164.046 93.3508 162.394 89.5946C163.729 87.5151 165.037 85.5522 166.317 83.7619C168.831 85.6259 172.072 86.6878 174.982 87.3393C172.377 85.165 170.625 82.6451 169.245 79.8635C175.128 72.436 180.148 68.6548 183.217 69.7493C191.402 72.6582 177.135 107.017 161.797 150.2C146.457 193.389 135.858 229.05 127.668 226.139C124.872 225.145 123.366 219.999 123.213 211.939Z" fill="#FD9F02"/>
<path d="M166.317 83.7644C167.314 82.3743 168.293 81.0702 169.245 79.866C170.625 82.6475 172.377 85.1674 174.982 87.3417C172.072 86.6902 168.831 85.6284 166.317 83.7644ZM169.591 99.5616C166.023 98.7467 161.999 97.346 159.205 94.7903C160.28 92.9748 161.343 91.2437 162.394 89.597C164.046 93.3533 166.129 96.7311 169.591 99.5616ZM164.214 111.782C160.27 110.868 155.793 109.313 152.809 106.438C153.889 104.342 154.963 102.316 156.03 100.36C157.895 104.679 160.189 108.552 164.214 111.782ZM158.823 124C154.756 123.048 150.146 121.441 146.981 118.567C147.996 116.321 149.016 114.131 150.041 111.997C152.054 116.532 154.511 120.596 158.823 124ZM141.68 131.122C142.579 128.839 143.496 126.602 144.43 124.413C146.526 128.841 149.093 132.838 153.438 136.22C149.453 135.272 144.981 133.736 141.68 131.122ZM129.887 214.289C127.702 213.796 125.333 213.06 123.214 211.942C123.174 209.865 123.225 207.582 123.366 205.143C124.87 208.589 126.772 211.687 129.887 214.289ZM133.522 201.118C130.347 200.393 126.796 199.216 124.082 197.172C124.403 194.469 124.801 191.622 125.289 188.65C127.131 193.412 129.301 197.663 133.522 201.118ZM137.157 187.954C133.435 187.085 129.259 185.632 126.287 183.057C126.825 180.269 127.436 177.392 128.119 174.427C130.155 179.601 132.501 184.207 137.157 187.954ZM140.788 174.782C136.851 173.856 132.418 172.317 129.265 169.612C129.935 166.926 130.658 164.194 131.433 161.416C133.561 166.496 136.055 171.038 140.788 174.782ZM132.82 156.641C133.548 154.198 134.32 151.727 135.136 149.229C137.279 153.892 139.889 158.085 144.417 161.611C140.499 160.68 136.108 159.174 132.82 156.641ZM136.903 143.987C137.172 143.205 137.435 142.429 137.711 141.649C138.201 140.275 138.702 138.915 139.197 137.561C141.305 141.609 143.933 145.271 148.046 148.44C144.339 147.547 140.22 146.178 136.903 143.987Z" fill="#CE7C05"/>
<path d="M119.977 129.374C119.971 126.14 124.911 116.848 126.745 116.635L138.838 116.587C140.683 116.795 145.698 126.044 145.708 129.284L145.778 148.953L145.88 176.796C145.886 178.988 143.725 180.774 141.068 180.78L124.976 180.838C122.329 180.855 120.158 179.074 120.154 176.892L120.046 149.049L119.977 129.374Z" fill="white"/>
<path d="M118.299 127.968L118.47 176.646C118.48 179.978 121.528 182.666 125.27 182.655L141.33 182.597C145.078 182.586 148.104 179.87 148.093 176.534L147.917 127.867C147.907 124.536 142.832 112.87 139.084 112.887L127.023 112.928C123.271 112.946 118.288 124.637 118.299 127.968ZM120.966 129.412C120.955 126.274 125.623 117.265 127.355 117.056L138.774 117.019C140.518 117.217 145.249 126.187 145.259 129.32L145.33 148.396L145.426 175.395C145.43 177.513 143.394 179.245 140.886 179.25L125.687 179.309C123.19 179.319 121.137 177.592 121.132 175.481L121.03 148.481L120.966 129.412Z" fill="#CDDBFE"/>
<path d="M122.549 109.949L122.534 106.046C122.532 105.624 122.613 105.205 122.773 104.814C122.934 104.423 123.17 104.067 123.468 103.768C123.766 103.468 124.12 103.231 124.51 103.068C124.9 102.906 125.318 102.822 125.741 102.822L139.924 102.768C140.347 102.765 140.766 102.846 141.157 103.006C141.549 103.165 141.905 103.401 142.206 103.698C142.506 103.995 142.745 104.349 142.909 104.739C143.072 105.129 143.157 105.547 143.159 105.97L143.17 109.879C143.166 110.191 143.117 110.501 143.024 110.799H122.679C122.597 110.522 122.554 110.236 122.549 109.949Z" fill="#4F94F9"/>
<path d="M143.024 110.797C142.832 111.462 142.429 112.048 141.876 112.465C141.323 112.883 140.649 113.11 139.956 113.112L125.783 113.159C125.078 113.161 124.392 112.931 123.831 112.503C123.27 112.076 122.865 111.477 122.679 110.797H143.024Z" fill="#1765CF"/>
<path d="M78.3358 107.343C77.4249 105.208 76.5447 103.328 75.0269 99.7203L81.9868 97.0896C83.2358 100.799 83.8181 102.792 84.5479 104.995L78.3358 107.343Z" fill="#FC8006"/>
<path d="M83.348 126.838C82.0365 134.631 79.3931 132.992 85.6267 149.484C91.8616 165.98 97.4927 180.878 97.4927 180.878L118.774 172.834C118.774 172.834 113.142 157.936 106.908 141.441C100.674 124.948 99.77 127.928 93.636 122.949C90.1612 120.134 86.4003 110.707 84.4882 104.907L78.2761 107.255C80.6773 112.871 84.0896 122.429 83.348 126.838ZM85.8487 142.388L102.045 136.266C102.748 137.9 103.548 139.896 104.479 142.359L110.2 157.495L93.7742 163.703L88.0531 148.567C87.1224 146.105 86.4048 144.077 85.8487 142.388Z" fill="#03277D"/>
<path d="M85.8484 142.386L102.045 136.264C102.747 137.898 103.548 139.894 104.479 142.356L110.2 157.493L93.7739 163.701L88.0529 148.565C87.1221 146.103 86.4045 144.075 85.8484 142.386Z" fill="white"/>
<path d="M70.4569 119.552C69.0733 121.588 67.8743 123.743 66.8741 125.992C66.4882 126.86 66.1343 127.736 65.8124 128.619C65.307 130.004 64.8781 131.415 64.5276 132.847C64.2964 133.777 64.0992 134.713 63.9359 135.657C63.6158 137.49 63.4216 139.344 63.3548 141.204C63.3147 142.239 63.3144 143.271 63.3538 144.302C63.4378 146.548 63.7048 148.785 64.1522 150.988C64.379 152.12 64.6539 153.24 64.9769 154.346C65.6894 156.807 66.6308 159.197 67.7886 161.482C68.2908 162.479 68.8371 163.459 69.4275 164.421C70.9461 166.898 72.7236 169.208 74.7301 171.31C75.4491 172.066 76.2032 172.798 76.9922 173.506C77.7825 174.219 78.6062 174.906 79.4633 175.567C80.6066 176.449 81.7951 177.27 83.0239 178.028C83.941 178.592 84.8732 179.118 85.8208 179.606C87.6425 180.545 89.5328 181.344 91.4756 181.997C92.3904 182.308 93.3133 182.585 94.2443 182.825C96.7362 183.476 99.2838 183.891 101.853 184.064C103.047 184.146 104.239 184.176 105.432 184.152C107.234 184.121 109.031 183.971 110.813 183.704C111.922 183.54 113.022 183.33 114.114 183.074C116.176 182.595 118.197 181.957 120.161 181.168C121.156 180.772 122.132 180.334 123.096 179.859C125.564 178.636 127.902 177.169 130.076 175.479C130.914 174.831 131.729 174.146 132.52 173.425C133.72 172.334 134.855 171.174 135.918 169.95L70.4569 119.552Z" fill="#48956B"/>
<path d="M64.1522 150.985C64.379 152.117 64.6539 153.236 64.9769 154.343C65.031 154.344 65.0855 154.35 65.1401 154.356C65.797 154.44 66.5911 154.798 67.0293 154.303C67.1601 154.154 67.2203 153.954 67.3534 153.807C67.5739 153.562 67.9331 153.518 68.2611 153.49C69.363 153.387 70.4652 153.287 71.5678 153.189C71.5079 153.191 71.448 153.192 71.3898 153.191L71.8312 150.573C71.5344 150.065 70.8494 149.903 70.274 150.026C69.6965 150.147 69.1978 150.488 68.6947 150.793C68.1893 151.095 67.6354 151.375 67.0461 151.35C66.5689 151.329 66.1298 151.111 65.6679 150.994C65.1706 150.871 64.651 150.868 64.1522 150.985ZM102.514 178.283C102.479 178.872 102.676 179.442 102.835 180.009C102.994 180.576 103.115 181.186 102.933 181.745C102.786 182.199 102.458 182.566 102.225 182.978C102.036 183.313 101.91 183.68 101.853 184.06C103.047 184.143 104.239 184.172 105.432 184.149C105.705 183.606 106.094 183.031 105.775 182.546C105.668 182.382 105.49 182.269 105.384 182.102C105.207 181.823 105.26 181.466 105.318 181.142C105.515 180.053 105.712 178.964 105.909 177.875C105.893 177.933 105.878 177.99 105.862 178.048L103.457 176.928C102.887 177.077 102.549 177.695 102.514 178.283ZM110.303 177.032C110.373 177.618 110.668 178.147 110.924 178.675C111.182 179.204 111.411 179.781 111.334 180.367C111.27 180.837 111.015 181.257 110.857 181.706C110.636 182.35 110.62 183.047 110.813 183.7C111.922 183.536 113.022 183.327 114.114 183.071C114.104 182.89 114.118 182.709 114.155 182.531C114.299 181.884 114.728 181.127 114.273 180.646C114.135 180.501 113.943 180.422 113.807 180.279C113.587 180.037 113.571 179.674 113.572 179.347C113.57 178.238 113.569 177.131 113.57 176.026C113.565 176.084 113.558 176.145 113.555 176.206L110.987 175.53C110.455 175.782 110.233 176.45 110.303 177.032ZM118.336 175.595C118.521 176.156 118.917 176.613 119.275 177.08C119.633 177.548 119.973 178.068 120.013 178.655C120.058 179.31 119.916 179.919 120.031 180.588C120.064 180.782 120.108 180.975 120.161 181.164C121.156 180.768 122.132 180.331 123.096 179.855C123.043 179.371 123.05 178.856 122.856 178.429C122.701 178.083 122.391 177.833 122.182 177.515C121.848 177.007 121.854 176.441 121.749 175.868C121.633 175.232 121.465 174.591 121.334 173.955C121.342 174.016 121.349 174.073 121.356 174.134L118.705 173.987C118.235 174.34 118.151 175.038 118.336 175.595ZM67.7886 161.479C68.2908 162.476 68.8371 163.455 69.4275 164.417C70.3736 163.975 71.529 163.785 72.3576 163.13C72.7391 162.83 73.0391 162.441 73.4183 162.139C73.7975 161.837 74.3041 161.628 74.7655 161.774L73.193 157.913C72.7386 157.706 72.1861 157.946 71.8596 158.322C71.5348 158.696 71.3732 159.182 71.1771 159.641C70.9828 160.098 70.7255 160.565 70.2916 160.809C69.5766 161.211 68.5949 160.895 67.9239 161.367C67.876 161.401 67.8307 161.438 67.7886 161.479ZM126.608 170.368C126.545 170.67 126.892 170.874 127.153 171.041C128.479 171.884 128.542 173.836 129.59 175.012C129.742 175.177 129.904 175.332 130.076 175.476C130.914 174.828 131.729 174.143 132.52 173.422C132.224 173.289 131.969 173.077 131.784 172.81C131.34 172.121 131.596 171.122 131.084 170.479C130.732 170.042 130.134 169.914 129.608 169.718C129.083 169.522 128.525 169.121 128.543 168.559C127.978 169.051 127.416 169.543 126.856 170.035C126.739 170.116 126.652 170.233 126.608 170.368ZM92.4622 175.988C92.4492 176.486 92.6344 176.963 92.7759 177.438C92.918 177.918 93.0157 178.441 92.8369 178.906C92.5396 179.67 91.5842 180.053 91.369 180.844C91.2949 181.229 91.3319 181.628 91.4756 181.993C92.3904 182.305 93.3133 182.581 94.2443 182.822C94.5878 181.644 95.6404 180.621 95.9096 179.378C96.0106 178.904 95.995 178.408 96.0942 177.936C96.1952 177.462 96.4504 176.979 96.9001 176.795L93.226 174.824C92.7471 174.956 92.4734 175.491 92.4622 175.988ZM76.0281 168.428C75.7467 168.817 75.6969 169.32 75.5631 169.78C75.3904 170.339 75.1071 170.858 74.7301 171.306C75.4491 172.063 76.2032 172.795 76.9922 173.503C77.3649 173.185 77.6987 172.824 77.9865 172.427C78.2392 171.984 78.4649 171.525 78.6624 171.055C79.1058 170.17 79.7746 169.417 80.6015 168.872L78.5369 166.295C78.5247 166.868 77.9898 167.284 77.4709 167.529C76.9521 167.773 76.3644 167.964 76.0281 168.428ZM84.7723 174.649C84.4496 174.888 84.0393 175.022 83.7924 175.338C83.4722 175.748 83.531 176.325 83.4624 176.844C83.4051 177.265 83.2554 177.668 83.024 178.025C83.941 178.589 84.8732 179.115 85.8208 179.602C85.9217 179.175 85.9685 178.737 85.9603 178.298C85.9514 177.79 85.8759 177.262 86.0468 176.783C86.2712 176.151 86.867 175.742 87.3335 175.257C87.8 174.773 88.1582 174.016 87.7984 173.451L85.7994 172.161C85.6848 173.078 85.5141 174.096 84.7723 174.649ZM66.8741 125.988C66.4882 126.856 66.1343 127.732 65.8124 128.616C65.9875 128.74 66.1709 128.853 66.3615 128.952C67.4066 129.48 68.6429 129.342 69.8078 129.413C70.755 129.474 71.6871 129.681 72.5707 130.027C73.2954 130.309 74.0754 131.072 74.7897 131.254C75.72 131.489 75.6385 131.248 75.9221 130.374C76.0272 130.05 76.232 127.883 76.4875 127.787C75.6293 128.102 74.6668 127.908 73.8061 127.598C72.9453 127.288 72.1122 126.867 71.2094 126.719C70.0954 126.54 68.9208 126.792 67.8471 126.452C67.5048 126.339 67.1779 126.183 66.8741 125.988ZM64.3779 133.74C64.1467 134.67 63.9495 135.606 63.7863 136.55C64.7097 136.714 65.6962 136.532 66.6509 136.495C67.5985 136.456 68.5462 136.567 69.4594 136.823C70.2081 137.031 71.0647 137.711 71.7909 137.82C72.7404 137.96 72.6373 137.728 72.8312 136.832C72.9021 136.5 72.8856 134.318 73.1339 134.199C72.3113 134.601 71.3319 134.504 70.4426 134.282C69.5557 134.062 68.6855 133.726 67.7733 133.671C66.6444 133.605 65.5048 133.974 64.3993 133.746C64.3929 133.744 64.3843 133.741 64.3779 133.74ZM63.3548 141.201C63.3147 142.235 63.3144 143.268 63.3538 144.298C63.6158 144.307 63.877 144.332 64.1359 144.373C65.0378 144.513 65.9356 144.771 66.8517 144.741C67.9785 144.705 69.0805 144.233 70.2025 144.36C71.0202 144.456 71.7641 144.859 72.5285 145.161C72.8157 145.31 73.1479 145.349 73.4617 145.269C74.0043 145.066 74.0748 144.328 73.9634 143.761C73.8539 143.193 73.6618 142.56 73.9747 142.073C73.567 142.345 73.0215 142.307 72.5556 142.157C72.0873 142.006 71.6546 141.757 71.1825 141.625C70.0595 141.305 68.8705 141.676 67.7124 141.827C66.772 141.949 65.8184 141.924 64.8857 141.753C64.3605 141.613 63.8483 141.428 63.3548 141.201Z" fill="#70BB92"/>
<path d="M74.4006 122.584C69.2821 130.263 67.27 139.599 68.7708 148.704C70.2717 157.81 75.1737 166.006 82.4859 171.636C89.7981 177.266 98.9751 179.91 108.162 179.034C117.349 178.157 125.86 173.825 131.975 166.913L130.826 166.028L75.5523 123.472L74.4006 122.584Z" fill="white"/>
<path d="M75.5526 123.472L75.5053 123.542C70.6689 130.882 68.774 139.773 70.1978 148.447C71.6216 157.121 76.2596 164.94 83.1886 170.348L83.3697 170.489C90.3663 175.876 99.1416 178.416 107.934 177.6C116.726 176.785 124.884 172.673 130.77 166.091L130.826 166.028L75.5526 123.472Z" fill="#FE9592"/>
<path d="M76.4663 124.181C71.7689 131.31 69.9424 139.953 71.3536 148.374C72.7649 156.794 77.3093 164.37 84.0746 169.578C90.8399 174.787 99.3251 177.243 107.827 176.455C116.328 175.666 124.217 171.691 129.908 165.326L128.922 164.568L76.4663 124.181Z" fill="#FE2D5D"/>
<path d="M85.7465 148.117C85.7166 148.859 86.0861 149.084 86.5787 149.104C87.0712 149.123 87.5002 148.93 87.53 148.189C87.5599 147.448 86.6866 146.419 86.6866 146.419C86.6866 146.419 85.7764 147.376 85.7465 148.117ZM76.9963 150.44C76.9664 151.181 77.336 151.407 77.8286 151.426C78.3211 151.446 78.7501 151.253 78.7798 150.512C78.8097 149.77 77.9365 148.741 77.9365 148.741C77.9365 148.741 77.0262 149.698 76.9963 150.44ZM107.734 153.655C107.705 154.396 108.074 154.621 108.567 154.641C109.059 154.661 109.488 154.468 109.518 153.726C109.548 152.985 108.675 151.956 108.675 151.956C108.675 151.956 107.764 152.913 107.734 153.655Z" fill="#231F20"/>
<path d="M96.0941 155.302C95.7367 155.952 95.967 156.318 96.3991 156.556C96.8312 156.793 97.3013 156.811 97.6585 156.161C98.0159 155.511 97.693 154.201 97.693 154.201C97.693 154.201 96.4515 154.651 96.0941 155.302Z" fill="#FE2D5D"/>
<path d="M95.2812 167.654C94.9238 168.304 95.1541 168.67 95.5862 168.908C96.0183 169.145 96.4883 169.163 96.8455 168.513C97.2029 167.863 96.8801 166.553 96.8801 166.553C96.8801 166.553 95.6386 167.003 95.2812 167.654ZM77.4764 133.03C76.8113 133.359 76.7906 133.791 77.0093 134.233C77.228 134.675 77.6031 134.959 78.268 134.63C78.9331 134.301 79.4176 133.041 79.4176 133.041C79.4176 133.041 78.1415 132.701 77.4764 133.03ZM93.5929 142.596C92.9193 142.907 92.8873 143.339 93.0942 143.786C93.3012 144.233 93.6686 144.527 94.3419 144.216C95.0155 143.904 95.5331 142.658 95.5331 142.658C95.5331 142.658 94.2664 142.284 93.5929 142.596ZM119.23 164.527C118.565 164.856 118.544 165.289 118.763 165.73C118.981 166.172 119.356 166.456 120.021 166.127C120.686 165.798 121.171 164.539 121.171 164.539C121.171 164.539 119.895 164.198 119.23 164.527ZM106.609 164.544C105.98 164.937 106.002 165.37 106.264 165.787C106.525 166.205 106.927 166.451 107.556 166.057C108.185 165.664 108.542 164.362 108.542 164.362C108.542 164.362 107.238 164.15 106.609 164.544ZM84.3883 161.928C83.8801 162.468 84.0118 162.881 84.3711 163.218C84.7304 163.556 85.181 163.691 85.689 163.15C86.1972 162.609 86.2112 161.26 86.2112 161.26C86.2112 161.26 84.8965 161.387 84.3883 161.928Z" fill="#231F20"/>
<path d="M60.9661 136.304C60.9661 136.304 69.7349 145.632 73.6317 179.424L69.4775 184.84L66.2676 182.876L49.1525 148.676L48.5737 141.228L60.9661 136.304Z" fill="#CC5B06"/>
<path d="M56.5464 139.665C56.4076 139.386 56.2827 139.096 56.1728 138.815C53.6255 132.624 58.387 121.588 63.1761 116.954L60.9346 114.712C55.5304 120.25 50.1569 131.474 53.2091 139.933C53.3532 140.329 53.5209 140.716 53.7114 141.092L56.5464 139.665ZM51.5301 140.102C50.1099 136.439 46.6757 133.049 42.705 130.494C38.7133 127.975 34.1915 126.284 30.1929 126.74L30.564 129.879C33.3236 129.515 37.4401 130.876 40.9963 133.169C44.5812 135.425 47.6003 138.612 48.5736 141.231C48.5846 141.264 48.5986 141.295 48.6153 141.325L48.6043 141.333L51.5979 140.285C51.5786 140.223 51.556 140.162 51.5301 140.102Z" fill="#48956B"/>
<path d="M51.7768 137.371C48.9834 130.237 41.8006 123.134 36.5257 120.521L36.5199 120.522L35.1426 123.369C39.4598 125.389 46.5739 132.452 48.8113 138.513C49.3854 139.991 49.6699 141.395 49.6236 142.607L52.7973 142.71C52.8523 140.936 52.4507 139.139 51.7768 137.371Z" fill="#48956B"/>
<path d="M51.1099 138.682C50.8084 136.622 50.2694 134.604 49.5038 132.668C47.1814 126.586 43.0077 120.352 40.0269 116.57L42.5355 114.614C45.6347 118.59 49.9475 124.972 52.4596 131.54C53.2135 133.486 53.7757 135.5 54.1382 137.555C53.0986 137.844 52.0855 138.221 51.1099 138.682Z" fill="#48956B"/>
<path d="M53.7091 114.467L50.7185 113.42C48.1375 121.065 51.5401 130.404 52.7448 137.209L55.8627 136.626C54.4728 129.505 51.5433 120.425 53.7091 114.467Z" fill="#48956B"/>
<path d="M45.7973 152.113C49.9775 163.076 66.585 193.269 72.0538 191.18C75.6305 189.823 73.564 174.985 70.5379 161.827C67.2334 162.907 63.7924 164.58 61.4694 165.429C64.1169 163.097 67.0423 161.438 70.1353 160.083C69.7971 158.704 69.4679 157.361 69.1217 156.051C69.2488 156.55 69.3807 157.05 69.5102 157.562C65.9836 158.603 62.1798 160.491 59.6756 161.415C62.5196 158.896 65.6866 157.167 69.0431 155.75C68.8232 154.933 68.6136 154.139 68.4026 153.363C64.695 154.354 60.5506 156.408 57.8764 157.402C60.9013 154.731 64.2768 152.94 67.8651 151.485C68.0306 152.048 68.1921 152.642 68.3654 153.234C67.9662 151.803 67.5673 150.447 67.1815 149.199C63.3346 150.108 58.8911 152.349 56.0701 153.386C59.2436 150.581 62.7856 148.756 66.5661 147.272C66.3126 146.47 66.0498 145.756 65.8057 145.09C61.8636 145.932 57.1966 148.294 54.2708 149.372C57.5144 146.509 61.1608 144.665 65.0354 143.147C65.231 143.606 65.4249 144.06 65.6167 144.557C65.121 143.277 64.608 142.122 64.0735 141.055C60.1118 141.89 55.4206 144.281 52.4767 145.358C55.6701 142.538 59.2456 140.699 63.0484 139.202C63.4102 139.78 63.7408 140.401 64.0721 141.05C59.9993 133.012 54.6395 131.021 49.8063 132.874C44.3357 134.958 41.6096 141.147 45.7973 152.113ZM68.6688 181.486C70.1517 180.184 71.7665 179.041 73.4869 178.074C73.5375 178.533 73.5925 178.984 73.6318 179.427C71.7625 180.204 70.0224 180.997 68.6688 181.486ZM66.8747 177.472C68.6906 175.887 70.6901 174.526 72.8305 173.418C72.9083 173.919 72.9879 174.424 73.0562 174.908C70.7296 175.843 68.5209 176.864 66.8747 177.472ZM65.0698 173.46C67.1724 171.634 69.512 170.1 72.0251 168.9C72.1349 169.429 72.2264 169.962 72.3239 170.493C69.6183 171.508 66.9694 172.755 65.0698 173.46ZM63.2679 169.436C65.6857 167.303 68.3312 165.736 71.1163 164.45C71.2373 165.006 71.3668 165.566 71.4788 166.13C68.4481 167.199 65.3917 168.665 63.2679 169.436Z" fill="#FC8006"/>
<path d="M169.2 153.536C169.033 153.459 166.693 155.018 166.348 155.17C165.284 155.636 164.173 155.988 163.035 156.219C160.75 156.687 158.393 156.677 156.112 156.188C154.333 155.803 150.465 154.749 153.805 153.35C156.077 152.405 158.508 151.899 160.969 151.859C163.803 151.8 166.615 152.373 169.2 153.536Z" fill="#48956B"/>
<path d="M151.218 153.87C153.015 150.152 158.515 146.692 162.385 145.741C162.999 146.841 163.499 148.001 163.878 149.202C159.318 148.53 154.063 150.759 152.071 155.094L151.218 153.87Z" fill="#48956B"/>
<path d="M128.649 156.675C124.95 164.937 127.138 178.498 136.163 182.539C142.637 185.437 152.856 181.036 158.048 175.975C162.999 171.149 166.047 162.626 159.921 157.476C157.708 155.615 154.842 154.758 152.323 153.337C150.255 152.171 148.41 150.616 146.263 149.603C139.128 146.238 131.751 149.746 128.649 156.675Z" fill="#E31F26"/>
<path opacity="0.57" d="M159.617 168.196C158.403 171.954 154.864 174.69 151.01 175.551C150.552 175.654 150.01 175.712 149.67 175.389C149.213 174.956 149.451 174.187 149.798 173.662C151.266 171.447 153.993 170.409 155.758 168.422C158.647 165.17 157.969 161.101 156.444 158.502C159.659 160.188 160.661 164.962 159.617 168.196Z" fill="#FE2D5D"/>
<path d="M136.016 141.285C133.453 138.886 128.407 138.723 125.356 139.193C121.644 139.766 118.142 141.258 114.735 142.837C111.303 144.428 108.055 146.201 105.123 148.608C102.276 150.947 102.816 152.925 105.393 155.566C106.944 157.157 108.828 158.373 110.58 159.738C114.27 162.619 117.382 166.172 119.75 170.21C120.531 171.542 121.256 172.959 122.44 173.95C123.624 174.941 125.433 175.39 126.72 174.536C128.568 173.31 128.187 170.57 127.958 168.364C127.449 163.208 128.974 158.058 132.209 154.01C133.341 152.607 134.665 151.362 135.743 149.916C136.821 148.471 137.661 146.75 137.614 144.947C137.614 144.26 137.472 143.58 137.197 142.949C136.922 142.319 136.52 141.752 136.016 141.285Z" fill="white"/>
<path d="M118.536 179.126L133.347 175.447C130.057 170.543 130.456 155.98 138.423 147.848C137.57 147.353 136.83 146.687 136.25 145.89C132.93 149.604 128.829 155.429 128.381 159.857C127.863 155.945 127.119 150.005 126.858 146.22C125.546 146.946 124.08 147.351 122.582 147.403C121.197 152.904 122.137 161.46 123.674 166.442C123.545 166.18 123.353 165.894 123.199 165.622C120.437 160.759 113.707 154.845 108.038 153.479L107.425 154.65C107.177 156.174 106.884 156.154 105.988 157.482C111.992 162.051 117.594 171.509 118.536 179.126Z" fill="#0A8657"/>
<path d="M95.7039 161.705C98.6647 164.032 103.424 162.919 106.336 159.208C107.388 157.892 108.087 156.33 108.368 154.669C109.224 154.404 110.058 154.072 110.861 153.675C114.072 152.095 116.509 149.671 117.941 146.978C118.177 147.161 118.427 147.324 118.689 147.466C120.189 148.406 122.294 148.769 124.506 148.22C127.227 147.544 129.261 145.743 129.843 143.757C130.509 144.015 131.196 144.214 131.896 144.352C132.971 144.54 134.067 144.576 135.152 144.458C135.43 146.807 137.889 148.826 141.101 149.151C144.673 149.513 147.775 147.637 148.049 144.962C148.311 142.358 145.771 139.962 142.337 139.508C142.459 139.208 142.557 138.899 142.631 138.583C143.388 134.447 139.815 130.327 134.652 129.376C134.356 129.323 134.073 129.318 133.785 129.292L133.759 129.051C132.617 124.454 126.443 122.027 119.959 123.638C117.607 124.199 115.419 125.304 113.572 126.865C111.929 128.292 110.794 130.001 110.355 131.779C107.09 131.303 103.757 131.851 100.816 133.349C93.8691 136.778 90.4873 144.111 93.2629 149.724C93.6764 150.533 94.2046 151.278 94.8311 151.936C92.7558 155.444 93.0367 159.611 95.7039 161.705Z" fill="#1AA671"/>
<path d="M137.544 140.928C137.956 140.634 138.318 140.276 138.616 139.867L138.984 139.348C140.251 136.987 139.21 133.939 136.688 132.434C137.013 132.55 137.328 132.692 137.63 132.86C140.188 134.267 141.378 137.05 140.295 139.082L139.967 139.54C139.363 140.291 138.498 140.787 137.544 140.928ZM127.307 138.197C128.237 137.571 129.002 136.73 129.536 135.744C130.575 133.807 130.587 131.576 129.805 129.554C129.071 127.667 127.724 126.081 125.98 125.051C128.143 125.817 129.97 127.315 131.145 129.286C132.297 131.264 132.547 133.494 131.563 135.332C130.721 136.906 129.157 137.881 127.307 138.197ZM125.229 146.305C125.767 145.922 126.213 145.426 126.538 144.851C126.993 144.059 127.186 143.144 127.09 142.236C126.986 141.284 126.563 140.394 125.891 139.712C125.611 139.421 125.292 139.169 124.945 138.963C125.214 139.049 125.475 139.155 125.728 139.281L126.23 139.601C127.422 140.417 128.1 141.661 128.096 142.91C128.102 143.485 127.958 144.051 127.677 144.552C127.414 144.998 127.06 145.385 126.638 145.686C126.217 145.988 125.737 146.199 125.229 146.305ZM100.628 137.385C101.178 136.993 101.758 136.646 102.363 136.346C105.13 134.976 108.08 134.766 110.547 135.481C112.627 136.099 114.367 137.358 115.299 139.25C115.407 139.501 115.498 139.76 115.57 140.023C116.218 141.947 116.085 144.047 115.2 145.873C115.221 144.425 114.902 142.991 114.269 141.688C111.893 136.886 105.858 135.031 100.628 137.385ZM98.3606 150.897C98.5058 150.655 98.6707 150.426 98.8536 150.211C100.412 148.415 102.907 148.13 104.432 149.565C104.803 149.926 105.095 150.361 105.288 150.841C105.482 151.322 105.573 151.837 105.556 152.355C105.309 151.743 104.933 151.192 104.454 150.738C104.047 150.343 103.564 150.033 103.035 149.827C102.506 149.62 101.942 149.522 101.374 149.537C100.806 149.551 100.248 149.679 99.7301 149.913C99.2127 150.147 98.7471 150.481 98.3606 150.897Z" fill="#0A8657"/>
<path d="M162.824 168.859H52.0686V269.79H162.824V168.859Z" fill="url(#paint0_linear)"/>
<path d="M73.2852 179.725V179.718L73.2962 179.724L73.2852 179.725Z" fill="#A5071A"/>
<path d="M73.298 179.728L73.2954 179.727L73.298 179.727V179.728Z" fill="#A5071A"/>
<path d="M158.877 165.019L160.97 167.108L162.824 168.959H154.93L158.877 165.019Z" fill="#D9C6A5"/>
<path d="M151.47 165.019L155.417 168.959H147.523L151.47 165.019Z" fill="#D9C6A5"/>
<path d="M144.063 165.019L148.01 168.959H140.116L144.063 165.019Z" fill="#D9C6A5"/>
<path d="M136.656 165.019L140.603 168.959H132.709L136.656 165.019Z" fill="#D9C6A5"/>
<path d="M129.249 165.019L133.196 168.959H125.302L129.249 165.019Z" fill="#D9C6A5"/>
<path d="M121.842 165.019L125.789 168.959H117.895L121.842 165.019Z" fill="#D9C6A5"/>
<path d="M114.435 165.019L118.382 168.959H110.488L114.435 165.019Z" fill="#D9C6A5"/>
<path d="M107.028 165.019L110.975 168.959H103.081L107.028 165.019Z" fill="#D9C6A5"/>
<path d="M99.6209 165.019L103.568 168.959H95.6738L99.6209 165.019Z" fill="#D9C6A5"/>
<path d="M92.214 165.019L96.1611 168.959H88.2671L92.214 165.019Z" fill="#D9C6A5"/>
<path d="M84.8067 165.019L88.7536 168.959H80.8596L84.8067 165.019Z" fill="#D9C6A5"/>
<path d="M77.3997 165.019L81.3469 168.959H73.4526L77.3997 165.019Z" fill="#D9C6A5"/>
<path d="M73.9397 168.961H73.3025V168.325L73.9397 168.961Z" fill="#D9C6A5"/>
<path d="M69.9928 165.019L73.3027 168.323V168.959H66.0459L69.9928 165.019Z" fill="#D9C6A5"/>
<path d="M62.5855 165.019L62.6558 165.09V168.959H58.6387L62.5855 165.019Z" fill="#D9C6A5"/>
<path d="M66.5329 168.956H62.656V165.087L66.5329 168.956Z" fill="#D9C6A5"/>
<path d="M55.1785 165.019L59.126 168.959H52.0681V168.172L55.1785 165.019Z" fill="#D9C6A5"/>
<path d="M153.367 237.214C152.451 237.202 151.577 236.827 150.938 236.172C150.298 235.517 149.944 234.635 149.954 233.719C149.939 231.776 151.45 230.192 153.321 230.184L165.597 230.007C166.512 230.018 167.386 230.392 168.026 231.046C168.666 231.701 169.02 232.583 169.009 233.499C169.022 235.442 167.515 237.026 165.644 237.038L153.367 237.214Z" fill="#D79774"/>
<path d="M153.978 231.218C152.315 231.218 150.955 232.374 150.955 233.787C150.955 235.201 152.315 236.357 153.978 236.357H154.218V231.218H153.978Z" fill="#EED3C3"/>
<path d="M152.298 244.256C151.382 244.244 150.509 243.869 149.869 243.214C149.229 242.559 148.875 241.677 148.885 240.761C148.87 238.818 150.381 237.234 152.252 237.226L164.528 237.049C165.443 237.06 166.317 237.434 166.957 238.088C167.597 238.743 167.951 239.625 167.941 240.541C167.953 242.484 166.446 244.068 164.575 244.08L152.298 244.256Z" fill="#D79774"/>
<path d="M152.808 238.21C151.145 238.21 149.785 239.367 149.785 240.78C149.785 242.193 151.145 243.35 152.808 243.35H153.048V238.21H152.808Z" fill="#EED3C3"/>
<path d="M154.751 229.357C153.82 229.345 152.932 228.964 152.282 228.298C151.632 227.632 151.272 226.736 151.282 225.805C151.267 223.83 152.803 222.22 154.704 222.212L165.012 222.032C166.913 222.019 168.468 223.608 168.481 225.581C168.494 227.556 166.962 229.166 165.06 229.179L154.751 229.357Z" fill="#D79774"/>
<path d="M155.269 223.212C153.579 223.212 152.197 224.387 152.197 225.824C152.197 227.26 153.579 228.435 155.269 228.435H155.513V223.212H155.269Z" fill="#EED3C3"/>
<path d="M153.543 250.525C152.715 250.514 151.924 250.175 151.345 249.583C150.767 248.99 150.447 248.192 150.456 247.363C150.445 246.953 150.516 246.545 150.663 246.162C150.811 245.78 151.032 245.43 151.315 245.133C151.598 244.835 151.937 244.597 152.312 244.431C152.687 244.265 153.091 244.175 153.501 244.165L162.675 244.005C163.504 244.015 164.294 244.353 164.873 244.946C165.452 245.538 165.772 246.336 165.763 247.164C165.783 247.993 165.474 248.795 164.903 249.395C164.332 249.996 163.546 250.345 162.718 250.366L153.543 250.525Z" fill="#D79774"/>
<path d="M154.269 245.149C152.81 245.149 151.616 246.164 151.616 247.405C151.616 248.645 152.81 249.66 154.269 249.66H154.48V245.149H154.269Z" fill="#EED3C3"/>
<path d="M62.6445 237.107C64.5863 237.117 66.1741 235.496 66.1871 233.479C66.203 231.462 64.634 229.818 62.6922 229.809L49.9494 229.626C48.0076 229.613 46.4198 231.235 46.4068 233.25C46.3938 235.267 47.9585 236.912 49.9003 236.925L62.6445 237.107Z" fill="#D79774"/>
<path d="M62.0101 230.877C63.7361 230.877 65.1482 232.077 65.1482 233.544C65.1482 235.011 63.7361 236.212 62.0101 236.212H61.761V230.877H62.0101Z" fill="#EED3C3"/>
<path d="M63.7544 244.413C65.6962 244.423 67.284 242.802 67.297 240.785C67.3128 238.769 65.7438 237.124 63.802 237.116L51.0593 236.932C49.1175 236.919 47.5297 238.542 47.5167 240.557C47.5037 242.574 49.0684 244.218 51.0102 244.231L63.7544 244.413Z" fill="#D79774"/>
<path d="M63.2249 238.134C64.9508 238.134 66.363 239.335 66.363 240.802C66.363 242.269 64.9508 243.469 63.2249 243.469H62.9758V238.134H63.2249Z" fill="#EED3C3"/>
<path d="M61.2077 228.945C63.1814 228.955 64.7953 227.308 64.8084 225.258C64.8246 223.208 63.2299 221.537 61.2562 221.528L50.5563 221.341C48.5827 221.328 46.9689 222.977 46.9556 225.026C46.9424 227.076 48.5328 228.747 50.5064 228.76L61.2077 228.945Z" fill="#D79774"/>
<path d="M60.6696 222.566C62.4239 222.566 63.8592 223.786 63.8592 225.277C63.8592 226.768 62.4239 227.988 60.6696 227.988H60.4165V222.566H60.6696Z" fill="#EED3C3"/>
<path d="M62.4622 250.916C63.3222 250.905 64.1426 250.554 64.7434 249.938C65.3442 249.323 65.6764 248.495 65.667 247.635C65.6779 247.209 65.6047 246.785 65.4516 246.388C65.2985 245.991 65.0685 245.627 64.7749 245.319C64.4812 245.011 64.1296 244.763 63.7402 244.591C63.3507 244.419 62.9312 244.325 62.5055 244.315L52.9823 244.149C52.1226 244.159 51.3021 244.51 50.7011 245.125C50.1002 245.74 49.768 246.568 49.7776 247.428C49.7564 248.288 50.0773 249.121 50.6698 249.744C51.2624 250.367 52.0781 250.73 52.9378 250.752L62.4622 250.916Z" fill="#D79774"/>
<path d="M61.7077 245.338C63.2226 245.338 64.4623 246.391 64.4623 247.679C64.4623 248.967 63.2226 250.02 61.7077 250.02H61.489V245.338H61.7077Z" fill="#EED3C3"/>
<path d="M105.208 238.468C115.761 238.468 124.315 229.914 124.315 219.362C124.315 208.81 115.761 200.256 105.208 200.256C94.6564 200.256 86.1023 208.81 86.1023 219.362C86.1023 229.914 94.6564 238.468 105.208 238.468Z" fill="white"/>
<path d="M104.025 219.4V227.432H102.238C100.579 227.432 98.9891 226.773 97.8166 225.599C96.6441 224.426 95.9854 222.835 95.9854 221.175V219.4H104.025Z" fill="#0075FA"/>
<path d="M112.943 219.4V221.188C112.943 222.847 112.284 224.439 111.112 225.612C109.939 226.785 108.349 227.444 106.691 227.444H104.916V219.4H112.943Z" fill="#0075FA"/>
<path d="M104.916 218.514V216.726C104.916 215.067 105.575 213.475 106.748 212.302C107.92 211.129 109.51 210.469 111.169 210.469H112.956V218.502L104.916 218.514Z" fill="#0075FA"/>
<defs>
<linearGradient id="paint0_linear" x1="52.0686" y1="168.859" x2="152.254" y2="282.552" gradientUnits="userSpaceOnUse">
<stop stop-color="#66ADFF"/>
<stop offset="1" stop-color="#0077FF"/>
</linearGradient>
</defs>
</svg>
