<svg width="24" height="25" viewBox="0 0 24 25" fill="none" xmlns="http://www.w3.org/2000/svg">
<path opacity="0.4" d="M17.208 0.960938H6.804C2.736 0.960938 0 3.81694 0 8.06494V17.8689C0 22.1049 2.736 24.9609 6.804 24.9609H17.208C21.276 24.9609 24 22.1049 24 17.8689V8.06494C24 3.81694 21.276 0.960938 17.208 0.960938Z" fill="#8897A0"/>
<path d="M15.619 15.0855L13.4842 12.9519L15.6178 10.8183C16.0282 10.4091 16.0282 9.74314 15.6178 9.33394C15.2074 8.92114 14.5438 8.92234 14.1334 9.33274L11.9986 11.4663L9.86379 9.33034C9.45339 8.91994 8.78859 8.92234 8.37819 9.33034C7.96899 9.74074 7.96899 10.4067 8.37819 10.8159L10.5142 12.9519L8.38299 15.0819C7.97259 15.4923 7.97259 16.1583 8.38299 16.5663C8.58819 16.7727 8.85579 16.8747 9.12459 16.8747C9.39459 16.8747 9.66219 16.7727 9.86739 16.5675L11.9986 14.4363L14.1346 16.5711C14.3398 16.7763 14.6074 16.8783 14.8762 16.8783C15.145 16.8783 15.4138 16.7751 15.619 16.5711C16.0294 16.1607 16.0294 15.4959 15.619 15.0855Z" fill="#374B58"/>
</svg>
