<svg width="41" height="41" viewBox="0 0 41 41" fill="none" xmlns="http://www.w3.org/2000/svg">
<path d="M37.0774 20.1976L20.8786 3.99884C20.5376 3.65782 20.1966 3.4873 19.685 3.4873H10.1363C9.28376 3.4873 8.4312 3.82833 7.74915 4.51038L4.50941 7.75013C3.82735 8.43218 3.48633 9.28474 3.48633 10.1373V19.004C3.48633 19.8565 3.82735 20.7091 4.50941 21.3912L20.1966 37.0783C20.8786 37.7604 21.9017 37.7604 22.5838 37.0783L37.0774 22.5847C37.7594 21.9027 37.7594 20.8796 37.0774 20.1976ZM12.012 13.7181C10.9889 13.7181 10.3068 13.036 10.3068 12.0129C10.3068 10.9899 10.9889 10.3078 12.012 10.3078C13.035 10.3078 13.7171 10.9899 13.7171 12.0129C13.7171 13.036 13.035 13.7181 12.012 13.7181Z" fill="#0075FA"/>
</svg>
