<svg width="59" height="59" viewBox="0 0 59 59" fill="none" xmlns="http://www.w3.org/2000/svg">
<g filter="url(#filter0_d)">
<rect x="4" y="4" width="51" height="51" rx="7.28571" fill="white"/>
<path d="M41.9422 29.6434L30.1403 17.8414C29.8918 17.593 29.6434 17.4688 29.2707 17.4688H22.3138C21.6926 17.4688 21.0714 17.7172 20.5745 18.2141L18.2141 20.5745C17.7172 21.0714 17.4688 21.6926 17.4688 22.3138V28.7738C17.4688 29.3949 17.7172 30.0161 18.2141 30.513L29.6434 41.9422C30.1403 42.4391 30.8857 42.4391 31.3826 41.9422L41.9422 31.3826C42.4391 30.8857 42.4391 30.1403 41.9422 29.6434ZM23.6803 24.9226C22.9349 24.9226 22.438 24.4257 22.438 23.6803C22.438 22.9349 22.9349 22.438 23.6803 22.438C24.4257 22.438 24.9226 22.9349 24.9226 23.6803C24.9226 24.4257 24.4257 24.9226 23.6803 24.9226Z" fill="#0075FA"/>
</g>
<defs>
<filter id="filter0_d" x="0.357143" y="0.357143" width="58.2857" height="58.2857" filterUnits="userSpaceOnUse" color-interpolation-filters="sRGB">
<feFlood flood-opacity="0" result="BackgroundImageFix"/>
<feColorMatrix in="SourceAlpha" type="matrix" values="0 0 0 0 0 0 0 0 0 0 0 0 0 0 0 0 0 0 127 0" result="hardAlpha"/>
<feOffset/>
<feGaussianBlur stdDeviation="1.82143"/>
<feComposite in2="hardAlpha" operator="out"/>
<feColorMatrix type="matrix" values="0 0 0 0 0.812784 0 0 0 0 0.812784 0 0 0 0 0.812784 0 0 0 0.2 0"/>
<feBlend mode="normal" in2="BackgroundImageFix" result="effect1_dropShadow"/>
<feBlend mode="normal" in="SourceGraphic" in2="effect1_dropShadow" result="shape"/>
</filter>
</defs>
</svg>
