<svg width="257" height="186" viewBox="0 0 257 186" fill="none" xmlns="http://www.w3.org/2000/svg">
<path d="M202.262 37.8278C206.266 60.0038 187.786 86.6458 183.32 108.822C178.854 130.998 188.556 148.862 184.552 163.184C180.548 177.66 162.684 188.594 149.286 184.128C135.888 179.816 126.956 160.104 103.394 145.782C79.9856 131.306 42.1016 122.374 36.7116 107.898C31.3216 93.4218 58.2716 73.4018 81.6796 51.2258C105.088 29.0498 125.108 4.56382 148.362 1.17582C171.616 -2.21218 198.258 15.6518 202.262 37.8278Z" fill="#EBF4FF"/>
<path d="M29.6348 133.883L20.3246 166.562H24.4914L34.6425 133.883H29.6348Z" fill="#374B58"/>
<path d="M186.548 133.883L195.858 166.562H191.692L181.541 133.883H186.548Z" fill="#374B58"/>
<path d="M48.4797 105.926C48.4797 105.926 45.3763 114.399 30.8142 114.762C16.2521 115.124 24.5987 121.706 24.5987 121.706C24.5987 121.706 46.5449 124.128 48.599 122.453C51.7458 119.887 46.8075 117.511 53.1336 112.38C59.4598 107.249 48.4797 105.926 48.4797 105.926Z" fill="#F9C2AA"/>
<path d="M33.2753 114.616C33.2753 114.616 34.5145 121.619 37.5387 122.447L28.6267 122.008L31.6509 114.76L33.2753 114.616ZM44.8121 110.451C44.8121 110.451 45.3547 116.561 49.7819 116.994C49.7819 116.994 50.4709 114.203 51.5452 114.163C52.6194 114.123 46.2738 109.211 46.2738 109.211L44.8121 110.451Z" fill="#F7AB8D"/>
<path d="M32.4865 113.622V123.403C32.4865 123.403 13.3886 125.62 12.3144 119.89C11.2401 114.161 16.9695 109.746 23.5344 109.268C25.2488 109.143 26.6812 109.084 27.8552 109.063C28.46 109.053 29.0607 109.164 29.6222 109.389C30.1838 109.613 30.695 109.948 31.126 110.372C31.5571 110.796 31.8994 111.302 32.133 111.86C32.3665 112.418 32.4867 113.017 32.4865 113.622Z" fill="#0075FA"/>
<path d="M12.7876 120.969L13.6275 125.719H51.2252V123.344L12.7876 120.969Z" fill="#0075FA"/>
<path opacity="0.52" d="M12.8395 121.265L32.4864 122.186V119.771C32.4864 119.771 13.9637 121.532 12.1841 119.145C12.1841 119.145 12.2904 120.67 12.8395 121.265Z" fill="#006BE6"/>
<path d="M71.1587 63.1953L76.5636 65.3785L71.9139 69.1232L71.1587 63.1953Z" fill="#11293A"/>
<path d="M143.847 119.651C143.847 119.651 127.614 125.142 121.408 120.725C115.201 116.309 89.7778 89.0958 89.7778 89.0958C89.7778 89.0958 61.0128 119.293 53.3183 118.04C53.3183 118.04 48.1261 114.519 46.276 109.208C44.4259 103.898 43.8291 103.18 43.8291 103.18L75.8169 71.6701C75.8169 71.6701 73.3103 64.7471 71.1618 63.1954C71.1618 63.1954 70.9231 62.0018 73.9071 60.4501C76.8911 58.8984 111.385 43.1427 115.802 47.201C120.218 51.2593 140.032 85.1568 140.032 85.1568L143.847 119.651Z" fill="#193A55"/>
<path d="M73.6663 66.736C73.6663 66.736 65.5486 68.6892 64.355 66.736C63.1614 64.7828 62.6036 62.0625 62.6036 62.0625L56.1592 64.0699L60.2967 81.4967C60.2967 81.4967 63.6464 83.655 67.1752 80.1783C70.7039 76.7016 76.5288 76.324 76.5288 76.324C76.5288 76.324 77.0898 71.0732 73.6663 66.736Z" fill="#F9C2AA"/>
<path d="M61.0723 64.2695C61.0723 64.2695 61.8199 78.3759 64.907 81.7397C64.907 81.7397 61.0777 83.1308 60.2986 81.1017C59.5195 79.0725 56.835 66.086 56.835 66.086L61.0723 64.2695Z" fill="#F7AB8D"/>
<path d="M76.5286 76.3254L76.5634 80.3837C76.5634 80.3837 100.401 73.4618 113.052 60.332C113.052 60.332 101.514 78.3665 75.5738 82.16C75.5738 82.16 72.8284 82.1741 70.4412 81.6967C68.054 81.2192 63.0625 84.2293 63.0625 84.2293C63.0625 84.2293 70.0245 75.8479 76.5286 76.3254Z" fill="#11293A"/>
<path d="M107.314 65.3789C107.314 65.3789 121.572 83.2712 130.405 90.9874C130.405 90.9874 100.652 70.9965 100.369 69.9993C100.369 70.0015 106.574 65.9442 107.314 65.3789ZM136.916 91.25C136.916 91.25 133.344 97.2343 133.702 104.754C134.06 112.274 124.784 121.436 117.665 117.81C117.665 117.81 126.062 129.121 145.637 120.848C145.637 120.845 143.114 94.0984 136.916 91.25Z" fill="#11293A"/>
<path d="M45.002 48.5206C45.002 48.5206 50.9071 44.0217 57.5892 47.2846C64.2712 50.5476 66.0237 59.1405 65.7849 60.652C65.5462 62.1636 59.1973 66.0862 59.1973 66.0862L45.002 48.5206Z" fill="#0075FA"/>
<path opacity="0.52" d="M60.2988 65.379C60.2988 65.379 53.9064 47.0136 47.5228 47.1373C47.5228 47.1373 44.6711 47.6246 42.9057 50.0986C41.1402 52.5726 59.1996 66.0832 59.1996 66.0832L60.2988 65.379Z" fill="#006BE6"/>
<path d="M89.7777 89.0984L93.836 85.0391L92.625 92.1269L89.7777 89.0984Z" fill="#11293A"/>
<path d="M212.597 20.9453C212.597 20.9453 204.719 22.5372 202.65 30.4942C202.65 30.4942 200.263 33.5173 197.478 34.0751C194.694 34.6328 196.046 35.9849 197.478 37.3369C198.911 38.6889 199.706 40.8385 198.433 42.7483C197.16 44.6581 195.221 49.91 204.228 54.4447C204.228 54.4447 207.186 55.7185 206.311 57.6283C205.437 59.5381 201.108 66.2896 201.108 66.2896C201.108 66.2896 206.947 72.5084 212.278 69.0859L217.4 56.0973C217.646 55.4738 217.931 54.8664 218.253 54.2786L224.532 42.8275L212.597 20.9453Z" fill="#F9C2AA"/>
<path d="M203.734 62.1029C203.734 62.1029 203.529 72.3083 212.68 68.071C212.68 68.071 214.268 89.0504 205.913 100.032C197.558 111.013 178.619 120.408 163.501 121.601C148.382 122.795 143.847 123.098 143.847 123.098C143.847 123.098 136.287 107.038 136.526 96.4562C136.765 85.8743 139.311 83.5663 139.311 83.5663C139.311 83.5663 149.098 89.8523 151.963 88.2604C151.963 88.2604 182.439 77.2792 191.988 67.1736C191.988 67.1769 198.929 61.5636 203.734 62.1029Z" fill="#0075FA"/>
<path d="M157.694 99.7435C157.694 99.7435 159.204 102.663 174.482 99.2454C174.482 99.2454 179.097 97.8131 180.45 99.2454C181.803 100.678 185.463 102.985 192.943 95.5854C200.423 88.186 204.337 82.7529 202.975 78.1879C201.613 73.6229 157.694 99.7435 157.694 99.7435Z" fill="#006BE6"/>
<path d="M3.95914 125.724C3.95914 125.724 107.542 126.499 162.368 121.808C181.625 120.16 199.358 110.464 210.9 94.9598C211.108 94.6813 211.316 94.3991 211.523 94.1134C226.442 73.5843 239.095 56.5156 242.079 56.5156C245.063 56.5156 253.776 60.5739 255.925 63.916C258.073 67.2581 214.865 140.544 204.481 141.379C194.096 142.215 6.82381 141.379 6.82381 141.379C6.82381 141.379 0.79606 141.857 0.975102 137.321C1.15414 132.785 0.139573 125.724 3.95914 125.724Z" fill="#FDC535"/>
<path opacity="0.57" d="M237.366 60.332C237.366 60.332 236.715 123.114 147.43 126.695C58.146 130.276 1.36902 128.255 1.36902 128.255C1.36902 128.255 1.73144 125.082 5.39149 125.73C5.39149 125.73 119.242 125.761 138.228 123.404C138.228 123.404 174.818 124.38 192.792 111.654C192.792 111.654 205.209 105.11 214.513 90.002C223.816 74.8941 237.366 60.332 237.366 60.332Z" fill="#FFF9E8"/>
<path d="M215.954 59.7619C215.954 59.7619 216.752 68.2865 228.241 70.9526C228.241 70.9526 247.608 50.0654 246.892 46.1666C246.176 42.2679 237.025 34.6287 232.967 36.6177C228.909 38.6067 215.954 59.7619 215.954 59.7619Z" fill="#FDC535"/>
<path opacity="0.57" d="M215.954 59.7642C215.954 59.7642 238.56 51.3753 234.173 36.3086C234.173 36.3108 216.387 56.6304 215.954 59.7642Z" fill="#FFF9E8"/>
<path d="M219.6 9.80457C219.6 9.80457 207.028 4.79139 208.141 18.0004C209.254 31.2093 222.777 30.5724 217.21 35.8243C211.644 41.0762 211.006 43.1444 211.006 43.1444C211.006 43.1444 216.496 38.9277 218.804 40.9167C221.112 42.9057 220.236 46.1686 218.566 48.7153C216.896 51.262 216.409 58.6104 216.409 58.6104C216.409 58.6104 241.9 43.6218 234.181 31.2104C226.463 18.799 209.494 15.8518 219.6 9.80457Z" fill="#11293A"/>
<path d="M177.187 82.1337L176.392 80.3823C176.392 80.3823 190.556 72.664 195.092 72.027C199.627 71.39 204.481 76.0842 202.571 80.8587C200.662 85.6331 185.064 97.6365 185.064 97.6365C185.064 97.6365 181.365 95.7007 177.187 82.1337Z" fill="#0075FA"/>
<path d="M138.053 20.9425L142.407 18.7148L148.456 42.586L143.931 43.3478L138.053 20.9425Z" fill="#11293A"/>
<path d="M177.187 82.1367C177.187 82.1367 165.968 87.547 165.411 86.6724C164.853 85.7978 152.759 54.5251 152.759 54.5251C152.759 54.5251 151.167 46.4877 153.395 43.1456C155.623 39.8035 156.26 37.8948 155.624 35.7463C154.988 33.5978 155.376 30.7331 155.857 30.2557C156.339 29.7782 154.35 28.6638 152.679 30.2557C151.008 31.8475 152.759 37.8948 150.213 38.1324C147.666 38.3701 144.961 39.6451 141.062 33.1204C141.062 33.1204 140.028 32.9608 140.028 35.0301C140.028 37.0994 140.425 43.4646 141.619 44.6582C142.675 45.7151 146.599 51.4477 147.43 54.5153C147.438 54.6879 149.654 100.795 159.184 100.02C168.733 99.2444 181.923 93.8731 181.923 93.8731L177.187 82.1367Z" fill="#F9C2AA"/>
<path d="M42.631 50.4236C42.631 50.4236 47.4054 43.9781 52.896 52.3334C58.3867 60.6887 65.1903 81.5574 60.7739 84.4872C56.3575 87.417 47.7635 78.2315 43.8246 64.2673C43.8246 64.2695 41.318 55.1981 42.631 50.4236Z" fill="#0075FA"/>
<path d="M210.195 91.25C210.195 91.25 182.014 124.898 142.521 120.067L143.848 123.098C143.848 123.098 174.58 122.59 188.974 113.581C203.368 104.573 206.442 101.799 210.195 91.25Z" fill="#006BE6"/>
<path d="M177.564 83.4375C177.564 83.4375 179.173 94.18 173.087 96.985L181.923 93.8718L177.564 83.4375Z" fill="#F7AB8D"/>
</svg>
