<svg width="69" height="69" viewBox="0 0 69 69" fill="none" xmlns="http://www.w3.org/2000/svg">
<g filter="url(#filter0_d)">
<path d="M46.9178 9H22.7883C13.9868 9 9 13.9868 9 22.7883V46.9178C9 55.6964 13.9638 60.7061 22.7883 60.7061H46.9178C55.7194 60.7061 60.7061 55.6964 60.7061 46.9178V22.7883C60.7061 13.9868 55.7194 9 46.9178 9Z" fill="white"/>
</g>
<path d="M43.4376 36.6842H36.7909V43.2732C36.7909 44.3341 35.9234 45.1942 34.8532 45.1942C33.783 45.1942 32.9154 44.3341 32.9154 43.2732V36.6842H26.2688C25.2706 36.5817 24.512 35.7478 24.512 34.7529C24.512 33.7581 25.2706 32.9242 26.2688 32.8217H32.8946V26.2533C32.998 25.2637 33.8392 24.5117 34.8428 24.5117C35.8464 24.5117 36.6876 25.2637 36.7909 26.2533V32.8217H43.4376C44.4358 32.9242 45.1944 33.7581 45.1944 34.7529C45.1944 35.7478 44.4358 36.5817 43.4376 36.6842V36.6842Z" fill="#0075FA"/>
<defs>
<filter id="filter0_d" x="0.836734" y="0.836734" width="68.0327" height="68.0327" filterUnits="userSpaceOnUse" color-interpolation-filters="sRGB">
<feFlood flood-opacity="0" result="BackgroundImageFix"/>
<feColorMatrix in="SourceAlpha" type="matrix" values="0 0 0 0 0 0 0 0 0 0 0 0 0 0 0 0 0 0 127 0" result="hardAlpha"/>
<feOffset/>
<feGaussianBlur stdDeviation="4.08163"/>
<feComposite in2="hardAlpha" operator="out"/>
<feColorMatrix type="matrix" values="0 0 0 0 0.0745098 0 0 0 0 0.505882 0 0 0 0 1 0 0 0 0.1 0"/>
<feBlend mode="normal" in2="BackgroundImageFix" result="effect1_dropShadow"/>
<feBlend mode="normal" in="SourceGraphic" in2="effect1_dropShadow" result="shape"/>
</filter>
</defs>
</svg>
