<svg width="16" height="18" viewBox="0 0 16 18" fill="none" xmlns="http://www.w3.org/2000/svg">
<path fill-rule="evenodd" clip-rule="evenodd" d="M14.9059 3.37044C15.2301 3.37044 15.5 3.63961 15.5 3.9821V4.29877C15.5 4.63293 15.2301 4.91043 14.9059 4.91043H1.09488C0.769883 4.91043 0.5 4.63293 0.5 4.29877V3.9821C0.5 3.63961 0.769883 3.37044 1.09488 3.37044H3.52464C4.01821 3.37044 4.44775 3.01961 4.55879 2.52462L4.68603 1.95629C4.88378 1.18213 5.53458 0.667969 6.27939 0.667969H9.72061C10.4573 0.667969 11.1154 1.18213 11.3059 1.91546L11.442 2.52378C11.5522 3.01961 11.9818 3.37044 12.4762 3.37044H14.9059ZM13.6716 14.947C13.9253 12.5828 14.3694 6.9662 14.3694 6.90953C14.3857 6.73787 14.3297 6.57537 14.2187 6.44454C14.0996 6.32204 13.9488 6.24954 13.7827 6.24954H2.22389C2.05693 6.24954 1.89808 6.32204 1.78786 6.44454C1.67601 6.57537 1.6209 6.73787 1.62901 6.90953C1.6305 6.91995 1.64643 7.11779 1.67308 7.44855C1.79144 8.91792 2.12109 13.0104 2.33411 14.947C2.48485 16.3736 3.42094 17.2703 4.77683 17.3028C5.82314 17.3269 6.90105 17.3353 8.00328 17.3353C9.04148 17.3353 10.0959 17.3269 11.1746 17.3028C12.5775 17.2786 13.5128 16.3978 13.6716 14.947Z" fill="#0075FA"/>
</svg>
