<svg width="234" height="226" viewBox="0 0 234 226" fill="none" xmlns="http://www.w3.org/2000/svg">
<path d="M39.2032 170.323L190.774 170.835C192.738 170.842 194.35 169.159 194.357 167.09L194.364 164.84C194.371 162.773 192.769 161.077 190.807 161.07L26.7585 160.516C26.7287 160.516 30.0646 163.549 33.361 166.138C36.2782 168.436 39.2032 170.323 39.2032 170.323Z" fill="#EBF4FF" fill-opacity="0.6"/>
<path d="M134.108 60.8888C133.289 60.8689 132.475 60.7536 131.682 60.5454L131.595 60.521C131.042 60.3785 127.582 62.0347 123.313 63.9493C116.882 65.6212 110.966 67.3132 109.541 67.5198C107.714 67.7885 104.96 66.0045 102.983 64.4723C102.989 64.3878 102.976 64.3031 102.946 64.2243C102.915 64.1455 102.867 64.0746 102.805 64.0167C102.018 63.2794 99.8314 61.2031 97.6233 58.8647C100.804 60.5079 106.108 63.0199 108.237 62.7072C110.609 62.3592 125.434 57.8976 134.357 56.2695C134.324 56.6065 134.309 56.9451 134.311 57.2838C134.181 58.3982 134.077 59.7087 134.108 60.8888Z" fill="#F2B5A0"/>
<path d="M134.128 61.3437C134.128 61.3501 134.128 61.3573 134.128 61.3646C133.245 61.1044 132.379 60.7606 131.813 60.5859C132.238 60.7071 133.208 61.003 134.128 61.3437Z" fill="#F2B5A0"/>
<path d="M131.634 60.5341L131.683 60.5471C132.476 60.7553 133.29 60.8705 134.109 60.8905C134.108 61.044 134.119 61.1951 134.128 61.3439C133.207 61.0032 132.236 60.7097 131.813 60.5861C131.732 60.5617 131.67 60.5447 131.634 60.5341ZM131.596 60.5227L131.634 60.5341L131.596 60.5227ZM121.519 136.474C121.48 136.479 121.442 136.488 121.405 136.501C121.331 136.546 121.256 136.594 121.18 136.641L121.202 136.634C121.192 136.651 121.184 136.669 121.175 136.686L119.567 136.68L119.365 128.624C120.084 129.054 120.899 129.297 121.736 129.331L121.914 136.475L121.519 136.474Z" fill="#F7AB8D"/>
<path d="M119.309 114.628C120.051 121.723 121.339 127.963 121.339 127.963C121.461 128.051 121.584 128.125 121.707 128.206L121.736 129.335C120.899 129.301 120.084 129.058 119.365 128.628C119.24 128.554 119.115 128.474 118.991 128.386C118.991 128.386 113.857 103.517 118.185 96.6176C118.185 96.6176 111.576 97.8741 103.358 98.6951C103.26 98.6281 103.161 98.5642 103.057 98.5052C112.62 97.5914 120.533 96.1987 120.533 96.1987C116.992 101.857 119.309 114.628 119.309 114.628Z" fill="#11293A"/>
<path d="M118.802 143.982C118.798 142.754 118.786 141.525 118.799 140.296C118.8 140.041 118.673 139.793 118.739 139.549C118.844 139.162 118.8 138.786 118.743 138.403C118.721 138.26 118.722 138.105 118.838 137.986C118.918 137.906 118.87 137.845 118.831 137.764C118.682 137.454 118.672 137.141 118.855 136.837L118.833 136.845L119.058 136.704C119.095 136.691 119.133 136.682 119.172 136.677L121.176 136.683C121.104 136.818 121.066 136.968 121.067 137.121C121.067 137.273 121.105 137.424 121.177 137.558C121.217 137.638 121.262 137.7 121.186 137.781C121.07 137.9 121.069 138.054 121.091 138.197C121.15 138.58 121.194 138.956 121.087 139.343C121.021 139.584 121.15 139.835 121.147 140.091C121.134 141.319 121.145 142.548 121.148 143.777C121.135 144.088 121.201 144.396 121.145 144.711C121.129 144.823 121.152 144.937 121.21 145.033C120.502 145.031 119.793 145.028 119.085 145.026C118.989 145.026 118.892 145.032 118.796 145.037C118.79 144.998 118.79 144.958 118.796 144.918C118.852 144.602 118.788 144.294 118.802 143.982Z" fill="#061823"/>
<path d="M121.914 136.475L121.736 129.331L121.708 128.201C123.721 129.406 125.826 128.819 126.871 128.38L126.361 136.49C124.88 136.483 123.398 136.478 121.914 136.475Z" fill="#F9C2AA"/>
<path d="M160.077 143.381C160.908 141.856 161.396 140.09 162.675 138.88C167.95 135.789 173.539 133.727 179.444 132.692C182.228 132.209 185.036 131.999 187.842 131.755C188.071 131.73 188.302 131.744 188.527 131.796C195.85 140.347 195.141 152.758 186.485 160.225C185.875 160.751 185.349 161.499 184.391 161.492C184.39 161.791 184.181 161.91 183.954 162.015C183.483 162.33 183.051 162.722 182.446 162.764L181.801 163.09C181.691 163.354 181.419 163.366 181.205 163.452C177.918 164.784 174.527 165.198 170.992 164.804C163.611 163.976 157.054 158.443 154.676 151.469C154.759 151.322 154.859 151.184 154.973 151.058C157.018 148.772 158.582 146.113 160.077 143.381ZM173.475 154.82C178.965 154.85 183.403 150.5 183.435 145.057C183.466 139.678 179.063 135.205 173.704 135.169C168.202 135.132 163.827 139.446 163.788 144.946C163.747 150.387 168.066 154.788 173.475 154.82ZM54.7162 138.835L54.9573 138.842C54.1096 139.949 53.53 141.238 53.264 142.607C52.3113 147.422 54.8779 152.132 59.4151 153.836C63.9242 155.53 68.9459 153.731 71.3802 149.55C72.2756 148.026 72.7356 146.286 72.7103 144.518C72.6849 142.751 72.1751 141.024 71.2363 139.527L71.3504 139.543C72.0245 139.643 72.6985 139.749 73.3741 139.85C74.4018 139.991 75.4046 140.275 76.3533 140.695C78.3323 141.599 79.8333 143.179 80.6822 145.76C81.4699 145.998 81.4212 146.843 81.6916 147.452C81.8911 147.899 82.0374 148.376 82.207 148.839C82.2268 148.935 82.2482 149.029 82.2695 149.125C80.8148 155.77 76.6212 160.533 69.6888 163.414L68.046 163.851C67.019 164.257 65.9344 164.364 64.8481 164.487C52.6807 165.871 41.9462 155.392 42.9705 143.174C43.0928 141.705 43.403 140.293 43.7935 138.903C47.4312 138.716 51.0725 138.672 54.7162 138.835ZM63.4346 158.653C63.4427 158.184 63.6549 157.924 64.0642 157.867C63.6549 157.923 63.4426 158.186 63.4346 158.652L63.4346 158.653Z" fill="#323232"/>
<path d="M71.3791 149.552C68.9448 153.733 63.9232 155.531 59.4141 153.838C54.8745 152.135 52.3078 147.424 53.2629 142.609C53.5289 141.24 54.1085 139.951 54.9563 138.844L65.2524 139.158C67.268 139.011 69.2534 139.237 71.2377 139.528C72.1761 141.026 72.6855 142.753 72.7104 144.52C72.7354 146.287 72.2749 148.028 71.3791 149.552ZM62.8778 140.43C60.6272 140.432 58.6917 142.355 58.6704 144.6C58.6514 146.9 60.6237 148.855 62.9322 148.825C65.1966 148.794 67.0831 146.868 67.0658 144.604C67.0486 142.341 65.1308 140.428 62.8778 140.43ZM173.703 135.17C179.062 135.206 183.465 139.679 183.434 145.058C183.401 150.501 178.964 154.849 173.474 154.821C168.069 154.791 163.749 150.388 163.787 144.948C163.824 139.448 168.199 135.133 173.703 135.17ZM173.591 149.198C175.887 149.195 177.707 147.359 177.72 145.032C177.734 142.706 175.923 140.837 173.64 140.8C171.39 140.763 169.447 142.656 169.419 144.916C169.39 147.26 171.281 149.201 173.589 149.198L173.591 149.198Z" fill="#FDFDFD"/>
<path d="M62.9317 148.825C60.6231 148.856 58.6508 146.901 58.6699 144.6C58.6887 142.355 60.6291 140.432 62.8772 140.43C65.1254 140.428 67.0504 142.34 67.0653 144.604C67.0801 146.869 65.196 148.794 62.9317 148.825ZM173.638 140.799C175.921 140.836 177.731 142.715 177.718 145.032C177.706 147.348 175.885 149.195 173.589 149.198C171.292 149.2 169.389 147.259 169.417 144.915C169.445 142.657 171.386 140.762 173.638 140.799Z" fill="#8897A0"/>
<path d="M42.6161 123.783C42.3855 124.466 42.1437 125.144 41.8979 125.819L42.6957 123.79C43.1424 123.831 43.5892 123.879 44.036 123.88C56.1552 123.928 99.2559 124.944 104.408 124.968L104.408 124.959C104.855 127.913 105.995 130.929 107.434 133.451C109.968 137.893 113.372 141.428 117.22 144.477C117.413 144.631 117.604 144.858 117.895 144.745C118.152 145.054 118.471 145.055 118.793 145.039C118.89 145.034 118.987 145.028 119.082 145.028C119.79 145.031 120.499 145.033 121.208 145.036C121.251 145.112 121.31 145.179 121.38 145.233C121.45 145.287 121.53 145.326 121.616 145.349C121.763 145.381 121.913 145.396 122.063 145.392C126.753 145.408 131.442 145.422 136.129 145.433C137.262 145.437 138.393 145.432 139.525 145.428C139.927 145.429 140.183 145.239 140.207 144.9C140.207 144.891 140.207 144.88 140.207 144.87C140.868 144.872 141.215 144.598 141.346 143.913C141.459 143.329 141.576 142.746 141.69 142.16C142.075 141.864 142.064 141.372 142.183 140.949C142.959 138.192 143.732 135.433 144.5 132.673C144.755 131.758 145.009 130.843 145.263 129.929C145.273 129.775 145.229 129.575 145.461 129.609C145.237 129.137 145.509 128.725 145.618 128.305C147.58 120.716 149.657 113.159 151.217 105.451C151.45 104.299 151.764 103.168 151.301 101.934C149.989 98.4373 148.766 94.8998 147.503 91.3806C145.606 86.0918 143.71 80.8027 141.817 75.5134L141.812 75.5133L139.696 69.6997C139.606 69.5349 139.541 69.3571 139.504 69.1726L139.409 68.911C139.848 68.8321 139.533 67.8818 139.533 67.8818C139.519 67.8649 139.507 67.8472 139.493 67.8302C139.649 68.0235 139.817 68.2069 139.996 68.3793L141.993 68.5163C142.382 68.3454 142.744 68.1189 143.067 67.8439C143.032 67.8776 143.01 67.896 143.01 67.896C143.428 68.0646 143.814 67.8296 144.117 67.358L146.847 72.6504C147.72 74.7247 148.843 76.676 149.867 78.6704C151.837 82.5079 153.812 86.3427 155.794 90.1748C157.727 93.9366 159.655 97.7007 161.578 101.467C161.771 101.846 161.844 102.231 161.705 102.661C160.249 107.198 158.781 111.73 157.351 116.277C155.974 120.659 154.759 125.11 153.251 129.433C152.19 132.477 151.374 135.608 150.305 138.647C149.356 141.344 148.513 144.089 147.713 146.845C147.406 147.903 146.943 148.254 145.918 148.247L144.632 148.243C139.032 148.209 133.432 148.182 127.834 148.162L110.617 148.244C97.2932 148.266 85.283 148.295 83.6562 148.289C83.1129 148.287 82.5409 148.184 82.2076 148.838C82.0379 148.375 81.8892 147.898 81.6922 147.45C81.4218 146.844 81.4704 146.003 80.6827 145.759C79.8338 143.177 78.3329 141.598 76.3538 140.693C75.4051 140.274 74.4023 139.99 73.3747 139.849C72.699 139.747 72.025 139.641 71.351 139.541L71.2369 139.525C69.2526 139.234 67.2672 139.008 65.2516 139.155L54.9555 138.841L54.7144 138.833C51.0706 138.67 47.4294 138.715 43.7901 138.899C42.7718 138.949 41.7534 139.01 40.7351 139.082C38.9546 139.131 38.2682 138.62 37.9412 136.93C37.771 136.073 37.8545 135.186 38.1813 134.376C38.7609 132.909 39.298 131.42 39.8528 129.942C40.7367 127.891 41.6141 125.839 42.4538 123.767L42.6161 123.783Z" fill="url(#paint0_linear)"/>
<path d="M42.6169 123.785L42.6972 123.792L41.8995 125.821C42.1445 125.146 42.3863 124.465 42.6169 123.785Z" fill="#D82723"/>
<path d="M143.997 66.4723C144.094 66.1406 144.125 65.7932 144.09 65.4494C144.064 65.1902 144.015 64.9337 143.945 64.6829L143.953 64.6998C144.196 65.2628 144.212 65.898 143.997 66.4723Z" fill="#F7ADAD"/>
<path d="M83.6569 148.289C85.2837 148.295 97.2938 148.266 110.618 148.244C123.426 148.224 137.449 148.211 144.63 148.245L145.916 148.249C146.941 148.253 147.403 147.906 147.711 146.847C148.511 144.091 149.354 141.346 150.302 138.649C151.371 135.61 152.187 132.48 153.249 129.435C154.757 125.109 155.972 120.662 157.348 116.279C158.777 111.732 160.246 107.2 161.702 102.664C161.841 102.233 161.769 101.848 161.575 101.469C159.648 97.7056 157.72 93.9414 155.792 90.177C153.822 86.3395 151.846 82.5047 149.864 78.6726C148.838 76.6766 147.717 74.7268 146.845 72.6526L144.122 67.3586C144.527 66.7257 144.766 65.6647 144.695 64.5593L148.257 64.4749C148.277 64.4685 148.296 64.4614 148.317 64.4566L148.775 64.4308C149.635 64.5093 150.505 64.4648 151.369 64.4725C151.293 64.9449 151.591 65.2473 151.801 65.5808C158.751 76.6267 165.709 87.6668 172.674 98.7009C173.408 99.8617 173.747 101.058 173.768 102.436C173.816 105.691 172.791 108.678 171.881 111.695C171.807 111.95 171.734 112.206 171.661 112.462C171.444 113.223 171.227 113.985 171.01 114.747C170.741 115.693 170.47 116.64 170.19 117.582C169.996 118.234 169.796 118.884 169.591 119.532C167.574 125.875 165.404 132.146 162.668 138.166C162.544 138.438 162.425 138.647 162.678 138.884C161.399 140.096 160.912 141.865 160.08 143.385C158.586 146.113 157.019 148.776 154.979 151.065C154.865 151.191 154.766 151.329 154.683 151.476C154.591 151.641 154.529 151.821 154.502 152.008C154.147 152.062 153.902 152.313 153.652 152.568C151.237 155.009 148.406 156.006 145.109 155.979C133.436 155.878 121.761 155.918 110.088 155.887C101.575 155.863 93.0615 155.793 84.5486 155.8C83.6291 155.797 83.2836 155.529 83.2339 154.531C83.1429 152.687 82.661 150.917 82.2716 149.13C82.2502 149.034 82.2288 148.94 82.209 148.845C82.5416 148.185 83.1135 148.287 83.6569 148.289Z" fill="#0075FA"/>
<path d="M51.952 113.569C70.0674 113.624 88.183 113.682 106.299 113.742C106.075 118.194 104.478 124.679 104.412 124.955L104.412 124.964C99.2601 124.946 56.1594 123.928 44.0402 123.876C43.5933 123.874 43.1466 123.827 42.6999 123.785L42.6195 123.779L42.4588 123.764C42.864 122.772 43.2564 121.776 43.6352 120.773C43.7779 120.395 43.9166 120.015 44.0545 119.634C44.298 118.958 44.5414 118.279 44.7736 117.595L44.6691 117.595C44.8678 117.058 45.0642 116.52 45.2541 115.979C45.5422 115.158 45.9098 114.373 46.2564 113.58L46.5177 113.586C48.327 113.582 50.1395 113.563 51.952 113.569Z" fill="#FDC535"/>
<path d="M41.4995 103.17C41.636 102.138 41.9718 101.143 42.4884 100.239C42.6355 99.9814 42.7915 99.74 42.9522 99.5074C43.0332 99.4798 43.1137 99.456 43.1936 99.4359C46.4424 99.4469 49.6912 99.4578 52.9401 99.4688C53.2479 99.4698 53.5548 99.5175 53.8618 99.5434C54.3752 99.3635 54.9071 99.42 55.4303 99.4217C59.8937 99.4304 64.357 99.4519 68.8203 99.4557C69.1748 99.4569 69.573 99.6037 69.8716 99.2358C69.8718 99.1683 69.8721 99.1016 69.8723 99.034C71.9294 98.9727 75.271 98.8706 79.0588 98.75C83.5773 99.569 89.0166 99.2747 89.0166 99.2747C93.6231 99.2565 98.5233 98.9322 103.055 98.499C103.158 98.558 103.258 98.6219 103.356 98.6889C107.894 101.823 106.615 113.742 106.615 113.743L106.297 113.742C88.1819 113.681 70.0663 113.624 51.9505 113.569C50.138 113.563 48.3254 113.582 46.5128 113.59L46.2516 113.583C45.8771 113.574 45.5026 113.564 45.1264 113.558C41.9597 113.501 40.0248 111.427 39.9649 107.984C39.9374 106.377 39.8753 104.764 40.1138 103.162C40.1138 103.162 40.1138 103.157 40.1138 103.155L41.4931 103.167L41.4995 103.17Z" fill="#11293A"/>
<path d="M187.842 131.759C185.036 132 182.229 132.21 179.444 132.695C173.536 133.721 167.946 135.783 162.675 138.883C162.425 138.646 162.541 138.437 162.665 138.164C165.401 132.145 167.571 125.87 169.588 119.53C169.794 118.883 169.994 118.233 170.187 117.581C170.467 116.639 170.738 115.692 171.007 114.745C171.224 113.983 171.441 113.222 171.658 112.461C171.731 112.205 171.804 111.948 171.878 111.693C171.761 112.702 172.422 112.52 172.938 112.5C177.633 112.315 181.921 113.778 185.901 116.402C189.602 118.841 192.562 122.065 194.146 126.547C195.082 129.191 194.029 130.956 191.501 131.489C190.645 131.669 189.733 131.483 188.927 131.978C188.804 131.899 188.668 131.839 188.526 131.803C188.302 131.75 188.071 131.735 187.842 131.759Z" fill="url(#paint1_linear)"/>
<path d="M68.8221 99.4584C64.3587 99.4538 59.8954 99.4331 55.4321 99.4245C54.908 99.4227 54.3769 99.3663 53.8635 99.5462C53.5565 99.5202 53.2497 99.4726 52.9418 99.4716C49.693 99.4606 46.4442 99.4496 43.1953 99.4387L42.5652 99.4365C42.4825 99.4205 42.3987 99.4116 42.3145 99.41C39.9118 99.4018 37.5093 99.3937 35.1071 99.3856C35.0743 99.2638 35.0535 99.1391 35.0449 99.0133C35.0745 88.4833 35.1031 77.954 35.1306 67.4251C35.1328 66.7684 35.4199 66.7405 35.8772 66.742C47.0013 66.7871 58.1257 66.8214 69.2505 66.845C69.8718 66.8471 70.0286 67.0599 70.0224 67.7157C69.99 71.1156 69.9866 74.5164 69.9743 77.9171L69.9879 77.9171L69.9234 87.2753C69.9737 91.1955 69.913 95.1161 69.8773 99.0368C69.877 99.1043 69.8768 99.171 69.8766 99.2386C69.5715 99.6065 69.1766 99.4588 68.8221 99.4584ZM68.2683 75.8979L68.2474 75.8914C68.2486 75.5233 68.2499 75.1551 68.2511 74.787C68.2568 73.0884 68.2693 71.3898 68.2884 69.6912C68.2981 68.9533 68.131 68.6891 67.4149 68.6883C57.5579 68.6792 47.7008 68.6459 37.8435 68.5885C37.0646 68.5859 36.8297 68.8745 36.8293 69.7104C36.8203 78.5781 36.7904 87.4464 36.7395 96.3151C36.7369 97.1068 36.9208 97.3606 37.6699 97.3631C47.5296 97.3702 57.3867 97.4034 67.2414 97.463C68.0604 97.4657 68.207 97.1447 68.2008 96.3457C68.1897 93.211 68.2011 90.0811 68.2133 86.9496L68.216 86.1547L68.2352 86.17L68.2683 75.8979Z" fill="#FDC535"/>
<path d="M141.921 62.6497C141.371 62.5039 140.872 62.5247 140.421 62.6976C140.897 62.4907 141.434 62.4735 141.921 62.6497Z" fill="#FF9E9C"/>
<path d="M148.783 64.432L148.324 64.4578C148.303 64.4625 148.285 64.4697 148.265 64.4761L144.702 64.5605C144.598 62.9108 143.805 61.1663 141.822 60.6187C140.598 60.2802 137.709 60.6571 134.132 61.3788C134.132 61.3732 134.132 61.3684 134.132 61.3628C134.132 61.3571 134.132 61.3483 134.132 61.3419C134.123 61.1931 134.116 61.042 134.113 60.8885C134.081 59.7084 134.186 58.397 134.316 57.285C134.314 56.9464 134.329 56.6078 134.362 56.2708C134.413 55.7264 134.529 55.1901 134.708 54.6733C135.002 53.8288 135.502 53.0708 136.162 52.4678C137.372 53.1149 138.34 54.1245 139.392 55.013C139.776 55.3358 140.225 55.9241 140.763 55.1398C141.103 54.6442 141.293 54.333 140.682 53.8173C139.733 53.0184 138.597 52.4495 137.906 51.305C138.413 50.7826 139.062 50.776 139.686 50.7757C143.684 50.7715 147.682 50.8115 151.68 50.7856C152.525 50.7796 152.751 51.1212 152.74 51.9997C152.694 55.7355 152.666 59.4746 152.708 63.209C152.72 64.3505 152.37 64.7399 151.379 64.4737C150.509 64.4644 149.639 64.5104 148.783 64.432Z" fill="url(#paint2_linear)"/>
<path d="M29.9271 99.3638L35.105 99.3812C37.5072 99.3893 39.9096 99.3975 42.3123 99.4056C42.3965 99.4073 42.4804 99.4161 42.563 99.4321C42.6932 99.4543 42.8225 99.4853 42.9518 99.5058C42.7903 99.7383 42.6351 99.9798 42.488 100.237C41.9714 101.141 41.6356 102.137 41.4991 103.169L40.1198 103.157C37.2649 103.131 34.41 103.106 31.555 103.082C29.8326 103.07 29.8325 103.076 29.9271 99.3638ZM44.0517 119.638C43.9138 120.019 43.7751 120.399 43.6323 120.777C43.2536 121.78 42.858 122.776 42.456 123.769C41.6163 125.84 40.7388 127.893 39.855 129.943C38.6996 129.345 38.1984 128.281 38.1772 126.945C38.1509 124.962 38.1391 122.976 38.2029 120.997C38.2666 119.019 39.575 117.632 41.3604 117.577C42.4601 117.543 43.5611 117.584 44.6623 117.601L44.7667 117.601C44.5402 118.281 44.2984 118.963 44.0517 119.638Z" fill="#006BE6"/>
<path d="M140.676 53.8221C141.288 54.3378 141.098 54.649 140.758 55.1446C140.22 55.9288 139.77 55.3422 139.386 55.0178C138.334 54.13 137.366 53.1188 136.156 52.4725C135.618 51.6163 134.794 51.1112 134.045 50.5532C133.966 50.4948 133.891 50.4317 133.82 50.3644L133.827 48.2216C134.199 48.4326 134.469 48.7711 134.799 48.9973C135.861 49.7242 136.665 50.8619 137.9 51.3098C138.59 52.4486 139.727 53.0191 140.676 53.8221Z" fill="#374B58"/>
<path d="M68.2122 86.8549L68.2119 86.9497C68.2013 90.0844 68.1907 93.2135 68.1995 96.3458C68.2024 97.1456 68.059 97.4706 67.24 97.4631C57.3838 97.3992 47.5266 97.366 37.6686 97.3632C36.9195 97.3607 36.733 97.1101 36.7381 96.3152C36.7917 87.4476 36.8216 78.5793 36.8279 69.7105C36.8308 68.8746 37.0632 68.586 37.8421 68.5886C47.7015 68.6433 57.5587 68.6766 67.4135 68.6884C68.1313 68.6909 68.2967 68.9534 68.287 69.6913C68.2652 71.3899 68.2528 73.0885 68.2497 74.7871C68.2485 75.1552 68.2472 75.5234 68.246 75.8915L68.2669 75.898L68.2322 86.1669L68.213 86.1516L68.2122 86.8549Z" fill="#0075FA"/>
<path d="M138.987 64.0984C138.967 64.1361 138.948 64.1786 138.926 64.2131C138.95 64.1634 138.976 64.1168 139.002 64.0703L138.987 64.0984Z" fill="#890A00"/>
<path d="M138.799 66.5621C138.795 66.5516 138.791 66.542 138.788 66.5315C138.762 66.4639 138.74 66.3955 138.721 66.3287C138.721 66.3191 138.715 66.3102 138.713 66.3006C138.449 65.3247 138.825 64.4185 138.987 64.0951C138.997 64.0775 139.007 64.0606 139.016 64.0422C139.334 63.4599 139.825 62.9902 140.421 62.6974C140.872 62.5245 141.371 62.5037 141.921 62.6494C142.83 62.9619 143.581 63.839 143.944 64.6809C144.014 64.9317 144.063 65.1882 144.089 65.4474C144.124 65.7912 144.093 66.1386 143.996 66.4703C143.797 66.9921 143.482 67.4621 143.075 67.8449C142.752 68.1199 142.39 68.3464 142.001 68.5173L140.004 68.3803C139.825 68.2079 139.657 68.0245 139.501 67.8312C139.427 67.7388 139.359 67.6456 139.297 67.5516C139.106 67.235 138.939 66.9042 138.799 66.5621ZM133.815 52.0114C133.813 52.4133 133.512 52.7426 133.144 52.7414C132.777 52.7401 132.478 52.4096 132.48 52.0069L132.502 45.4546C132.503 45.0527 132.804 44.7233 133.171 44.7246C133.539 44.7258 133.838 45.0564 133.837 45.4591L133.815 52.0114Z" fill="url(#paint3_linear)"/>
<path d="M84.0987 46.9445C84.0822 46.9283 84.0648 46.9129 84.0467 46.8985C84.3105 44.9446 84.6676 41.7621 84.511 39.8156C86.1974 40.281 87.9538 40.7009 89.5139 40.9393C89.3489 42.2031 89.0125 45.4202 89.6277 47.2541C89.6277 47.2541 87.0073 49.9042 84.0987 46.9445ZM93.9138 40.7082C96.7038 38.7684 95.4044 32.2735 95.3516 31.0066C95.3032 29.8466 96.1036 28.2345 99.2216 27.4919C99.3959 28.4771 99.5228 29.6953 99.3522 30.6833C99.0046 32.7004 102.111 33.4488 101.531 34.679C100.952 35.9093 99.0332 35.1946 98.5322 36.2186C98.0312 37.2425 98.1933 41.3761 96.1258 41.8891C95.2892 42.0969 93.3937 41.6918 91.4311 41.137C92.5265 41.1809 93.4014 41.0633 93.9138 40.7082Z" fill="#F9C2AA"/>
<path d="M77.3954 37.5203L76.6726 35.2062C76.8087 35.6005 76.9497 35.9932 77.1003 36.3828C77.1206 36.4423 77.1541 36.4965 77.1984 36.5412C77.2426 36.5859 77.2965 36.62 77.3558 36.6408C78.4796 37.0819 79.6326 37.4451 80.7824 37.8139C82.3534 38.3191 83.9388 38.7757 85.5385 39.1835C87.0973 39.5834 88.6626 39.9552 90.2434 40.2555C91.1776 40.4331 92.1069 40.3977 92.9956 40.0076C93.9237 39.6 94.4784 38.8793 94.722 37.9092C94.9436 37.0257 94.8614 36.1357 94.7623 35.2464C94.6562 34.2944 94.4729 33.3501 94.4408 32.3887C94.416 31.6387 94.4651 30.8961 94.6797 30.1711C95.0049 29.0814 95.6748 28.2831 96.6861 27.7665C97.6337 27.2874 98.6451 26.979 99.6636 26.7083C100.662 26.4438 101.67 26.2261 102.689 26.0554C102.769 26.042 102.845 26.0334 102.923 26.0233C102.923 26.0233 103.587 26.7489 100.131 27.3079C99.8093 27.3599 99.5045 27.4207 99.2197 27.4889C96.0977 28.2315 95.2974 29.8436 95.3497 31.0036C95.4025 32.2689 96.702 38.7654 93.912 40.7052C93.402 41.0603 92.5246 41.1779 91.4333 41.1341C90.7897 41.1038 90.1483 41.0378 89.5121 40.9363C87.952 40.6979 86.1931 40.2821 84.5092 39.8126C80.7687 38.7792 77.3954 37.5203 77.3954 37.5203Z" fill="#403B38"/>
<path d="M99.6688 26.7105C98.6471 26.9811 97.6357 27.2856 96.6912 27.7687C95.68 28.2837 95.0077 29.082 94.6849 30.1732C94.4703 30.8959 94.4212 31.6408 94.446 32.3908C94.4781 33.3555 94.6614 34.2965 94.7675 35.2486C94.8666 36.1379 94.9488 37.0279 94.7272 37.9113C94.4827 38.8815 93.9289 39.6022 93.0008 40.0098C92.1153 40.3998 91.1828 40.4353 90.2486 40.2577C88.6678 39.9574 87.1025 39.5856 85.5437 39.1857C83.9456 38.7752 82.3602 38.3186 80.7876 37.8161C79.6378 37.4473 78.4864 37.0849 77.361 36.643C77.3017 36.6221 77.2478 36.5881 77.2036 36.5434C77.1593 36.4987 77.1258 36.4445 77.1055 36.3849C76.9549 35.9954 76.8139 35.6027 76.6778 35.2084C76.5983 34.967 76.5107 34.7256 76.4319 34.4785C76.218 33.8131 76.0531 33.1349 75.8721 32.4608C75.865 32.4125 75.8611 32.3643 75.8509 32.3168C75.5454 30.881 75.3743 29.4337 75.4227 27.9621C75.4512 26.7881 75.6506 25.6244 76.0147 24.5079C76.9265 21.7781 78.6641 19.6942 81.0918 18.1752C82.3532 17.3861 83.7286 16.8635 85.1694 16.5066C86.5084 16.1823 87.8813 16.0191 89.259 16.0205C90.6993 16.0162 92.1348 16.1865 93.5342 16.5276C96.5057 17.245 98.9117 18.8261 100.772 21.2421C101.497 22.18 102.075 23.2234 102.485 24.336C102.7 24.8797 102.849 25.4467 102.931 26.0254C102.851 26.0356 102.775 26.0442 102.697 26.0576C101.677 26.2299 100.667 26.4476 99.6688 26.7105ZM92.3224 36.1912C92.0025 36.1515 91.678 36.2076 91.3899 36.3522C91.1018 36.4969 90.863 36.7237 90.7038 37.0041C90.5445 37.2844 90.4719 37.6056 90.4952 37.9271C90.5184 38.2487 90.6364 38.5561 90.8343 38.8107C91.0322 39.0652 91.3011 39.2553 91.607 39.3571C91.9129 39.4589 92.2421 39.4677 92.553 39.3824C92.8639 39.2972 93.1426 39.1217 93.3538 38.8782C93.565 38.6346 93.6994 38.3339 93.7398 38.0141C93.7678 37.8012 93.7532 37.5848 93.697 37.3776C93.6408 37.1704 93.544 36.9764 93.4122 36.8068C93.2805 36.6372 93.1164 36.4955 92.9294 36.3898C92.7425 36.2842 92.5364 36.2166 92.3232 36.1912L92.3224 36.1912Z" fill="url(#paint4_linear)"/>
<path d="M91.9273 39.4319C91.6067 39.393 91.3048 39.2599 91.06 39.0493C90.8152 38.8387 90.6384 38.5602 90.552 38.2491C90.4656 37.9379 90.4735 37.6081 90.5748 37.3015C90.6761 36.9948 90.8661 36.7252 91.1207 36.5266C91.3754 36.3281 91.6833 36.2096 92.0054 36.1863C92.3275 36.1629 92.6492 36.2357 92.9299 36.3954C93.2106 36.5551 93.4375 36.7945 93.582 37.0833C93.7265 37.3721 93.7819 37.6973 93.7414 38.0177C93.6864 38.4449 93.465 38.8332 93.1253 39.098C92.7855 39.3629 92.355 39.4828 91.9273 39.4319ZM92.2067 37.1284C92.0273 37.1099 91.8479 37.1626 91.7069 37.2752C91.566 37.3877 91.4749 37.5511 91.4532 37.7301C91.4316 37.9091 91.4811 38.0895 91.5911 38.2324C91.701 38.3753 91.8627 38.4694 92.0414 38.4942C92.1319 38.5068 92.224 38.5013 92.3123 38.4779C92.4007 38.4545 92.4835 38.4138 92.5559 38.358C92.6284 38.3023 92.6889 38.2327 92.7342 38.1533C92.7794 38.0738 92.8084 37.9862 92.8193 37.8955C92.8303 37.8048 92.8231 37.7127 92.7982 37.6248C92.7732 37.5369 92.7309 37.4548 92.6739 37.3834C92.6169 37.312 92.5462 37.2527 92.466 37.2089C92.3858 37.1651 92.2976 37.1377 92.2067 37.1284Z" fill="url(#paint5_linear)"/>
<path d="M92.0372 38.4896C91.9026 38.4728 91.7759 38.4166 91.6731 38.3281C91.5703 38.2395 91.496 38.1226 91.4595 37.9919C91.423 37.8613 91.4259 37.7227 91.4679 37.5937C91.5099 37.4647 91.5892 37.3511 91.6956 37.267C91.8021 37.1828 91.931 37.1321 92.0662 37.121C92.2014 37.11 92.3369 37.1392 92.4556 37.205C92.5742 37.2707 92.6708 37.37 92.7332 37.4905C92.7956 37.611 92.8209 37.7472 92.806 37.8821C92.7964 37.9728 92.7687 38.0608 92.7246 38.1407C92.6805 38.2206 92.6209 38.2909 92.5493 38.3475C92.4777 38.4041 92.3955 38.4457 92.3076 38.4701C92.2196 38.4945 92.1277 38.5012 92.0372 38.4896Z" fill="#006BE6"/>
<path d="M75.8771 97.9852C75.3468 97.8382 74.8674 97.5476 74.4918 97.1454C75.147 97.6042 75.9977 97.9679 76.9573 98.2565C76.5862 98.1717 76.224 98.082 75.8771 97.9852ZM73.8633 95.7134C73.8382 95.7846 73.8176 95.8572 73.8015 95.931C73.7887 95.8883 73.7752 95.8505 73.7641 95.8031C73.7856 95.7871 73.8061 95.7697 73.8254 95.751L73.8633 95.7134ZM84.8067 91.18C84.9481 86.9084 95.2863 82.156 95.7476 81.9446C95.8674 81.9209 95.9889 81.8924 96.1063 81.8711C96.2425 81.8461 96.3648 81.7721 96.4502 81.6632C96.5578 81.6958 96.6654 81.7275 96.7714 81.7624C96.7714 81.7624 131.265 85.1406 131.382 89.1848C131.499 93.2289 127.544 128.046 127.544 128.046C127.327 128.172 127.102 128.282 126.871 128.377C125.824 128.816 123.721 129.403 121.708 128.199C121.584 128.124 121.461 128.047 121.34 127.956C121.34 127.956 120.051 121.716 119.309 114.621C119.102 102.596 122.822 94.5002 122.822 94.5002L120.534 96.1884C120.534 96.1884 112.621 97.5812 103.058 98.4949C98.526 98.9281 93.6258 99.2524 89.0193 99.2706C89.0033 99.2617 84.6618 95.5416 84.8067 91.18Z" fill="#193A55"/>
<path d="M95.748 81.9453C95.2852 82.1568 84.9486 86.9091 84.8072 91.1807C84.6623 95.5423 89.0038 99.2624 89.0198 99.2753C89.0198 99.2753 83.5805 99.5696 79.062 98.7506C78.3517 98.6252 77.6489 98.4602 76.957 98.2564C75.9934 97.9678 75.1466 97.6073 74.4915 97.1453C74.3033 97.0147 74.1256 96.8695 73.9601 96.7111C73.7694 96.5272 73.7261 96.2602 73.8019 95.9301C73.8181 95.8563 73.8387 95.7837 73.8638 95.7125C76.9671 92.6268 86.5056 83.8014 95.748 81.9453Z" fill="#11293A"/>
<path d="M133.117 65.3976C133.575 65.5318 134.679 65.8659 135.662 66.2421C134.706 65.9777 133.732 65.5878 133.117 65.3976ZM138.708 68.6203C138.831 68.7333 138.976 68.8207 139.133 68.8774C138.971 68.8317 138.824 68.7429 138.708 68.6203ZM137.854 67.5782C137.568 67.2944 137.258 67.0357 136.928 66.805C137.282 67.0035 137.596 67.2656 137.854 67.5782ZM102.52 72.3298C103.732 72.8162 104.706 73.1836 104.905 73.2574C104.109 72.979 103.306 72.6652 102.52 72.3298Z" fill="#F9C2AA"/>
<path d="M143.996 66.4732C144.21 65.9001 144.194 65.2666 143.952 64.7048L143.944 64.6879C143.582 63.8459 142.831 62.9689 141.922 62.6563C141.434 62.4802 140.897 62.4973 140.422 62.7043C139.826 62.9972 139.335 63.4668 139.016 64.0491C139.029 64.0242 139.044 64.0018 139.056 63.9761C139.056 63.9761 139.034 64.0122 139.002 64.074C138.977 64.1205 138.951 64.167 138.926 64.2168C137.561 66.4933 133.617 65.5331 132.987 65.3638L132.901 65.3394C131.556 64.9925 113.006 75.301 107.434 74.0106C106.591 73.8109 105.761 73.5666 104.944 73.2788C101.164 70.9431 102.739 65.064 102.739 65.064L102.733 65.064C102.798 64.9444 102.865 64.8233 102.925 64.7037C102.96 64.6338 102.979 64.5575 102.983 64.4797C104.96 66.0135 107.714 67.796 109.541 67.5272C110.966 67.3182 116.881 65.6229 123.312 63.9567C126.998 62.999 130.853 62.0483 134.129 61.3874C137.706 60.6656 140.595 60.2888 141.819 60.6273C143.801 61.1749 144.595 62.9193 144.7 64.569C144.769 65.6745 144.531 66.7387 144.127 67.3683C143.828 67.8399 143.439 68.0749 143.02 67.9063C143.02 67.9063 143.042 67.8879 143.078 67.8542C143.485 67.4694 143.799 66.9972 143.996 66.4732Z" fill="#F9C2AA"/>
<path d="M138.793 66.5519C138.793 66.5455 138.789 66.539 138.787 66.5326C138.787 66.543 138.794 66.5527 138.798 66.5632L138.793 66.5519ZM139.5 67.8323C139.514 67.8492 139.526 67.867 139.54 67.8839C139.45 67.7808 139.368 67.67 139.296 67.5527C139.359 67.6461 139.427 67.7394 139.5 67.8323Z" fill="#F9C2AA"/>
<path d="M104.947 73.2709C104.947 73.2709 104.929 73.2652 104.905 73.2555C104.706 73.1817 103.732 72.8183 102.519 72.3279C101.205 71.7962 99.617 71.1181 98.4423 70.504C99.8174 69.1238 101.629 67.0979 102.732 65.0528L102.738 65.0529C102.738 65.0529 101.164 70.9352 104.947 73.2709ZM139.133 68.8771C138.976 68.8204 138.832 68.733 138.708 68.6201C138.409 68.3554 138.185 67.9656 137.855 67.5779C137.597 67.2654 137.283 67.0033 136.929 66.8048C136.52 66.5893 136.097 66.4012 135.664 66.2419C134.68 65.8656 133.576 65.5315 133.118 65.3973L132.939 65.3453L132.988 65.3583C133.614 65.5276 137.561 66.4878 138.927 64.2113C138.948 64.1744 138.968 64.131 138.988 64.0965C138.826 64.4175 138.449 65.3261 138.714 66.302C138.714 66.3116 138.719 66.3205 138.722 66.3301C138.741 66.3969 138.763 66.4653 138.788 66.5329C138.788 66.5394 138.792 66.5458 138.795 66.5522L138.8 66.5635C138.94 66.9056 139.107 67.2364 139.298 67.553C139.369 67.6703 139.451 67.7812 139.542 67.8842C139.542 67.8842 139.86 68.8305 139.418 68.9134C139.321 68.9266 139.223 68.914 139.133 68.8771ZM132.9 65.3339L132.939 65.3453L132.9 65.3339ZM139.058 63.9706C139.046 63.9963 139.032 64.0187 139.019 64.0436C139.006 64.0685 139 64.0789 138.99 64.0965L139.005 64.0685C139.033 64.0067 139.058 63.9706 139.058 63.9706Z" fill="#F7AB8D"/>
<path d="M121.146 144.713C121.201 144.398 121.135 144.089 121.149 143.779C121.146 142.55 121.135 141.321 121.148 140.092C121.149 139.837 121.022 139.59 121.088 139.345C121.192 138.958 121.148 138.582 121.092 138.199C121.07 138.056 121.071 137.902 121.186 137.782C121.267 137.702 121.217 137.642 121.178 137.56C121.106 137.425 121.068 137.275 121.067 137.123C121.067 136.97 121.105 136.82 121.176 136.685C121.185 136.668 121.193 136.651 121.204 136.634L121.181 136.641C121.257 136.594 121.332 136.546 121.407 136.5C121.444 136.487 121.482 136.478 121.52 136.473L121.917 136.475C123.4 136.48 124.884 136.485 126.366 136.49L126.688 136.491C126.793 136.485 126.898 136.503 126.995 136.543L127.232 136.329C127.305 136.216 127.37 136.088 127.482 136.304C127.594 136.52 127.698 136.721 127.943 136.84C128.083 136.908 128.091 137.104 128.123 137.256L128.266 137.417L128.266 137.404L128.278 137.412L128.391 137.586C128.679 137.558 128.793 137.681 128.74 137.96L128.981 138.224C129.319 138.156 129.387 138.209 129.389 138.54L129.667 138.772C129.928 138.692 130.062 138.79 130.068 139.055L130.419 139.267C130.656 139.212 130.804 139.29 130.839 139.535L131.248 139.753C131.496 139.631 131.65 139.674 131.694 139.97C131.698 139.994 131.703 140.017 131.711 140.039C131.838 139.993 131.998 140.027 132.048 140.14C132.05 140.146 132.051 140.151 132.052 140.156L132.103 140.141C132.432 140.036 132.481 140.062 132.539 140.394C132.662 140.443 132.785 140.492 132.907 140.54C133.244 140.371 133.329 140.406 133.416 140.752L133.794 140.898C134.035 140.776 134.221 140.805 134.311 141.086C134.438 141.162 134.584 141.204 134.733 141.208C135.162 141.353 135.616 141.443 136.03 141.634C136.152 141.694 136.288 141.72 136.424 141.708C136.499 141.728 136.577 141.745 136.655 141.763C136.682 141.768 136.707 141.779 136.728 141.796L136.968 141.904C136.974 141.896 136.981 141.89 136.99 141.886C136.999 141.882 137.008 141.881 137.017 141.882C137.164 141.883 137.308 141.927 137.431 142.007C137.52 142.058 137.619 142.086 137.722 142.089L137.882 142.136L137.902 142.147L137.886 142.154C137.952 142.199 138.029 142.222 138.109 142.221L138.273 142.302L138.263 142.291L138.277 142.303L138.287 142.312L138.608 142.495C138.599 142.487 138.59 142.481 138.582 142.474C138.592 142.483 138.604 142.49 138.616 142.494C138.654 142.502 138.692 142.508 138.73 142.514C138.739 142.514 138.755 142.525 138.756 142.523C138.777 142.493 138.789 142.523 138.767 142.54L138.957 142.671L138.957 142.662L139.121 142.802L139.112 142.802C139.503 143.113 139.93 143.388 140.181 143.836C140.254 144.179 140.235 144.527 140.21 144.87C140.21 144.88 140.21 144.891 140.21 144.901C140.187 145.239 139.927 145.426 139.528 145.428C138.397 145.432 137.265 145.436 136.133 145.433C131.443 145.422 126.755 145.408 122.067 145.392C121.916 145.396 121.766 145.382 121.619 145.349C121.534 145.326 121.454 145.287 121.384 145.233C121.313 145.18 121.255 145.112 121.211 145.036C121.153 144.939 121.13 144.825 121.146 144.713Z" fill="#11293A"/>
<path d="M137.729 142.073L137.733 142.088L137.725 142.088L137.719 142.088L137.729 142.073ZM138.117 142.201L138.121 142.22L138.109 142.22L138.105 142.22L138.117 142.201Z" fill="#11293A"/>
<path d="M102.808 64.0197C102.897 64.1059 102.957 64.218 102.978 64.34C103 64.462 102.983 64.5878 102.929 64.6993C102.869 64.8197 102.802 64.94 102.736 65.0596C101.633 67.1007 99.8216 69.1265 98.4465 70.5108C97.8117 71.1476 97.2691 71.649 96.9369 71.9485C96.8376 72.0373 96.7105 72.0888 96.5773 72.0942C96.4442 72.0996 96.3132 72.0586 96.207 71.9782C96.1248 71.9162 96.0275 71.8775 95.9252 71.8659C95.823 71.8543 95.7195 71.8703 95.6255 71.9122C95.5315 71.9541 95.4504 72.0205 95.3908 72.1043C95.3311 72.1882 95.2949 72.2864 95.2861 72.389C94.983 75.9833 96.0613 79.6795 96.5499 81.1295C96.5755 81.2075 96.5841 81.2901 96.5753 81.3718C96.5664 81.4534 96.5403 81.5322 96.4986 81.6029C96.4569 81.6737 96.4006 81.7347 96.3335 81.782C96.2664 81.8293 96.1899 81.8617 96.1093 81.8771C95.9895 81.8984 95.868 81.927 95.7506 81.9507C86.5049 83.8027 76.9664 92.6281 73.8631 95.7154L73.8252 95.7531C73.8059 95.7717 73.7854 95.7891 73.7639 95.8051C73.6773 95.8695 73.5745 95.9082 73.467 95.9169C73.3595 95.9256 73.2517 95.9039 73.1559 95.8543C73.0601 95.8047 72.9802 95.7292 72.9253 95.6364C72.8703 95.5436 72.8426 95.4372 72.8452 95.3294C73.6011 60.448 82.0023 48.2678 82.4554 47.6352C82.4694 47.6156 82.4818 47.595 82.4926 47.5734C83.0476 46.5095 83.7204 46.7199 83.9587 46.8405C83.99 46.8564 84.0194 46.8759 84.0461 46.8987C84.0643 46.9131 84.0816 46.9285 84.0982 46.9447C87.0067 49.9043 89.6272 47.2551 89.6272 47.2551C89.8663 46.4079 92.1956 51.8935 92.1956 51.8935C92.9701 53.6805 95.3087 56.4188 97.6233 58.8693C99.8314 61.2061 102.018 63.2824 102.808 64.0197ZM84.9242 62.0424C88.4636 71.4473 95.5757 77.3075 95.3053 75.2786C95.0348 73.2498 95.4101 71.3726 95.4101 71.3726L84.9242 62.0424Z" fill="#0075FA"/>
<path d="M95.3013 75.2789C95.5718 77.3077 88.4596 71.4475 84.9202 62.0426L95.4061 71.3729C95.4061 71.3729 95.0309 73.2501 95.3013 75.2789Z" fill="#006BE6"/>
<path d="M120.534 96.1922L122.822 94.5039C122.822 94.5039 119.098 102.6 119.309 114.624C119.309 114.624 116.993 101.855 120.534 96.1922Z" fill="#11293A"/>
<defs>
<linearGradient id="paint0_linear" x1="161.895" y1="67.418" x2="87.3804" y2="183.345" gradientUnits="userSpaceOnUse">
<stop stop-color="#66ADFF"/>
<stop offset="1" stop-color="#0077FF"/>
</linearGradient>
<linearGradient id="paint1_linear" x1="194.539" y1="111.77" x2="167.693" y2="144.104" gradientUnits="userSpaceOnUse">
<stop stop-color="#66ADFF"/>
<stop offset="1" stop-color="#0077FF"/>
</linearGradient>
<linearGradient id="paint2_linear" x1="152.75" y1="50.7891" x2="139.613" y2="68.9827" gradientUnits="userSpaceOnUse">
<stop stop-color="#66ADFF"/>
<stop offset="1" stop-color="#0077FF"/>
</linearGradient>
<linearGradient id="paint3_linear" x1="144.174" y1="44.7617" x2="124.943" y2="54.447" gradientUnits="userSpaceOnUse">
<stop stop-color="#66ADFF"/>
<stop offset="1" stop-color="#0077FF"/>
</linearGradient>
<linearGradient id="paint4_linear" x1="102.965" y1="16.0664" x2="78.8175" y2="44.1053" gradientUnits="userSpaceOnUse">
<stop stop-color="#66ADFF"/>
<stop offset="1" stop-color="#0077FF"/>
</linearGradient>
<linearGradient id="paint5_linear" x1="92.1289" y1="36.182" x2="92.1179" y2="39.4433" gradientUnits="userSpaceOnUse">
<stop stop-color="white"/>
<stop offset="1" stop-color="#F0F7FF"/>
</linearGradient>
</defs>
</svg>
