<svg width="212" height="60" viewBox="0 0 212 60" fill="none" xmlns="http://www.w3.org/2000/svg">
<rect width="212" height="60" rx="10" fill="#F1F2F4"/>
<path d="M75.6751 21.4875C76.1476 20.9428 76.5079 20.3102 76.7353 19.6259C76.9627 18.9416 77.0527 18.2192 77.0001 17.5C75.5493 17.6171 74.2026 18.2994 73.2501 19.4C72.7939 19.9275 72.4483 20.5411 72.2336 21.2046C72.0189 21.868 71.9395 22.5678 72.0001 23.2625C72.7078 23.2684 73.4073 23.1114 74.0446 22.8036C74.6818 22.4958 75.2397 22.0455 75.6751 21.4875ZM78.8251 30.7875C78.8335 29.8297 79.0858 28.8898 79.5582 28.0565C80.0306 27.2232 80.7075 26.5241 81.5251 26.025C81.0091 25.2815 80.327 24.6685 79.5329 24.2346C78.7388 23.8006 77.8544 23.5577 76.9501 23.525C75.0001 23.325 73.2001 24.6625 72.1626 24.6625C71.1251 24.6625 69.6626 23.55 68.0376 23.575C66.9752 23.61 65.9401 23.9197 65.0331 24.474C64.1262 25.0282 63.3783 25.8081 62.8626 26.7375C60.6626 30.5625 62.3001 36.25 64.5001 39.3375C65.5001 40.85 66.7501 42.5625 68.4001 42.5C70.0501 42.4375 70.5876 41.475 72.5001 41.475C74.4126 41.475 75.0001 42.5 76.6251 42.4625C78.2501 42.425 79.4001 40.9125 80.4501 39.4C81.1939 38.3019 81.7749 37.102 82.1751 35.8375C81.1844 35.415 80.3392 34.7116 79.7439 33.8141C79.1485 32.9167 78.8291 31.8645 78.8251 30.7875Z" fill="#374B58"/>
<path d="M98.12 37H99.88V25.8H98.12V37ZM106.68 28.744C105.4 28.744 104.408 29.304 103.8 30.168V28.952H102.12V40.36H103.8V35.784C104.408 36.648 105.4 37.208 106.68 37.208C108.952 37.208 110.696 35.4 110.696 32.968C110.696 30.552 108.952 28.744 106.68 28.744ZM106.408 35.704C104.936 35.704 103.752 34.552 103.752 32.968C103.752 31.4 104.936 30.248 106.408 30.248C107.944 30.248 109.032 31.384 109.032 32.968C109.032 34.552 107.944 35.704 106.408 35.704ZM116.865 28.744C115.585 28.744 114.657 29.352 114.097 30.152V25.32H112.417V37H114.097V33C114.097 31.384 115.009 30.312 116.417 30.312C117.729 30.312 118.401 31.176 118.401 32.584V37H120.065V32.28C120.065 30.104 118.929 28.744 116.865 28.744ZM126.005 37.208C128.469 37.208 130.277 35.384 130.277 32.968C130.277 30.568 128.469 28.744 126.005 28.744C123.541 28.744 121.733 30.568 121.733 32.968C121.733 35.384 123.541 37.208 126.005 37.208ZM126.005 35.688C124.469 35.688 123.365 34.52 123.365 32.984C123.365 31.432 124.469 30.264 126.005 30.264C127.541 30.264 128.645 31.432 128.645 32.984C128.645 34.52 127.541 35.688 126.005 35.688ZM136.459 28.744C135.179 28.744 134.251 29.352 133.691 30.152V28.952H132.011V37H133.691V33C133.691 31.384 134.603 30.312 136.011 30.312C137.323 30.312 137.995 31.176 137.995 32.584V37H139.659V32.28C139.659 30.104 138.523 28.744 136.459 28.744ZM145.615 37.208C147.711 37.208 148.975 36.008 149.471 34.92L147.935 34.472C147.599 35.176 146.847 35.768 145.647 35.768C144.015 35.768 143.087 34.824 142.975 33.496H149.519C149.551 33.256 149.567 33.064 149.567 32.824C149.567 30.552 148.079 28.744 145.471 28.744C142.975 28.744 141.327 30.584 141.327 32.984C141.327 35.528 143.103 37.208 145.615 37.208ZM142.975 32.376C143.087 31.224 144.031 30.184 145.471 30.184C146.943 30.184 147.823 31.128 147.919 32.36L142.975 32.376Z" fill="#374B58"/>
</svg>
