<svg width="212" height="60" viewBox="0 0 212 60" fill="none" xmlns="http://www.w3.org/2000/svg">
<rect width="212" height="60" rx="10" fill="#F1F2F4"/>
<path d="M101.408 38H103.216L98.784 26.8H96.56L92.128 38H93.936L95.008 35.28H100.336L101.408 38ZM95.6 33.744L97.68 28.448L99.744 33.744H95.6ZM108.912 29.744C107.632 29.744 106.704 30.352 106.144 31.152V29.952H104.464V38H106.144V34C106.144 32.384 107.056 31.312 108.464 31.312C109.776 31.312 110.448 32.176 110.448 33.584V38H112.112V33.28C112.112 31.104 110.976 29.744 108.912 29.744ZM120.676 26.32V31.168C120.068 30.304 119.076 29.744 117.78 29.744C115.508 29.744 113.78 31.552 113.78 33.968C113.78 36.4 115.508 38.208 117.78 38.208C119.076 38.208 120.068 37.648 120.676 36.784V38H122.34V26.32H120.676ZM118.052 36.704C116.516 36.704 115.428 35.552 115.428 33.968C115.428 32.384 116.516 31.248 118.052 31.248C119.524 31.248 120.708 32.4 120.708 33.968C120.708 35.552 119.524 36.704 118.052 36.704ZM126.253 31.232V29.952H124.573V38H126.253V34.368C126.253 32.032 127.293 31.168 129.005 31.424V29.856C127.677 29.68 126.733 30.256 126.253 31.232ZM133.787 38.208C136.251 38.208 138.059 36.384 138.059 33.968C138.059 31.568 136.251 29.744 133.787 29.744C131.323 29.744 129.515 31.568 129.515 33.968C129.515 36.384 131.323 38.208 133.787 38.208ZM133.787 36.688C132.251 36.688 131.147 35.52 131.147 33.984C131.147 32.432 132.251 31.264 133.787 31.264C135.323 31.264 136.427 32.432 136.427 33.984C136.427 35.52 135.323 36.688 133.787 36.688ZM140.672 28.64C141.264 28.64 141.728 28.192 141.728 27.6C141.728 27.04 141.264 26.576 140.672 26.576C140.08 26.576 139.616 27.04 139.616 27.6C139.616 28.192 140.08 28.64 140.672 28.64ZM139.824 38H141.488V29.952H139.824V38ZM150.176 26.32V31.168C149.568 30.304 148.576 29.744 147.28 29.744C145.008 29.744 143.28 31.552 143.28 33.968C143.28 36.4 145.008 38.208 147.28 38.208C148.576 38.208 149.568 37.648 150.176 36.784V38H151.84V26.32H150.176ZM147.552 36.704C146.016 36.704 144.928 35.552 144.928 33.968C144.928 32.384 146.016 31.248 147.552 31.248C149.024 31.248 150.208 32.4 150.208 33.968C150.208 35.552 149.024 36.704 147.552 36.704Z" fill="#374B58"/>
<path d="M72.9753 21.0188L73.9351 19.2872C73.9475 19.265 73.9553 19.2406 73.9582 19.2153C73.961 19.1901 73.9589 19.1645 73.9519 19.1401C73.9449 19.1157 73.9332 19.0929 73.9174 19.073C73.9016 19.0531 73.882 19.0366 73.8598 19.0243C73.8149 18.9994 73.762 18.9934 73.7127 19.0075C73.6634 19.0216 73.6217 19.0548 73.5968 19.0996L72.6264 20.8504C71.7984 20.4874 70.9041 20.3 70 20.3C69.0959 20.3 68.2016 20.4874 67.3736 20.8504L66.4031 19.0996C66.3783 19.0548 66.3366 19.0216 66.2873 19.0075C66.238 18.9934 66.1851 18.9994 66.1402 19.0243C66.0953 19.0491 66.0622 19.0908 66.048 19.1401C66.0339 19.1894 66.0399 19.2423 66.0648 19.2872L67.0247 21.0188C66.111 21.4692 65.339 22.1625 64.7934 23.0227C64.2477 23.8828 63.9495 24.8767 63.9315 25.8952H76.0685C76.0504 24.8767 75.7523 23.8828 75.2066 23.0226C74.661 22.1625 73.889 21.4692 72.9753 21.0188ZM67.1991 23.6744C67.0989 23.6744 67.0009 23.6447 66.9175 23.589C66.8342 23.5333 66.7692 23.4541 66.7309 23.3615C66.6925 23.2689 66.6825 23.167 66.702 23.0687C66.7216 22.9704 66.7698 22.8801 66.8407 22.8092C66.9116 22.7384 67.0019 22.6901 67.1002 22.6705C67.1985 22.651 67.3004 22.661 67.393 22.6994C67.4856 22.7377 67.5648 22.8027 67.6205 22.886C67.6762 22.9694 67.7059 23.0674 67.7059 23.1676C67.7057 23.302 67.6523 23.4308 67.5573 23.5258C67.4623 23.6208 67.3335 23.6742 67.1991 23.6744ZM72.8009 23.6744C72.7006 23.6744 72.6026 23.6447 72.5193 23.589C72.436 23.5333 72.371 23.4541 72.3326 23.3615C72.2943 23.2689 72.2843 23.167 72.3038 23.0687C72.3234 22.9704 72.3716 22.8801 72.4425 22.8092C72.5134 22.7384 72.6037 22.6901 72.702 22.6705C72.8003 22.651 72.9022 22.661 72.9948 22.6994C73.0874 22.7377 73.1666 22.8027 73.2223 22.886C73.2779 22.9694 73.3077 23.0674 73.3077 23.1676C73.3075 23.302 73.2541 23.4308 73.1591 23.5258C73.0641 23.6208 72.9352 23.6742 72.8009 23.6744ZM63.9314 35.1714C63.9314 35.5605 64.086 35.9337 64.3611 36.2088C64.6363 36.4839 65.0094 36.6385 65.3985 36.6385H66.3721V39.6395C66.3717 39.8184 66.4065 39.9957 66.4746 40.1612C66.5428 40.3267 66.6429 40.4771 66.7693 40.6038C66.8957 40.7306 67.0458 40.8311 67.2111 40.8997C67.3764 40.9683 67.5536 41.0036 67.7326 41.0036C67.9116 41.0036 68.0888 40.9683 68.2541 40.8997C68.4194 40.8311 68.5695 40.7306 68.6959 40.6038C68.8223 40.4771 68.9224 40.3267 68.9906 40.1612C69.0587 39.9957 69.0935 39.8184 69.093 39.6395V36.6385H70.9069V39.6395C70.9064 39.8184 70.9413 39.9957 71.0094 40.1612C71.0776 40.3267 71.1777 40.4771 71.3041 40.6038C71.4304 40.7306 71.5806 40.8311 71.7459 40.8997C71.9112 40.9683 72.0884 41.0036 72.2674 41.0036C72.4463 41.0036 72.6235 40.9683 72.7888 40.8997C72.9541 40.8311 73.1043 40.7306 73.2307 40.6038C73.357 40.4771 73.4572 40.3267 73.5253 40.1612C73.5935 39.9957 73.6283 39.8184 73.6278 39.6395V36.6385H74.6015C74.9906 36.6385 75.3637 36.4839 75.6389 36.2088C75.914 35.9337 76.0686 35.5605 76.0686 35.1714V26.3753H63.9314V35.1714ZM62.0641 26.1418C61.7034 26.1423 61.3576 26.2857 61.1026 26.5408C60.8476 26.7958 60.7041 27.1416 60.7037 27.5023V33.1708C60.7032 33.3497 60.738 33.527 60.8062 33.6925C60.8743 33.858 60.9745 34.0084 61.1008 34.1351C61.2272 34.2619 61.3774 34.3624 61.5427 34.431C61.708 34.4996 61.8852 34.5349 62.0641 34.5349C62.2431 34.5349 62.4203 34.4996 62.5856 34.431C62.7509 34.3624 62.901 34.2619 63.0274 34.1351C63.1538 34.0084 63.2539 33.858 63.3221 33.6925C63.3902 33.527 63.4251 33.3497 63.4246 33.1708V27.5023C63.4242 27.1416 63.2807 26.7958 63.0257 26.5408C62.7706 26.2857 62.4248 26.1422 62.0641 26.1418ZM77.9358 26.1418C77.5751 26.1422 77.2293 26.2857 76.9743 26.5408C76.7192 26.7958 76.5758 27.1416 76.5754 27.5023V33.1708C76.5749 33.3497 76.6097 33.527 76.6779 33.6925C76.746 33.858 76.8462 34.0084 76.9725 34.1351C77.0989 34.2619 77.249 34.3624 77.4143 34.431C77.5796 34.4996 77.7569 34.5349 77.9358 34.5349C78.1148 34.5349 78.292 34.4996 78.4573 34.431C78.6226 34.3624 78.7727 34.2619 78.8991 34.1351C79.0255 34.0084 79.1256 33.858 79.1938 33.6925C79.2619 33.527 79.2968 33.3497 79.2963 33.1708V27.5023C79.2959 27.1416 79.1524 26.7958 78.8974 26.5408C78.6423 26.2857 78.2965 26.1423 77.9358 26.1418Z" fill="#374B58"/>
</svg>
