<svg width="41" height="41" viewBox="0 0 41 41" fill="none" xmlns="http://www.w3.org/2000/svg">
<g clip-path="url(#clip0)">
<path d="M23.9914 16.2549C23.4159 16.2549 22.9683 16.7025 22.9683 17.278C22.9683 17.8535 23.4159 18.3011 23.9914 18.3011C24.5669 18.3011 25.0145 17.8535 25.0145 17.278C25.0145 16.7025 24.5669 16.2549 23.9914 16.2549ZM23.9914 16.2549C23.4159 16.2549 22.9683 16.7025 22.9683 17.278C22.9683 17.8535 23.4159 18.3011 23.9914 18.3011C24.5669 18.3011 25.0145 17.8535 25.0145 17.278C25.0145 16.7025 24.5669 16.2549 23.9914 16.2549ZM20.5385 5.89626C15.2313 5.89626 10.9471 10.1804 10.9471 15.4876C10.9471 20.7948 15.2313 25.079 20.5385 25.079C25.8457 25.079 30.1298 20.7309 30.1298 15.4876C30.1298 10.2443 25.8457 5.89626 20.5385 5.89626ZM14.9755 13.7612C14.9755 12.6102 15.9346 11.6511 17.0856 11.6511C18.2366 11.6511 19.1957 12.6102 19.1957 13.7612C19.1957 14.9121 18.2366 15.8713 17.0856 15.8713C15.9346 15.8713 14.9755 14.9121 14.9755 13.7612ZM18.7481 18.8126C18.6202 18.9405 18.4923 19.0044 18.3005 19.0044C18.1726 19.0044 18.1087 18.9405 17.9808 18.8765C17.725 18.6847 17.6611 18.365 17.8529 18.1092L22.2649 12.1626C22.4568 11.9068 22.7765 11.8429 23.0322 12.0347C23.288 12.2265 23.288 12.5463 23.1601 12.802L18.7481 18.8126ZM23.9914 19.3881C22.8404 19.3881 21.8813 18.429 21.8813 17.278C21.8813 16.127 22.8404 15.1679 23.9914 15.1679C25.1423 15.1679 26.1015 16.127 26.1015 17.278C26.0375 18.429 25.1423 19.3881 23.9914 19.3881ZM23.9914 16.2549C23.4159 16.2549 22.9683 16.7025 22.9683 17.278C22.9683 17.8535 23.4159 18.3011 23.9914 18.3011C24.5669 18.3011 25.0145 17.8535 25.0145 17.278C25.0145 16.7025 24.5669 16.2549 23.9914 16.2549ZM17.0856 12.7381C16.5101 12.7381 16.0625 13.1857 16.0625 13.7612C16.0625 14.3366 16.5101 14.7842 17.0856 14.7842C17.6611 14.7842 18.1087 14.3366 18.1087 13.7612C18.1087 13.2496 17.6611 12.7381 17.0856 12.7381ZM23.9914 16.2549C23.4159 16.2549 22.9683 16.7025 22.9683 17.278C22.9683 17.8535 23.4159 18.3011 23.9914 18.3011C24.5669 18.3011 25.0145 17.8535 25.0145 17.278C25.0145 16.7025 24.5669 16.2549 23.9914 16.2549ZM23.9914 16.2549C23.4159 16.2549 22.9683 16.7025 22.9683 17.278C22.9683 17.8535 23.4159 18.3011 23.9914 18.3011C24.5669 18.3011 25.0145 17.8535 25.0145 17.278C25.0145 16.7025 24.5669 16.2549 23.9914 16.2549ZM23.9914 16.2549C23.4159 16.2549 22.9683 16.7025 22.9683 17.278C22.9683 17.8535 23.4159 18.3011 23.9914 18.3011C24.5669 18.3011 25.0145 17.8535 25.0145 17.278C25.0145 16.7025 24.5669 16.2549 23.9914 16.2549ZM23.9914 16.2549C23.4159 16.2549 22.9683 16.7025 22.9683 17.278C22.9683 17.8535 23.4159 18.3011 23.9914 18.3011C24.5669 18.3011 25.0145 17.8535 25.0145 17.278C25.0145 16.7025 24.5669 16.2549 23.9914 16.2549ZM20.5385 5.89626C15.2313 5.89626 10.9471 10.1804 10.9471 15.4876C10.9471 20.7948 15.2313 25.079 20.5385 25.079C25.8457 25.079 30.1298 20.7309 30.1298 15.4876C30.1298 10.2443 25.8457 5.89626 20.5385 5.89626ZM14.9755 13.7612C14.9755 12.6102 15.9346 11.6511 17.0856 11.6511C18.2366 11.6511 19.1957 12.6102 19.1957 13.7612C19.1957 14.9121 18.2366 15.8713 17.0856 15.8713C15.9346 15.8713 14.9755 14.9121 14.9755 13.7612ZM18.7481 18.8126C18.6202 18.9405 18.4923 19.0044 18.3005 19.0044C18.1726 19.0044 18.1087 18.9405 17.9808 18.8765C17.725 18.6847 17.6611 18.365 17.8529 18.1092L22.2649 12.1626C22.4568 11.9068 22.7765 11.8429 23.0322 12.0347C23.288 12.2265 23.288 12.5463 23.1601 12.802L18.7481 18.8126ZM23.9914 19.3881C22.8404 19.3881 21.8813 18.429 21.8813 17.278C21.8813 16.127 22.8404 15.1679 23.9914 15.1679C25.1423 15.1679 26.1015 16.127 26.1015 17.278C26.0375 18.429 25.1423 19.3881 23.9914 19.3881ZM23.9914 16.2549C23.4159 16.2549 22.9683 16.7025 22.9683 17.278C22.9683 17.8535 23.4159 18.3011 23.9914 18.3011C24.5669 18.3011 25.0145 17.8535 25.0145 17.278C25.0145 16.7025 24.5669 16.2549 23.9914 16.2549ZM17.0856 12.7381C16.5101 12.7381 16.0625 13.1857 16.0625 13.7612C16.0625 14.3366 16.5101 14.7842 17.0856 14.7842C17.6611 14.7842 18.1087 14.3366 18.1087 13.7612C18.1087 13.2496 17.6611 12.7381 17.0856 12.7381ZM23.9914 16.2549C23.4159 16.2549 22.9683 16.7025 22.9683 17.278C22.9683 17.8535 23.4159 18.3011 23.9914 18.3011C24.5669 18.3011 25.0145 17.8535 25.0145 17.278C25.0145 16.7025 24.5669 16.2549 23.9914 16.2549ZM23.9914 16.2549C23.4159 16.2549 22.9683 16.7025 22.9683 17.278C22.9683 17.8535 23.4159 18.3011 23.9914 18.3011C24.5669 18.3011 25.0145 17.8535 25.0145 17.278C25.0145 16.7025 24.5669 16.2549 23.9914 16.2549ZM23.9914 16.2549C23.4159 16.2549 22.9683 16.7025 22.9683 17.278C22.9683 17.8535 23.4159 18.3011 23.9914 18.3011C24.5669 18.3011 25.0145 17.8535 25.0145 17.278C25.0145 16.7025 24.5669 16.2549 23.9914 16.2549ZM23.9914 16.2549C23.4159 16.2549 22.9683 16.7025 22.9683 17.278C22.9683 17.8535 23.4159 18.3011 23.9914 18.3011C24.5669 18.3011 25.0145 17.8535 25.0145 17.278C25.0145 16.7025 24.5669 16.2549 23.9914 16.2549ZM20.5385 5.89626C15.2313 5.89626 10.9471 10.1804 10.9471 15.4876C10.9471 20.7948 15.2313 25.079 20.5385 25.079C25.8457 25.079 30.1298 20.7309 30.1298 15.4876C30.1298 10.2443 25.8457 5.89626 20.5385 5.89626ZM14.9755 13.7612C14.9755 12.6102 15.9346 11.6511 17.0856 11.6511C18.2366 11.6511 19.1957 12.6102 19.1957 13.7612C19.1957 14.9121 18.2366 15.8713 17.0856 15.8713C15.9346 15.8713 14.9755 14.9121 14.9755 13.7612ZM18.7481 18.8126C18.6202 18.9405 18.4923 19.0044 18.3005 19.0044C18.1726 19.0044 18.1087 18.9405 17.9808 18.8765C17.725 18.6847 17.6611 18.365 17.8529 18.1092L22.2649 12.1626C22.4568 11.9068 22.7765 11.8429 23.0322 12.0347C23.288 12.2265 23.288 12.5463 23.1601 12.802L18.7481 18.8126ZM23.9914 19.3881C22.8404 19.3881 21.8813 18.429 21.8813 17.278C21.8813 16.127 22.8404 15.1679 23.9914 15.1679C25.1423 15.1679 26.1015 16.127 26.1015 17.278C26.0375 18.429 25.1423 19.3881 23.9914 19.3881ZM23.9914 16.2549C23.4159 16.2549 22.9683 16.7025 22.9683 17.278C22.9683 17.8535 23.4159 18.3011 23.9914 18.3011C24.5669 18.3011 25.0145 17.8535 25.0145 17.278C25.0145 16.7025 24.5669 16.2549 23.9914 16.2549ZM17.0856 12.7381C16.5101 12.7381 16.0625 13.1857 16.0625 13.7612C16.0625 14.3366 16.5101 14.7842 17.0856 14.7842C17.6611 14.7842 18.1087 14.3366 18.1087 13.7612C18.1087 13.2496 17.6611 12.7381 17.0856 12.7381ZM20.5385 5.89626C15.2313 5.89626 10.9471 10.1804 10.9471 15.4876C10.9471 20.7948 15.2313 25.079 20.5385 25.079C25.8457 25.079 30.1298 20.7309 30.1298 15.4876C30.1298 10.2443 25.8457 5.89626 20.5385 5.89626ZM14.9755 13.7612C14.9755 12.6102 15.9346 11.6511 17.0856 11.6511C18.2366 11.6511 19.1957 12.6102 19.1957 13.7612C19.1957 14.9121 18.2366 15.8713 17.0856 15.8713C15.9346 15.8713 14.9755 14.9121 14.9755 13.7612ZM18.7481 18.8126C18.6202 18.9405 18.4923 19.0044 18.3005 19.0044C18.1726 19.0044 18.1087 18.9405 17.9808 18.8765C17.725 18.6847 17.6611 18.365 17.8529 18.1092L22.2649 12.1626C22.4568 11.9068 22.7765 11.8429 23.0322 12.0347C23.288 12.2265 23.288 12.5463 23.1601 12.802L18.7481 18.8126ZM23.9914 19.3881C22.8404 19.3881 21.8813 18.429 21.8813 17.278C21.8813 16.127 22.8404 15.1679 23.9914 15.1679C25.1423 15.1679 26.1015 16.127 26.1015 17.278C26.0375 18.429 25.1423 19.3881 23.9914 19.3881ZM23.9914 16.2549C23.4159 16.2549 22.9683 16.7025 22.9683 17.278C22.9683 17.8535 23.4159 18.3011 23.9914 18.3011C24.5669 18.3011 25.0145 17.8535 25.0145 17.278C25.0145 16.7025 24.5669 16.2549 23.9914 16.2549ZM17.0856 12.7381C16.5101 12.7381 16.0625 13.1857 16.0625 13.7612C16.0625 14.3366 16.5101 14.7842 17.0856 14.7842C17.6611 14.7842 18.1087 14.3366 18.1087 13.7612C18.1087 13.2496 17.6611 12.7381 17.0856 12.7381ZM35.6928 16.4467C36.1404 15.9991 36.1404 15.2318 35.6928 14.7842L34.1582 13.2496C34.0303 13.1217 33.9664 12.866 34.0303 12.6741L34.8616 10.628C34.9895 10.3083 34.9895 9.98857 34.8616 9.7328C34.7337 9.41309 34.5419 9.22126 34.2221 9.09338L32.176 8.26212C31.9842 8.19818 31.8563 8.00636 31.8563 7.75059V5.44866C31.8563 4.80924 31.3447 4.23376 30.7053 4.23376H28.4673C28.2755 4.23376 28.0837 4.10587 27.9558 3.91405L27.1246 1.86789C26.8688 1.29241 26.1654 0.972701 25.5899 1.22847L23.5438 2.05972C23.352 2.18761 23.0962 2.12366 22.9683 1.99578L21.3697 0.397221C20.9221 -0.0503756 20.1548 -0.0503756 19.7072 0.397221L18.1087 1.99578C17.9808 2.12366 17.725 2.18761 17.5332 2.12366L15.487 1.29241C14.9116 1.03664 14.2082 1.35636 13.9524 1.93184L13.1212 3.91405C13.0572 4.10587 12.8654 4.23376 12.6096 4.23376H10.3717C9.73224 4.23376 9.2207 4.7453 9.2207 5.44866V7.68664C9.2207 7.87847 9.09282 8.0703 8.90099 8.19818L6.85484 9.02943C6.53513 9.15732 6.3433 9.34914 6.21541 9.66886C6.08753 9.98857 6.08753 10.3083 6.21541 10.564L7.04666 12.6102C7.11061 12.802 7.11061 13.0578 6.91878 13.1857L5.38416 14.7203C5.19234 14.9761 5.06445 15.2318 5.06445 15.5515C5.06445 15.8713 5.19234 16.191 5.38416 16.3828L6.91878 17.9174C7.04666 18.0453 7.11061 18.3011 7.04666 18.4929L6.21541 20.5391C5.95965 21.1145 6.27936 21.8179 6.85484 22.0737L8.90099 22.9049C9.09282 22.9689 9.2207 23.1607 9.2207 23.4165V25.6544C9.2207 26.2939 9.73224 26.8693 10.3717 26.8693H12.6096C12.8015 26.8693 12.9933 26.9972 13.1212 27.1891L13.9524 29.2352C14.2082 29.8107 14.9116 30.1304 15.487 29.8746L15.6789 29.8107L17.5332 29.0434C17.5971 29.0434 17.6611 28.9794 17.725 28.9794C17.8529 28.9794 17.9808 29.0434 18.1087 29.1073L19.6433 30.6419C19.7712 30.7698 19.8991 30.8338 20.027 30.8977L20.9861 30.8338C21.114 30.7698 21.2419 30.7059 21.3058 30.578L22.9044 29.0434C23.0322 28.9155 23.288 28.8515 23.4798 28.9155L25.4621 29.7467C25.6539 29.8107 25.7818 29.8746 25.9736 29.8746C26.4212 29.8746 26.8688 29.6189 27.0606 29.1713L27.8919 27.1251C27.9558 26.9333 28.1476 26.8054 28.4034 26.8054H30.6414C31.2808 26.8054 31.7923 26.2939 31.7923 25.5905V23.3525C31.7923 23.1607 31.9202 22.9689 32.1121 22.841L34.1582 22.0097C34.4779 21.8818 34.6697 21.6261 34.7976 21.3703C34.9255 21.0506 34.9255 20.7309 34.7976 20.4751L33.9664 18.429C33.9664 18.365 33.9664 18.1092 34.1582 17.9814L35.6928 16.4467ZM20.5385 26.2299C14.6558 26.2299 9.86013 21.4342 9.86013 15.5515C9.86013 9.66886 14.6558 4.87318 20.5385 4.87318C26.4212 4.87318 31.2169 9.66886 31.2169 15.5515C31.2169 21.4342 26.4212 26.2299 20.5385 26.2299ZM20.5385 5.89626C15.2313 5.89626 10.9471 10.1804 10.9471 15.4876C10.9471 20.7948 15.2313 25.079 20.5385 25.079C25.8457 25.079 30.1298 20.7309 30.1298 15.4876C30.1298 10.2443 25.8457 5.89626 20.5385 5.89626ZM14.9755 13.7612C14.9755 12.6102 15.9346 11.6511 17.0856 11.6511C18.2366 11.6511 19.1957 12.6102 19.1957 13.7612C19.1957 14.9121 18.2366 15.8713 17.0856 15.8713C15.9346 15.8713 14.9755 14.9121 14.9755 13.7612ZM18.7481 18.8126C18.6202 18.9405 18.4923 19.0044 18.3005 19.0044C18.1726 19.0044 18.1087 18.9405 17.9808 18.8765C17.725 18.6847 17.6611 18.365 17.8529 18.1092L22.2649 12.1626C22.4568 11.9068 22.7765 11.8429 23.0322 12.0347C23.288 12.2265 23.288 12.5463 23.1601 12.802L18.7481 18.8126ZM23.9914 19.3881C22.8404 19.3881 21.8813 18.429 21.8813 17.278C21.8813 16.127 22.8404 15.1679 23.9914 15.1679C25.1423 15.1679 26.1015 16.127 26.1015 17.278C26.0375 18.429 25.1423 19.3881 23.9914 19.3881ZM23.9914 16.2549C23.4159 16.2549 22.9683 16.7025 22.9683 17.278C22.9683 17.8535 23.4159 18.3011 23.9914 18.3011C24.5669 18.3011 25.0145 17.8535 25.0145 17.278C25.0145 16.7025 24.5669 16.2549 23.9914 16.2549ZM17.0856 12.7381C16.5101 12.7381 16.0625 13.1857 16.0625 13.7612C16.0625 14.3366 16.5101 14.7842 17.0856 14.7842C17.6611 14.7842 18.1087 14.3366 18.1087 13.7612C18.1087 13.2496 17.6611 12.7381 17.0856 12.7381ZM23.9914 16.2549C23.4159 16.2549 22.9683 16.7025 22.9683 17.278C22.9683 17.8535 23.4159 18.3011 23.9914 18.3011C24.5669 18.3011 25.0145 17.8535 25.0145 17.278C25.0145 16.7025 24.5669 16.2549 23.9914 16.2549ZM23.9914 16.2549C23.4159 16.2549 22.9683 16.7025 22.9683 17.278C22.9683 17.8535 23.4159 18.3011 23.9914 18.3011C24.5669 18.3011 25.0145 17.8535 25.0145 17.278C25.0145 16.7025 24.5669 16.2549 23.9914 16.2549ZM20.5385 5.89626C15.2313 5.89626 10.9471 10.1804 10.9471 15.4876C10.9471 20.7948 15.2313 25.079 20.5385 25.079C25.8457 25.079 30.1298 20.7309 30.1298 15.4876C30.1298 10.2443 25.8457 5.89626 20.5385 5.89626ZM14.9755 13.7612C14.9755 12.6102 15.9346 11.6511 17.0856 11.6511C18.2366 11.6511 19.1957 12.6102 19.1957 13.7612C19.1957 14.9121 18.2366 15.8713 17.0856 15.8713C15.9346 15.8713 14.9755 14.9121 14.9755 13.7612ZM18.7481 18.8126C18.6202 18.9405 18.4923 19.0044 18.3005 19.0044C18.1726 19.0044 18.1087 18.9405 17.9808 18.8765C17.725 18.6847 17.6611 18.365 17.8529 18.1092L22.2649 12.1626C22.4568 11.9068 22.7765 11.8429 23.0322 12.0347C23.288 12.2265 23.288 12.5463 23.1601 12.802L18.7481 18.8126ZM23.9914 19.3881C22.8404 19.3881 21.8813 18.429 21.8813 17.278C21.8813 16.127 22.8404 15.1679 23.9914 15.1679C25.1423 15.1679 26.1015 16.127 26.1015 17.278C26.0375 18.429 25.1423 19.3881 23.9914 19.3881ZM23.9914 16.2549C23.4159 16.2549 22.9683 16.7025 22.9683 17.278C22.9683 17.8535 23.4159 18.3011 23.9914 18.3011C24.5669 18.3011 25.0145 17.8535 25.0145 17.278C25.0145 16.7025 24.5669 16.2549 23.9914 16.2549ZM17.0856 12.7381C16.5101 12.7381 16.0625 13.1857 16.0625 13.7612C16.0625 14.3366 16.5101 14.7842 17.0856 14.7842C17.6611 14.7842 18.1087 14.3366 18.1087 13.7612C18.1087 13.2496 17.6611 12.7381 17.0856 12.7381ZM23.9914 16.2549C23.4159 16.2549 22.9683 16.7025 22.9683 17.278C22.9683 17.8535 23.4159 18.3011 23.9914 18.3011C24.5669 18.3011 25.0145 17.8535 25.0145 17.278C25.0145 16.7025 24.5669 16.2549 23.9914 16.2549ZM23.9914 16.2549C23.4159 16.2549 22.9683 16.7025 22.9683 17.278C22.9683 17.8535 23.4159 18.3011 23.9914 18.3011C24.5669 18.3011 25.0145 17.8535 25.0145 17.278C25.0145 16.7025 24.5669 16.2549 23.9914 16.2549ZM20.5385 5.89626C15.2313 5.89626 10.9471 10.1804 10.9471 15.4876C10.9471 20.7948 15.2313 25.079 20.5385 25.079C25.8457 25.079 30.1298 20.7309 30.1298 15.4876C30.1298 10.2443 25.8457 5.89626 20.5385 5.89626ZM14.9755 13.7612C14.9755 12.6102 15.9346 11.6511 17.0856 11.6511C18.2366 11.6511 19.1957 12.6102 19.1957 13.7612C19.1957 14.9121 18.2366 15.8713 17.0856 15.8713C15.9346 15.8713 14.9755 14.9121 14.9755 13.7612ZM18.7481 18.8126C18.6202 18.9405 18.4923 19.0044 18.3005 19.0044C18.1726 19.0044 18.1087 18.9405 17.9808 18.8765C17.725 18.6847 17.6611 18.365 17.8529 18.1092L22.2649 12.1626C22.4568 11.9068 22.7765 11.8429 23.0322 12.0347C23.288 12.2265 23.288 12.5463 23.1601 12.802L18.7481 18.8126ZM23.9914 19.3881C22.8404 19.3881 21.8813 18.429 21.8813 17.278C21.8813 16.127 22.8404 15.1679 23.9914 15.1679C25.1423 15.1679 26.1015 16.127 26.1015 17.278C26.0375 18.429 25.1423 19.3881 23.9914 19.3881ZM23.9914 16.2549C23.4159 16.2549 22.9683 16.7025 22.9683 17.278C22.9683 17.8535 23.4159 18.3011 23.9914 18.3011C24.5669 18.3011 25.0145 17.8535 25.0145 17.278C25.0145 16.7025 24.5669 16.2549 23.9914 16.2549ZM17.0856 12.7381C16.5101 12.7381 16.0625 13.1857 16.0625 13.7612C16.0625 14.3366 16.5101 14.7842 17.0856 14.7842C17.6611 14.7842 18.1087 14.3366 18.1087 13.7612C18.1087 13.2496 17.6611 12.7381 17.0856 12.7381ZM23.9914 16.2549C23.4159 16.2549 22.9683 16.7025 22.9683 17.278C22.9683 17.8535 23.4159 18.3011 23.9914 18.3011C24.5669 18.3011 25.0145 17.8535 25.0145 17.278C25.0145 16.7025 24.5669 16.2549 23.9914 16.2549ZM23.9914 16.2549C23.4159 16.2549 22.9683 16.7025 22.9683 17.278C22.9683 17.8535 23.4159 18.3011 23.9914 18.3011C24.5669 18.3011 25.0145 17.8535 25.0145 17.278C25.0145 16.7025 24.5669 16.2549 23.9914 16.2549ZM18.9399 31.4732L17.6611 30.1304L15.9346 30.8338C15.6789 30.9616 15.4231 30.9616 15.1034 30.9616C14.2082 30.9616 13.377 30.4501 13.0572 29.5549L12.3539 27.8285H11.7784L7.04666 36.8443C6.72695 37.4198 7.30243 38.0592 7.87791 37.8674L12.0342 36.5246C12.1621 36.4607 12.3539 36.4607 12.4818 36.5886C12.6096 36.6525 12.7375 36.7804 12.7375 36.9722L13.4409 40.3612C13.5688 41.0006 14.464 41.1285 14.7837 40.553L19.4515 31.729C19.1957 31.729 19.0678 31.6011 18.9399 31.4732ZM29.4904 27.9564H28.7871L28.1476 29.5549C27.8279 30.3862 27.0606 31.0256 26.1654 31.0256C25.8457 31.0256 25.526 30.9616 25.2063 30.8338H25.1423L23.5438 30.1304L22.201 31.4732C22.1371 31.5371 22.0092 31.6011 21.9452 31.665L26.677 40.553C26.9967 41.1285 27.8919 41.0006 28.0197 40.3612L28.7231 36.9722C28.7231 36.8443 28.851 36.7165 28.9789 36.5886C29.1068 36.5246 29.2986 36.5246 29.4265 36.5246L33.5827 37.8674C34.2221 38.0592 34.7337 37.4198 34.414 36.8443L29.4904 27.9564Z" fill="#0075FA"/>
</g>
<defs>
<clipPath id="clip0">
<rect width="40.9231" height="40.9231" fill="white" transform="translate(0.0761719 0.0771484)"/>
</clipPath>
</defs>
</svg>
