<svg width="98" height="30" viewBox="0 0 98 30" fill="none" xmlns="http://www.w3.org/2000/svg">
<path d="M13.0315 15.5225V28.5424H10.1348C7.44691 28.5424 4.86908 27.4739 2.96843 25.5719C1.06779 23.6699 0 21.0903 0 18.4005V15.5225H13.0315Z" fill="#0075FA"/>
<path d="M27.4873 15.5225V18.4211C27.4873 21.1109 26.4196 23.6905 24.5189 25.5925C22.6183 27.4944 20.0404 28.5629 17.3525 28.5629H14.4764V15.5225H27.4873Z" fill="#0075FA"/>
<path d="M14.4764 14.0903V11.1916C14.4764 8.50186 15.5442 5.92224 17.4448 4.02028C19.3455 2.11832 21.9233 1.0498 24.6112 1.0498H27.5079V14.0697L14.4764 14.0903Z" fill="#0075FA"/>
<path d="M39.9582 8.23317C39.702 7.38923 39.702 6.55282 39.9582 5.72395C40.1843 5.66366 40.4179 5.61845 40.659 5.58831C40.9001 5.5431 41.1413 5.52049 41.3824 5.52049C41.6235 5.52049 41.8647 5.5431 42.1058 5.58831C42.3469 5.61845 42.573 5.66366 42.7839 5.72395C43.0401 6.55282 43.0401 7.38923 42.7839 8.23317C42.3318 8.35373 41.8571 8.41402 41.3598 8.41402C40.8775 8.41402 40.4104 8.35373 39.9582 8.23317ZM38.6019 26.2951C38.0895 25.7977 37.8785 25.1422 37.9689 24.3284C38.7375 23.8461 39.2575 23.3413 39.5287 22.8138C39.8 22.2863 39.9356 21.5554 39.9356 20.6211V10.1999C40.4028 10.3054 40.8851 10.3581 41.3824 10.3581C41.8948 10.3581 42.377 10.3054 42.8292 10.1999V20.4628C42.8292 22.211 42.4825 23.5523 41.7893 24.4866C41.0961 25.421 40.0336 26.0238 38.6019 26.2951ZM54.4615 18.7448C55.0643 19.3024 55.3582 20.0484 55.3431 20.9827C54.1074 21.8116 52.6606 22.2261 51.0029 22.2261C49.7972 22.2261 48.7724 21.9925 47.9285 21.5253C47.0846 21.0581 46.4441 20.3724 46.007 19.4682C45.57 18.5639 45.3515 17.4638 45.3515 16.1677C45.3515 14.2086 45.8337 12.694 46.7982 11.624C47.7778 10.554 49.1492 10.019 50.9124 10.019C52.3893 10.019 53.5422 10.3958 54.3711 11.1493C55.2 11.8877 55.6219 12.9351 55.637 14.2915C55.6521 15.2258 55.5315 16.1451 55.2753 17.0494C52.9243 17.5316 50.611 17.5844 48.3354 17.2076C48.5012 18.0063 48.8403 18.6016 49.3527 18.9935C49.865 19.3702 50.5809 19.5586 51.5002 19.5586C52.6305 19.5586 53.6176 19.2873 54.4615 18.7448ZM50.7994 12.6187C50.0459 12.6187 49.4657 12.807 49.0588 13.1838C48.6519 13.5606 48.3957 14.1483 48.2902 14.947C49.963 15.1882 51.47 15.1957 52.8113 14.9696C52.8415 14.7587 52.8565 14.5175 52.8565 14.2463C52.8565 13.1612 52.1708 12.6187 50.7994 12.6187ZM66.537 18.7448C67.1398 19.3024 67.4337 20.0484 67.4186 20.9827C66.1828 21.8116 64.7361 22.2261 63.0783 22.2261C61.8727 22.2261 60.8479 21.9925 60.004 21.5253C59.16 21.0581 58.5195 20.3724 58.0825 19.4682C57.6454 18.5639 57.4269 17.4638 57.4269 16.1677C57.4269 14.2086 57.9092 12.694 58.8737 11.624C59.8533 10.554 61.2247 10.019 62.9879 10.019C64.4648 10.019 65.6177 10.3958 66.4466 11.1493C67.2754 11.8877 67.6974 12.9351 67.7125 14.2915C67.7276 15.2258 67.607 16.1451 67.3508 17.0494C64.9998 17.5316 62.6865 17.5844 60.4109 17.2076C60.5766 18.0063 60.9157 18.6016 61.4281 18.9935C61.9405 19.3702 62.6564 19.5586 63.5757 19.5586C64.7059 19.5586 65.693 19.2873 66.537 18.7448ZM62.8749 12.6187C62.1214 12.6187 61.5411 12.807 61.1342 13.1838C60.7273 13.5606 60.4711 14.1483 60.3657 14.947C62.0385 15.1882 63.5455 15.1957 64.8868 14.9696C64.9169 14.7587 64.932 14.5175 64.932 14.2463C64.932 13.1612 64.2463 12.6187 62.8749 12.6187ZM75.8067 19.1517C75.9574 19.2873 76.0855 19.4606 76.191 19.6716C76.3116 19.8675 76.3945 20.0936 76.4397 20.3498C76.4849 20.5909 76.5 20.8396 76.4849 21.0958C75.6108 21.8493 74.5408 22.2261 73.2749 22.2261C72.5967 22.2261 72.024 22.0904 71.5569 21.8192C71.0897 21.5479 70.7355 21.1561 70.4944 20.6437C70.2683 20.1162 70.1553 19.4757 70.1553 18.7222V9.52169C70.9088 8.36127 71.8733 7.53993 73.0488 7.05768V10.2451H76.0328C76.0629 11.1192 75.8896 11.9254 75.5128 12.6639H73.0488V18.0892C73.0488 18.6318 73.1392 19.0311 73.3201 19.2873C73.5009 19.5435 73.7948 19.6716 74.2017 19.6716C74.684 19.6716 75.219 19.4983 75.8067 19.1517ZM82.5711 22.2261C81.0038 22.2261 79.7906 21.8945 78.9316 21.2314C78.0876 20.5532 77.6657 19.5963 77.6657 18.3605C77.6657 17.185 78.065 16.2808 78.8638 15.6478C79.6776 14.9998 80.8229 14.6758 82.2998 14.6758C83.415 14.6758 84.2891 14.8491 84.9221 15.1957V14.5401C84.9522 13.2592 84.146 12.6187 82.5033 12.6187C81.4484 12.6187 80.4838 12.8523 79.6098 13.3194C79.0069 12.7317 78.7281 11.9857 78.7734 11.0815C79.9187 10.3732 81.2298 10.019 82.7067 10.019C84.3645 10.019 85.6078 10.4335 86.4367 11.2623C87.2655 12.0912 87.68 13.4325 87.68 15.2861V21.0958C86.2031 21.8493 84.5001 22.2261 82.5711 22.2261ZM82.7745 19.8073C83.6637 19.8073 84.372 19.7018 84.8995 19.4908V17.3658C84.3268 17.0494 83.6034 16.8911 82.7293 16.8911C81.9457 16.8911 81.373 17.0117 81.0113 17.2528C80.6496 17.4939 80.4688 17.8707 80.4688 18.3831C80.4688 19.3325 81.2374 19.8073 82.7745 19.8073ZM90.3752 21.9096V11.5788C92.048 10.5239 93.653 9.99641 95.1902 9.99641C96.1095 9.99641 96.8931 10.1546 97.5411 10.4711C97.6014 11.5261 97.3452 12.4454 96.7726 13.229C96.3506 12.9577 95.8909 12.8221 95.3936 12.8221C94.6702 12.8221 93.9619 13.0632 93.2687 13.5455V21.9096C92.3042 22.1658 91.3397 22.1658 90.3752 21.9096Z" fill="#0075FA"/>
</svg>
