<svg width="72" height="72" viewBox="0 0 72 72" fill="none" xmlns="http://www.w3.org/2000/svg">
<g filter="url(#filter0_d)">
<circle cx="36" cy="31" r="22" fill="white"/>
<path d="M46.4592 25.0124C45.6896 25.3537 44.8624 25.5844 43.9944 25.6881C44.8803 25.157 45.5609 24.316 45.8813 23.3138C45.052 23.8056 44.1336 24.1628 43.156 24.3552C42.3732 23.5211 41.2579 23 40.0235 23C37.6534 23 35.7317 24.9215 35.7317 27.2915C35.7317 27.6279 35.7697 27.9555 35.8429 28.2696C32.2761 28.0906 29.1138 26.382 26.9971 23.7855C26.6277 24.4194 26.416 25.1566 26.416 25.9431C26.416 27.432 27.1736 28.7456 28.3252 29.5153C27.6218 29.4929 26.96 29.2999 26.3814 28.9785C26.381 28.9964 26.381 29.0143 26.381 29.0324C26.381 31.1118 27.8603 32.8463 29.8236 33.2406C29.4635 33.3387 29.0843 33.3912 28.6929 33.3912C28.4164 33.3912 28.1476 33.3642 27.8855 33.3142C28.4316 35.0191 30.0165 36.26 31.8945 36.2945C30.4258 37.4457 28.5753 38.1318 26.5645 38.1318C26.2181 38.1318 25.8765 38.1114 25.5408 38.0717C27.44 39.2894 29.6959 40 32.1195 40C40.0134 40 44.3302 33.4605 44.3302 27.7892C44.3302 27.6031 44.326 27.418 44.3177 27.2339C45.1563 26.6289 45.8839 25.873 46.4592 25.0124Z" fill="#374B58"/>
</g>
<defs>
<filter id="filter0_d" x="0" y="0" width="72" height="72" filterUnits="userSpaceOnUse" color-interpolation-filters="sRGB">
<feFlood flood-opacity="0" result="BackgroundImageFix"/>
<feColorMatrix in="SourceAlpha" type="matrix" values="0 0 0 0 0 0 0 0 0 0 0 0 0 0 0 0 0 0 127 0" result="hardAlpha"/>
<feOffset dy="5"/>
<feGaussianBlur stdDeviation="7"/>
<feColorMatrix type="matrix" values="0 0 0 0 0 0 0 0 0 0 0 0 0 0 0 0 0 0 0.07 0"/>
<feBlend mode="normal" in2="BackgroundImageFix" result="effect1_dropShadow"/>
<feBlend mode="normal" in="SourceGraphic" in2="effect1_dropShadow" result="shape"/>
</filter>
</defs>
</svg>
