<svg width="164" height="202" viewBox="0 0 164 202" fill="none" xmlns="http://www.w3.org/2000/svg">
<path d="M130.039 55.6099C143.138 67.3718 160.781 68.8421 163.32 76.4606C165.993 84.0791 153.563 97.9796 148.217 110.677C143.004 123.375 144.742 134.869 143.673 153.582C142.47 172.294 138.46 198.357 127.901 201.431C117.208 204.639 99.8325 184.858 87.6696 170.69C75.6404 156.388 68.8238 147.567 52.3838 140.483C35.9438 133.399 9.88039 128.053 2.39552 116.291C-4.9557 104.663 6.27161 86.485 13.7565 65.2333C21.2414 43.9816 24.8501 19.5221 38.617 7.89381C52.2501 -3.60082 76.0413 -2.13058 92.214 9.63137C108.387 21.527 116.941 43.8479 130.039 55.6099Z" fill="#EBF4FF"/>
<path d="M128.082 59.169C128.103 59.7078 128 60.2444 127.779 60.7368H117.795C117.601 60.2362 117.499 59.7053 117.492 59.169C117.492 45.8474 106.656 35.0481 93.2883 35.0481C79.9208 35.0481 69.0843 45.8474 69.0843 59.169C69.1759 59.6876 69.1759 60.2182 69.0843 60.7368H58.8581C58.7665 60.2182 58.7665 59.6876 58.8581 59.169C59.6351 40.6305 74.942 26 93.5606 26C112.179 26 127.486 40.6305 128.263 59.169H128.082Z" fill="#FDC535"/>
<path d="M155.45 118.502L150.108 75.4653C146.854 60.1087 137.644 53.7891 128.864 53.7891H58.315C49.412 53.7891 39.895 59.6663 37.132 75.4653L31.7288 118.502C27.308 150.1 43.579 157.999 64.8234 157.999H122.417C143.6 157.999 159.38 146.561 155.45 118.502Z" fill="url(#paint0_linear)"/>
<path d="M73.3575 89.5572C69.9665 89.5572 67.2175 86.7278 67.2175 83.2376C67.2175 79.7474 69.9665 76.918 73.3575 76.918C76.7486 76.918 79.4975 79.7474 79.4975 83.2376C79.4975 86.7278 76.7486 89.5572 73.3575 89.5572Z" fill="white"/>
<path d="M113.575 89.5572C110.184 89.5572 107.435 86.7278 107.435 83.2376C107.435 79.7474 110.184 76.918 113.575 76.918C116.966 76.918 119.715 79.7474 119.715 83.2376C119.715 86.7278 116.966 89.5572 113.575 89.5572Z" fill="white"/>
<path fill-rule="evenodd" clip-rule="evenodd" d="M110.545 108.217L112.004 109.676C113.16 110.811 113.788 112.351 113.788 113.972C113.809 115.593 113.18 117.135 112.045 118.288C112.031 118.303 112.018 118.316 112.004 118.329C111.998 118.335 111.991 118.342 111.984 118.349L110.545 119.787C109.977 120.355 109.653 121.125 109.653 121.937V124.022C109.653 127.386 106.917 130.124 103.552 130.124H101.464C100.653 130.124 99.8827 130.446 99.3151 131.013L97.8556 132.472C96.6597 133.67 95.0989 134.255 93.538 134.255C91.9772 134.255 90.4164 133.67 89.2204 132.494L87.7407 131.013C87.1731 130.446 86.4028 130.124 85.592 130.124H83.5041C80.1392 130.124 77.4027 127.386 77.4027 124.022V121.937C77.4027 121.125 77.0784 120.355 76.5108 119.767L75.0514 118.328C72.6797 115.96 72.6594 112.087 75.0311 109.698L76.5108 108.217C77.0784 107.65 77.4027 106.88 77.4027 106.049V103.982C77.4027 100.618 80.1392 97.8849 83.5041 97.8849H85.592C86.4028 97.8849 87.1731 97.5586 87.7407 96.9913L89.2002 95.5323C91.5718 93.1433 95.4435 93.1433 97.8354 95.5141L99.3151 96.9913C99.8827 97.5586 100.653 97.8849 101.464 97.8849H103.552C106.917 97.8849 109.653 100.618 109.653 103.982V106.071C109.653 106.88 109.977 107.65 110.545 108.217ZM88.3084 120.982C88.7949 120.982 89.2409 120.8 89.5652 120.455L99.9842 110.042C100.673 109.353 100.673 108.216 99.9842 107.527C99.295 106.841 98.1802 106.841 97.491 107.527L87.0719 117.943C86.3827 118.632 86.3827 119.766 87.0719 120.455C87.3963 120.8 87.8422 120.982 88.3084 120.982ZM96.9637 119.201C96.9637 120.194 97.7543 120.984 98.7475 120.984C99.7205 120.984 100.511 120.194 100.511 119.201C100.511 118.23 99.7205 117.438 98.7475 117.438C97.7543 117.438 96.9637 118.23 96.9637 119.201ZM88.3287 107.023C89.3017 107.023 90.0923 107.814 90.0923 108.786C90.0923 109.781 89.3017 110.569 88.3287 110.569C87.3557 110.569 86.5449 109.781 86.5449 108.786C86.5449 107.814 87.3557 107.023 88.3287 107.023Z" fill="#FDC535"/>
<defs>
<linearGradient id="paint0_linear" x1="31" y1="53.7891" x2="132.885" y2="180.228" gradientUnits="userSpaceOnUse">
<stop stop-color="#66ADFF"/>
<stop offset="1" stop-color="#0077FF"/>
</linearGradient>
</defs>
</svg>
