<svg width="72" height="72" viewBox="0 0 72 72" fill="none" xmlns="http://www.w3.org/2000/svg">
<g filter="url(#filter0_d)">
<circle cx="36" cy="31" r="22" fill="white"/>
<path d="M45.593 26.203C45.363 25.345 44.688 24.668 43.831 24.437C42.265 24.007 36 24 36 24C36 24 29.736 23.993 28.169 24.404C27.329 24.633 26.635 25.325 26.403 26.182C25.99 27.748 25.986 30.996 25.986 30.996C25.986 30.996 25.982 34.26 26.392 35.81C26.622 36.667 27.297 37.344 28.155 37.575C29.737 38.005 35.985 38.012 35.985 38.012C35.985 38.012 42.25 38.019 43.816 37.609C44.672 37.379 45.35 36.703 45.583 35.846C45.997 34.281 46 31.034 46 31.034C46 31.034 46.02 27.769 45.593 26.203ZM33.996 34.005L34.001 28.005L39.208 31.01L33.996 34.005Z" fill="#374B58"/>
</g>
<defs>
<filter id="filter0_d" x="0" y="0" width="72" height="72" filterUnits="userSpaceOnUse" color-interpolation-filters="sRGB">
<feFlood flood-opacity="0" result="BackgroundImageFix"/>
<feColorMatrix in="SourceAlpha" type="matrix" values="0 0 0 0 0 0 0 0 0 0 0 0 0 0 0 0 0 0 127 0" result="hardAlpha"/>
<feOffset dy="5"/>
<feGaussianBlur stdDeviation="7"/>
<feColorMatrix type="matrix" values="0 0 0 0 0 0 0 0 0 0 0 0 0 0 0 0 0 0 0.07 0"/>
<feBlend mode="normal" in2="BackgroundImageFix" result="effect1_dropShadow"/>
<feBlend mode="normal" in="SourceGraphic" in2="effect1_dropShadow" result="shape"/>
</filter>
</defs>
</svg>
